<svg width="40" height="41" viewBox="0 0 40 41" fill="none" xmlns="http://www.w3.org/2000/svg">
<path fill-rule="evenodd" clip-rule="evenodd" d="M20 32.3964C26.5749 32.3964 31.9048 27.0665 31.9048 20.4917C31.9048 13.9169 26.5749 8.58691 20 8.58691C13.4252 8.58691 8.09527 13.9169 8.09527 20.4917C8.09527 27.0665 13.4252 32.3964 20 32.3964ZM25.7143 20.4917L17.1429 15.2536V25.7298L25.7143 20.4917Z" fill="white"/>
<path opacity="0.3" fill-rule="evenodd" clip-rule="evenodd" d="M20 36.2059C28.6788 36.2059 35.7143 29.1704 35.7143 20.4916C35.7143 11.8129 28.6788 4.77734 20 4.77734C11.3213 4.77734 4.28574 11.8129 4.28574 20.4916C4.28574 29.1704 11.3213 36.2059 20 36.2059ZM25.7143 20.4916L17.1429 15.2535V25.7297L25.7143 20.4916Z" fill="white"/>
</svg>
