<svg width="121" height="18" viewBox="0 0 121 18" fill="none" xmlns="http://www.w3.org/2000/svg">
<g clip-path="url(#clip0_376_671)">
<path d="M36.0973 16.0001C34.0019 16.0001 32.2713 15.314 30.9053 13.9419C29.5394 12.5697 28.8563 10.8774 28.8563 8.86496C28.8563 6.83943 29.5394 5.14712 30.9053 3.78806C32.2713 2.41592 34.0019 1.72986 36.0973 1.72986C37.3571 1.72986 38.5176 2.02389 39.5785 2.61194C40.6527 3.18693 41.4881 3.97101 42.085 4.96417L39.7178 6.31672C39.3729 5.70252 38.8822 5.22553 38.2457 4.88577C37.6091 4.53293 36.893 4.35652 36.0973 4.35652C34.7446 4.35652 33.6505 4.77469 32.815 5.61104C31.9927 6.44739 31.5817 7.53203 31.5817 8.86496C31.5817 10.1848 31.9927 11.2629 32.815 12.0993C33.6505 12.9356 34.7446 13.3538 36.0973 13.3538C36.893 13.3538 37.6091 13.1839 38.2457 12.8442C38.8955 12.4913 39.3862 12.0144 39.7178 11.4132L42.085 12.7658C41.4881 13.7589 40.6593 14.5495 39.5983 15.1376C38.5375 15.7126 37.3704 16.0001 36.0973 16.0001Z" fill="white"/>
<path d="M51.2695 5.9247H53.8356V15.7256H51.2695V14.5691C50.5002 15.5231 49.4195 16.0001 48.0269 16.0001C46.7008 16.0001 45.5602 15.5035 44.6054 14.5104C43.6638 13.5041 43.193 12.2757 43.193 10.8251C43.193 9.37464 43.6638 8.15278 44.6054 7.15961C45.5602 6.15338 46.7008 5.65027 48.0269 5.65027C49.4195 5.65027 50.5002 6.12725 51.2695 7.08121V5.9247ZM46.535 12.8246C47.0522 13.3342 47.7087 13.589 48.5043 13.589C49.3 13.589 49.9565 13.3342 50.4738 12.8246C51.0042 12.3019 51.2695 11.6354 51.2695 10.8251C51.2695 10.015 51.0042 9.35503 50.4738 8.84538C49.9565 8.32267 49.3 8.06131 48.5043 8.06131C47.7087 8.06131 47.0522 8.32267 46.535 8.84538C46.0178 9.35503 45.7592 10.015 45.7592 10.8251C45.7592 11.6354 46.0178 12.3019 46.535 12.8246Z" fill="white"/>
<path d="M61.5134 4.16049C60.1077 4.05594 59.4048 4.61133 59.4048 5.82666V5.92467H61.5134V8.3553H59.4048V15.7256H56.8387V8.3553H55.4064V5.92467H56.8387V5.82666C56.8387 4.44145 57.2299 3.38948 58.0124 2.67074C58.7948 1.952 59.9618 1.63837 61.5134 1.72985V4.16049Z" fill="white"/>
<path d="M64.4888 11.8641C64.8336 13.0925 65.7686 13.7067 67.2936 13.7067C68.2751 13.7067 69.0177 13.38 69.5216 12.7266L71.5905 13.9027C70.6092 15.301 69.1636 16.0001 67.2539 16.0001C65.6094 16.0001 64.2899 15.51 63.2953 14.5299C62.3006 13.5498 61.8033 12.315 61.8033 10.8251C61.8033 9.3485 62.294 8.12011 63.2753 7.14001C64.2568 6.14685 65.5166 5.65027 67.055 5.65027C68.5137 5.65027 69.7139 6.14685 70.6555 7.14001C71.6104 8.13318 72.0878 9.36157 72.0878 10.8251C72.0878 11.1519 72.0547 11.4982 71.9883 11.8641H64.4888ZM64.4491 9.90391H69.5216C69.3757 9.23742 69.0708 8.74084 68.6066 8.41414C68.1557 8.08744 67.6385 7.92409 67.055 7.92409C66.3654 7.92409 65.7951 8.10051 65.3442 8.45334C64.8933 8.79312 64.5949 9.27663 64.4491 9.90391Z" fill="white"/>
<path d="M78.3645 16.0001C76.9853 16.0001 75.8249 15.6995 74.8833 15.0984C73.9418 14.4842 73.2786 13.6544 72.894 12.6089L75.2414 11.2564C75.7851 12.6546 76.8527 13.3538 78.4441 13.3538C79.2133 13.3538 79.7769 13.2166 80.135 12.9422C80.493 12.6678 80.672 12.3214 80.672 11.9033C80.672 11.4198 80.4533 11.0473 80.0156 10.786C79.5779 10.5115 78.7956 10.2175 77.6682 9.90389C77.045 9.72092 76.5145 9.53796 76.0769 9.35501C75.6525 9.17206 75.2215 8.93031 74.7839 8.62974C74.3595 8.31612 74.0345 7.92407 73.8091 7.45363C73.5837 6.98318 73.4709 6.43432 73.4709 5.80706C73.4709 4.5656 73.9152 3.57897 74.8038 2.84716C75.7056 2.1023 76.7863 1.72986 78.0462 1.72986C79.1735 1.72986 80.1615 2.00429 81.0102 2.55313C81.8722 3.08892 82.5419 3.84033 83.0194 4.80736L80.7119 6.1207C80.1549 4.94457 79.2663 4.35652 78.0462 4.35652C77.4759 4.35652 77.0251 4.48719 76.6936 4.74855C76.3753 4.99685 76.2161 5.32354 76.2161 5.72865C76.2161 6.1599 76.3952 6.51273 76.7532 6.78716C77.1245 7.04851 77.8274 7.33601 78.8618 7.64965C79.2862 7.78032 79.6045 7.88487 79.8167 7.96328C80.0421 8.02862 80.3405 8.1397 80.7119 8.29651C81.0964 8.44026 81.3882 8.57747 81.5871 8.70815C81.7993 8.83883 82.038 9.01525 82.3033 9.2374C82.5685 9.45955 82.7675 9.68825 82.9 9.92351C83.0459 10.1586 83.1653 10.4462 83.2581 10.786C83.3642 11.1126 83.4173 11.472 83.4173 11.8641C83.4173 13.1317 82.9464 14.1379 82.0049 14.8827C81.0765 15.6276 79.8631 16.0001 78.3645 16.0001Z" fill="white"/>
<path d="M90.4863 8.35533H88.2384V12.4326C88.2384 12.7723 88.3246 13.0206 88.497 13.1774C88.6694 13.3342 88.9213 13.4257 89.2529 13.4518C89.5845 13.465 89.9955 13.4584 90.4863 13.4322V15.7256C88.7225 15.9217 87.4758 15.7584 86.7464 15.2356C86.0303 14.7129 85.6722 13.7786 85.6722 12.4326V8.35533H83.9415V5.9247H85.6722V3.9449L88.2384 3.18042V5.9247H90.4863V8.35533Z" fill="white"/>
<path d="M100.459 14.5104C99.4381 15.5035 98.1914 16.0001 96.7191 16.0001C95.2471 16.0001 94.0005 15.5035 92.9793 14.5104C91.9714 13.5041 91.4675 12.2757 91.4675 10.8251C91.4675 9.37464 91.9714 8.15278 92.9793 7.15961C94.0005 6.15338 95.2471 5.65027 96.7191 5.65027C98.1914 5.65027 99.4381 6.15338 100.459 7.15961C101.48 8.15278 101.99 9.37464 101.99 10.8251C101.99 12.2757 101.48 13.5041 100.459 14.5104ZM94.7896 12.7658C95.3068 13.2754 95.9495 13.5303 96.7191 13.5303C97.4886 13.5303 98.1314 13.2754 98.6486 12.7658C99.1657 12.2561 99.4248 11.6092 99.4248 10.8251C99.4248 10.0411 99.1657 9.39424 98.6486 8.88459C98.1314 8.37494 97.4886 8.12012 96.7191 8.12012C95.9495 8.12012 95.3068 8.37494 94.7896 8.88459C94.2856 9.39424 94.0336 10.0411 94.0336 10.8251C94.0336 11.6092 94.2856 12.2561 94.7896 12.7658Z" fill="white"/>
<path d="M106.362 7.61043C106.601 6.98317 106.992 6.51272 107.536 6.19909C108.092 5.88546 108.709 5.72864 109.386 5.72864V8.55132C108.604 8.45985 107.901 8.61667 107.277 9.02177C106.667 9.42688 106.362 10.0999 106.362 11.0407V15.7256H103.796V5.92467H106.362V7.61043Z" fill="white"/>
<path d="M112.686 11.8641C113.031 13.0925 113.966 13.7067 115.491 13.7067C116.473 13.7067 117.214 13.38 117.719 12.7266L119.788 13.9027C118.806 15.301 117.361 16.0001 115.451 16.0001C113.807 16.0001 112.487 15.51 111.493 14.5299C110.497 13.5498 110 12.315 110 10.8251C110 9.3485 110.492 8.12011 111.473 7.14001C112.453 6.14685 113.713 5.65027 115.253 5.65027C116.711 5.65027 117.911 6.14685 118.853 7.14001C119.808 8.13318 120.285 9.36157 120.285 10.8251C120.285 11.1519 120.252 11.4982 120.186 11.8641H112.686ZM112.646 9.90391H117.719C117.573 9.23742 117.268 8.74084 116.804 8.41414C116.353 8.08744 115.835 7.92409 115.253 7.92409C114.562 7.92409 113.993 8.10051 113.541 8.45334C113.091 8.79312 112.792 9.27663 112.646 9.90391Z" fill="white"/>
<mask id="mask0_376_671" style="mask-type:luminance" maskUnits="userSpaceOnUse" x="0" y="0" width="21" height="18">
<path d="M0.285715 17.4286L21 17.4286L21 0.28573L0.285715 0.28573L0.285715 17.4286Z" fill="white"/>
</mask>
<g mask="url(#mask0_376_671)">
<path d="M4.91874 8.8572C6.61566 7.73964 8.60664 7.14362 10.6428 7.14362C12.679 7.14362 14.6699 7.73964 16.3669 8.8572C17.7914 7.91907 18.9598 6.64542 19.7683 5.14983C20.5767 3.65424 20.9998 1.98321 20.9999 0.285768L0.285645 0.285767C0.285762 1.98321 0.708891 3.65424 1.5173 5.14983C2.3257 6.64542 3.49425 7.91907 4.91874 8.8572Z" fill="#FEB737"/>
<path d="M4.91886 8.85718C3.49439 9.7953 2.32582 11.069 1.51742 12.5645C0.709014 14.0601 0.285885 15.7312 0.285767 17.4286H21.0001C21 15.7312 20.5768 14.0601 19.7684 12.5645C18.96 11.069 17.7915 9.7953 16.367 8.85718C14.6701 9.9747 12.6791 10.5708 10.6429 10.5708C8.60677 10.5708 6.61579 9.9747 4.91886 8.85718Z" fill="#A755C2"/>
</g>
</g>
<defs>
<clipPath id="clip0_376_671">
<rect width="120" height="17.1429" fill="white" transform="translate(0.285645 0.285767)"/>
</clipPath>
</defs>
</svg>
