<svg width="90" height="14" viewBox="0 0 90 14" fill="none" xmlns="http://www.w3.org/2000/svg">
<g clip-path="url(#clip0_25_6222)">
<path d="M26.8656 12.4935C25.2946 12.4935 23.997 11.979 22.9728 10.9503C21.9487 9.92143 21.4365 8.65259 21.4365 7.1437C21.4365 5.625 21.9487 4.35614 22.9728 3.33714C23.997 2.30834 25.2946 1.79395 26.8656 1.79395C27.8102 1.79395 28.6803 2.0144 29.4758 2.45532C30.2812 2.88643 30.9076 3.47432 31.3551 4.21897L29.5802 5.23308C29.3216 4.77256 28.9537 4.41493 28.4765 4.16018C27.9992 3.89563 27.4623 3.76336 26.8656 3.76336C25.8514 3.76336 25.0311 4.07689 24.4047 4.70397C23.7881 5.33105 23.4799 6.14429 23.4799 7.1437C23.4799 8.13332 23.7881 8.94165 24.4047 9.56875C25.0311 10.1958 25.8514 10.5093 26.8656 10.5093C27.4623 10.5093 27.9992 10.3819 28.4765 10.1272C28.9637 9.86266 29.3316 9.50506 29.5802 9.05433L31.3551 10.0685C30.9076 10.8131 30.2861 11.4059 29.4907 11.8468C28.6952 12.2779 27.8202 12.4935 26.8656 12.4935Z" fill="#0D1821"/>
<path d="M38.2414 4.93916H40.1654V12.2877H38.2414V11.4206C37.6646 12.1359 36.8543 12.4935 35.8102 12.4935C34.8159 12.4935 33.9607 12.1212 33.2448 11.3765C32.5388 10.622 32.1858 9.70102 32.1858 8.61341C32.1858 7.52586 32.5388 6.60973 33.2448 5.86507C33.9607 5.11062 34.8159 4.7334 35.8102 4.7334C36.8543 4.7334 37.6646 5.09103 38.2414 5.80629V4.93916ZM34.6916 10.1125C35.0794 10.4946 35.5716 10.6857 36.1681 10.6857C36.7647 10.6857 37.2569 10.4946 37.6448 10.1125C38.0425 9.72066 38.2414 9.22095 38.2414 8.61341C38.2414 8.00595 38.0425 7.51115 37.6448 7.12903C37.2569 6.73711 36.7647 6.54115 36.1681 6.54115C35.5716 6.54115 35.0794 6.73711 34.6916 7.12903C34.3037 7.51115 34.1099 8.00595 34.1099 8.61341C34.1099 9.22095 34.3037 9.72066 34.6916 10.1125Z" fill="#0D1821"/>
<path d="M45.9222 3.61641C44.8682 3.53802 44.3412 3.95444 44.3412 4.86567V4.93915H45.9222V6.7616H44.3412V12.2877H42.4172V6.7616H41.3433V4.93915H42.4172V4.86567C42.4172 3.82707 42.7105 3.03832 43.2972 2.49943C43.8838 1.96053 44.7588 1.72538 45.9222 1.79396V3.61641Z" fill="#0D1821"/>
<path d="M48.1529 9.3924C48.4115 10.3134 49.1125 10.7739 50.2559 10.7739C50.9918 10.7739 51.5486 10.529 51.9264 10.0391L53.4776 10.9209C52.7418 11.9693 51.658 12.4935 50.2261 12.4935C48.9931 12.4935 48.0038 12.126 47.258 11.3912C46.5122 10.6563 46.1394 9.73044 46.1394 8.61341C46.1394 7.50625 46.5073 6.58523 47.2431 5.85038C47.9789 5.10572 48.9235 4.7334 50.077 4.7334C51.1707 4.7334 52.0706 5.10572 52.7766 5.85038C53.4925 6.59504 53.8505 7.51606 53.8505 8.61341C53.8505 8.85841 53.8256 9.11805 53.7759 9.3924H48.1529ZM48.1231 7.92269H51.9264C51.817 7.42297 51.5884 7.05065 51.2403 6.8057C50.9023 6.56074 50.5145 6.43826 50.077 6.43826C49.5599 6.43826 49.1323 6.57054 48.7943 6.83509C48.4562 7.08984 48.2324 7.45237 48.1231 7.92269Z" fill="#0D1821"/>
<path d="M58.5567 12.4935C57.5226 12.4935 56.6526 12.2681 55.9466 11.8174C55.2406 11.3569 54.7434 10.7347 54.4551 9.95085L56.2151 8.93672C56.6227 9.98513 57.4232 10.5093 58.6164 10.5093C59.1931 10.5093 59.6157 10.4064 59.8842 10.2007C60.1526 9.99498 60.2869 9.73527 60.2869 9.42179C60.2869 9.05926 60.1228 8.77998 59.7947 8.58404C59.4665 8.37824 58.8799 8.15781 58.0347 7.92266C57.5674 7.78548 57.1696 7.6483 56.8415 7.51113C56.5233 7.37395 56.2001 7.19269 55.872 6.96734C55.5538 6.73219 55.3102 6.43824 55.1412 6.08551C54.9721 5.73278 54.8876 5.32126 54.8876 4.85095C54.8876 3.92013 55.2207 3.18037 55.8869 2.63168C56.5631 2.07319 57.3734 1.79395 58.3181 1.79395C59.1633 1.79395 59.904 1.99971 60.5404 2.41122C61.1867 2.81295 61.6889 3.37634 62.0468 4.10139L60.3167 5.08611C59.8991 4.20427 59.2329 3.76336 58.3181 3.76336C57.8905 3.76336 57.5525 3.86134 57.3039 4.0573C57.0652 4.24347 56.9459 4.48842 56.9459 4.79216C56.9459 5.1155 57.0802 5.38005 57.3486 5.58581C57.627 5.78176 58.154 5.99732 58.9296 6.23248C59.2478 6.33046 59.4865 6.40884 59.6456 6.46763C59.8146 6.51663 60.0383 6.59991 60.3167 6.71748C60.6051 6.82526 60.8238 6.92814 60.9729 7.02613C61.132 7.12411 61.3111 7.25638 61.5099 7.42295C61.7088 7.58951 61.858 7.76098 61.9574 7.93737C62.0668 8.11368 62.1562 8.32926 62.2259 8.58404C62.3054 8.82897 62.3452 9.09839 62.3452 9.39237C62.3452 10.3428 61.9921 11.0972 61.2862 11.6557C60.5901 12.2142 59.6803 12.4935 58.5567 12.4935Z" fill="#0D1821"/>
<path d="M67.6454 6.76151H65.96V9.81854C65.96 10.0733 66.0246 10.2594 66.1539 10.377C66.2832 10.4946 66.472 10.5632 66.7206 10.5827C66.9692 10.5926 67.2774 10.5877 67.6454 10.568V12.2876C66.3229 12.4346 65.3882 12.3122 64.8413 11.9202C64.3044 11.5283 64.0359 10.8277 64.0359 9.81854V6.76151H62.7383V4.93907H64.0359V3.45466L65.96 2.88147V4.93907H67.6454V6.76151Z" fill="#0D1821"/>
<path d="M75.1225 11.3765C74.357 12.1212 73.4223 12.4935 72.3183 12.4935C71.2147 12.4935 70.28 12.1212 69.5144 11.3765C68.7587 10.622 68.3809 9.70102 68.3809 8.61341C68.3809 7.52586 68.7587 6.60973 69.5144 5.86507C70.28 5.11062 71.2147 4.7334 72.3183 4.7334C73.4223 4.7334 74.357 5.11062 75.1225 5.86507C75.888 6.60973 76.2708 7.52586 76.2708 8.61341C76.2708 9.70102 75.888 10.622 75.1225 11.3765ZM70.8717 10.0685C71.2594 10.4506 71.7414 10.6417 72.3183 10.6417C72.8953 10.6417 73.3773 10.4506 73.7651 10.0685C74.1528 9.68631 74.347 9.20131 74.347 8.61341C74.347 8.02559 74.1528 7.54055 73.7651 7.15843C73.3773 6.7763 72.8953 6.58524 72.3183 6.58524C71.7414 6.58524 71.2594 6.7763 70.8717 7.15843C70.4938 7.54055 70.3049 8.02559 70.3049 8.61341C70.3049 9.20131 70.4938 9.68631 70.8717 10.0685Z" fill="#0D1821"/>
<path d="M79.5485 6.20304C79.7277 5.73274 80.0212 5.38001 80.4289 5.14485C80.846 4.90969 81.3087 4.79211 81.8157 4.79211V6.90851C81.2294 6.83992 80.7024 6.9575 80.2347 7.26124C79.777 7.56498 79.5485 8.06958 79.5485 8.77501V12.2876H77.6248V4.93909H79.5485V6.20304Z" fill="#0D1821"/>
<path d="M84.2901 9.3924C84.5486 10.3134 85.2498 10.7739 86.393 10.7739C87.1292 10.7739 87.6855 10.529 88.064 10.0391L89.6149 10.9209C88.8787 11.9693 87.7955 12.4935 86.363 12.4935C85.1305 12.4935 84.1408 12.126 83.3953 11.3912C82.6491 10.6563 82.2764 9.73044 82.2764 8.61341C82.2764 7.50625 82.6448 6.58523 83.3803 5.85038C84.1158 5.10572 85.0605 4.7334 86.2145 4.7334C87.3077 4.7334 88.2075 5.10572 88.9137 5.85038C89.6299 6.59504 89.9877 7.51606 89.9877 8.61341C89.9877 8.85841 89.9627 9.11805 89.9134 9.3924H84.2901ZM84.2601 7.92269H88.064C87.954 7.42297 87.7255 7.05065 87.3777 6.8057C87.0393 6.56074 86.6515 6.43826 86.2145 6.43826C85.6968 6.43826 85.2698 6.57054 84.9313 6.83509C84.5935 7.08984 84.3693 7.45237 84.2601 7.92269Z" fill="#0D1821"/>
<mask id="mask0_25_6222" style="mask-type:luminance" maskUnits="userSpaceOnUse" x="0" y="0" width="16" height="14">
<path d="M0.0149965 13.5646L15.5461 13.5646L15.5461 0.711214L0.0149965 0.711214L0.0149965 13.5646Z" fill="white"/>
</mask>
<g mask="url(#mask0_25_6222)">
<path d="M3.48869 7.13786C4.76101 6.29995 6.25381 5.85306 7.78047 5.85306C9.30716 5.85306 10.7999 6.29995 12.0723 7.13786C13.1403 6.43448 14.0164 5.47952 14.6226 4.35816C15.2287 3.2368 15.546 1.98389 15.546 0.711183L0.0148926 0.711182C0.014981 1.98389 0.332234 3.2368 0.938364 4.35816C1.54449 5.47952 2.42064 6.43448 3.48869 7.13786Z" fill="#FEB737"/>
<path d="M3.48869 7.13782C2.42065 7.8412 1.54449 8.79619 0.938364 9.9175C0.332235 11.0389 0.0149812 12.2918 0.0148926 13.5645H15.546C15.546 12.2918 15.2287 11.0389 14.6226 9.9175C14.0164 8.79619 13.1403 7.8412 12.0723 7.13782C10.7999 7.97571 9.30716 8.42265 7.78047 8.42265C6.25381 8.42265 4.76101 7.97571 3.48869 7.13782Z" fill="#A755C2"/>
</g>
</g>
<defs>
<clipPath id="clip0_25_6222">
<rect width="89.9735" height="12.8534" fill="white" transform="translate(0.0148926 0.711182)"/>
</clipPath>
</defs>
</svg>
