<svg width="168" height="24" viewBox="0 0 168 24" fill="none" xmlns="http://www.w3.org/2000/svg">
<g clip-path="url(#clip0_24_113)">
<path d="M50.136 22C47.2025 22 44.7796 21.0395 42.8672 19.1186C40.9549 17.1975 39.9987 14.8283 39.9987 12.0109C39.9987 9.17513 40.9549 6.8059 42.8672 4.90321C44.7796 2.98222 47.2025 2.02173 50.136 2.02173C51.8997 2.02173 53.5244 2.43337 55.0097 3.25665C56.5136 4.06164 57.6832 5.15934 58.5188 6.54977L55.2047 8.44333C54.7219 7.58345 54.0349 6.91568 53.1437 6.44001C52.2525 5.94603 51.25 5.69905 50.136 5.69905C48.2423 5.69905 46.7105 6.28449 45.5408 7.45538C44.3896 8.62628 43.8141 10.1448 43.8141 12.0109C43.8141 13.8587 44.3896 15.368 45.5408 16.539C46.7105 17.7098 48.2423 18.2952 50.136 18.2952C51.25 18.2952 52.2525 18.0574 53.1437 17.5818C54.0535 17.0878 54.7405 16.42 55.2047 15.5784L58.5188 17.472C57.6832 18.8624 56.5228 19.9692 55.0375 20.7926C53.5523 21.5975 51.9184 22 50.136 22Z" fill="white"/>
<path d="M71.3771 7.89445H74.9696V21.6157H71.3771V19.9967C70.3001 21.3323 68.7871 22 66.8375 22C64.9809 22 63.3841 21.3048 62.0473 19.9144C60.7292 18.5056 60.07 16.7859 60.07 14.7551C60.07 12.7244 60.7292 11.0138 62.0473 9.62333C63.3841 8.21461 64.9809 7.51025 66.8375 7.51025C68.7871 7.51025 70.3001 8.17803 71.3771 9.51357V7.89445ZM64.7488 17.5543C65.4729 18.2677 66.392 18.6245 67.5059 18.6245C68.6199 18.6245 69.5389 18.2677 70.2631 17.5543C71.0057 16.8225 71.3771 15.8895 71.3771 14.7551C71.3771 13.6208 71.0057 12.6969 70.2631 11.9834C69.5389 11.2516 68.6199 10.8857 67.5059 10.8857C66.392 10.8857 65.4729 11.2516 64.7488 11.9834C64.0247 12.6969 63.6627 13.6208 63.6627 14.7551C63.6627 15.8895 64.0247 16.8225 64.7488 17.5543Z" fill="white"/>
<path d="M85.7189 5.42458C83.7509 5.27822 82.7669 6.05577 82.7669 7.75722V7.89444H85.7189V11.2973H82.7669V21.6157H79.1743V11.2973H77.1691V7.89444H79.1743V7.75722C79.1743 5.81793 79.722 4.34517 80.8175 3.33894C81.9128 2.3327 83.5467 1.89362 85.7189 2.02169V5.42458Z" fill="white"/>
<path d="M89.8844 16.2096C90.3672 17.9293 91.6762 18.7892 93.8112 18.7892C95.1852 18.7892 96.225 18.3319 96.9304 17.4171L99.8268 19.0636C98.453 21.0212 96.4292 22 93.7556 22C91.4534 22 89.606 21.3139 88.2135 19.9417C86.821 18.5696 86.1248 16.8408 86.1248 14.7551C86.1248 12.6878 86.8118 10.968 88.1856 9.59589C89.5596 8.20547 91.3234 7.51025 93.4771 7.51025C95.5194 7.51025 97.1996 8.20547 98.5179 9.59589C99.8547 10.9863 100.523 12.7061 100.523 14.7551C100.523 15.2125 100.477 15.6973 100.384 16.2096H89.8844ZM89.8288 13.4653H96.9304C96.7262 12.5323 96.2992 11.8371 95.6494 11.3797C95.0182 10.9223 94.294 10.6936 93.4771 10.6936C92.5116 10.6936 91.7132 10.9406 91.082 11.4346C90.4508 11.9102 90.0329 12.5872 89.8288 13.4653Z" fill="white"/>
<path d="M109.31 22C107.379 22 105.755 21.5792 104.437 20.7376C103.118 19.8778 102.19 18.716 101.652 17.2524L104.938 15.3588C105.699 17.3164 107.194 18.2952 109.422 18.2952C110.499 18.2952 111.288 18.1031 111.789 17.719C112.29 17.3348 112.541 16.8499 112.541 16.2646C112.541 15.5876 112.235 15.0662 111.622 14.7003C111.009 14.316 109.914 13.9044 108.335 13.4654C107.463 13.2092 106.72 12.9531 106.108 12.6969C105.513 12.4408 104.91 12.1024 104.297 11.6816C103.703 11.2425 103.248 10.6936 102.933 10.035C102.617 9.37638 102.459 8.60798 102.459 7.72981C102.459 5.99177 103.081 4.61049 104.325 3.58596C105.588 2.54314 107.101 2.02173 108.865 2.02173C110.443 2.02173 111.826 2.40593 113.014 3.17431C114.221 3.92442 115.159 4.9764 115.827 6.33024L112.597 8.1689C111.817 6.52233 110.573 5.69905 108.865 5.69905C108.066 5.69905 107.435 5.882 106.971 6.2479C106.525 6.59552 106.303 7.05289 106.303 7.62004C106.303 8.22378 106.553 8.71775 107.054 9.10195C107.574 9.46785 108.558 9.87034 110.007 10.3094C110.601 10.4924 111.046 10.6387 111.343 10.7485C111.659 10.84 112.077 10.9955 112.597 11.215C113.135 11.4163 113.543 11.6084 113.822 11.7913C114.119 11.9743 114.453 12.2213 114.825 12.5323C115.196 12.8433 115.474 13.1635 115.66 13.4928C115.864 13.822 116.031 14.2246 116.161 14.7003C116.31 15.1576 116.384 15.6607 116.384 16.2096C116.384 17.9843 115.725 19.393 114.407 20.4358C113.107 21.4786 111.408 22 109.31 22Z" fill="white"/>
<path d="M126.281 11.2974H123.134V17.0055C123.134 17.4811 123.254 17.8287 123.496 18.0483C123.737 18.2678 124.09 18.3959 124.554 18.4324C125.018 18.4508 125.594 18.4416 126.281 18.405V21.6158C123.811 21.8903 122.066 21.6616 121.045 20.9298C120.042 20.1979 119.541 18.8899 119.541 17.0055V11.2974H117.118V7.89448H119.541V5.12276L123.134 4.05249V7.89448H126.281V11.2974Z" fill="white"/>
<path d="M140.243 19.9144C138.813 21.3048 137.068 22 135.007 22C132.946 22 131.201 21.3048 129.771 19.9144C128.36 18.5056 127.655 16.7859 127.655 14.7551C127.655 12.7244 128.36 11.0138 129.771 9.62333C131.201 8.21461 132.946 7.51025 135.007 7.51025C137.068 7.51025 138.813 8.21461 140.243 9.62333C141.672 11.0138 142.387 12.7244 142.387 14.7551C142.387 16.7859 141.672 18.5056 140.243 19.9144ZM132.305 17.472C133.029 18.1855 133.929 18.5423 135.007 18.5423C136.084 18.5423 136.984 18.1855 137.708 17.472C138.432 16.7584 138.795 15.8528 138.795 14.7551C138.795 13.6575 138.432 12.7518 137.708 12.0383C136.984 11.3248 136.084 10.968 135.007 10.968C133.929 10.968 133.029 11.3248 132.305 12.0383C131.6 12.7518 131.247 13.6575 131.247 14.7551C131.247 15.8528 131.6 16.7584 132.305 17.472Z" fill="white"/>
<path d="M148.507 10.2545C148.841 9.37634 149.389 8.71771 150.151 8.27862C150.929 7.83954 151.793 7.62 152.74 7.62V11.5718C151.645 11.4437 150.661 11.6632 149.788 12.2304C148.933 12.7975 148.507 13.7397 148.507 15.0569V21.6157H144.915V7.89443H148.507V10.2545Z" fill="white"/>
<path d="M157.36 16.2096C157.843 17.9293 159.152 18.7892 161.287 18.7892C162.661 18.7892 163.7 18.3319 164.407 17.4171L167.303 19.0636C165.928 21.0212 163.905 22 161.231 22C158.929 22 157.081 21.3139 155.689 19.9417C154.296 18.5696 153.6 16.8408 153.6 14.7551C153.6 12.6878 154.288 10.968 155.661 9.59589C157.035 8.20547 158.799 7.51025 160.953 7.51025C162.995 7.51025 164.675 8.20547 165.993 9.59589C167.331 10.9863 167.999 12.7061 167.999 14.7551C167.999 15.2125 167.952 15.6973 167.86 16.2096H157.36ZM157.304 13.4653H164.407C164.201 12.5323 163.775 11.8371 163.125 11.3797C162.493 10.9223 161.769 10.6936 160.953 10.6936C159.987 10.6936 159.189 10.9406 158.557 11.4346C157.927 11.9102 157.508 12.5872 157.304 13.4653Z" fill="white"/>
<mask id="mask0_24_113" style="mask-type:luminance" maskUnits="userSpaceOnUse" x="0" y="0" width="29" height="24">
<path d="M0 24L29 24L29 0L0 0L0 24Z" fill="white"/>
</mask>
<g mask="url(#mask0_24_113)">
<path d="M6.48633 12C8.86203 10.4354 11.6494 9.601 14.5 9.601C17.3507 9.601 20.138 10.4354 22.5137 12C24.508 10.6866 26.1439 8.90352 27.2757 6.80969C28.4075 4.71587 28.9999 2.37643 29 2.53526e-06L0 0C0.000165061 2.37643 0.592545 4.71587 1.72432 6.80969C2.85608 8.90352 4.49205 10.6866 6.48633 12Z" fill="#FEB737"/>
<path d="M6.48633 12C4.49207 13.3134 2.85608 15.0965 1.72432 17.1903C0.592546 19.2841 0.000165476 21.6236 0 24H29C28.9999 21.6236 28.4075 19.2841 27.2757 17.1903C26.1439 15.0965 24.508 13.3134 22.5137 12C20.138 13.5645 17.3507 14.3991 14.5 14.3991C11.6494 14.3991 8.86203 13.5645 6.48633 12Z" fill="#A755C2"/>
</g>
</g>
<defs>
<clipPath id="clip0_24_113">
<rect width="168" height="24" fill="white"/>
</clipPath>
</defs>
</svg>
