<svg width="138" height="53" viewBox="0 0 138 53" fill="none" xmlns="http://www.w3.org/2000/svg">
<g clip-path="url(#clip0_385_1845)">
<path d="M74.9007 44.0401C74.8925 43.9668 74.9128 43.8931 74.9573 43.8343C75.0161 43.7942 75.0871 43.776 75.1579 43.7829H75.8112C75.8821 43.776 75.9531 43.7942 76.0119 43.8343C76.0564 43.8931 76.0766 43.9668 76.0684 44.0401V51.7154C76.0684 51.9726 75.9913 52.1012 75.8369 52.1012C75.7637 52.0968 75.6936 52.0699 75.6363 52.024C75.5292 51.938 75.431 51.8415 75.3431 51.736L70.5795 46.1338V51.7154C70.5879 51.7871 70.5676 51.8593 70.5229 51.916C70.4648 51.958 70.3937 51.978 70.3223 51.9726H69.6689C69.5975 51.978 69.5264 51.958 69.4683 51.916C69.4236 51.8593 69.4032 51.7871 69.4117 51.7154V44.0401C69.4056 43.9391 69.4251 43.8383 69.4683 43.7468C69.4891 43.716 69.5176 43.6912 69.551 43.6749C69.5844 43.6587 69.6216 43.6515 69.6587 43.6543C69.7305 43.6579 69.7992 43.685 69.8541 43.7314C69.9598 43.8155 70.0549 43.9123 70.1371 44.0195L74.8853 49.6216V44.0401M132.656 30.4951C132.616 30.4901 132.575 30.5012 132.543 30.526C132.531 30.5393 132.522 30.5548 132.517 30.5716C132.512 30.5884 132.51 30.6062 132.512 30.6237V33.6177C132.51 33.6562 132.52 33.6943 132.543 33.7257C132.575 33.7505 132.616 33.7616 132.656 33.7566H133.788C134.352 33.7911 134.913 33.6491 135.393 33.3502C135.585 33.2054 135.738 33.0146 135.838 32.7954C135.938 32.5761 135.981 32.3353 135.964 32.095C135.983 31.8612 135.943 31.6262 135.845 31.4127C135.748 31.1992 135.597 31.0143 135.408 30.8758C134.917 30.5922 134.353 30.4598 133.788 30.4951H132.656ZM132.656 34.8678C132.616 34.8628 132.575 34.8738 132.543 34.8986C132.531 34.9119 132.522 34.9275 132.517 34.9443C132.512 34.9611 132.51 34.9788 132.512 34.9964V37.3165C132.512 37.4142 132.512 37.4862 132.455 37.5171C132.398 37.5599 132.326 37.58 132.255 37.5737H131.601C131.53 37.5791 131.459 37.559 131.401 37.5171C131.356 37.4603 131.336 37.3882 131.344 37.3165V29.6411C131.336 29.5678 131.356 29.4942 131.401 29.4354C131.459 29.3952 131.53 29.377 131.601 29.3839H133.854C134.74 29.315 135.623 29.557 136.349 30.0681C136.632 30.3171 136.853 30.6274 136.996 30.9752C137.14 31.3229 137.202 31.6989 137.178 32.0744C137.192 32.6053 137.057 33.1295 136.787 33.5868C136.505 34.0185 136.098 34.3527 135.619 34.5437C135.022 34.7748 134.386 34.8849 133.746 34.8678H132.656ZM120.963 33.4994C120.954 34.0541 121.089 34.6016 121.354 35.089C121.604 35.5481 121.976 35.9291 122.429 36.1899C122.897 36.4629 123.431 36.6017 123.972 36.5911C124.514 36.5975 125.047 36.4571 125.516 36.1847C125.978 35.9205 126.359 35.5343 126.616 35.0684C126.878 34.5757 127.015 34.0264 127.015 33.4685C127.015 32.9107 126.878 32.3613 126.616 31.8686C126.363 31.4076 125.987 31.025 125.531 30.7626C125.061 30.4952 124.528 30.3585 123.988 30.3665C123.454 30.3618 122.928 30.5031 122.469 30.7751C122.009 31.0471 121.633 31.4394 121.38 31.9098C121.108 32.3957 120.964 32.9427 120.963 33.4994ZM119.744 33.4994C119.734 32.7394 119.925 31.9903 120.299 31.3285C120.662 30.682 121.196 30.148 121.843 29.7852C122.503 29.4222 123.244 29.2319 123.998 29.2319C124.752 29.2319 125.493 29.4222 126.153 29.7852C126.783 30.1421 127.304 30.663 127.661 31.2925C128.024 31.9539 128.214 32.6961 128.214 33.4505C128.214 34.2049 128.024 34.9472 127.661 35.6085C127.298 36.2554 126.764 36.7895 126.117 37.1518C125.453 37.5222 124.702 37.712 123.941 37.7023C123.194 37.7107 122.458 37.5226 121.807 37.157C121.179 36.802 120.659 36.2827 120.304 35.6548C119.932 35.0035 119.738 34.2652 119.744 33.5148V33.4994ZM116.59 37.301C116.599 37.3728 116.578 37.4449 116.534 37.5017C116.476 37.5436 116.404 37.5637 116.333 37.5582H115.68C115.608 37.5637 115.537 37.5436 115.479 37.5017C115.434 37.4449 115.414 37.3728 115.422 37.301V34.0344C115.424 34.0168 115.422 33.9991 115.417 33.9823C115.412 33.9655 115.403 33.95 115.392 33.9366C115.359 33.9119 115.319 33.9008 115.278 33.9058H111.41C111.37 33.9008 111.329 33.9119 111.297 33.9366C111.284 33.9681 111.284 34.003 111.297 34.0344V37.301C111.301 37.3369 111.298 37.3734 111.288 37.4081C111.277 37.4427 111.259 37.4746 111.235 37.5017C111.179 37.5446 111.109 37.5648 111.039 37.5582H110.381C110.311 37.5648 110.241 37.5446 110.186 37.5017C110.161 37.4746 110.143 37.4427 110.133 37.4081C110.122 37.3734 110.119 37.3369 110.124 37.301V29.6411C110.119 29.6044 110.122 29.5672 110.133 29.5318C110.144 29.4964 110.162 29.4635 110.186 29.4354C110.242 29.3943 110.312 29.3759 110.381 29.3839H111.014C111.083 29.3759 111.153 29.3943 111.209 29.4354C111.233 29.4635 111.251 29.4964 111.262 29.5318C111.272 29.5672 111.275 29.6044 111.271 29.6411V32.6814C111.259 32.7165 111.259 32.7544 111.271 32.7895C111.287 32.8026 111.305 32.8126 111.324 32.8188C111.343 32.825 111.364 32.8272 111.384 32.8255H115.253C115.273 32.8272 115.293 32.825 115.313 32.8188C115.332 32.8126 115.35 32.8026 115.366 32.7895C115.388 32.758 115.399 32.7199 115.397 32.6814V29.6411C115.389 29.5678 115.409 29.4942 115.453 29.4354C115.512 29.3952 115.583 29.377 115.654 29.3839H116.307C116.378 29.377 116.449 29.3952 116.508 29.4354C116.552 29.4942 116.573 29.5678 116.564 29.6411L116.59 37.301ZM101.481 35.7886C101.543 35.7063 101.605 35.66 101.656 35.66C101.723 35.6725 101.784 35.7048 101.831 35.7526C102.431 36.2661 103.187 36.5601 103.976 36.586C104.294 36.5924 104.609 36.5401 104.907 36.4316C105.151 36.3491 105.366 36.1971 105.525 35.9944C105.668 35.8051 105.744 35.5733 105.741 35.3359C105.751 35.1231 105.689 34.913 105.566 34.7392C105.415 34.5573 105.22 34.4173 105 34.3328C104.64 34.1881 104.271 34.0695 103.894 33.9778C103.412 33.8621 102.946 33.6894 102.505 33.4634C102.165 33.2973 101.874 33.0456 101.661 32.7329C101.455 32.3943 101.353 32.0025 101.368 31.6063C101.356 31.1543 101.482 30.7093 101.728 30.3305C101.973 29.9685 102.316 29.6832 102.716 29.5074C103.16 29.311 103.64 29.2127 104.126 29.2193C105.095 29.2147 106.037 29.5414 106.795 30.1453C106.828 30.1704 106.858 30.1998 106.883 30.2327C106.89 30.2614 106.89 30.2915 106.883 30.3202C106.889 30.3473 106.889 30.3754 106.883 30.4025L106.821 30.5054L106.482 31.0198C106.459 31.0578 106.429 31.0911 106.394 31.1176C106.369 31.1376 106.339 31.1485 106.307 31.1484C106.235 31.1416 106.166 31.1128 106.111 31.0661C105.812 30.8573 105.489 30.6847 105.149 30.5517C104.822 30.4225 104.473 30.3562 104.12 30.3562C103.849 30.3505 103.58 30.3995 103.328 30.5002C103.121 30.5904 102.943 30.7365 102.814 30.9221C102.683 31.1125 102.614 31.3391 102.618 31.5703C102.61 31.794 102.679 32.0137 102.814 32.1927C102.967 32.3743 103.163 32.5141 103.385 32.5991C103.718 32.7372 104.062 32.8473 104.414 32.9284C104.919 33.0438 105.409 33.2164 105.875 33.4428C106.21 33.61 106.495 33.8618 106.703 34.1733C106.896 34.5016 106.99 34.8783 106.975 35.2587C106.984 35.7155 106.849 36.1633 106.59 36.5397C106.321 36.9181 105.952 37.214 105.525 37.3936C105.036 37.5979 104.511 37.6995 103.981 37.692C103.468 37.7028 102.956 37.6173 102.474 37.4399C102.011 37.264 101.579 37.0157 101.193 36.7043C101.106 36.6271 101.065 36.5602 101.065 36.5088C101.07 36.435 101.099 36.3648 101.147 36.3082L101.481 35.7886ZM98.3587 36.4625C98.4281 36.4545 98.4978 36.4729 98.5542 36.5139C98.5782 36.5421 98.596 36.5749 98.6067 36.6104C98.6173 36.6458 98.6205 36.683 98.616 36.7197V37.3165C98.6207 37.3524 98.6176 37.3889 98.607 37.4235C98.5963 37.4581 98.5783 37.49 98.5542 37.5171C98.4986 37.56 98.4287 37.5802 98.3587 37.5737H93.9244C93.8529 37.5791 93.7818 37.559 93.7237 37.5171C93.679 37.4603 93.6587 37.3882 93.6671 37.3165V29.6411C93.659 29.5678 93.6792 29.4942 93.7237 29.4354C93.7825 29.3952 93.8535 29.377 93.9244 29.3839H98.3587C98.4297 29.3761 98.501 29.3944 98.5594 29.4354C98.5824 29.4639 98.5994 29.497 98.6091 29.5324C98.6188 29.5678 98.6212 29.6048 98.616 29.6411V30.2379C98.6212 30.2742 98.6188 30.3113 98.6091 30.3467C98.5994 30.3821 98.5824 30.4151 98.5594 30.4437C98.501 30.4846 98.4297 30.5029 98.3587 30.4951H94.9944C94.9541 30.4901 94.9134 30.5012 94.8812 30.526C94.8696 30.5393 94.8609 30.5548 94.8556 30.5716C94.8503 30.5884 94.8485 30.6062 94.8503 30.6237V32.7637C94.8453 32.8041 94.8564 32.8447 94.8812 32.8769C94.8812 32.8769 94.9378 32.9026 94.9944 32.9026H97.9626C98.0341 32.8972 98.1052 32.9173 98.1633 32.9592C98.208 33.016 98.2283 33.0881 98.2198 33.1599V33.7463C98.2291 33.7819 98.2289 33.8193 98.2192 33.8547C98.2096 33.8902 98.1909 33.9225 98.1649 33.9485C98.1389 33.9745 98.1065 33.9933 98.0711 34.0029C98.0356 34.0126 97.9982 34.0128 97.9626 34.0035H94.9944C94.9541 33.9985 94.9134 34.0096 94.8812 34.0344C94.8696 34.0477 94.8609 34.0632 94.8556 34.0801C94.8503 34.0969 94.8485 34.1146 94.8503 34.1321V36.3339C94.8485 36.3514 94.8503 36.3692 94.8556 36.386C94.8609 36.4028 94.8696 36.4183 94.8812 36.4316C94.9134 36.4564 94.9541 36.4675 94.9944 36.4625H98.3587ZM90.1639 36.4625C90.2332 36.4545 90.303 36.4729 90.3594 36.5139C90.3833 36.5421 90.4012 36.5749 90.4118 36.6104C90.4224 36.6458 90.4256 36.683 90.4211 36.7197V37.3165C90.4258 37.3524 90.4228 37.3889 90.4121 37.4235C90.4014 37.4581 90.3835 37.49 90.3594 37.5171C90.3037 37.56 90.2338 37.5802 90.1639 37.5737H85.7295C85.658 37.5791 85.5869 37.559 85.5288 37.5171C85.4841 37.4603 85.4638 37.3882 85.4723 37.3165V29.6411C85.4641 29.5678 85.4843 29.4942 85.5288 29.4354C85.5876 29.3952 85.6586 29.377 85.7295 29.3839H90.1279C90.1987 29.377 90.2697 29.3952 90.3285 29.4354C90.3515 29.4639 90.3685 29.497 90.3782 29.5324C90.3879 29.5678 90.3903 29.6048 90.3851 29.6411V30.2379C90.3903 30.2742 90.3879 30.3113 90.3782 30.3467C90.3685 30.3821 90.3515 30.4151 90.3285 30.4437C90.2697 30.4838 90.1987 30.502 90.1279 30.4951H86.7635C86.7232 30.4901 86.6825 30.5012 86.6503 30.526C86.6387 30.5393 86.63 30.5548 86.6247 30.5716C86.6194 30.5884 86.6176 30.6062 86.6194 30.6237V32.7637C86.6144 32.8041 86.6255 32.8447 86.6503 32.8769C86.6503 32.8769 86.7069 32.9026 86.7635 32.9026H89.7317C89.8032 32.8972 89.8743 32.9173 89.9324 32.9592C89.9771 33.016 89.9974 33.0881 89.9889 33.1599V33.7463C89.9982 33.7819 89.998 33.8193 89.9883 33.8547C89.9787 33.8902 89.96 33.9225 89.934 33.9485C89.908 33.9745 89.8757 33.9933 89.8402 34.0029C89.8047 34.0126 89.7673 34.0128 89.7317 34.0035H86.7635C86.7232 33.9985 86.6825 34.0096 86.6503 34.0344C86.6387 34.0477 86.63 34.0632 86.6247 34.0801C86.6194 34.0969 86.6176 34.1146 86.6194 34.1321V36.3339C86.6176 36.3514 86.6194 36.3692 86.6247 36.386C86.63 36.4028 86.6387 36.4183 86.6503 36.4316C86.6825 36.4564 86.7232 36.4675 86.7635 36.4625H90.1639ZM78.62 37.3165C78.6285 37.3882 78.6081 37.4603 78.5634 37.5171C78.5054 37.559 78.4343 37.5791 78.3628 37.5737H77.7095C77.638 37.5791 77.5669 37.559 77.5088 37.5171C77.4641 37.4603 77.4438 37.3882 77.4523 37.3165V29.6411C77.4441 29.5678 77.4643 29.4942 77.5088 29.4354C77.5676 29.3952 77.6386 29.377 77.7095 29.3839H82.1645C82.2353 29.377 82.3063 29.3952 82.3651 29.4354C82.4096 29.4942 82.4299 29.5678 82.4217 29.6411V30.2379C82.4299 30.3112 82.4096 30.3848 82.3651 30.4437C82.3063 30.4838 82.2353 30.502 82.1645 30.4951H78.7589C78.7203 30.4909 78.6815 30.502 78.6509 30.526C78.6393 30.5393 78.6306 30.5548 78.6253 30.5716C78.62 30.5884 78.6182 30.6062 78.62 30.6237V32.9386C78.6167 32.9756 78.6277 33.0125 78.6509 33.0415C78.6861 33.0523 78.7237 33.0523 78.7589 33.0415H81.758C81.7947 33.0373 81.8319 33.0407 81.8673 33.0513C81.9027 33.0619 81.9355 33.0796 81.9638 33.1033C81.9879 33.1324 82.0058 33.1661 82.0164 33.2024C82.027 33.2386 82.0302 33.2767 82.0256 33.3142V33.8955C82.032 33.9679 82.0099 34.0399 81.9638 34.0961C81.9046 34.1397 81.8313 34.1599 81.758 34.1527H78.7589C78.7203 34.1485 78.6815 34.1596 78.6509 34.1836C78.6393 34.1969 78.6306 34.2124 78.6253 34.2292C78.62 34.246 78.6182 34.2638 78.62 34.2813V37.3165ZM70.6 37.3165C70.6085 37.3882 70.5882 37.4603 70.5435 37.5171C70.4854 37.559 70.4143 37.5791 70.3428 37.5737H69.6895C69.6181 37.5791 69.547 37.559 69.4889 37.5171C69.4442 37.4603 69.4238 37.3882 69.4323 37.3165V29.6411C69.4241 29.5678 69.4444 29.4942 69.4889 29.4354C69.5477 29.3952 69.6187 29.377 69.6895 29.3839L74.1445 29.3839C74.2153 29.377 74.2863 29.3952 74.3451 29.4354C74.3896 29.4942 74.4099 29.5678 74.4017 29.6411V30.2379C74.4099 30.3112 74.3896 30.3848 74.3451 30.4437C74.2863 30.4838 74.2153 30.502 74.1445 30.4951L70.7389 30.4951C70.7003 30.4909 70.6615 30.502 70.6309 30.526C70.6193 30.5393 70.6106 30.5548 70.6053 30.5716C70.6 30.5884 70.5982 30.6062 70.6 30.6237V32.9386C70.5967 32.9756 70.6077 33.0125 70.6309 33.0415C70.6661 33.0523 70.7037 33.0523 70.7389 33.0415H73.7381C73.7748 33.0373 73.8119 33.0407 73.8473 33.0513C73.8827 33.0619 73.9155 33.0796 73.9438 33.1033C73.9679 33.1324 73.9858 33.1661 73.9965 33.2024C74.0071 33.2386 74.0102 33.2767 74.0056 33.3142V33.8955C74.012 33.9679 73.9899 34.0399 73.9438 34.0961C73.8846 34.1397 73.8113 34.1599 73.7381 34.1527H70.7389C70.7003 34.1485 70.6615 34.1596 70.6309 34.1836C70.6193 34.1969 70.6106 34.2124 70.6053 34.2292C70.6 34.246 70.5982 34.2638 70.6 34.2813V37.3165ZM104.244 15.2422C104.236 15.1689 104.256 15.0953 104.3 15.0364C104.359 14.9963 104.43 14.9781 104.501 14.985H105.154C105.225 14.9781 105.296 14.9963 105.355 15.0364C105.4 15.0953 105.42 15.1689 105.412 15.2422V22.9175C105.412 23.1747 105.334 23.3033 105.18 23.3033C105.107 23.299 105.037 23.272 104.979 23.2262C104.872 23.1402 104.774 23.0437 104.686 22.9381L99.9381 17.3359V22.9175C99.9465 22.9893 99.9262 23.0614 99.8815 23.1182C99.8234 23.1601 99.7523 23.1802 99.6808 23.1747H99.0275C98.956 23.1802 98.885 23.1601 98.8269 23.1182C98.7857 23.0873 98.7703 23.0153 98.7703 22.9175V15.2422C98.7615 15.1411 98.7811 15.0396 98.8269 14.949C98.8468 14.9186 98.8745 14.894 98.907 14.8777C98.9395 14.8614 98.9758 14.8541 99.0121 14.8564C99.0856 14.8597 99.1559 14.8868 99.2127 14.9336C99.3184 15.0177 99.4134 15.1144 99.4957 15.2216L104.244 20.8238V15.2422ZM89.3922 22.8198C89.3546 22.9278 89.291 23.025 89.207 23.1027C89.1217 23.1535 89.0234 23.1786 88.9241 23.1747H88.317C88.1576 23.1747 88.0804 23.1233 88.0804 23.0204C88.0894 22.9505 88.1103 22.8826 88.1422 22.8198L91.6711 15.4068C91.7463 15.2436 91.8322 15.0855 91.9284 14.9336C91.9497 14.8995 91.9793 14.8713 92.0143 14.8515C92.0494 14.8318 92.0888 14.8211 92.129 14.8204C92.1662 14.8221 92.2024 14.8335 92.2339 14.8533C92.2654 14.8731 92.2913 14.9008 92.309 14.9336C92.4028 15.0859 92.487 15.244 92.5611 15.4068L96.1158 22.8198C96.1477 22.8826 96.1686 22.9505 96.1776 23.0204C96.1776 23.1233 96.0953 23.1747 95.9306 23.1747H95.2722C95.1758 23.1819 95.0798 23.1565 94.9995 23.1027C94.9167 23.0219 94.8503 22.9258 94.804 22.8198L92.1033 16.9964L89.3922 22.8198ZM85.4774 22.9175C85.4859 22.9893 85.4655 23.0614 85.4208 23.1182C85.3627 23.1601 85.2916 23.1802 85.2202 23.1747H84.5669C84.4953 23.1811 84.4239 23.161 84.3662 23.1182C84.3251 23.0873 84.3096 23.0153 84.3096 22.9175V15.2422C84.3044 15.2059 84.3068 15.1688 84.3165 15.1334C84.3262 15.098 84.3432 15.065 84.3662 15.0364C84.4246 14.9955 84.4959 14.9772 84.5669 14.985H85.2202C85.291 14.9781 85.362 14.9963 85.4208 15.0364C85.4653 15.0953 85.4856 15.1689 85.4774 15.2422V22.9175ZM75.7032 21.4051C75.7649 21.3228 75.8215 21.2765 75.8781 21.2765C75.944 21.2902 76.0047 21.3223 76.053 21.3691C76.651 21.8819 77.4057 22.1758 78.193 22.2025C78.512 22.2095 78.8295 22.1572 79.1293 22.0481C79.3711 21.9642 79.5837 21.8124 79.7415 21.6109C79.8849 21.4216 79.961 21.1898 79.9575 20.9524C79.9673 20.7396 79.9058 20.5296 79.7826 20.3557C79.6343 20.1715 79.4387 20.031 79.2168 19.9493C78.8573 19.8038 78.4877 19.6852 78.1107 19.5943C77.6306 19.4788 77.166 19.3061 76.7269 19.0799C76.3861 18.9153 76.0949 18.6632 75.8833 18.3494C75.6728 18.0124 75.5688 17.6198 75.5849 17.2228C75.5727 16.7708 75.6983 16.3258 75.945 15.947C76.1919 15.5847 76.536 15.2994 76.9378 15.1239C77.3813 14.9269 77.8622 14.8286 78.3474 14.8358C79.3153 14.8312 80.2557 15.1579 81.0121 15.7618C81.0463 15.7855 81.0759 15.8151 81.0996 15.8492C81.1196 15.874 81.1305 15.9049 81.1305 15.9367C81.1359 15.9639 81.1359 15.9918 81.1305 16.019L81.0739 16.1219L80.7343 16.6363C80.7118 16.6743 80.6821 16.7075 80.6469 16.7341C80.6221 16.7541 80.5913 16.765 80.5594 16.7649C80.4856 16.7591 80.4155 16.7303 80.3588 16.6826C80.0608 16.4748 79.7397 16.3022 79.402 16.1682C79.0741 16.0397 78.7252 15.9734 78.3731 15.9727C78.1037 15.9674 77.836 16.0164 77.586 16.1167C77.3785 16.2065 77.2002 16.3526 77.0716 16.5386C76.9421 16.7295 76.8755 16.9561 76.8813 17.1868C76.8717 17.4099 76.9389 17.6296 77.0716 17.8092C77.2255 17.992 77.4239 18.132 77.6478 18.2156C77.9816 18.3521 78.3256 18.4622 78.6766 18.5449C79.1799 18.6602 79.6684 18.8328 80.1325 19.0593C80.434 19.2364 80.6868 19.4856 80.8681 19.7846C81.0627 20.1124 81.1591 20.4891 81.1459 20.8701C81.1539 21.3268 81.019 21.7747 80.7601 22.151C80.4918 22.5295 80.1229 22.8253 79.6952 23.005C79.2063 23.2082 78.6812 23.3097 78.1519 23.3033C77.6436 23.3064 77.1393 23.2139 76.6652 23.0307C76.2018 22.8551 75.7694 22.6068 75.3843 22.2951C75.3504 22.272 75.3215 22.2424 75.2994 22.2079C75.2773 22.1734 75.2625 22.1348 75.2557 22.0944C75.2625 22.0224 75.2912 21.9542 75.338 21.899L75.7032 21.4051ZM67.4723 21.4051C67.534 21.3228 67.5906 21.2765 67.6472 21.2765C67.7131 21.2902 67.7738 21.3223 67.8221 21.3691C68.4197 21.8826 69.1747 22.1767 69.9622 22.2025C70.2811 22.2095 70.5986 22.1572 70.8984 22.0481C71.1402 21.9642 71.3528 21.8124 71.5106 21.6109C71.654 21.4216 71.7301 21.1898 71.7266 20.9524C71.7364 20.7396 71.6749 20.5296 71.5518 20.3557C71.4022 20.1728 71.207 20.0326 70.9859 19.9493C70.6262 19.8046 70.2566 19.686 69.8799 19.5943C69.3983 19.4777 68.9322 19.3051 68.4909 19.0799C68.1515 18.9151 67.8621 18.663 67.6524 18.3494C67.4419 18.0124 67.3379 17.6198 67.354 17.2228C67.3418 16.7708 67.4674 16.3258 67.7141 15.947C67.9592 15.5851 68.3016 15.2997 68.7018 15.1239C69.1327 14.941 69.597 14.8499 70.065 14.8564C71.0345 14.8518 71.9765 15.1785 72.7349 15.7824C72.7678 15.8075 72.7972 15.8369 72.8224 15.8698C72.8424 15.8946 72.8533 15.9254 72.8532 15.9573C72.8504 15.9862 72.8417 16.0142 72.8275 16.0396L72.771 16.1425L72.4314 16.6569C72.4089 16.6949 72.3792 16.7281 72.344 16.7546C72.3188 16.774 72.2882 16.7848 72.2565 16.7855C72.1827 16.7797 72.1125 16.7509 72.0559 16.7032C71.7566 16.4944 71.4337 16.3217 71.0939 16.1888C70.7663 16.0596 70.4172 15.9932 70.065 15.9933C69.7956 15.9875 69.5279 16.0365 69.2779 16.1373C69.0704 16.2271 68.8922 16.3732 68.7635 16.5592C68.634 16.7501 68.5675 16.9767 68.5732 17.2073C68.5636 17.4305 68.6308 17.6502 68.7635 17.8298C68.9165 18.0113 69.1129 18.1512 69.3346 18.2362C69.6688 18.3715 70.0127 18.4816 70.3634 18.5654C70.8665 18.6817 71.3548 18.8542 71.8192 19.0799C72.1484 19.2398 72.4303 19.4827 72.6372 19.7846C72.8318 20.1124 72.9282 20.4891 72.915 20.8701C72.923 21.3268 72.7881 21.7747 72.5292 22.151C72.2609 22.5295 71.892 22.8253 71.4643 23.005C70.9754 23.2082 70.4503 23.3097 69.921 23.3033C69.4111 23.3057 68.9053 23.2132 68.4292 23.0307C67.9669 22.8528 67.5349 22.6046 67.1482 22.2951C67.0814 22.2469 67.0355 22.1752 67.0196 22.0944C67.0288 22.023 67.0572 21.9554 67.1019 21.899L67.4723 21.4051ZM64.2571 19.6869C64.2795 20.3782 64.1292 21.0642 63.8198 21.6829C63.5477 22.2031 63.122 22.627 62.6006 22.897C62.0488 23.174 61.4381 23.3134 60.8207 23.3033C60.2253 23.3151 59.6358 23.1828 59.1025 22.9175C58.6008 22.6497 58.1945 22.2326 57.9399 21.724C57.6421 21.1 57.4975 20.414 57.5181 19.7229V15.2422C57.5136 15.2055 57.5167 15.1683 57.5274 15.1329C57.538 15.0974 57.5558 15.0646 57.5798 15.0364C57.6362 14.9954 57.706 14.977 57.7753 14.985H58.4183C58.4925 14.976 58.5675 14.9943 58.6292 15.0364C58.6532 15.0646 58.6711 15.0974 58.6817 15.1329C58.6923 15.1683 58.6955 15.2055 58.691 15.2422V19.6509C58.6481 20.322 58.847 20.9863 59.2517 21.5234C59.4528 21.7498 59.7027 21.9277 59.9825 22.0435C60.2623 22.1594 60.5647 22.2102 60.867 22.1922C61.2877 22.2043 61.7032 22.0973 62.0656 21.8835C62.4004 21.6775 62.6642 21.3742 62.8218 21.0141C63.0112 20.5907 63.1026 20.13 63.0894 19.6663V15.2422C63.0842 15.2059 63.0865 15.1688 63.0962 15.1334C63.106 15.098 63.1229 15.065 63.1459 15.0364C63.1994 14.9974 63.2652 14.9791 63.3311 14.985H63.9896C64.0637 14.9774 64.1382 14.9956 64.2005 15.0364C64.245 15.0953 64.2653 15.1689 64.2571 15.2422V19.6869ZM49.7244 22.9175C49.7292 22.9534 49.7261 22.99 49.7154 23.0246C49.7048 23.0592 49.6868 23.0911 49.6627 23.1182C49.6071 23.1611 49.5372 23.1813 49.4672 23.1747H48.8087C48.7388 23.1813 48.6689 23.1611 48.6133 23.1182C48.5892 23.0911 48.5712 23.0592 48.5605 23.0246C48.5499 22.99 48.5468 22.9534 48.5515 22.9175V15.2422C48.547 15.2055 48.5502 15.1683 48.5608 15.1329C48.5714 15.0974 48.5893 15.0646 48.6133 15.0364C48.6696 14.9954 48.7394 14.977 48.8087 14.985H51.0311C53.2534 14.985 54.3646 15.8304 54.3646 17.5211C54.3853 18.0177 54.2386 18.5069 53.9479 18.9101C53.643 19.2857 53.2355 19.5645 52.775 19.7126L54.7864 22.7992C54.8408 22.8632 54.8749 22.9421 54.8842 23.0256C54.8838 23.0466 54.8772 23.067 54.8653 23.0844C54.8535 23.1018 54.8367 23.1153 54.8173 23.1233C54.7568 23.147 54.6919 23.1575 54.627 23.1542H53.9325C53.8325 23.1621 53.7324 23.1407 53.6444 23.0924C53.5508 23.0246 53.4734 22.9367 53.4181 22.8352L51.2574 19.4348C51.2162 19.3892 51.1909 19.3314 51.1854 19.2702C51.1854 19.2085 51.2472 19.1776 51.3603 19.1673C52.5384 19.0439 53.13 18.514 53.13 17.588C53.1458 17.3635 53.103 17.1386 53.0055 16.9357C52.9081 16.7327 52.7595 16.5586 52.5744 16.4306C52.0849 16.1536 51.5255 16.025 50.9642 16.0602H49.8428C49.8024 16.0552 49.7618 16.0662 49.7296 16.091C49.7079 16.1226 49.6987 16.1611 49.7038 16.1991L49.7244 22.9175ZM79.3865 1.42974C79.3947 1.50304 79.3745 1.57669 79.3299 1.63551C79.2712 1.67565 79.2002 1.69386 79.1293 1.68695L76.9327 1.68695C76.8924 1.68194 76.8517 1.69303 76.8195 1.71782C76.8077 1.73095 76.7988 1.74647 76.7935 1.76333C76.7881 1.7802 76.7865 1.79801 76.7887 1.81556V8.50317C76.7887 8.60091 76.7887 8.67293 76.7321 8.70379C76.6744 8.74659 76.603 8.76673 76.5314 8.76038H75.8781C75.8066 8.7658 75.7356 8.74575 75.6775 8.70379C75.6328 8.64705 75.6124 8.5749 75.6209 8.50317V1.81556C75.623 1.79801 75.6214 1.7802 75.6161 1.76333C75.6108 1.74647 75.6019 1.73095 75.59 1.71782C75.575 1.7057 75.5577 1.69672 75.5392 1.69142C75.5206 1.68612 75.5012 1.6846 75.482 1.68695H73.2802C73.2109 1.69496 73.1411 1.6766 73.0847 1.63551C73.0608 1.60734 73.0429 1.57451 73.0323 1.53909C73.0217 1.50367 73.0185 1.46644 73.023 1.42974V0.843285C73.0185 0.806583 73.0217 0.769346 73.0323 0.733929C73.0429 0.698512 73.0608 0.665682 73.0847 0.637512C73.1411 0.596424 73.2109 0.57806 73.2802 0.58607L79.1293 0.58607C79.2002 0.579163 79.2712 0.597371 79.3299 0.637512C79.3745 0.696329 79.3947 0.76998 79.3865 0.843285V1.42974ZM65.2602 6.99588C65.322 6.91357 65.3837 6.86727 65.4352 6.86727C65.5027 6.88056 65.5651 6.91266 65.6152 6.95987C66.2123 7.47414 66.9676 7.76827 67.7552 7.79325C68.0742 7.79949 68.3915 7.74718 68.6915 7.63892C68.9333 7.555 69.1459 7.40319 69.3037 7.20165C69.4471 7.01239 69.5232 6.78062 69.5197 6.54318C69.5295 6.33034 69.4679 6.12033 69.3448 5.94644C69.1943 5.76459 68.9994 5.62463 68.779 5.54004C68.4193 5.3954 68.0496 5.27677 67.6729 5.18508C67.1914 5.06853 66.7253 4.89587 66.284 4.67065C65.9445 4.516 65.6518 4.2747 65.4352 3.97103C65.2247 3.63404 65.1207 3.24142 65.1368 2.84442C65.1246 2.39247 65.2502 1.9475 65.4969 1.56863C65.742 1.2067 66.0844 0.92138 66.4846 0.745542C66.9282 0.54916 67.409 0.450895 67.8942 0.457462C68.8636 0.452895 69.8056 0.779585 70.564 1.38344C70.5969 1.40859 70.6263 1.438 70.6515 1.47089C70.6677 1.49726 70.6765 1.52743 70.6772 1.55834C70.6832 1.58545 70.6832 1.61355 70.6772 1.64065L70.6155 1.74354L70.2759 2.25797C70.2535 2.29601 70.2238 2.32922 70.1885 2.35571C70.1637 2.37572 70.1329 2.38661 70.1011 2.38658C70.029 2.37971 69.9608 2.35099 69.9056 2.30427C69.6063 2.09548 69.2834 1.92281 68.9436 1.78984C68.616 1.66063 68.2669 1.59432 67.9147 1.59435C67.6436 1.58862 67.3742 1.63761 67.1225 1.73839C66.9152 1.8286 66.7371 1.97465 66.6081 2.16023C66.4771 2.35069 66.4087 2.57728 66.4126 2.80841C66.4045 3.03217 66.4735 3.2519 66.6081 3.43087C66.761 3.61242 66.9575 3.75224 67.1791 3.83727C67.5123 3.97532 67.8565 4.08545 68.208 4.16651C68.7129 4.28196 69.203 4.45455 69.6689 4.68094C70.0039 4.84818 70.2894 5.09999 70.4972 5.41143C70.69 5.73974 70.7846 6.11644 70.7698 6.49688C70.7779 6.95364 70.643 7.40149 70.384 7.77782C70.106 8.16163 69.724 8.45794 69.2831 8.63177C68.7946 8.83608 68.2693 8.93764 67.7398 8.93014C67.2299 8.93246 66.7241 8.84001 66.248 8.65749C65.7857 8.47955 65.3537 8.23142 64.967 7.92186C64.9002 7.87374 64.8543 7.80201 64.8384 7.72123C64.8453 7.6492 64.874 7.58099 64.9207 7.52575L65.2602 6.99588ZM62.1325 7.65435C62.2018 7.64634 62.2716 7.66471 62.328 7.7058C62.352 7.73397 62.3698 7.7668 62.3804 7.80221C62.391 7.83763 62.3942 7.87487 62.3897 7.91157V8.50831C62.3945 8.54422 62.3914 8.58073 62.3807 8.61536C62.3701 8.64998 62.3521 8.6819 62.328 8.70894C62.2724 8.75185 62.2025 8.77207 62.1325 8.76552H57.7187C57.6472 8.77094 57.5762 8.7509 57.5181 8.70894C57.4734 8.6522 57.453 8.58004 57.4615 8.50831V0.843285C57.4533 0.76998 57.4735 0.696329 57.5181 0.637512C57.5768 0.597371 57.6479 0.579163 57.7187 0.58607L62.1377 0.58607C62.2086 0.577244 62.2803 0.595623 62.3383 0.637512C62.3613 0.666092 62.3782 0.69911 62.388 0.734512C62.3977 0.769913 62.4001 0.806939 62.3949 0.843285V1.42974C62.4001 1.46608 62.3977 1.50311 62.388 1.53851C62.3782 1.57391 62.3613 1.60693 62.3383 1.63551C62.2803 1.6774 62.2086 1.69578 62.1377 1.68695L58.7476 1.68695C58.7072 1.68194 58.6666 1.69303 58.6344 1.71782C58.6226 1.73095 58.6137 1.74647 58.6083 1.76333C58.603 1.7802 58.6013 1.79801 58.6035 1.81556V3.95559C58.5985 3.99591 58.6096 4.03658 58.6344 4.06877C58.6344 4.06877 58.691 4.09449 58.7476 4.09449H61.7158C61.7873 4.08908 61.8583 4.10912 61.9164 4.15108C61.9601 4.20832 61.9804 4.28007 61.9731 4.35171V4.93816C61.9823 4.97373 61.9821 5.01111 61.9725 5.04659C61.9628 5.08206 61.944 5.11439 61.918 5.14039C61.892 5.16638 61.8597 5.18513 61.8242 5.19477C61.7888 5.20442 61.7514 5.20463 61.7158 5.19537H58.7476C58.7072 5.19036 58.6666 5.20146 58.6344 5.22624C58.6228 5.23954 58.6141 5.25509 58.6088 5.2719C58.6035 5.28872 58.6017 5.30644 58.6035 5.32398V7.52575C58.6017 7.54328 58.6035 7.56101 58.6088 7.57783C58.6141 7.59464 58.6228 7.61018 58.6344 7.62349C58.6666 7.64827 58.7072 7.65936 58.7476 7.65435H62.1325ZM51.1185 7.68522C51.5136 7.69644 51.9082 7.65317 52.2915 7.55661C52.5548 7.49667 52.7903 7.34991 52.9602 7.13992C53.1121 6.91592 53.1879 6.64897 53.1763 6.37856C53.1896 6.19026 53.1481 6.00213 53.0568 5.83689C52.9655 5.67166 52.8283 5.53639 52.6618 5.44744C52.2028 5.23809 51.6994 5.14448 51.1957 5.17479H49.8273C49.7707 5.17479 49.7347 5.1748 49.7141 5.20052C49.6936 5.22624 49.6884 5.2571 49.6884 5.31369V7.54632C49.6847 7.5842 49.6937 7.62224 49.7141 7.65435C49.7463 7.67914 49.787 7.69023 49.8273 7.68522H51.1185ZM49.8428 1.65094C49.8224 1.64782 49.8016 1.64945 49.7819 1.6557C49.7623 1.66194 49.7444 1.67264 49.7296 1.68695C49.7091 1.71713 49.7 1.75358 49.7038 1.78984V4.00189C49.7001 4.03977 49.7091 4.07781 49.7296 4.10992C49.7451 4.1231 49.7631 4.13307 49.7826 4.13925C49.802 4.14543 49.8224 4.1477 49.8428 4.14593H51.1648C51.6305 4.17868 52.0951 4.06925 52.4972 3.83213C52.6455 3.73 52.7645 3.59074 52.8421 3.42824C52.9198 3.26575 52.9534 3.08572 52.9396 2.90615C52.9525 2.7222 52.914 2.5383 52.8287 2.37484C52.7433 2.21139 52.6144 2.07478 52.4561 1.98018C52.0049 1.75642 51.5028 1.6553 51.0002 1.68695L49.8428 1.65094ZM48.531 0.832997C48.5265 0.796294 48.5296 0.759059 48.5403 0.723642C48.5509 0.688225 48.5687 0.655393 48.5927 0.627223C48.6491 0.586135 48.7189 0.567771 48.7882 0.575781H51.0825C51.8703 0.531933 52.6546 0.710176 53.346 1.09021C53.616 1.26968 53.8335 1.51758 53.9763 1.80861C54.1191 2.09963 54.1821 2.42334 54.1588 2.74668C54.1905 3.13818 54.0866 3.52865 53.8646 3.85269C53.6427 4.17673 53.3161 4.41466 52.9396 4.52661C53.3517 4.61511 53.7237 4.83543 53.9994 5.15422C54.271 5.49696 54.4098 5.92623 54.3903 6.36313C54.4163 6.71392 54.3519 7.0655 54.2033 7.38431C54.0547 7.70313 53.8269 7.97853 53.5415 8.18422C52.8091 8.61279 51.9655 8.81338 51.1185 8.76038H48.7882C48.7182 8.76693 48.6484 8.74671 48.5927 8.70379C48.5686 8.67675 48.5506 8.64483 48.5399 8.61021C48.5293 8.57559 48.5262 8.53908 48.531 8.50317V0.832997Z" fill="white"/>
<path d="M112.095 44.6422C112.099 44.6789 112.096 44.7161 112.085 44.7516C112.075 44.787 112.057 44.8198 112.033 44.848C111.977 44.8891 111.907 44.9074 111.837 44.8994H109.636C109.595 44.8955 109.555 44.9065 109.523 44.9303C109.504 44.9592 109.495 44.9935 109.497 45.028V51.7156C109.504 51.7889 109.484 51.8621 109.44 51.9214C109.38 51.9594 109.31 51.9774 109.24 51.9729H108.586C108.516 51.9789 108.445 51.9608 108.386 51.9214C108.363 51.8927 108.346 51.8596 108.336 51.8243C108.327 51.7889 108.324 51.752 108.329 51.7156V45.028C108.331 45.0105 108.329 44.9928 108.324 44.976C108.318 44.9591 108.31 44.9436 108.298 44.9303C108.266 44.9055 108.225 44.8944 108.185 44.8994H105.988C105.917 44.9073 105.846 44.889 105.788 44.848C105.765 44.8194 105.748 44.7864 105.738 44.751C105.728 44.7156 105.726 44.6786 105.731 44.6422V44.0455C105.726 44.0091 105.728 43.9721 105.738 43.9367C105.748 43.9013 105.765 43.8683 105.788 43.8397C105.847 43.8011 105.918 43.783 105.988 43.7883H111.837C111.907 43.783 111.975 43.8011 112.033 43.8397C112.057 43.8679 112.075 43.9007 112.085 43.9361C112.096 43.9715 112.099 44.0088 112.095 44.0455V44.6422ZM99.0076 44.8994C98.9673 44.8944 98.9266 44.9055 98.8944 44.9303C98.8841 44.9621 98.8841 44.9963 98.8944 45.028V48.022C98.885 48.0574 98.885 48.0947 98.8944 48.1301C98.9266 48.1548 98.9673 48.1659 99.0076 48.1609H100.144C100.707 48.1947 101.266 48.0527 101.744 47.7545C101.937 47.6108 102.091 47.4211 102.191 47.2028C102.292 46.9844 102.336 46.7443 102.321 46.5044C102.34 46.2694 102.299 46.0333 102.2 45.8188C102.102 45.6044 101.95 45.4189 101.76 45.2801C101.271 44.9964 100.709 44.8639 100.144 44.8994H99.0076ZM99.0076 49.2721C98.9673 49.2671 98.9266 49.2782 98.8944 49.303C98.8841 49.3347 98.8841 49.3689 98.8944 49.4007V51.7208C98.8986 51.7575 98.8953 51.7946 98.8846 51.83C98.874 51.8654 98.8563 51.8982 98.8327 51.9266C98.7751 51.9652 98.7063 51.9833 98.6372 51.978H97.9787C97.9096 51.9833 97.8408 51.9652 97.7832 51.9266C97.7595 51.8982 97.7418 51.8654 97.7312 51.83C97.7206 51.7946 97.7173 51.7575 97.7215 51.7208V44.0403C97.717 44.0036 97.7202 43.9664 97.7308 43.931C97.7414 43.8956 97.7593 43.8627 97.7832 43.8345C97.8408 43.7959 97.9096 43.7778 97.9787 43.7831H100.211C101.099 43.7152 101.982 43.957 102.711 44.4673C102.993 44.7166 103.213 45.027 103.356 45.3748C103.499 45.7226 103.56 46.0985 103.535 46.4736C103.551 47.0063 103.415 47.5325 103.144 47.9912C102.864 48.4212 102.458 48.7538 101.981 48.9429C101.384 49.1734 100.748 49.2836 100.108 49.2669L99.0076 49.2721ZM94.1925 50.8668C94.2633 50.8599 94.3343 50.8781 94.3931 50.9183C94.4376 50.9771 94.4579 51.0507 94.4497 51.124V51.7208C94.4569 51.794 94.4367 51.8673 94.3931 51.9266C94.3334 51.9645 94.2631 51.9825 94.1925 51.978H89.7581C89.689 51.9833 89.6202 51.9652 89.5626 51.9266C89.5389 51.8982 89.5212 51.8654 89.5106 51.83C89.5 51.7946 89.4967 51.7575 89.5009 51.7208V44.0403C89.4964 44.0036 89.4996 43.9664 89.5102 43.931C89.5208 43.8956 89.5387 43.8627 89.5626 43.8345C89.6202 43.7959 89.689 43.7778 89.7581 43.7831H94.1822C94.2513 43.7778 94.3202 43.7959 94.3777 43.8345C94.4016 43.8627 94.4195 43.8956 94.4301 43.931C94.4408 43.9664 94.4439 44.0036 94.4394 44.0403V44.6422C94.4439 44.6789 94.4408 44.7161 94.4301 44.7516C94.4195 44.787 94.4016 44.8198 94.3777 44.848C94.3213 44.8891 94.2515 44.9074 94.1822 44.8994H90.8127C90.7724 44.8944 90.7317 44.9055 90.6995 44.9303C90.6806 44.9592 90.6715 44.9935 90.6738 45.028V47.1681C90.6704 47.2076 90.6793 47.2471 90.6995 47.2812C90.7317 47.306 90.7724 47.3171 90.8127 47.3121H93.7809C93.8519 47.3033 93.9236 47.3217 93.9816 47.3635C94.0046 47.3921 94.0215 47.4252 94.0313 47.4606C94.041 47.496 94.0433 47.533 94.0381 47.5693V48.1506C94.046 48.2223 94.0258 48.2943 93.9816 48.3513C93.9243 48.395 93.8526 48.4152 93.7809 48.4078H90.8127C90.7724 48.4028 90.7317 48.4139 90.6995 48.4387C90.6806 48.4676 90.6715 48.5019 90.6738 48.5365V50.7382C90.6715 50.7727 90.6806 50.807 90.6995 50.836C90.7317 50.8607 90.7724 50.8718 90.8127 50.8668H94.1925ZM83.4357 50.9954C84.2949 51.0037 85.1288 50.7045 85.7867 50.1518C85.841 50.0961 85.911 50.0584 85.9873 50.0437C86.021 50.0465 86.0532 50.059 86.0799 50.0798C86.1099 50.1046 86.1374 50.1321 86.1622 50.1621L86.5018 50.6302C86.5384 50.6772 86.5583 50.7352 86.5583 50.7948C86.558 50.8306 86.5453 50.8651 86.5223 50.8925C86.4939 50.9352 86.4592 50.9733 86.4194 51.0057C86.005 51.3576 85.5312 51.6328 85.0202 51.8185C84.498 52.0105 83.9458 52.108 83.3895 52.1066C82.6544 52.1148 81.9303 51.9285 81.2906 51.5665C80.6601 51.2137 80.1373 50.6963 79.7781 50.0695C79.404 49.4153 79.2121 48.6727 79.2225 47.9191C79.212 47.1574 79.4037 46.4065 79.7781 45.7431C80.142 45.0974 80.6757 44.5637 81.3214 44.1998C81.9793 43.8255 82.7252 43.6337 83.482 43.6442C84.0306 43.642 84.5748 43.7414 85.0871 43.9374C85.5827 44.1232 86.0435 44.391 86.4503 44.7297C86.4831 44.7478 86.5111 44.7737 86.5317 44.8051C86.5523 44.8365 86.565 44.8724 86.5686 44.9097C86.5619 44.9769 86.537 45.0409 86.4966 45.0949L86.1571 45.5528C86.0954 45.6351 86.0336 45.6814 85.9719 45.6814C85.8968 45.6693 85.8271 45.6353 85.7713 45.5836C85.4405 45.3302 85.0749 45.1258 84.6858 44.9766C84.293 44.8281 83.8763 44.7531 83.4563 44.7554C82.9156 44.7456 82.3822 44.8825 81.913 45.1515C81.4603 45.4189 81.0873 45.8025 80.8327 46.2627C80.5653 46.7586 80.4289 47.3146 80.4366 47.878C80.4291 48.4293 80.5638 48.9732 80.8276 49.4573C81.077 49.9208 81.4489 50.3069 81.9027 50.5736C82.3671 50.8521 82.8995 50.9963 83.4409 50.9903L83.4357 50.9954Z" fill="white"/>
<path d="M59.0416 47.899C59.0339 48.4526 59.1704 48.9987 59.4377 49.4835C59.6848 49.9461 60.0575 50.3295 60.5129 50.5895C60.9714 50.8578 61.4941 50.9965 62.0253 50.9908C62.5615 50.9925 63.0884 50.8502 63.5508 50.5787C64.0132 50.3072 64.3942 49.9166 64.6541 49.4475C64.9247 48.9619 65.0631 48.4138 65.0553 47.8579C65.0642 47.296 64.9277 46.7414 64.6592 46.2477C64.4036 45.7863 64.0264 45.4038 63.5686 45.1417C63.1049 44.8793 62.5812 44.7414 62.0485 44.7414C61.5157 44.7414 60.992 44.8793 60.5283 45.1417C60.0714 45.41 59.6961 45.7977 59.4429 46.2632C59.171 46.7557 59.0327 47.3108 59.0416 47.8733M57.8276 47.8733C57.8177 47.1133 58.0094 46.3642 58.3831 45.7024C58.7444 45.0548 59.2788 44.5204 59.9264 44.1591C60.5859 43.7962 61.3265 43.6059 62.0793 43.6059C62.8321 43.6059 63.5727 43.7962 64.2322 44.1591C64.8632 44.5157 65.3859 45.0366 65.7446 45.6664C66.1076 46.3278 66.2979 47.07 66.2979 47.8245C66.2979 48.5789 66.1076 49.3211 65.7446 49.9825C65.3838 50.6305 64.8493 51.1649 64.2013 51.5258C63.5365 51.8962 62.7863 52.0859 62.0253 52.0762C61.2782 52.0846 60.542 51.8966 59.8904 51.5309C59.2615 51.1774 58.7418 50.6577 58.3883 50.0288C58.0201 49.385 57.8268 48.6561 57.8276 47.9145V47.8733ZM52.2511 50.9599C53.1103 50.9682 53.9442 50.6689 54.6021 50.1162C54.6564 50.0606 54.7264 50.0229 54.8027 50.0082C54.8364 50.011 54.8686 50.0235 54.8953 50.0442C54.9253 50.069 54.9528 50.0966 54.9776 50.1265L55.3171 50.5947C55.3538 50.6417 55.3737 50.6996 55.3737 50.7593C55.3726 50.7949 55.36 50.8292 55.3377 50.857C55.3092 50.8997 55.2746 50.9378 55.2348 50.9702C54.8204 51.3221 54.3466 51.5973 53.8356 51.783C53.3134 51.975 52.7612 52.0725 52.2048 52.0711C51.4698 52.0793 50.7457 51.893 50.106 51.5309C49.4769 51.1781 48.9558 50.6605 48.5987 50.0339C48.2245 49.3797 48.0326 48.6372 48.0431 47.8836C48.0325 47.1219 48.2242 46.371 48.5987 45.7076C48.9619 45.0614 49.4958 44.5275 50.142 44.1643C50.7998 43.79 51.5457 43.5981 52.3026 43.6087C52.8511 43.6064 53.3953 43.7059 53.9076 43.9019C54.404 44.0861 54.8651 44.3541 55.2708 44.6941C55.3037 44.7123 55.3316 44.7382 55.3522 44.7696C55.3728 44.8009 55.3855 44.8368 55.3891 44.8742C55.3825 44.9413 55.3576 45.0054 55.3171 45.0594L54.9776 45.5172C54.9159 45.5995 54.8541 45.6458 54.7924 45.6458C54.7174 45.6337 54.6476 45.5997 54.5918 45.5481C54.2617 45.2937 53.8959 45.0891 53.5063 44.9411C53.1135 44.7926 52.6968 44.7176 52.2768 44.7199C51.7464 44.7149 51.2243 44.8516 50.7644 45.116C50.3091 45.3818 49.9341 45.7658 49.679 46.2271C49.4111 46.7229 49.2747 47.279 49.2828 47.8425C49.2754 48.3937 49.41 48.9376 49.6738 49.4218C49.9248 49.8842 50.2963 50.2699 50.749 50.5381C51.2003 50.8205 51.719 50.9768 52.2511 50.9908V50.9599ZM59.0416 33.4693C59.0339 34.0228 59.1704 34.5689 59.4377 35.0537C59.6848 35.5163 60.0575 35.8997 60.5129 36.1597C60.9714 36.428 61.4941 36.5667 62.0253 36.561C62.567 36.5671 63.1002 36.4267 63.5686 36.1546C64.0298 35.8889 64.4102 35.5031 64.6695 35.0383C64.9401 34.5527 65.0785 34.0045 65.0707 33.4487C65.0796 32.8868 64.9432 32.3321 64.6746 31.8385C64.419 31.3771 64.0418 30.9946 63.5841 30.7325C63.1204 30.4701 62.5967 30.3322 62.0639 30.3322C61.5311 30.3322 61.0074 30.4701 60.5438 30.7325C60.0868 31.0008 59.7115 31.3885 59.4583 31.8539C59.1749 32.3556 59.031 32.924 59.0416 33.5001V33.4693ZM57.8276 33.4693C57.8177 32.7092 58.0094 31.9602 58.3831 31.2984C58.7444 30.6507 59.2788 30.1164 59.9264 29.7551C60.5859 29.3921 61.3265 29.2018 62.0793 29.2018C62.8321 29.2018 63.5727 29.3921 64.2322 29.7551C64.8632 30.1117 65.3859 30.6325 65.7446 31.2623C66.1076 31.9237 66.2979 32.666 66.2979 33.4204C66.2979 34.1748 66.1076 34.917 65.7446 35.5784C65.3838 36.2264 64.8493 36.7608 64.2013 37.1217C63.5365 37.4921 62.7863 37.6819 62.0253 37.6722C61.2782 37.6805 60.542 37.4925 59.8904 37.1269C59.2626 36.7718 58.7433 36.2525 58.3883 35.6247C58.0209 34.9825 57.8277 34.2554 57.8276 33.5156V33.4693ZM52.2511 36.5558C53.1103 36.5641 53.9442 36.2649 54.6021 35.7122C54.6564 35.6565 54.7264 35.6188 54.8027 35.6041C54.8364 35.6069 54.8686 35.6195 54.8953 35.6402C54.9253 35.665 54.9528 35.6925 54.9776 35.7225L55.3171 36.1906C55.3538 36.2376 55.3737 36.2956 55.3737 36.3552C55.3726 36.3908 55.36 36.4251 55.3377 36.453C55.3092 36.4956 55.2746 36.5337 55.2348 36.5661C54.8204 36.918 54.3466 37.1932 53.8356 37.3789C53.3134 37.5709 52.7612 37.6684 52.2048 37.667C51.4698 37.6752 50.7457 37.4889 50.106 37.1269C49.4769 36.774 48.9558 36.2565 48.5987 35.6299C48.2245 34.9757 48.0326 34.2331 48.0431 33.4795C48.0325 32.7178 48.2242 31.9669 48.5987 31.3035C48.9619 30.6573 49.4958 30.1234 50.142 29.7602C50.7998 29.3859 51.5457 29.1941 52.3026 29.2046C52.8511 29.2024 53.3953 29.3018 53.9076 29.4978C54.404 29.682 54.8651 29.95 55.2708 30.2901C55.3037 30.3082 55.3316 30.3341 55.3522 30.3655C55.3728 30.3969 55.3855 30.4328 55.3891 30.4701C55.3825 30.5373 55.3576 30.6013 55.3171 30.6553L54.9776 31.1132C54.9159 31.1955 54.8541 31.2418 54.7924 31.2418C54.7174 31.2297 54.6476 31.1957 54.5918 31.144C54.2617 30.8896 53.8959 30.6851 53.5063 30.537C53.1135 30.3885 52.6968 30.3136 52.2768 30.3158C51.7464 30.3108 51.2243 30.4475 50.7644 30.7119C50.3091 30.9778 49.9341 31.3617 49.679 31.8231C49.4111 32.3188 49.2747 32.875 49.2828 33.4384C49.2754 33.9897 49.41 34.5336 49.6738 35.0177C49.9233 35.4812 50.2952 35.8673 50.749 36.134C51.1997 36.4182 51.7185 36.5764 52.2511 36.5919V36.5558Z" fill="white"/>
<path d="M21.2925 40.0125C23.615 43.5499 26.7796 46.4552 30.5023 48.4673C34.225 50.4795 38.3892 51.5356 42.6208 51.5409V0C38.3885 0.0048487 34.2237 1.06135 30.5008 3.07454C26.7779 5.08773 23.6137 7.9945 21.2925 11.5335C24.0716 15.7636 25.5524 20.7143 25.5524 25.7756C25.5524 30.8369 24.0716 35.7876 21.2925 40.0176" fill="#FFCC00"/>
<path d="M21.3289 40.0125C19.0064 43.5499 15.8418 46.4552 12.1191 48.4673C8.3964 50.4795 4.23223 51.5356 0.000530243 51.5409V0C4.23287 0.0048487 8.39768 1.06135 12.1206 3.07454C15.8434 5.08773 19.0077 7.9945 21.3289 11.5335C18.5466 15.7624 17.0639 20.7136 17.0639 25.7756C17.0639 30.8376 18.5466 35.7888 21.3289 40.0176" fill="#8F116E"/>
</g>
<defs>
<clipPath id="clip0_385_1845">
<rect width="52.0964" height="137.183" fill="white" transform="matrix(0 1 -1 0 137.183 0)"/>
</clipPath>
</defs>
</svg>
