<svg width="110" height="42" viewBox="0 0 110 42" fill="none" xmlns="http://www.w3.org/2000/svg">
<g clip-path="url(#clip0_24_107)">
<path d="M60.0044 35.2816C59.9978 35.2229 60.014 35.1639 60.0497 35.1167C60.0968 35.0846 60.1537 35.07 60.2104 35.0755H60.7338C60.7906 35.07 60.8474 35.0846 60.8945 35.1167C60.9302 35.1639 60.9464 35.2229 60.9399 35.2816V41.4304C60.9399 41.6365 60.878 41.7395 60.7544 41.7395C60.6957 41.736 60.6396 41.7144 60.5937 41.6777C60.5079 41.6088 60.4292 41.5315 60.3588 41.4469L56.5426 36.9589V41.4304C56.5493 41.4879 56.533 41.5457 56.4972 41.5911C56.4507 41.6248 56.3937 41.6408 56.3365 41.6365H55.8131C55.7558 41.6408 55.6989 41.6248 55.6524 41.5911C55.6166 41.5457 55.6003 41.4879 55.607 41.4304V35.2816C55.6022 35.2007 55.6178 35.1199 55.6524 35.0467C55.669 35.022 55.6919 35.0021 55.7186 34.9891C55.7454 34.9761 55.7752 34.9703 55.8049 34.9725C55.8624 34.9754 55.9174 34.9972 55.9615 35.0343C56.0462 35.1017 56.1223 35.1792 56.1881 35.2651L59.992 39.7531V35.2816M106.273 24.4305C106.241 24.4265 106.208 24.4354 106.182 24.4552C106.173 24.4659 106.166 24.4783 106.162 24.4918C106.158 24.5053 106.156 24.5195 106.158 24.5335V26.932C106.156 26.9629 106.165 26.9934 106.182 27.0186C106.208 27.0384 106.241 27.0473 106.273 27.0433H107.18C107.632 27.071 108.081 26.9572 108.465 26.7177C108.62 26.6018 108.742 26.4489 108.822 26.2733C108.902 26.0976 108.937 25.9047 108.923 25.7122C108.939 25.5249 108.906 25.3367 108.828 25.1656C108.75 24.9946 108.63 24.8464 108.478 24.7354C108.085 24.5083 107.633 24.4022 107.18 24.4305H106.273ZM106.273 27.9335C106.241 27.9295 106.208 27.9384 106.182 27.9582C106.173 27.9689 106.166 27.9813 106.162 27.9948C106.158 28.0083 106.156 28.0225 106.158 28.0365V29.8952C106.158 29.9735 106.158 30.0312 106.112 30.0559C106.066 30.0902 106.009 30.1063 105.952 30.1012H105.428C105.371 30.1056 105.314 30.0895 105.267 30.0559C105.232 30.0105 105.215 29.9527 105.222 29.8952V23.7464C105.216 23.6876 105.232 23.6286 105.267 23.5815C105.315 23.5494 105.371 23.5348 105.428 23.5403H107.233C107.943 23.4851 108.65 23.6789 109.232 24.0884C109.458 24.2879 109.635 24.5365 109.75 24.8151C109.865 25.0937 109.915 25.3949 109.896 25.6957C109.907 26.121 109.799 26.5409 109.582 26.9073C109.357 27.2531 109.03 27.5209 108.647 27.6739C108.169 27.859 107.659 27.9472 107.147 27.9335H106.273ZM96.9055 26.8373C96.8985 27.2816 97.0064 27.7203 97.2187 28.1107C97.419 28.4785 97.7171 28.7837 98.0801 28.9926C98.4548 29.2114 98.8826 29.3226 99.3164 29.3141C99.7504 29.3192 100.178 29.2067 100.553 28.9885C100.923 28.7768 101.228 28.4675 101.435 28.0942C101.644 27.6995 101.754 27.2594 101.754 26.8125C101.754 26.3656 101.644 25.9255 101.435 25.5308C101.231 25.1615 100.931 24.855 100.565 24.6448C100.189 24.4306 99.7618 24.321 99.3288 24.3275C98.9009 24.3237 98.4802 24.4369 98.112 24.6548C97.7437 24.8727 97.442 25.187 97.2393 25.5638C97.0217 25.9531 96.9068 26.3913 96.9055 26.8373ZM95.9288 26.8373C95.9209 26.2284 96.0745 25.6283 96.3739 25.0981C96.6646 24.5802 97.0924 24.1524 97.6103 23.8618C98.1394 23.571 98.7333 23.4185 99.337 23.4185C99.9408 23.4185 100.535 23.571 101.064 23.8618C101.568 24.1477 101.985 24.565 102.271 25.0693C102.562 25.5991 102.714 26.1937 102.714 26.7981C102.714 27.4025 102.562 27.9971 102.271 28.527C101.981 29.0451 101.553 29.473 101.035 29.7633C100.502 30.06 99.9013 30.2121 99.2917 30.2043C98.6932 30.211 98.1034 30.0604 97.5814 29.7674C97.0785 29.483 96.6624 29.067 96.378 28.564C96.0795 28.0423 95.9245 27.4507 95.9288 26.8496V26.8373ZM93.4025 29.8828C93.4093 29.9403 93.393 29.9981 93.3572 30.0436C93.3106 30.0772 93.2537 30.0932 93.1965 30.0889H92.6731C92.6158 30.0932 92.5589 30.0772 92.5124 30.0436C92.4765 29.9981 92.4602 29.9403 92.467 29.8828V27.2659C92.4685 27.2518 92.467 27.2376 92.4628 27.2241C92.4585 27.2107 92.4515 27.1982 92.4423 27.1876C92.4165 27.1677 92.3839 27.1588 92.3516 27.1628H89.2525C89.2202 27.1588 89.1876 27.1677 89.1618 27.1876C89.1519 27.2127 89.1519 27.2407 89.1618 27.2659V29.8828C89.1656 29.9116 89.1631 29.9408 89.1546 29.9686C89.1461 29.9963 89.1317 30.0219 89.1124 30.0436C89.0678 30.0779 89.0118 30.0941 88.9558 30.0889H88.4282C88.3722 30.0941 88.3162 30.0779 88.2716 30.0436C88.2523 30.0219 88.2379 29.9963 88.2294 29.9686C88.2208 29.9408 88.2184 29.9116 88.2222 29.8828V23.7464C88.2186 23.717 88.2211 23.6871 88.2296 23.6588C88.2381 23.6304 88.2524 23.6041 88.2716 23.5815C88.3168 23.5486 88.3727 23.5339 88.4282 23.5403H88.9351C88.9907 23.5339 89.0466 23.5486 89.0917 23.5815C89.1109 23.6041 89.1252 23.6304 89.1337 23.6588C89.1423 23.6871 89.1448 23.717 89.1412 23.7464V26.182C89.1318 26.2101 89.1318 26.2405 89.1412 26.2685C89.1537 26.2791 89.1681 26.2871 89.1837 26.292C89.1992 26.297 89.2156 26.2988 89.2319 26.2974H92.331C92.3473 26.2988 92.3637 26.297 92.3792 26.292C92.3948 26.2871 92.4092 26.2791 92.4217 26.2685C92.4395 26.2433 92.4482 26.2128 92.4464 26.182V23.7464C92.4398 23.6876 92.4561 23.6286 92.4917 23.5815C92.5388 23.5494 92.5957 23.5348 92.6525 23.5403H93.1759C93.2326 23.5348 93.2895 23.5494 93.3366 23.5815C93.3722 23.6286 93.3885 23.6876 93.3819 23.7464L93.4025 29.8828ZM81.2986 28.6712C81.348 28.6053 81.3975 28.5682 81.4387 28.5682C81.4918 28.5782 81.5407 28.604 81.5788 28.6423C82.0591 29.0538 82.6653 29.2893 83.2973 29.31C83.5515 29.3151 83.8044 29.2732 84.0433 29.1863C84.2387 29.1202 84.4106 28.9985 84.5378 28.836C84.6527 28.6844 84.7136 28.4987 84.7109 28.3085C84.7187 28.138 84.6694 27.9698 84.5708 27.8305C84.4502 27.6848 84.294 27.5727 84.1175 27.5049C83.8293 27.389 83.5332 27.294 83.2314 27.2205C82.8454 27.1279 82.4719 26.9895 82.1187 26.8084C81.8464 26.6754 81.6134 26.4737 81.4428 26.2232C81.2775 25.952 81.1958 25.6381 81.2079 25.3207C81.1981 24.9586 81.2987 24.6021 81.4964 24.2986C81.6928 24.0087 81.967 23.7801 82.2876 23.6392C82.643 23.4819 83.0282 23.4032 83.4169 23.4084C84.1935 23.4048 84.9482 23.6665 85.5558 24.1502C85.5821 24.1704 85.6057 24.194 85.6258 24.2203C85.6318 24.2433 85.6318 24.2674 85.6258 24.2904C85.6306 24.3121 85.6306 24.3346 85.6258 24.3563L85.5764 24.4387L85.3044 24.8508C85.2864 24.8813 85.2626 24.9079 85.2343 24.9291C85.2145 24.9452 85.1898 24.9539 85.1643 24.9539C85.1066 24.9484 85.0519 24.9254 85.0076 24.8879C84.7679 24.7207 84.5092 24.5823 84.237 24.4758C83.9745 24.3723 83.6949 24.3192 83.4127 24.3192C83.1956 24.3146 82.9797 24.3539 82.7781 24.4346C82.612 24.5069 82.4693 24.6239 82.3659 24.7725C82.261 24.9251 82.2063 25.1066 82.2094 25.2918C82.2029 25.4711 82.2582 25.6471 82.3659 25.7905C82.4885 25.9359 82.6459 26.0479 82.8234 26.116C83.0904 26.2266 83.3661 26.3149 83.6477 26.3798C84.0522 26.4723 84.4448 26.6106 84.8181 26.7919C85.0864 26.9259 85.3151 27.1276 85.4816 27.3771C85.636 27.6401 85.7118 27.9419 85.7 28.2467C85.7064 28.6126 85.5984 28.9714 85.3909 29.2729C85.176 29.5761 84.8805 29.8131 84.5378 29.957C84.1465 30.1207 83.7256 30.202 83.3015 30.196C82.8899 30.2047 82.4803 30.1362 82.094 29.9941C81.7229 29.8532 81.3765 29.6543 81.0678 29.4048C80.9977 29.3429 80.9648 29.2894 80.9648 29.2482C80.9694 29.189 80.9925 29.1328 81.0307 29.0874L81.2986 28.6712ZM78.797 29.2111C78.8525 29.2047 78.9084 29.2194 78.9536 29.2523C78.9728 29.2748 78.9871 29.3011 78.9956 29.3295C79.0041 29.3579 79.0067 29.3877 79.0031 29.4171V29.8952C79.0069 29.924 79.0044 29.9532 78.9959 29.9809C78.9873 30.0087 78.9729 30.0343 78.9536 30.0559C78.909 30.0903 78.8531 30.1065 78.797 30.1012H75.2445C75.1873 30.1056 75.1303 30.0895 75.0838 30.0559C75.048 30.0105 75.0317 29.9527 75.0385 29.8952V23.7464C75.0319 23.6876 75.0481 23.6286 75.0838 23.5815C75.1309 23.5494 75.1878 23.5348 75.2445 23.5403H78.797C78.8538 23.534 78.911 23.5487 78.9577 23.5815C78.9762 23.6044 78.9898 23.6309 78.9976 23.6592C79.0054 23.6876 79.0072 23.7172 79.0031 23.7464V24.2244C79.0072 24.2535 79.0054 24.2832 78.9976 24.3116C78.9898 24.3399 78.9762 24.3664 78.9577 24.3893C78.911 24.4221 78.8538 24.4368 78.797 24.4305H76.1017C76.0695 24.4265 76.0369 24.4354 76.0111 24.4552C76.0018 24.4659 75.9948 24.4783 75.9906 24.4918C75.9863 24.5053 75.9849 24.5195 75.9863 24.5335V26.2479C75.9823 26.2802 75.9912 26.3128 76.0111 26.3386C76.0111 26.3386 76.0564 26.3592 76.1017 26.3592H78.4797C78.5369 26.3549 78.5939 26.3709 78.6404 26.4045C78.6762 26.45 78.6925 26.5078 78.6857 26.5653V27.0351C78.6931 27.0636 78.693 27.0935 78.6852 27.1219C78.6775 27.1504 78.6625 27.1763 78.6417 27.1971C78.6209 27.2179 78.595 27.2329 78.5665 27.2407C78.5381 27.2484 78.5082 27.2486 78.4797 27.2411H76.1017C76.0695 27.2371 76.0369 27.246 76.0111 27.2659C76.0018 27.2765 75.9948 27.289 75.9906 27.3024C75.9863 27.3159 75.9849 27.3301 75.9863 27.3442V29.108C75.9849 29.1221 75.9863 29.1363 75.9906 29.1498C75.9948 29.1632 76.0018 29.1757 76.0111 29.1863C76.0369 29.2062 76.0695 29.2151 76.1017 29.2111H78.797ZM72.2319 29.2111C72.2875 29.2047 72.3434 29.2194 72.3885 29.2523C72.4077 29.2748 72.422 29.3011 72.4306 29.3295C72.4391 29.3579 72.4416 29.3877 72.438 29.4171V29.8952C72.4418 29.924 72.4393 29.9532 72.4308 29.9809C72.4223 30.0087 72.4079 30.0343 72.3885 30.0559C72.344 30.0903 72.288 30.1065 72.2319 30.1012H68.6795C68.6222 30.1056 68.5653 30.0895 68.5187 30.0559C68.4829 30.0105 68.4666 29.9527 68.4734 29.8952V23.7464C68.4669 23.6876 68.4831 23.6286 68.5187 23.5815C68.5658 23.5494 68.6227 23.5348 68.6795 23.5403H72.2031C72.2598 23.5348 72.3167 23.5494 72.3638 23.5815C72.3823 23.6044 72.3958 23.6309 72.4036 23.6592C72.4114 23.6876 72.4133 23.7172 72.4092 23.7464V24.2244C72.4133 24.2535 72.4114 24.2832 72.4036 24.3116C72.3958 24.3399 72.3823 24.3664 72.3638 24.3893C72.3167 24.4214 72.2598 24.436 72.2031 24.4305H69.5078C69.4755 24.4265 69.443 24.4354 69.4172 24.4552C69.4079 24.4659 69.4009 24.4783 69.3967 24.4918C69.3924 24.5053 69.391 24.5195 69.3924 24.5335V26.2479C69.3884 26.2802 69.3973 26.3128 69.4172 26.3386C69.4172 26.3386 69.4625 26.3592 69.5078 26.3592H71.8858C71.943 26.3549 71.9999 26.3709 72.0465 26.4045C72.0823 26.45 72.0986 26.5078 72.0918 26.5653V27.0351C72.0992 27.0636 72.0991 27.0935 72.0913 27.1219C72.0836 27.1504 72.0686 27.1763 72.0478 27.1971C72.0269 27.2179 72.001 27.2329 71.9726 27.2407C71.9442 27.2484 71.9143 27.2486 71.8858 27.2411H69.5078C69.4755 27.2371 69.443 27.246 69.4172 27.2659C69.4079 27.2765 69.4009 27.289 69.3967 27.3024C69.3924 27.3159 69.391 27.3301 69.3924 27.3442V29.108C69.391 29.1221 69.3924 29.1363 69.3967 29.1498C69.4009 29.1632 69.4079 29.1757 69.4172 29.1863C69.443 29.2062 69.4755 29.2151 69.5078 29.2111H72.2319ZM62.984 29.8952C62.9908 29.9527 62.9745 30.0105 62.9387 30.0559C62.8921 30.0895 62.8352 30.1056 62.7779 30.1012H62.2545C62.1973 30.1056 62.1403 30.0895 62.0938 30.0559C62.058 30.0105 62.0417 29.9527 62.0485 29.8952V23.7464C62.0419 23.6876 62.0581 23.6286 62.0938 23.5815C62.1409 23.5494 62.1978 23.5348 62.2545 23.5403H65.8235C65.8802 23.5348 65.9371 23.5494 65.9842 23.5815C66.0199 23.6286 66.0361 23.6876 66.0295 23.7464V24.2244C66.0361 24.2831 66.0199 24.3422 65.9842 24.3893C65.9371 24.4214 65.8802 24.436 65.8235 24.4305H63.0953C63.0643 24.4271 63.0332 24.436 63.0087 24.4552C62.9994 24.4659 62.9925 24.4783 62.9882 24.4918C62.984 24.5053 62.9825 24.5195 62.984 24.5335V26.3881C62.9813 26.4177 62.9901 26.4472 63.0087 26.4705C63.0369 26.4791 63.0671 26.4791 63.0953 26.4705H65.4979C65.5273 26.4671 65.5571 26.4698 65.5854 26.4783C65.6137 26.4868 65.6401 26.5009 65.6628 26.5199C65.6821 26.5432 65.6964 26.5703 65.7049 26.5993C65.7134 26.6284 65.7159 26.6589 65.7122 26.6889V27.1546C65.7174 27.2126 65.6996 27.2703 65.6628 27.3153C65.6153 27.3502 65.5566 27.3664 65.4979 27.3607H63.0953C63.0643 27.3573 63.0332 27.3662 63.0087 27.3854C62.9994 27.396 62.9925 27.4085 62.9882 27.422C62.984 27.4354 62.9825 27.4496 62.984 27.4637V29.8952ZM56.559 29.8952C56.5658 29.9527 56.5495 30.0105 56.5137 30.0559C56.4672 30.0895 56.4102 30.1056 56.353 30.1012H55.8296C55.7723 30.1056 55.7154 30.0895 55.6689 30.0559C55.6331 30.0105 55.6168 29.9527 55.6235 29.8952V23.7464C55.617 23.6876 55.6332 23.6286 55.6689 23.5815C55.7159 23.5494 55.7728 23.5348 55.8296 23.5403H59.3985C59.4553 23.5348 59.5122 23.5494 59.5593 23.5815C59.5949 23.6286 59.6111 23.6876 59.6046 23.7464V24.2244C59.6111 24.2831 59.5949 24.3422 59.5593 24.3893C59.5122 24.4214 59.4553 24.436 59.3985 24.4305H56.6703C56.6393 24.4271 56.6083 24.436 56.5838 24.4552C56.5745 24.4659 56.5675 24.4783 56.5633 24.4918C56.559 24.5053 56.5576 24.5195 56.559 24.5335V26.3881C56.5563 26.4177 56.5652 26.4472 56.5838 26.4705C56.612 26.4791 56.6421 26.4791 56.6703 26.4705H59.073C59.1024 26.4671 59.1321 26.4698 59.1605 26.4783C59.1888 26.4868 59.2151 26.5009 59.2378 26.5199C59.2571 26.5432 59.2715 26.5703 59.28 26.5993C59.2885 26.6284 59.2909 26.6589 59.2873 26.6889V27.1546C59.2924 27.2126 59.2747 27.2703 59.2378 27.3153C59.1903 27.3502 59.1316 27.3664 59.073 27.3607H56.6703C56.6393 27.3573 56.6083 27.3662 56.5838 27.3854C56.5745 27.396 56.5675 27.4085 56.5633 27.422C56.559 27.4354 56.5576 27.4496 56.559 27.4637V29.8952ZM83.5117 12.2111C83.5051 12.1524 83.5213 12.0934 83.557 12.0463C83.6041 12.0141 83.661 11.9995 83.7177 12.0051H84.2411C84.2979 11.9995 84.3547 12.0141 84.4018 12.0463C84.4375 12.0934 84.4537 12.1524 84.4472 12.2111V18.36C84.4472 18.566 84.3853 18.6691 84.2617 18.6691C84.203 18.6656 84.1469 18.644 84.101 18.6072C84.0152 18.5383 83.9365 18.461 83.8661 18.3764L80.0622 13.8885V18.36C80.069 18.4174 80.0527 18.4752 80.0169 18.5207C79.9703 18.5543 79.9134 18.5704 79.8562 18.566H79.3328C79.2755 18.5704 79.2186 18.5543 79.172 18.5207C79.1391 18.496 79.1267 18.4383 79.1267 18.36V12.2111C79.1196 12.1301 79.1353 12.0488 79.172 11.9762C79.188 11.9519 79.2102 11.9321 79.2362 11.9191C79.2623 11.9061 79.2913 11.9002 79.3204 11.902C79.3793 11.9047 79.4356 11.9264 79.4811 11.9639C79.5658 12.0313 79.6419 12.1088 79.7078 12.1947L83.5117 16.6826V12.2111ZM71.6138 18.2817C71.5836 18.3682 71.5326 18.446 71.4654 18.5083C71.397 18.549 71.3183 18.5691 71.2387 18.566H70.7524C70.6247 18.566 70.5629 18.5248 70.5629 18.4424C70.5701 18.3864 70.5868 18.332 70.6123 18.2817L73.4394 12.343C73.4997 12.2122 73.5685 12.0856 73.6455 11.9639C73.6626 11.9366 73.6863 11.914 73.7144 11.8982C73.7424 11.8823 73.774 11.8738 73.8062 11.8732C73.8361 11.8746 73.865 11.8837 73.8903 11.8996C73.9156 11.9154 73.9363 11.9376 73.9505 11.9639C74.0256 12.0859 74.093 12.2126 74.1524 12.343L77.0002 18.2817C77.0257 18.332 77.0424 18.3864 77.0496 18.4424C77.0496 18.5248 76.9837 18.566 76.8518 18.566H76.3243C76.2471 18.5718 76.1702 18.5514 76.1059 18.5083C76.0395 18.4436 75.9863 18.3666 75.9493 18.2817L73.7856 13.6165L71.6138 18.2817ZM68.4775 18.36C68.4843 18.4174 68.468 18.4752 68.4322 18.5207C68.3856 18.5543 68.3287 18.5704 68.2715 18.566H67.7481C67.6908 18.5711 67.6336 18.555 67.5873 18.5207C67.5544 18.496 67.542 18.4383 67.542 18.36V12.2111C67.5379 12.182 67.5397 12.1524 67.5475 12.124C67.5553 12.0956 67.5689 12.0692 67.5873 12.0463C67.6341 12.0135 67.6913 11.9988 67.7481 12.0051H68.2715C68.3282 11.9995 68.3851 12.0141 68.4322 12.0463C68.4678 12.0934 68.4841 12.1524 68.4775 12.2111V18.36ZM60.6473 17.1483C60.6967 17.0824 60.742 17.0453 60.7874 17.0453C60.8402 17.0562 60.8888 17.082 60.9275 17.1195C61.4065 17.5303 62.0112 17.7658 62.6419 17.7871C62.8974 17.7928 63.1518 17.7509 63.392 17.6635C63.5857 17.5962 63.756 17.4746 63.8824 17.3132C63.9973 17.1616 64.0582 16.9759 64.0555 16.7857C64.0633 16.6152 64.014 16.4469 63.9154 16.3076C63.7965 16.1601 63.6398 16.0475 63.462 15.982C63.1741 15.8655 62.8779 15.7705 62.576 15.6977C62.1913 15.6051 61.8191 15.4668 61.4674 15.2855C61.1943 15.1537 60.9611 14.9518 60.7915 14.7003C60.6229 14.4304 60.5396 14.1158 60.5525 13.7978C60.5427 13.4357 60.6433 13.0793 60.841 12.7757C61.0388 12.4855 61.3145 12.2569 61.6363 12.1164C61.9916 11.9585 62.3769 11.8798 62.7655 11.8856C63.541 11.8819 64.2943 12.1436 64.9003 12.6274C64.9277 12.6464 64.9514 12.6701 64.9704 12.6974C64.9864 12.7173 64.9952 12.742 64.9951 12.7675C64.9995 12.7893 64.9995 12.8117 64.9951 12.8334L64.9498 12.9159L64.6778 13.328C64.6597 13.3584 64.636 13.385 64.6077 13.4063C64.5879 13.4223 64.5632 13.431 64.5377 13.431C64.4785 13.4263 64.4223 13.4033 64.3769 13.3651C64.1382 13.1986 63.881 13.0603 63.6104 12.953C63.3478 12.85 63.0683 12.7969 62.7862 12.7963C62.5704 12.7921 62.3559 12.8313 62.1556 12.9117C61.9893 12.9836 61.8466 13.1007 61.7435 13.2497C61.6398 13.4026 61.5864 13.5842 61.591 13.7689C61.5834 13.9477 61.6372 14.1237 61.7435 14.2676C61.8668 14.414 62.0258 14.5262 62.2051 14.5932C62.4725 14.7025 62.7481 14.7907 63.0293 14.8569C63.4325 14.9494 63.8239 15.0876 64.1956 15.2691C64.4372 15.4109 64.6397 15.6106 64.7849 15.8502C64.9408 16.1127 65.0181 16.4145 65.0075 16.7197C65.0139 17.0856 64.9059 17.4444 64.6984 17.7459C64.4835 18.0491 64.188 18.2861 63.8453 18.43C63.4537 18.5928 63.033 18.6741 62.6089 18.6691C62.2018 18.6715 61.7978 18.5974 61.4179 18.4506C61.0467 18.31 60.7003 18.111 60.3918 17.8613C60.3646 17.8428 60.3415 17.8191 60.3238 17.7915C60.3061 17.7638 60.2942 17.7329 60.2887 17.7006C60.2942 17.6429 60.3172 17.5882 60.3547 17.544L60.6473 17.1483ZM54.0534 17.1483C54.1028 17.0824 54.1481 17.0453 54.1935 17.0453C54.2463 17.0562 54.2949 17.082 54.3336 17.1195C54.8123 17.5309 55.4171 17.7664 56.048 17.7871C56.3035 17.7928 56.5579 17.7509 56.7981 17.6635C56.9918 17.5962 57.1621 17.4746 57.2885 17.3132C57.4034 17.1616 57.4643 16.9759 57.4616 16.7857C57.4694 16.6152 57.4201 16.4469 57.3215 16.3076C57.2016 16.1611 57.0452 16.0488 56.8681 15.982C56.58 15.8662 56.2839 15.7711 55.9821 15.6977C55.5963 15.6043 55.2229 15.466 54.8694 15.2855C54.5974 15.1536 54.3656 14.9516 54.1976 14.7003C54.029 14.4304 53.9457 14.1158 53.9586 13.7978C53.9488 13.4357 54.0494 13.0793 54.247 12.7757C54.4434 12.4858 54.7177 12.2572 55.0383 12.1164C55.3835 11.9698 55.7555 11.8968 56.1304 11.902C56.9071 11.8984 57.6617 12.1601 58.2693 12.6439C58.2957 12.664 58.3192 12.6876 58.3394 12.7139C58.3554 12.7338 58.3641 12.7585 58.3641 12.784C58.3619 12.8071 58.3549 12.8296 58.3435 12.8499L58.2982 12.9323L58.0262 13.3445C58.0081 13.3749 57.9843 13.4015 57.9561 13.4228C57.936 13.4382 57.9115 13.4469 57.8861 13.4475C57.8269 13.4428 57.7707 13.4198 57.7253 13.3816C57.4856 13.2143 57.2269 13.076 56.9547 12.9694C56.6922 12.8659 56.4126 12.8128 56.1304 12.8128C55.9146 12.8082 55.7001 12.8475 55.4999 12.9282C55.3336 13.0001 55.1908 13.1172 55.0878 13.2662C54.984 13.4191 54.9307 13.6007 54.9353 13.7854C54.9276 13.9642 54.9814 14.1402 55.0878 14.2841C55.2103 14.4295 55.3677 14.5416 55.5452 14.6097C55.813 14.7181 56.0885 14.8063 56.3695 14.8734C56.7725 14.9666 57.1637 15.1048 57.5358 15.2855C57.7995 15.4137 58.0253 15.6083 58.191 15.8502C58.3469 16.1127 58.4242 16.4145 58.4136 16.7197C58.42 17.0856 58.3119 17.4444 58.1045 17.7459C57.8896 18.0491 57.594 18.2861 57.2514 18.43C56.8598 18.5928 56.4391 18.6741 56.015 18.6691C55.6066 18.6709 55.2013 18.5968 54.8199 18.4506C54.4496 18.3081 54.1035 18.1093 53.7937 17.8613C53.7402 17.8228 53.7034 17.7653 53.6907 17.7006C53.698 17.6433 53.7208 17.5892 53.7566 17.544L54.0534 17.1483ZM51.4776 15.7718C51.4955 16.3257 51.3751 16.8753 51.1273 17.3709C50.9093 17.7876 50.5683 18.1272 50.1506 18.3435C49.7085 18.5654 49.2193 18.6771 48.7247 18.6691C48.2476 18.6785 47.7754 18.5725 47.3482 18.36C46.9462 18.1454 46.6208 17.8113 46.4168 17.4038C46.1782 16.9039 46.0624 16.3544 46.0788 15.8007V12.2111C46.0752 12.1817 46.0778 12.1519 46.0863 12.1235C46.0948 12.0952 46.1091 12.0689 46.1283 12.0463C46.1735 12.0134 46.2294 11.9987 46.2849 12.0051H46.8C46.8595 11.9979 46.9196 12.0125 46.969 12.0463C46.9882 12.0689 47.0025 12.0952 47.011 12.1235C47.0195 12.1519 47.0221 12.1817 47.0185 12.2111V15.743C46.9841 16.2807 47.1435 16.8128 47.4677 17.2431C47.6288 17.4245 47.8289 17.567 48.0531 17.6598C48.2773 17.7526 48.5196 17.7933 48.7617 17.7789C49.0987 17.7886 49.4316 17.7029 49.722 17.5316C49.9902 17.3666 50.2015 17.1236 50.3278 16.8351C50.4794 16.4959 50.5527 16.1268 50.5421 15.7554V12.2111C50.5379 12.182 50.5398 12.1524 50.5476 12.124C50.5554 12.0956 50.569 12.0692 50.5874 12.0463C50.6302 12.015 50.683 12.0004 50.7358 12.0051H51.2633C51.3227 11.999 51.3824 12.0135 51.4323 12.0463C51.4679 12.0934 51.4842 12.1524 51.4776 12.2111V15.7718ZM39.8352 18.36C39.839 18.3887 39.8366 18.418 39.828 18.4457C39.8195 18.4735 39.8051 18.499 39.7858 18.5207C39.7412 18.5551 39.6852 18.5713 39.6292 18.566H39.1017C39.0456 18.5713 38.9896 18.5551 38.945 18.5207C38.9257 18.499 38.9113 18.4735 38.9028 18.4457C38.8943 18.418 38.8918 18.3887 38.8956 18.36V12.2111C38.892 12.1817 38.8945 12.1519 38.903 12.1235C38.9116 12.0952 38.9259 12.0689 38.945 12.0463C38.9902 12.0134 39.0461 11.9987 39.1017 12.0051H40.882C42.6624 12.0051 43.5525 12.6823 43.5525 14.0368C43.5691 14.4347 43.4516 14.8265 43.2187 15.1496C42.9745 15.4504 42.648 15.6738 42.2791 15.7925L43.8905 18.2652C43.9341 18.3165 43.9613 18.3796 43.9688 18.4465C43.9685 18.4634 43.9632 18.4797 43.9537 18.4937C43.9442 18.5076 43.9308 18.5184 43.9152 18.5248C43.8667 18.5438 43.8147 18.5522 43.7627 18.5495H43.2064C43.1263 18.5559 43.0461 18.5387 42.9756 18.5001C42.9006 18.4457 42.8386 18.3753 42.7943 18.294L41.0633 15.5699C41.0303 15.5334 41.01 15.4871 41.0056 15.438C41.0056 15.3886 41.0551 15.3639 41.1458 15.3556C42.0895 15.2567 42.5635 14.8322 42.5635 14.0904C42.5762 13.9105 42.5418 13.7304 42.4638 13.5678C42.3857 13.4052 42.2667 13.2657 42.1184 13.1631C41.7262 12.9413 41.2781 12.8382 40.8284 12.8664H39.93C39.8977 12.8624 39.8651 12.8713 39.8393 12.8911C39.822 12.9164 39.8146 12.9473 39.8187 12.9777L39.8352 18.36ZM63.598 1.14573C63.6046 1.20446 63.5884 1.26346 63.5527 1.31058C63.5056 1.34274 63.4487 1.35732 63.392 1.35179H61.6322C61.5999 1.34778 61.5674 1.35666 61.5416 1.37652C61.5321 1.38704 61.525 1.39947 61.5207 1.41298C61.5164 1.42649 61.5151 1.44076 61.5168 1.45482V6.81237C61.5168 6.89068 61.5168 6.94837 61.4715 6.9731C61.4253 7.00739 61.3681 7.02352 61.3108 7.01843H60.7874C60.7301 7.02277 60.6732 7.00671 60.6266 6.9731C60.5908 6.92764 60.5745 6.86984 60.5813 6.81237V1.45482C60.583 1.44076 60.5817 1.42649 60.5775 1.41298C60.5732 1.39947 60.5661 1.38704 60.5566 1.37652C60.5446 1.36681 60.5307 1.35962 60.5158 1.35537C60.501 1.35112 60.4854 1.3499 60.4701 1.35179H58.7062C58.6507 1.35821 58.5947 1.34349 58.5496 1.31058C58.5304 1.28801 58.5161 1.26171 58.5076 1.23334C58.4991 1.20496 58.4965 1.17513 58.5001 1.14573V0.675914C58.4965 0.646511 58.4991 0.61668 58.5076 0.588307C58.5161 0.559933 58.5304 0.533633 58.5496 0.511066C58.5947 0.478149 58.6507 0.463438 58.7062 0.469854L63.392 0.469854C63.4487 0.464321 63.5056 0.478908 63.5527 0.511066C63.5884 0.558185 63.6046 0.617188 63.598 0.675914V1.14573ZM52.2812 5.60486C52.3307 5.53892 52.3801 5.50183 52.4214 5.50183C52.4755 5.51247 52.5255 5.53819 52.5656 5.57601C53.0439 5.988 53.649 6.22364 54.28 6.24365C54.5355 6.24865 54.7897 6.20674 55.0301 6.12001C55.2238 6.05278 55.3941 5.93116 55.5205 5.76971C55.6354 5.61809 55.6963 5.43242 55.6936 5.2422C55.7014 5.07169 55.6521 4.90345 55.5535 4.76414C55.4328 4.61846 55.2767 4.50633 55.1001 4.43857C54.812 4.32269 54.5158 4.22765 54.2141 4.1542C53.8283 4.06083 53.4549 3.92251 53.1014 3.74208C52.8294 3.61819 52.5949 3.42488 52.4214 3.1816C52.2527 2.91164 52.1694 2.5971 52.1823 2.27906C52.1725 1.91699 52.2732 1.56052 52.4708 1.257C52.6672 0.967053 52.9415 0.738477 53.2621 0.59761C53.6175 0.440286 54.0027 0.361563 54.3913 0.366824C55.168 0.363165 55.9226 0.624883 56.5302 1.10864C56.5565 1.12879 56.5801 1.15235 56.6003 1.1787C56.6132 1.19982 56.6203 1.224 56.6209 1.24876C56.6257 1.27048 56.6257 1.29298 56.6209 1.3147L56.5714 1.39712L56.2994 1.80924C56.2814 1.83971 56.2576 1.86632 56.2293 1.88754C56.2095 1.90357 56.1848 1.9123 56.1593 1.91227C56.1016 1.90677 56.0469 1.88376 56.0027 1.84633C55.7629 1.67907 55.5042 1.54074 55.232 1.43421C54.9695 1.33071 54.6899 1.27758 54.4078 1.27761C54.1906 1.27302 53.9748 1.31226 53.7731 1.393C53.6071 1.46526 53.4644 1.58227 53.361 1.73094C53.2561 1.88353 53.2013 2.06504 53.2044 2.25021C53.1979 2.42946 53.2532 2.6055 53.361 2.74887C53.4835 2.89432 53.6409 3.00633 53.8185 3.07445C54.0854 3.18504 54.3611 3.27326 54.6427 3.33821C55.0472 3.4307 55.4399 3.56896 55.8131 3.75033C56.0814 3.88431 56.3102 4.08603 56.4766 4.33554C56.6311 4.59854 56.7069 4.90033 56.695 5.20511C56.7015 5.57102 56.5934 5.9298 56.3859 6.23128C56.1632 6.53877 55.8572 6.77614 55.504 6.9154C55.1127 7.07907 54.6918 7.16044 54.2676 7.15443C53.8592 7.15629 53.4539 7.08222 53.0725 6.93601C52.7022 6.79345 52.3561 6.59468 52.0463 6.34668C51.9928 6.30813 51.956 6.25067 51.9433 6.18595C51.9488 6.12825 51.9718 6.07361 52.0092 6.02935L52.2812 5.60486ZM49.7756 6.13238C49.8311 6.12596 49.887 6.14067 49.9322 6.17359C49.9514 6.19616 49.9656 6.22246 49.9741 6.25083C49.9827 6.2792 49.9852 6.30903 49.9816 6.33844V6.81649C49.9854 6.84526 49.9829 6.87452 49.9744 6.90225C49.9659 6.92999 49.9515 6.95556 49.9322 6.97722C49.8876 7.0116 49.8316 7.0278 49.7756 7.02255H46.2396C46.1823 7.02689 46.1254 7.01083 46.0788 6.97722C46.043 6.93177 46.0267 6.87396 46.0335 6.81649V0.675914C46.027 0.617188 46.0432 0.558185 46.0788 0.511066C46.1259 0.478908 46.1828 0.464321 46.2396 0.469854L49.7797 0.469854C49.8365 0.462784 49.894 0.477508 49.9404 0.511066C49.9589 0.533961 49.9724 0.560413 49.9802 0.588774C49.988 0.617134 49.9899 0.646797 49.9857 0.675914V1.14573C49.9899 1.17485 49.988 1.20451 49.9802 1.23287C49.9724 1.26123 49.9589 1.28768 49.9404 1.31058C49.894 1.34414 49.8365 1.35886 49.7797 1.35179H47.0638C47.0315 1.34778 46.9989 1.35666 46.9732 1.37652C46.9637 1.38704 46.9565 1.39947 46.9523 1.41298C46.948 1.42649 46.9467 1.44076 46.9484 1.45482V3.16924C46.9444 3.20154 46.9533 3.23411 46.9732 3.2599C46.9732 3.2599 47.0185 3.28051 47.0638 3.28051H49.4417C49.499 3.27617 49.5559 3.29223 49.6025 3.32584C49.6375 3.3717 49.6537 3.42918 49.6478 3.48657V3.95638C49.6552 3.98489 49.6551 4.01483 49.6473 4.04325C49.6396 4.07167 49.6246 4.09757 49.6037 4.1184C49.5829 4.13922 49.557 4.15424 49.5286 4.16197C49.5002 4.16969 49.4702 4.16986 49.4417 4.16244H47.0638C47.0315 4.15843 46.9989 4.16732 46.9732 4.18717C46.9639 4.19783 46.9569 4.21028 46.9526 4.22375C46.9484 4.23722 46.9469 4.25142 46.9484 4.26547V6.02935C46.9469 6.0434 46.9484 6.0576 46.9526 6.07107C46.9569 6.08454 46.9639 6.09699 46.9732 6.10765C46.9989 6.1275 47.0315 6.13639 47.0638 6.13238H49.7756ZM40.9521 6.1571C41.2685 6.16609 41.5847 6.13142 41.8917 6.05407C42.1027 6.00606 42.2914 5.88848 42.4275 5.72026C42.5491 5.5408 42.6098 5.32694 42.6005 5.11032C42.6112 4.95947 42.578 4.80875 42.5049 4.67638C42.4317 4.544 42.3218 4.43564 42.1884 4.36438C41.8206 4.19667 41.4174 4.12167 41.0139 4.14596H39.9176C39.8723 4.14596 39.8435 4.14596 39.827 4.16657C39.8105 4.18717 39.8064 4.2119 39.8064 4.25723V6.04583C39.8034 6.07617 39.8106 6.10665 39.827 6.13238C39.8528 6.15223 39.8853 6.16112 39.9176 6.1571H40.9521ZM39.93 1.32294C39.9137 1.32044 39.897 1.32175 39.8813 1.32675C39.8656 1.33175 39.8512 1.34032 39.8393 1.35179C39.823 1.37597 39.8157 1.40517 39.8187 1.43421V3.20633C39.8157 3.23667 39.823 3.26715 39.8393 3.29287C39.8518 3.30343 39.8662 3.31142 39.8818 3.31637C39.8974 3.32132 39.9137 3.32314 39.93 3.32172H40.9892C41.3622 3.34796 41.7344 3.26029 42.0565 3.07033C42.1754 2.98851 42.2707 2.87694 42.3329 2.74677C42.3951 2.61659 42.422 2.47236 42.411 2.32851C42.4212 2.18115 42.3905 2.03382 42.3221 1.90287C42.2537 1.77193 42.1504 1.66249 42.0236 1.5867C41.6622 1.40744 41.2599 1.32643 40.8573 1.35179L39.93 1.32294ZM38.8791 0.667672C38.8755 0.638268 38.8781 0.608439 38.8866 0.580066C38.8951 0.551692 38.9094 0.52539 38.9286 0.502823C38.9737 0.469907 39.0297 0.455195 39.0852 0.461612L40.9232 0.461612C41.5543 0.426485 42.1826 0.569278 42.7365 0.873731C42.9528 1.0175 43.1271 1.2161 43.2415 1.44925C43.3559 1.68239 43.4063 1.94173 43.3877 2.20076C43.413 2.51439 43.3298 2.8272 43.152 3.0868C42.9742 3.34639 42.7126 3.537 42.411 3.62669C42.7411 3.69759 43.0391 3.87409 43.2599 4.12948C43.4776 4.40405 43.5888 4.74795 43.5732 5.09796C43.594 5.37898 43.5424 5.66063 43.4233 5.91604C43.3043 6.17145 43.1217 6.39208 42.8932 6.55686C42.3064 6.9002 41.6306 7.06089 40.9521 7.01843H39.0852C39.0291 7.02368 38.9732 7.00748 38.9286 6.9731C38.9093 6.95144 38.8948 6.92586 38.8863 6.89813C38.8778 6.87039 38.8753 6.84114 38.8791 6.81237V0.667672Z" fill="white"/>
<path d="M89.8006 35.7637C89.8042 35.7931 89.8017 35.8229 89.7932 35.8513C89.7847 35.8797 89.7704 35.906 89.7512 35.9286C89.706 35.9615 89.6501 35.9762 89.5946 35.9698H87.8307C87.7985 35.9666 87.7662 35.9754 87.74 35.9945C87.7249 36.0177 87.7176 36.0452 87.7194 36.0728V41.4304C87.7252 41.489 87.709 41.5477 87.6741 41.5952C87.6262 41.6256 87.57 41.64 87.5134 41.6364H86.99C86.9333 41.6413 86.8766 41.6267 86.8292 41.5952C86.811 41.5722 86.7976 41.5457 86.7898 41.5174C86.782 41.4891 86.78 41.4595 86.7839 41.4304V36.0728C86.7854 36.0588 86.7839 36.0445 86.7797 36.0311C86.7754 36.0176 86.7685 36.0052 86.7592 35.9945C86.7334 35.9746 86.7008 35.9658 86.6685 35.9698H84.9088C84.852 35.976 84.7948 35.9614 84.748 35.9286C84.7296 35.9057 84.716 35.8792 84.7082 35.8508C84.7004 35.8225 84.6986 35.7928 84.7027 35.7637V35.2857C84.6986 35.2565 84.7004 35.2269 84.7082 35.1985C84.716 35.1702 84.7296 35.1437 84.748 35.1208C84.7957 35.0899 84.8521 35.0754 84.9088 35.0796H89.5946C89.6499 35.0754 89.7051 35.0899 89.7512 35.1208C89.7704 35.1434 89.7847 35.1697 89.7932 35.198C89.8017 35.2264 89.8042 35.2562 89.8006 35.2857V35.7637ZM79.3163 35.9698C79.284 35.9658 79.2514 35.9746 79.2256 35.9945C79.2174 36.02 79.2174 36.0473 79.2256 36.0728V38.4713C79.2181 38.4997 79.2181 38.5295 79.2256 38.5579C79.2514 38.5777 79.284 38.5866 79.3163 38.5826H80.2271C80.6777 38.6097 81.1257 38.4959 81.5088 38.257C81.6632 38.1419 81.7863 37.9899 81.8669 37.815C81.9475 37.6401 81.9831 37.4478 81.9704 37.2556C81.986 37.0673 81.9529 36.8781 81.8742 36.7063C81.7955 36.5345 81.6739 36.3859 81.5211 36.2747C81.1294 36.0474 80.6791 35.9413 80.2271 35.9698H79.3163ZM79.3163 39.4728C79.284 39.4688 79.2514 39.4777 79.2256 39.4975C79.2174 39.523 79.2174 39.5504 79.2256 39.5758V41.4345C79.229 41.4639 79.2263 41.4936 79.2178 41.522C79.2093 41.5503 79.1952 41.5766 79.1762 41.5993C79.1301 41.6302 79.0749 41.6448 79.0196 41.6405H78.4921C78.4367 41.6448 78.3816 41.6302 78.3355 41.5993C78.3165 41.5766 78.3023 41.5503 78.2938 41.522C78.2853 41.4936 78.2827 41.4639 78.286 41.4345V35.2815C78.2824 35.2521 78.2849 35.2223 78.2935 35.1939C78.302 35.1656 78.3163 35.1392 78.3355 35.1167C78.3816 35.0858 78.4367 35.0712 78.4921 35.0755H80.2807C80.9916 35.021 81.6994 35.2147 82.2836 35.6236C82.509 35.8233 82.6857 36.072 82.8 36.3506C82.9143 36.6292 82.9632 36.9304 82.943 37.2309C82.9558 37.6576 82.8472 38.0792 82.6297 38.4466C82.4058 38.7911 82.0803 39.0576 81.6983 39.209C81.2203 39.3937 80.7105 39.482 80.1982 39.4687L79.3163 39.4728ZM75.4589 40.7504C75.5156 40.7448 75.5725 40.7594 75.6196 40.7916C75.6552 40.8387 75.6715 40.8977 75.6649 40.9564V41.4345C75.6707 41.4931 75.6545 41.5518 75.6196 41.5993C75.5717 41.6297 75.5155 41.6442 75.4589 41.6405H71.9064C71.8511 41.6448 71.7959 41.6302 71.7498 41.5993C71.7308 41.5766 71.7166 41.5503 71.7081 41.522C71.6996 41.4936 71.697 41.4639 71.7003 41.4345V35.2815C71.6968 35.2521 71.6993 35.2223 71.7078 35.1939C71.7163 35.1656 71.7306 35.1392 71.7498 35.1167C71.7959 35.0858 71.8511 35.0712 71.9064 35.0755H75.4506C75.506 35.0712 75.5611 35.0858 75.6072 35.1167C75.6264 35.1392 75.6407 35.1656 75.6492 35.1939C75.6578 35.2223 75.6603 35.2521 75.6567 35.2815V35.7637C75.6603 35.7931 75.6578 35.8229 75.6492 35.8513C75.6407 35.8797 75.6264 35.906 75.6072 35.9286C75.5621 35.9615 75.5062 35.9762 75.4506 35.9698H72.7512C72.719 35.9658 72.6864 35.9746 72.6606 35.9945C72.6454 36.0177 72.6382 36.0452 72.64 36.0728V37.7872C72.6372 37.8188 72.6444 37.8505 72.6606 37.8779C72.6864 37.8977 72.719 37.9066 72.7512 37.9026H75.1292C75.186 37.8955 75.2435 37.9103 75.2899 37.9438C75.3084 37.9667 75.3219 37.9932 75.3297 38.0215C75.3375 38.0499 75.3394 38.0796 75.3352 38.1087V38.5744C75.3415 38.6318 75.3253 38.6894 75.2899 38.7351C75.244 38.7701 75.1866 38.7863 75.1292 38.7804H72.7512C72.719 38.7764 72.6864 38.7853 72.6606 38.8052C72.6454 38.8283 72.6382 38.8558 72.64 38.8835V40.6473C72.6382 40.675 72.6454 40.7024 72.6606 40.7256C72.6864 40.7455 72.719 40.7544 72.7512 40.7504H75.4589ZM66.8414 40.8534C67.5298 40.86 68.1978 40.6203 68.7248 40.1775C68.7683 40.1329 68.8244 40.1027 68.8856 40.091C68.9126 40.0932 68.9383 40.1032 68.9597 40.1198C68.9837 40.1397 69.0058 40.1618 69.0257 40.1858L69.2977 40.5608C69.3271 40.5985 69.343 40.6449 69.343 40.6927C69.3428 40.7213 69.3326 40.749 69.3142 40.771C69.2914 40.8051 69.2636 40.8357 69.2317 40.8616C68.8997 41.1435 68.5201 41.364 68.1108 41.5128C67.6924 41.6666 67.2501 41.7447 66.8044 41.7436C66.2155 41.7502 65.6354 41.6009 65.1229 41.3108C64.6178 41.0282 64.199 40.6137 63.9113 40.1116C63.6115 39.5875 63.4578 38.9926 63.4662 38.3889C63.4577 37.7787 63.6113 37.1771 63.9113 36.6456C64.2028 36.1284 64.6304 35.7008 65.1476 35.4093C65.6747 35.1094 66.2722 34.9558 66.8785 34.9642C67.318 34.9624 67.7539 35.042 68.1644 35.1991C68.5614 35.3479 68.9306 35.5624 69.2565 35.8338C69.2828 35.8483 69.3051 35.8691 69.3217 35.8942C69.3382 35.9193 69.3483 35.9481 69.3513 35.978C69.3459 36.0318 69.3259 36.0831 69.2936 36.1264L69.0216 36.4932C68.9721 36.5591 68.9226 36.5962 68.8732 36.5962C68.8131 36.5865 68.7572 36.5593 68.7125 36.5179C68.4475 36.3149 68.1546 36.1511 67.8429 36.0316C67.5282 35.9127 67.1944 35.8526 66.8579 35.8544C66.4247 35.8465 65.9975 35.9562 65.6216 36.1717C65.2589 36.3859 64.96 36.6933 64.7561 37.0619C64.5419 37.4592 64.4326 37.9046 64.4388 38.3559C64.4328 38.7976 64.5407 39.2333 64.752 39.6211C64.9518 39.9925 65.2498 40.3018 65.6133 40.5154C65.9853 40.7385 66.4119 40.8541 66.8456 40.8493L66.8414 40.8534Z" fill="white"/>
<path d="M47.299 38.3725C47.2929 38.816 47.4022 39.2534 47.6164 39.6418C47.8143 40.0124 48.1128 40.3196 48.4777 40.5279C48.845 40.7428 49.2638 40.8539 49.6893 40.8493C50.1189 40.8507 50.541 40.7367 50.9114 40.5192C51.2819 40.3017 51.5871 39.9888 51.7952 39.613C52.0121 39.224 52.1229 38.7848 52.1167 38.3395C52.1238 37.8894 52.0145 37.445 51.7994 37.0496C51.5946 36.6799 51.2924 36.3735 50.9257 36.1635C50.5542 35.9533 50.1347 35.8429 49.7079 35.8429C49.281 35.8429 48.8615 35.9533 48.4901 36.1635C48.124 36.3785 47.8233 36.689 47.6205 37.062C47.4027 37.4565 47.2919 37.9012 47.299 38.3519M46.3264 38.3519C46.3185 37.743 46.4721 37.1429 46.7715 36.6127C47.061 36.0939 47.489 35.6658 48.0079 35.3764C48.5362 35.0856 49.1295 34.9331 49.7326 34.9331C50.3357 34.9331 50.929 35.0856 51.4573 35.3764C51.9628 35.6621 52.3815 36.0793 52.6689 36.5839C52.9597 37.1137 53.1121 37.7084 53.1121 38.3127C53.1121 38.9171 52.9597 39.5117 52.6689 40.0416C52.3798 40.5607 51.9517 40.9888 51.4326 41.2779C50.9 41.5746 50.2989 41.7267 49.6893 41.7189C49.0908 41.7256 48.501 41.575 47.979 41.2821C47.4752 40.9988 47.0589 40.5825 46.7756 40.0787C46.4806 39.5629 46.3258 38.979 46.3264 38.3849V38.3519ZM41.8591 40.8246C42.5474 40.8312 43.2154 40.5915 43.7424 40.1487C43.7859 40.1041 43.842 40.0739 43.9032 40.0622C43.9302 40.0644 43.9559 40.0744 43.9774 40.091C44.0013 40.1109 44.0234 40.133 44.0433 40.157L44.3153 40.532C44.3447 40.5697 44.3606 40.6161 44.3606 40.6639C44.3597 40.6924 44.3496 40.7199 44.3318 40.7422C44.309 40.7763 44.2812 40.8069 44.2493 40.8328C43.9173 41.1147 43.5377 41.3352 43.1284 41.484C42.71 41.6378 42.2677 41.7159 41.822 41.7148C41.2331 41.7214 40.653 41.5721 40.1405 41.2821C39.6366 40.9994 39.2191 40.5848 38.933 40.0828C38.6332 39.5587 38.4795 38.9638 38.4879 38.3601C38.4795 37.7499 38.633 37.1484 38.933 36.6169C39.224 36.0992 39.6517 35.6715 40.1694 35.3805C40.6964 35.0806 41.2939 34.927 41.9003 34.9354C42.3397 34.9336 42.7757 35.0133 43.1861 35.1703C43.5837 35.3179 43.9531 35.5325 44.2782 35.805C44.3045 35.8195 44.3269 35.8403 44.3434 35.8654C44.3599 35.8905 44.37 35.9193 44.373 35.9492C44.3676 36.003 44.3477 36.0543 44.3153 36.0976L44.0433 36.4644C43.9938 36.5303 43.9444 36.5674 43.8949 36.5674C43.8348 36.5577 43.7789 36.5305 43.7342 36.4891C43.4697 36.2853 43.1767 36.1214 42.8646 36.0028C42.5499 35.8839 42.2161 35.8238 41.8797 35.8256C41.4547 35.8216 41.0364 35.9311 40.668 36.1429C40.3033 36.3559 40.0029 36.6635 39.7985 37.0331C39.5838 37.4303 39.4746 37.8758 39.4811 38.3272C39.4751 38.7688 39.583 39.2045 39.7943 39.5924C39.9954 39.9628 40.293 40.2719 40.6557 40.4867C41.0172 40.7129 41.4327 40.8382 41.8591 40.8493V40.8246ZM47.299 26.8125C47.2929 27.256 47.4022 27.6935 47.6164 28.0819C47.8143 28.4525 48.1128 28.7596 48.4777 28.9679C48.845 29.1829 49.2638 29.294 49.6893 29.2894C50.1233 29.2943 50.5504 29.1818 50.9257 28.9638C51.2951 28.751 51.5999 28.4419 51.8076 28.0695C52.0244 27.6805 52.1353 27.2414 52.1291 26.7961C52.1362 26.3459 52.0269 25.9016 51.8117 25.5061C51.607 25.1365 51.3048 24.83 50.9381 24.6201C50.5666 24.4099 50.147 24.2994 49.7202 24.2994C49.2934 24.2994 48.8739 24.4099 48.5024 24.6201C48.1363 24.835 47.8357 25.1456 47.6328 25.5185C47.4058 25.9204 47.2905 26.3757 47.299 26.8373V26.8125ZM46.3264 26.8125C46.3185 26.2037 46.4721 25.6036 46.7715 25.0734C47.061 24.5546 47.489 24.1265 48.0079 23.837C48.5362 23.5463 49.1295 23.3938 49.7326 23.3938C50.3357 23.3938 50.929 23.5463 51.4573 23.837C51.9628 24.1227 52.3815 24.54 52.6689 25.0445C52.9597 25.5744 53.1121 26.169 53.1121 26.7734C53.1121 27.3778 52.9597 27.9724 52.6689 28.5022C52.3798 29.0213 51.9517 29.4495 51.4326 29.7386C50.9 30.0353 50.2989 30.1873 49.6893 30.1796C49.0908 30.1863 48.501 30.0356 47.979 29.7427C47.4761 29.4583 47.06 29.0423 46.7756 28.5393C46.4813 28.0248 46.3265 27.4424 46.3264 26.8496V26.8125ZM41.8591 29.2853C42.5474 29.2919 43.2154 29.0522 43.7424 28.6094C43.7859 28.5648 43.842 28.5346 43.9032 28.5228C43.9302 28.5251 43.9559 28.5351 43.9774 28.5517C44.0013 28.5716 44.0234 28.5936 44.0433 28.6176L44.3153 28.9927C44.3447 29.0303 44.3606 29.0767 44.3606 29.1245C44.3597 29.1531 44.3496 29.1805 44.3318 29.2028C44.309 29.237 44.2812 29.2676 44.2493 29.2935C43.9173 29.5754 43.5377 29.7959 43.1284 29.9446C42.71 30.0984 42.2677 30.1766 41.822 30.1754C41.2331 30.182 40.653 30.0327 40.1405 29.7427C39.6366 29.46 39.2191 29.0454 38.933 28.5434C38.6332 28.0194 38.4795 27.4245 38.4879 26.8208C38.4795 26.2106 38.633 25.609 38.933 25.0775C39.224 24.5599 39.6517 24.1322 40.1694 23.8412C40.6964 23.5413 41.2939 23.3876 41.9003 23.3961C42.3397 23.3943 42.7757 23.4739 43.1861 23.631C43.5837 23.7785 43.9531 23.9932 44.2782 24.2656C44.3045 24.2802 44.3269 24.3009 44.3434 24.3261C44.3599 24.3512 44.37 24.38 44.373 24.4099C44.3676 24.4637 44.3477 24.515 44.3153 24.5582L44.0433 24.925C43.9938 24.991 43.9444 25.0281 43.8949 25.0281C43.8348 25.0184 43.7789 24.9911 43.7342 24.9498C43.4697 24.7459 43.1767 24.5821 42.8646 24.4635C42.5499 24.3445 42.2161 24.2845 41.8797 24.2863C41.4547 24.2823 41.0364 24.3918 40.668 24.6036C40.3033 24.8166 40.0029 25.1241 39.7985 25.4938C39.5838 25.8909 39.4746 26.3364 39.4811 26.7878C39.4751 27.2295 39.583 27.6652 39.7943 28.053C39.9942 28.4243 40.2921 28.7337 40.6557 28.9473C41.0168 29.175 41.4323 29.3017 41.8591 29.3141V29.2853Z" fill="white"/>
<path d="M17.0576 32.0546C18.9181 34.8886 21.4534 37.216 24.4357 38.828C27.418 40.44 30.754 41.2861 34.144 41.2902V0C30.7534 0.00388438 27.4169 0.850269 24.4345 2.46307C21.452 4.07587 18.9171 6.40453 17.0576 9.23972C19.2839 12.6285 20.4702 16.5946 20.4702 20.6492C20.4702 24.7039 19.2839 28.67 17.0576 32.0588" fill="#FFCC00"/>
<path d="M17.0865 32.0546C15.2259 34.8886 12.6907 37.216 9.70838 38.828C6.72608 40.44 3.39009 41.2861 3.8147e-06 41.2902V0C3.3906 0.00388438 6.72711 0.850269 9.70956 2.46307C12.692 4.07587 15.227 6.40453 17.0865 9.23972C14.8576 12.6275 13.6698 16.594 13.6698 20.6492C13.6698 24.7045 14.8576 28.671 17.0865 32.0588" fill="#8F116E"/>
</g>
<defs>
<clipPath id="clip0_24_107">
<rect width="41.7353" height="109.9" fill="white" transform="matrix(0 1 -1 0 109.9 0)"/>
</clipPath>
</defs>
</svg>
