<svg width="65" height="25" viewBox="0 0 65 25" fill="none" xmlns="http://www.w3.org/2000/svg">
<g clip-path="url(#clip0_25_6979)">
<path d="M35.4893 20.8672C35.4855 20.8324 35.4951 20.7975 35.5161 20.7697C35.544 20.7507 35.5776 20.742 35.6112 20.7453H35.9208C35.9543 20.742 35.988 20.7507 36.0158 20.7697C36.0369 20.7975 36.0465 20.8324 36.0426 20.8672V24.5039C36.0426 24.6258 36.0061 24.6867 35.9329 24.6867C35.8982 24.6846 35.865 24.6718 35.8379 24.6501C35.7871 24.6094 35.7406 24.5637 35.699 24.5136L33.4419 21.8592V24.5039C33.4459 24.5379 33.4362 24.5721 33.415 24.5989C33.3875 24.6188 33.3538 24.6283 33.32 24.6258H33.0104C32.9766 24.6283 32.9429 24.6188 32.9154 24.5989C32.8942 24.5721 32.8845 24.5379 32.8885 24.5039V20.8672C32.8857 20.8193 32.8949 20.7716 32.9154 20.7282C32.9252 20.7136 32.9387 20.7019 32.9546 20.6942C32.9704 20.6865 32.988 20.6831 33.0056 20.6844C33.0396 20.6861 33.0721 20.6989 33.0982 20.7209C33.1483 20.7608 33.1933 20.8066 33.2322 20.8574L35.482 23.5118V20.8672M62.8548 14.4493C62.8357 14.4469 62.8164 14.4522 62.8012 14.4639C62.7957 14.4703 62.7916 14.4776 62.789 14.4856C62.7865 14.4935 62.7857 14.5019 62.7865 14.5103V15.9289C62.7855 15.9471 62.7906 15.9651 62.8012 15.9801C62.8164 15.9918 62.8357 15.997 62.8548 15.9947H63.391C63.6584 16.011 63.9242 15.9437 64.1515 15.8021C64.2428 15.7335 64.3153 15.6431 64.3626 15.5392C64.4099 15.4353 64.4303 15.3212 64.4221 15.2074C64.4314 15.0966 64.4121 14.9853 64.366 14.8841C64.3199 14.7829 64.2486 14.6953 64.1588 14.6297C63.9262 14.4953 63.6591 14.4326 63.391 14.4493H62.8548ZM62.8548 16.5212C62.8357 16.5188 62.8164 16.5241 62.8012 16.5358C62.7957 16.5421 62.7916 16.5495 62.789 16.5574C62.7865 16.5654 62.7857 16.5738 62.7865 16.5821V17.6814C62.7865 17.7277 62.7865 17.7618 62.7597 17.7765C62.7324 17.7967 62.6986 17.8063 62.6647 17.8033H62.3551C62.3212 17.8058 62.2876 17.7963 62.26 17.7765C62.2389 17.7496 62.2292 17.7154 62.2332 17.6814V14.0447C62.2294 14.01 62.2389 13.9751 62.26 13.9472C62.2879 13.9282 62.3215 13.9196 62.3551 13.9228H63.4227C63.8425 13.8902 64.2605 14.0048 64.6049 14.247C64.7385 14.365 64.8434 14.512 64.9114 14.6768C64.9794 14.8416 65.0088 15.0197 64.9973 15.1976C65.0042 15.4492 64.94 15.6975 64.8121 15.9142C64.6788 16.1188 64.4855 16.2771 64.2588 16.3676C63.9761 16.4771 63.6745 16.5293 63.3715 16.5212H62.8548ZM57.3144 15.8728C57.3103 16.1356 57.3741 16.3951 57.4997 16.626C57.6181 16.8435 57.7944 17.024 58.0091 17.1476C58.2307 17.277 58.4837 17.3427 58.7403 17.3377C58.997 17.3408 59.2497 17.2742 59.4716 17.1452C59.6906 17.02 59.8711 16.837 59.9932 16.6162C60.1172 16.3828 60.182 16.1225 60.182 15.8582C60.182 15.5939 60.1172 15.3336 59.9932 15.1001C59.8729 14.8817 59.6951 14.7004 59.4789 14.5761C59.2563 14.4494 59.0038 14.3846 58.7477 14.3884C58.4946 14.3862 58.2457 14.4531 58.028 14.582C57.8102 14.7108 57.6317 14.8968 57.5119 15.1196C57.3831 15.3498 57.3152 15.609 57.3144 15.8728ZM56.7367 15.8728C56.7321 15.5127 56.8229 15.1578 57 14.8442C57.1719 14.5379 57.4249 14.2849 57.7312 14.113C58.0442 13.941 58.3955 13.8508 58.7525 13.8508C59.1096 13.8508 59.4609 13.941 59.7738 14.113C60.0721 14.2821 60.3189 14.5289 60.488 14.8271C60.66 15.1405 60.7501 15.4922 60.7501 15.8496C60.7501 16.2071 60.66 16.5588 60.488 16.8722C60.3163 17.1786 60.0632 17.4317 59.7568 17.6034C59.4418 17.7789 59.0863 17.8688 58.7257 17.8642C58.3717 17.8682 58.0229 17.7791 57.7142 17.6058C57.4167 17.4376 57.1706 17.1916 57.0024 16.8941C56.8259 16.5855 56.7342 16.2356 56.7367 15.8801V15.8728ZM55.2426 17.6741C55.2466 17.7081 55.2369 17.7423 55.2158 17.7692C55.1882 17.789 55.1546 17.7985 55.1207 17.796H54.8111C54.7773 17.7985 54.7436 17.789 54.7161 17.7692C54.6949 17.7423 54.6853 17.7081 54.6893 17.6741V16.1263C54.6901 16.118 54.6893 16.1096 54.6868 16.1016C54.6842 16.0937 54.6801 16.0863 54.6746 16.08C54.6594 16.0682 54.6401 16.063 54.621 16.0654H52.788C52.7689 16.063 52.7497 16.0682 52.7344 16.08C52.7286 16.0949 52.7286 16.1114 52.7344 16.1263V17.6741C52.7367 17.6911 52.7352 17.7084 52.7302 17.7248C52.7251 17.7412 52.7166 17.7563 52.7052 17.7692C52.6788 17.7895 52.6457 17.7991 52.6125 17.796H52.3005C52.2674 17.7991 52.2343 17.7895 52.2079 17.7692C52.1965 17.7563 52.188 17.7412 52.1829 17.7248C52.1779 17.7084 52.1764 17.6911 52.1787 17.6741V14.0447C52.1765 14.0273 52.178 14.0097 52.1831 13.9929C52.1881 13.9761 52.1966 13.9606 52.2079 13.9472C52.2346 13.9277 52.2677 13.919 52.3005 13.9228H52.6003C52.6332 13.919 52.6663 13.9277 52.693 13.9472C52.7043 13.9606 52.7128 13.9761 52.7178 13.9929C52.7229 14.0097 52.7243 14.0273 52.7222 14.0447V15.4852C52.7166 15.5019 52.7166 15.5198 52.7222 15.5364C52.7296 15.5427 52.7381 15.5474 52.7473 15.5503C52.7565 15.5533 52.7662 15.5543 52.7759 15.5535H54.6088C54.6185 15.5543 54.6282 15.5533 54.6374 15.5503C54.6466 15.5474 54.6551 15.5427 54.6625 15.5364C54.673 15.5215 54.6782 15.5035 54.6771 15.4852V14.0447C54.6732 14.01 54.6828 13.9751 54.7039 13.9472C54.7317 13.9282 54.7654 13.9196 54.799 13.9228H55.1085C55.1421 13.9196 55.1757 13.9282 55.2036 13.9472C55.2247 13.9751 55.2343 14.01 55.2304 14.0447L55.2426 17.6741ZM48.0837 16.9575C48.113 16.9185 48.1422 16.8965 48.1666 16.8965C48.198 16.9025 48.2269 16.9178 48.2495 16.9404C48.5335 17.1838 48.8921 17.323 49.2659 17.3353C49.4162 17.3383 49.5658 17.3135 49.7071 17.2622C49.8227 17.2231 49.9243 17.1511 49.9996 17.055C50.0675 16.9653 50.1036 16.8555 50.1019 16.743C50.1066 16.6421 50.0774 16.5426 50.0191 16.4602C49.9477 16.3741 49.8554 16.3078 49.7509 16.2677C49.5805 16.1991 49.4054 16.1429 49.2269 16.0995C48.9986 16.0447 48.7777 15.9629 48.5688 15.8557C48.4077 15.7771 48.2699 15.6578 48.169 15.5096C48.0713 15.3492 48.0229 15.1635 48.0301 14.9758C48.0243 14.7617 48.0838 14.5508 48.2007 14.3713C48.3169 14.1998 48.4791 14.0646 48.6687 13.9813C48.8789 13.8883 49.1067 13.8417 49.3366 13.8448C49.7959 13.8427 50.2423 13.9975 50.6016 14.2836C50.6172 14.2955 50.6312 14.3094 50.6431 14.325C50.6466 14.3386 50.6466 14.3529 50.6431 14.3664C50.6459 14.3793 50.6459 14.3926 50.6431 14.4054L50.6138 14.4542L50.4529 14.6979C50.4423 14.716 50.4282 14.7317 50.4115 14.7443C50.3998 14.7537 50.3852 14.7589 50.3701 14.7589C50.3359 14.7556 50.3036 14.742 50.2774 14.7199C50.1357 14.621 49.9827 14.5391 49.8216 14.4761C49.6664 14.4149 49.501 14.3835 49.3342 14.3835C49.2057 14.3808 49.078 14.404 48.9588 14.4518C48.8606 14.4945 48.7762 14.5637 48.715 14.6516C48.653 14.7419 48.6206 14.8492 48.6224 14.9588C48.6186 15.0648 48.6513 15.1689 48.715 15.2537C48.7875 15.3397 48.8806 15.406 48.9856 15.4462C49.1435 15.5117 49.3066 15.5638 49.4731 15.6022C49.7123 15.6569 49.9446 15.7387 50.1653 15.846C50.324 15.9252 50.4593 16.0445 50.5577 16.1921C50.6491 16.3477 50.6939 16.5262 50.6869 16.7064C50.6908 16.9228 50.6268 17.135 50.5041 17.3133C50.377 17.4927 50.2022 17.6328 49.9996 17.718C49.7681 17.8148 49.5192 17.8629 49.2683 17.8593C49.0249 17.8645 48.7827 17.824 48.5542 17.7399C48.3347 17.6566 48.1298 17.5389 47.9472 17.3913C47.9058 17.3548 47.8863 17.3231 47.8863 17.2987C47.8891 17.2637 47.9027 17.2305 47.9253 17.2037L48.0837 16.9575ZM46.6042 17.2768C46.637 17.273 46.6701 17.2817 46.6968 17.3012C46.7082 17.3145 46.7166 17.3301 46.7217 17.3468C46.7267 17.3636 46.7282 17.3813 46.7261 17.3987V17.6814C46.7283 17.6984 46.7268 17.7157 46.7218 17.7321C46.7168 17.7485 46.7082 17.7637 46.6968 17.7765C46.6704 17.7968 46.6373 17.8064 46.6042 17.8033H44.5031C44.4692 17.8058 44.4356 17.7963 44.408 17.7765C44.3868 17.7496 44.3772 17.7154 44.3812 17.6814V14.0447C44.3773 14.01 44.3869 13.9751 44.408 13.9472C44.4359 13.9282 44.4695 13.9196 44.5031 13.9228H46.6042C46.6378 13.9191 46.6716 13.9278 46.6992 13.9472C46.7102 13.9607 46.7182 13.9764 46.7228 13.9932C46.7274 14.0099 46.7285 14.0275 46.7261 14.0447V14.3274C46.7285 14.3447 46.7274 14.3622 46.7228 14.379C46.7182 14.3958 46.7102 14.4114 46.6992 14.4249C46.6716 14.4444 46.6378 14.453 46.6042 14.4493H45.0101C44.991 14.4469 44.9717 14.4522 44.9565 14.4639C44.951 14.4703 44.9468 14.4776 44.9443 14.4856C44.9418 14.4935 44.941 14.5019 44.9418 14.5103V15.5242C44.9395 15.5433 44.9447 15.5626 44.9565 15.5779C44.9565 15.5779 44.9833 15.5901 45.0101 15.5901H46.4165C46.4504 15.5875 46.484 15.597 46.5116 15.6169C46.5327 15.6438 46.5424 15.6779 46.5384 15.7119V15.9898C46.5428 16.0067 46.5427 16.0244 46.5381 16.0412C46.5335 16.058 46.5246 16.0733 46.5123 16.0856C46.5 16.0979 46.4847 16.1068 46.4679 16.1114C46.4511 16.116 46.4333 16.1161 46.4165 16.1117H45.0101C44.991 16.1093 44.9717 16.1146 44.9565 16.1263C44.951 16.1326 44.9468 16.14 44.9443 16.1479C44.9418 16.1559 44.941 16.1643 44.9418 16.1726V17.2158C44.941 17.2242 44.9418 17.2326 44.9443 17.2405C44.9468 17.2485 44.951 17.2559 44.9565 17.2622C44.9717 17.2739 44.991 17.2792 45.0101 17.2768H46.6042ZM42.7213 17.2768C42.7541 17.273 42.7872 17.2817 42.8139 17.3012C42.8253 17.3145 42.8337 17.3301 42.8388 17.3468C42.8438 17.3636 42.8453 17.3813 42.8432 17.3987V17.6814C42.8454 17.6984 42.844 17.7157 42.8389 17.7321C42.8339 17.7485 42.8253 17.7637 42.8139 17.7765C42.7876 17.7968 42.7545 17.8064 42.7213 17.8033H40.6202C40.5863 17.8058 40.5527 17.7963 40.5251 17.7765C40.504 17.7496 40.4943 17.7154 40.4983 17.6814V14.0447C40.4945 14.01 40.504 13.9751 40.5251 13.9472C40.553 13.9282 40.5866 13.9196 40.6202 13.9228H42.7042C42.7378 13.9196 42.7715 13.9282 42.7993 13.9472C42.8102 13.9607 42.8182 13.9764 42.8228 13.9932C42.8275 14.0099 42.8286 14.0275 42.8261 14.0447V14.3274C42.8286 14.3447 42.8275 14.3622 42.8228 14.379C42.8182 14.3958 42.8102 14.4114 42.7993 14.4249C42.7715 14.444 42.7378 14.4526 42.7042 14.4493H41.1101C41.091 14.4469 41.0718 14.4522 41.0565 14.4639C41.051 14.4703 41.0469 14.4776 41.0444 14.4856C41.0419 14.4935 41.041 14.5019 41.0419 14.5103V15.5242C41.0395 15.5433 41.0448 15.5626 41.0565 15.5779C41.0565 15.5779 41.0833 15.5901 41.1101 15.5901H42.5165C42.5504 15.5875 42.5841 15.597 42.6116 15.6169C42.6328 15.6438 42.6424 15.6779 42.6384 15.7119V15.9898C42.6428 16.0067 42.6427 16.0244 42.6381 16.0412C42.6336 16.058 42.6247 16.0733 42.6124 16.0856C42.6001 16.0979 42.5847 16.1068 42.5679 16.1114C42.5511 16.116 42.5334 16.1161 42.5165 16.1117H41.1101C41.091 16.1093 41.0718 16.1146 41.0565 16.1263C41.051 16.1326 41.0469 16.14 41.0444 16.1479C41.0419 16.1559 41.041 16.1643 41.0419 16.1726V17.2158C41.041 17.2242 41.0419 17.2326 41.0444 17.2405C41.0469 17.2485 41.051 17.2559 41.0565 17.2622C41.0718 17.2739 41.091 17.2792 41.1101 17.2768H42.7213ZM37.2516 17.6814C37.2556 17.7154 37.246 17.7496 37.2248 17.7765C37.1973 17.7963 37.1636 17.8058 37.1297 17.8033H36.8202C36.7863 17.8058 36.7526 17.7963 36.7251 17.7765C36.7039 17.7496 36.6943 17.7154 36.6983 17.6814V14.0447C36.6944 14.01 36.704 13.9751 36.7251 13.9472C36.753 13.9282 36.7866 13.9196 36.8202 13.9228H38.931C38.9646 13.9196 38.9982 13.9282 39.0261 13.9472C39.0472 13.9751 39.0568 14.01 39.0529 14.0447V14.3274C39.0568 14.3622 39.0472 14.3971 39.0261 14.4249C38.9982 14.444 38.9646 14.4526 38.931 14.4493H37.3174C37.2991 14.4473 37.2807 14.4526 37.2662 14.4639C37.2608 14.4703 37.2566 14.4776 37.2541 14.4856C37.2516 14.4935 37.2508 14.5019 37.2516 14.5103V15.6071C37.25 15.6246 37.2553 15.6421 37.2662 15.6559C37.2829 15.661 37.3008 15.661 37.3174 15.6559H38.7385C38.7559 15.6539 38.7735 15.6555 38.7902 15.6605C38.807 15.6655 38.8225 15.6739 38.836 15.6851C38.8474 15.6989 38.8559 15.7149 38.8609 15.7321C38.8659 15.7493 38.8674 15.7673 38.8652 15.7851V16.0605C38.8683 16.0948 38.8578 16.1289 38.836 16.1556C38.8079 16.1762 38.7732 16.1858 38.7385 16.1824H37.3174C37.2991 16.1804 37.2807 16.1856 37.2662 16.197C37.2608 16.2033 37.2566 16.2107 37.2541 16.2186C37.2516 16.2266 37.2508 16.235 37.2516 16.2433V17.6814ZM33.4516 17.6814C33.4556 17.7154 33.446 17.7496 33.4248 17.7765C33.3973 17.7963 33.3636 17.8058 33.3297 17.8033H33.0202C32.9863 17.8058 32.9526 17.7963 32.9251 17.7765C32.9039 17.7496 32.8943 17.7154 32.8983 17.6814V14.0447C32.8944 14.01 32.904 13.9751 32.9251 13.9472C32.953 13.9282 32.9866 13.9196 33.0202 13.9228H35.131C35.1646 13.9196 35.1982 13.9282 35.2261 13.9472C35.2472 13.9751 35.2568 14.01 35.2529 14.0447V14.3274C35.2568 14.3622 35.2472 14.3971 35.2261 14.4249C35.1982 14.444 35.1646 14.4526 35.131 14.4493H33.5174C33.4991 14.4473 33.4807 14.4526 33.4662 14.4639C33.4607 14.4703 33.4566 14.4776 33.4541 14.4856C33.4516 14.4935 33.4507 14.5019 33.4516 14.5103V15.6071C33.45 15.6246 33.4552 15.6421 33.4662 15.6559C33.4829 15.661 33.5007 15.661 33.5174 15.6559H34.9385C34.9558 15.6539 34.9734 15.6555 34.9902 15.6605C35.007 15.6655 35.0225 15.6739 35.036 15.6851C35.0474 15.6989 35.0559 15.7149 35.0609 15.7321C35.0659 15.7493 35.0674 15.7673 35.0652 15.7851V16.0605C35.0683 16.0948 35.0578 16.1289 35.036 16.1556C35.0079 16.1762 34.9732 16.1858 34.9385 16.1824H33.5174C33.4991 16.1804 33.4807 16.1856 33.4662 16.197C33.4607 16.2033 33.4566 16.2107 33.4541 16.2186C33.4516 16.2266 33.4507 16.235 33.4516 16.2433V17.6814ZM49.3926 7.22223C49.3888 7.18749 49.3984 7.1526 49.4195 7.12473C49.4473 7.10571 49.481 7.09708 49.5145 7.10035H49.8241C49.8576 7.09708 49.8913 7.10571 49.9191 7.12473C49.9402 7.1526 49.9498 7.18749 49.946 7.22223V10.8589C49.946 10.9808 49.9094 11.0417 49.8363 11.0417C49.8016 11.0397 49.7684 11.0269 49.7412 11.0052C49.6905 10.9644 49.6439 10.9187 49.6023 10.8687L47.3525 8.21428V10.8589C47.3565 10.8929 47.3469 10.9271 47.3257 10.954C47.2982 10.9739 47.2645 10.9834 47.2306 10.9808H46.9211C46.8872 10.9834 46.8535 10.9739 46.826 10.954C46.8065 10.9394 46.7992 10.9052 46.7992 10.8589V7.22223C46.795 7.17432 46.8043 7.12621 46.826 7.08329C46.8354 7.06888 46.8485 7.05722 46.864 7.04951C46.8794 7.04181 46.8965 7.03832 46.9137 7.03942C46.9486 7.04099 46.9819 7.05382 47.0088 7.07598C47.0589 7.11584 47.1039 7.16168 47.1429 7.21248L49.3926 9.86688V7.22223ZM42.3557 10.8126C42.3378 10.8638 42.3077 10.9098 42.2679 10.9467C42.2275 10.9708 42.1809 10.9826 42.1339 10.9808H41.8462C41.7707 10.9808 41.7341 10.9564 41.7341 10.9077C41.7384 10.8746 41.7483 10.8424 41.7634 10.8126L43.4355 7.30023C43.4711 7.22286 43.5118 7.14795 43.5573 7.07598C43.5675 7.05984 43.5815 7.04648 43.5981 7.03712C43.6147 7.02775 43.6334 7.02268 43.6524 7.02236C43.67 7.02318 43.6872 7.02855 43.7021 7.03794C43.7171 7.04734 43.7293 7.06044 43.7377 7.07598C43.7821 7.14818 43.822 7.22308 43.8572 7.30023L45.5415 10.8126C45.5566 10.8424 45.5664 10.8746 45.5707 10.9077C45.5707 10.9564 45.5317 10.9808 45.4537 10.9808H45.1417C45.096 10.9842 45.0505 10.9722 45.0125 10.9467C44.9733 10.9084 44.9418 10.8629 44.9199 10.8126L43.6402 8.0534L42.3557 10.8126ZM40.5008 10.8589C40.5048 10.8929 40.4951 10.9271 40.4739 10.954C40.4464 10.9739 40.4128 10.9834 40.3789 10.9808H40.0693C40.0354 10.9838 40.0016 10.9743 39.9743 10.954C39.9548 10.9394 39.9475 10.9052 39.9475 10.8589V7.22223C39.945 7.20501 39.9461 7.18746 39.9507 7.17069C39.9553 7.15392 39.9633 7.13827 39.9743 7.12473C40.0019 7.10531 40.0357 7.09664 40.0693 7.10035H40.3789C40.4125 7.09708 40.4461 7.10571 40.4739 7.12473C40.495 7.1526 40.5046 7.18749 40.5008 7.22223V10.8589ZM35.8696 10.1423C35.8988 10.1033 35.9256 10.0814 35.9524 10.0814C35.9837 10.0879 36.0124 10.1031 36.0353 10.1253C36.3186 10.3682 36.6763 10.5075 37.0493 10.5201C37.2004 10.5235 37.3509 10.4987 37.4929 10.447C37.6075 10.4072 37.7082 10.3353 37.783 10.2398C37.8509 10.1501 37.887 10.0403 37.8854 9.92782C37.89 9.82697 37.8608 9.72746 37.8025 9.64507C37.7322 9.5578 37.6395 9.49125 37.5344 9.45251C37.3641 9.38361 37.1889 9.32739 37.0103 9.28432C36.7828 9.2296 36.5627 9.14776 36.3546 9.04058C36.1931 8.96259 36.0552 8.84315 35.9549 8.69446C35.8551 8.53479 35.8059 8.34875 35.8135 8.16065C35.8077 7.94651 35.8672 7.73567 35.9841 7.55616C36.1011 7.3845 36.2642 7.24932 36.4546 7.16617C36.6647 7.07282 36.8925 7.02625 37.1224 7.02967C37.581 7.02747 38.0266 7.1823 38.385 7.46841C38.4012 7.47965 38.4152 7.49368 38.4265 7.50985C38.436 7.52158 38.4411 7.53621 38.4411 7.55129C38.4437 7.56416 38.4437 7.57741 38.4411 7.59029L38.4143 7.63903L38.2534 7.88278C38.2427 7.90076 38.2287 7.9165 38.212 7.92909C38.2003 7.93857 38.1856 7.94373 38.1705 7.94372C38.1356 7.94095 38.1023 7.92732 38.0755 7.90472C37.9343 7.80624 37.7821 7.72445 37.6221 7.66097C37.4668 7.60009 37.3015 7.56867 37.1346 7.56835C37.007 7.56583 36.8802 7.58904 36.7617 7.6366C36.6633 7.67912 36.5789 7.74836 36.5179 7.83647C36.4566 7.92693 36.4251 8.03432 36.4278 8.14359C36.4232 8.24932 36.4551 8.3534 36.5179 8.43852C36.5909 8.52512 36.6849 8.59145 36.7909 8.63108C36.9491 8.69576 37.1121 8.74791 37.2784 8.78708C37.5169 8.84174 37.7484 8.92352 37.9682 9.03083C38.1111 9.11472 38.2309 9.23283 38.3168 9.37451C38.409 9.52981 38.4547 9.70832 38.4484 9.88882C38.4522 10.1052 38.3883 10.3174 38.2656 10.4957C38.1385 10.6751 37.9637 10.8152 37.761 10.9004C37.5294 10.9966 37.2806 11.0447 37.0298 11.0417C36.789 11.0432 36.55 10.9993 36.3254 10.9126C36.1058 10.8294 35.901 10.7117 35.7185 10.564C35.7024 10.5531 35.6887 10.539 35.6783 10.5227C35.6678 10.5064 35.6607 10.4881 35.6575 10.4689C35.6608 10.4348 35.6744 10.4025 35.6965 10.3763L35.8696 10.1423ZM31.9696 10.1423C31.9989 10.1033 32.0257 10.0814 32.0525 10.0814C32.0837 10.0879 32.1125 10.1031 32.1354 10.1253C32.4185 10.3686 32.7762 10.5079 33.1494 10.5201C33.3005 10.5235 33.4509 10.4987 33.593 10.447C33.7076 10.4072 33.8083 10.3353 33.883 10.2398C33.951 10.1501 33.987 10.0403 33.9854 9.92782C33.99 9.82697 33.9609 9.72746 33.9025 9.64507C33.8317 9.55841 33.7392 9.49199 33.6344 9.45251C33.464 9.38398 33.2888 9.32777 33.1104 9.28432C32.8822 9.2291 32.6613 9.14729 32.4522 9.04058C32.2914 8.96253 32.1543 8.84306 32.0549 8.69446C31.9552 8.53479 31.9059 8.34875 31.9136 8.16065C31.9078 7.94651 31.9673 7.73567 32.0842 7.55616C32.2003 7.38467 32.3626 7.24948 32.5522 7.16617C32.7563 7.07951 32.9763 7.03634 33.1981 7.03942C33.6575 7.03725 34.1038 7.19205 34.4632 7.47816C34.4787 7.49008 34.4927 7.50401 34.5046 7.5196C34.5141 7.53133 34.5192 7.54596 34.5192 7.56104C34.5179 7.57474 34.5137 7.58801 34.507 7.60004L34.4802 7.64878L34.3193 7.89253C34.3087 7.91051 34.2946 7.92625 34.2779 7.93884C34.266 7.948 34.2515 7.95312 34.2365 7.95347C34.2015 7.9507 34.1683 7.93707 34.1414 7.91447C33.9996 7.81554 33.8466 7.73373 33.6856 7.67072C33.5304 7.6095 33.365 7.57808 33.1981 7.5781C33.0705 7.57537 32.9436 7.59859 32.8252 7.64635C32.7268 7.68886 32.6424 7.75811 32.5814 7.84622C32.5201 7.93668 32.4885 8.04407 32.4912 8.15334C32.4867 8.25907 32.5185 8.36315 32.5814 8.44827C32.6539 8.53429 32.747 8.60054 32.852 8.64083C33.0104 8.70496 33.1733 8.75711 33.3395 8.79683C33.5778 8.85191 33.8092 8.93368 34.0293 9.04058C34.1852 9.11638 34.3188 9.23146 34.4168 9.37451C34.509 9.52981 34.5547 9.70832 34.5485 9.88882C34.5523 10.1052 34.4884 10.3174 34.3657 10.4957C34.2385 10.6751 34.0638 10.8152 33.8611 10.9004C33.6295 10.9966 33.3807 11.0447 33.1299 11.0417C32.8883 11.0428 32.6486 10.999 32.423 10.9126C32.204 10.8282 31.9993 10.7107 31.8161 10.564C31.7844 10.5412 31.7626 10.5072 31.7551 10.4689C31.7595 10.4351 31.7729 10.4031 31.7941 10.3763L31.9696 10.1423ZM30.4462 9.3282C30.4568 9.65576 30.3856 9.98081 30.239 10.2739C30.1101 10.5204 29.9084 10.7213 29.6613 10.8492C29.3999 10.9805 29.1105 11.0465 28.818 11.0417C28.5358 11.0473 28.2565 10.9846 28.0039 10.8589C27.7661 10.732 27.5736 10.5344 27.453 10.2934C27.3119 9.99777 27.2434 9.67272 27.2531 9.34526V7.22223C27.251 7.20484 27.2525 7.18719 27.2575 7.17041C27.2626 7.15363 27.271 7.13808 27.2824 7.12473C27.3091 7.10526 27.3422 7.09656 27.375 7.10035H27.6797C27.7148 7.09611 27.7504 7.10477 27.7796 7.12473C27.791 7.13808 27.7994 7.15363 27.8045 7.17041C27.8095 7.18719 27.811 7.20484 27.8089 7.22223V9.31114C27.7886 9.62913 27.8828 9.94388 28.0745 10.1984C28.1698 10.3057 28.2882 10.3899 28.4208 10.4448C28.5534 10.4997 28.6967 10.5238 28.8399 10.5152C29.0392 10.521 29.2361 10.4703 29.4078 10.369C29.5665 10.2714 29.6915 10.1277 29.7661 9.95707C29.8558 9.75642 29.8992 9.53814 29.8929 9.31845V7.22223C29.8904 7.20501 29.8915 7.18746 29.8962 7.17069C29.9008 7.15392 29.9088 7.13827 29.9197 7.12473C29.945 7.10622 29.9762 7.09756 30.0075 7.10035H30.3195C30.3546 7.09675 30.3899 7.10536 30.4194 7.12473C30.4405 7.1526 30.4501 7.18749 30.4462 7.22223V9.3282ZM23.5604 10.8589C23.5626 10.8759 23.5611 10.8932 23.5561 10.9097C23.551 10.9261 23.5425 10.9412 23.5311 10.954C23.5047 10.9743 23.4716 10.9839 23.4385 10.9808H23.1265C23.0933 10.9839 23.0602 10.9743 23.0339 10.954C23.0224 10.9412 23.0139 10.9261 23.0089 10.9097C23.0038 10.8932 23.0024 10.8759 23.0046 10.8589V7.22223C23.0025 7.20484 23.004 7.18719 23.009 7.17041C23.0141 7.15363 23.0225 7.13808 23.0339 7.12473C23.0606 7.10526 23.0936 7.09656 23.1265 7.10035H24.1795C25.2325 7.10035 25.7589 7.50091 25.7589 8.30203C25.7688 8.53733 25.6992 8.7691 25.5615 8.96014C25.417 9.13809 25.224 9.27019 25.0058 9.34039L25.9588 10.8029C25.9846 10.8332 26.0007 10.8706 26.0051 10.9101C26.0049 10.9201 26.0018 10.9298 25.9962 10.938C25.9906 10.9462 25.9827 10.9526 25.9734 10.9564C25.9448 10.9677 25.914 10.9726 25.8833 10.9711H25.5542C25.5068 10.9748 25.4594 10.9647 25.4177 10.9418C25.3733 10.9097 25.3367 10.868 25.3105 10.8199L24.2867 9.20876C24.2672 9.18716 24.2552 9.15978 24.2526 9.13076C24.2526 9.10152 24.2819 9.08689 24.3355 9.08202C24.8937 9.02352 25.174 8.77246 25.174 8.33371C25.1815 8.22731 25.1612 8.12078 25.115 8.02462C25.0689 7.92846 24.9984 7.84597 24.9107 7.78528C24.6788 7.65408 24.4137 7.59311 24.1478 7.60979H23.6164C23.5973 7.60741 23.578 7.61267 23.5628 7.62441C23.5525 7.63937 23.5482 7.65761 23.5506 7.6756L23.5604 10.8589ZM37.6148 0.677625C37.6187 0.712358 37.6091 0.747255 37.588 0.775124C37.5601 0.794143 37.5265 0.80277 37.4929 0.799498H36.4521C36.433 0.797125 36.4138 0.80238 36.3985 0.814123C36.3929 0.820345 36.3887 0.827699 36.3862 0.835689C36.3836 0.843679 36.3829 0.852118 36.3839 0.860435V4.02914C36.3839 4.07546 36.3839 4.10958 36.3571 4.1242C36.3297 4.14448 36.2959 4.15403 36.262 4.15102H35.9524C35.9186 4.15358 35.8849 4.14408 35.8574 4.1242C35.8362 4.09732 35.8266 4.06313 35.8306 4.02914V0.860435C35.8316 0.852118 35.8308 0.843679 35.8283 0.835689C35.8258 0.827699 35.8216 0.820345 35.8159 0.814123C35.8088 0.80838 35.8006 0.804127 35.7918 0.801614C35.7831 0.799102 35.7738 0.798382 35.7648 0.799498L34.7215 0.799498C34.6887 0.803293 34.6556 0.794592 34.6289 0.775124C34.6176 0.761776 34.6091 0.74622 34.6041 0.729439C34.599 0.712657 34.5975 0.695015 34.5997 0.677625V0.399753C34.5975 0.382363 34.599 0.364719 34.6041 0.347938C34.6091 0.331157 34.6176 0.315602 34.6289 0.302254C34.6556 0.282786 34.6887 0.274085 34.7215 0.27788L37.4929 0.27788C37.5265 0.274607 37.5601 0.283235 37.588 0.302254C37.6091 0.330123 37.6187 0.36502 37.6148 0.399753V0.677625ZM30.9215 3.31497C30.9508 3.27597 30.98 3.25403 31.0044 3.25403C31.0364 3.26032 31.066 3.27553 31.0897 3.2979C31.3726 3.54157 31.7305 3.68094 32.1037 3.69277C32.2548 3.69573 32.4052 3.67094 32.5473 3.61965C32.6619 3.57988 32.7626 3.50795 32.8374 3.41246C32.9053 3.32279 32.9414 3.21297 32.9397 3.10047C32.9444 2.99962 32.9152 2.90011 32.8569 2.81772C32.7855 2.73156 32.6932 2.66524 32.5887 2.62516C32.4183 2.55663 32.2432 2.50042 32.0647 2.45698C31.8365 2.40175 31.6157 2.31994 31.4066 2.21323C31.2457 2.13995 31.107 2.02562 31.0044 1.88173C30.9047 1.72206 30.8554 1.53603 30.863 1.34793C30.8572 1.13378 30.9167 0.922948 31.0336 0.743436C31.1498 0.571946 31.312 0.436756 31.5016 0.353441C31.7118 0.260391 31.9397 0.213832 32.1695 0.216943C32.6289 0.214779 33.0752 0.369571 33.4345 0.655687C33.4501 0.667606 33.4641 0.681541 33.476 0.697125C33.4836 0.709617 33.4878 0.723915 33.4882 0.738561C33.491 0.751405 33.491 0.764716 33.4882 0.777561L33.4589 0.82631L33.298 1.07006C33.2874 1.08808 33.2733 1.10382 33.2566 1.11637C33.2449 1.12585 33.2303 1.13101 33.2152 1.13099C33.181 1.12774 33.1487 1.11413 33.1225 1.09199C32.9807 0.993067 32.8278 0.91125 32.6667 0.848248C32.5115 0.787028 32.3461 0.755605 32.1792 0.755623C32.0508 0.752907 31.9231 0.776119 31.8039 0.823872C31.7057 0.866612 31.6213 0.935813 31.5601 1.02374C31.4981 1.11399 31.4657 1.22135 31.4675 1.33087C31.4637 1.43688 31.4964 1.541 31.5601 1.6258C31.6326 1.71182 31.7257 1.77807 31.8307 1.81836C31.9886 1.88377 32.1516 1.93595 32.3182 1.97436C32.5574 2.02906 32.7897 2.11084 33.0104 2.2181C33.1691 2.29735 33.3044 2.41666 33.4029 2.56423C33.4942 2.71978 33.539 2.89827 33.532 3.07853C33.5359 3.29495 33.4719 3.50715 33.3492 3.68546C33.2175 3.86732 33.0365 4.00771 32.8276 4.09008C32.5961 4.18688 32.3472 4.23501 32.0964 4.23145C31.8548 4.23255 31.6151 4.18875 31.3895 4.10227C31.1705 4.01795 30.9658 3.90039 30.7826 3.75371C30.7509 3.73091 30.7291 3.69692 30.7216 3.65865C30.7249 3.62452 30.7385 3.5922 30.7606 3.56602L30.9215 3.31497ZM29.4395 3.62696C29.4724 3.62317 29.5054 3.63187 29.5322 3.65134C29.5435 3.66468 29.552 3.68024 29.557 3.69702C29.562 3.7138 29.5635 3.73144 29.5614 3.74883V4.03158C29.5637 4.0486 29.5622 4.0659 29.5571 4.0823C29.5521 4.09871 29.5436 4.11383 29.5322 4.12664C29.5058 4.14698 29.4727 4.15656 29.4395 4.15345H27.3482C27.3143 4.15602 27.2806 4.14652 27.2531 4.12664C27.2319 4.09976 27.2223 4.06557 27.2263 4.03158V0.399753C27.2224 0.36502 27.232 0.330123 27.2531 0.302254C27.281 0.283235 27.3146 0.274607 27.3482 0.27788L29.442 0.27788C29.4756 0.273698 29.5096 0.282407 29.537 0.302254C29.5479 0.315796 29.556 0.331441 29.5606 0.348214C29.5652 0.364988 29.5663 0.382532 29.5639 0.399753V0.677625C29.5663 0.694846 29.5652 0.71239 29.5606 0.729164C29.556 0.745937 29.5479 0.761582 29.537 0.775124C29.5096 0.794971 29.4756 0.80368 29.442 0.799498H27.8357C27.8166 0.797125 27.7973 0.80238 27.7821 0.814123C27.7764 0.820345 27.7722 0.827699 27.7697 0.835689C27.7672 0.843679 27.7664 0.852118 27.7674 0.860435V1.87442C27.765 1.89352 27.7703 1.91279 27.7821 1.92805C27.7821 1.92805 27.8089 1.94023 27.8357 1.94023L29.2421 1.94023C29.276 1.93767 29.3096 1.94717 29.3372 1.96705C29.3579 1.99417 29.3675 2.02816 29.364 2.06211V2.33998C29.3684 2.35683 29.3683 2.37455 29.3637 2.39135C29.3591 2.40816 29.3502 2.42348 29.3379 2.4358C29.3256 2.44811 29.3103 2.457 29.2935 2.46157C29.2767 2.46614 29.259 2.46624 29.2421 2.46185H27.8357C27.8166 2.45948 27.7973 2.46473 27.7821 2.47648C27.7766 2.48278 27.7724 2.49015 27.7699 2.49811C27.7674 2.50608 27.7666 2.51448 27.7674 2.52279V3.56602C27.7666 3.57433 27.7674 3.58273 27.7699 3.5907C27.7724 3.59867 27.7766 3.60603 27.7821 3.61234C27.7973 3.62408 27.8166 3.62933 27.8357 3.62696H29.4395ZM24.2209 3.64159C24.4081 3.6469 24.5951 3.6264 24.7767 3.58065C24.9014 3.55225 25.013 3.48271 25.0935 3.38321C25.1655 3.27708 25.2014 3.15059 25.1959 3.02247C25.2022 2.93325 25.1826 2.84411 25.1393 2.76581C25.0961 2.68752 25.031 2.62343 24.9521 2.58129C24.7346 2.48209 24.4961 2.43774 24.2575 2.4521H23.6091C23.5823 2.4521 23.5652 2.4521 23.5555 2.46429C23.5457 2.47648 23.5433 2.4911 23.5433 2.51791V3.57577C23.5415 3.59372 23.5458 3.61175 23.5555 3.62696C23.5707 3.6387 23.59 3.64396 23.6091 3.64159H24.2209ZM23.6164 0.782436C23.6068 0.780958 23.5969 0.781729 23.5876 0.784689C23.5783 0.787648 23.5698 0.792716 23.5628 0.799498C23.5531 0.813798 23.5488 0.831068 23.5506 0.848248V1.89636C23.5488 1.9143 23.5531 1.93233 23.5628 1.94755C23.5702 1.95379 23.5787 1.95851 23.5879 1.96144C23.5971 1.96437 23.6068 1.96545 23.6164 1.96461H24.2429C24.4635 1.98012 24.6836 1.92828 24.8741 1.81592C24.9444 1.76753 25.0008 1.70154 25.0376 1.62455C25.0744 1.54756 25.0903 1.46226 25.0838 1.37718C25.0899 1.29002 25.0717 1.20288 25.0312 1.12543C24.9908 1.04799 24.9297 0.983259 24.8547 0.938434C24.6409 0.832415 24.403 0.7845 24.1649 0.799498L23.6164 0.782436ZM22.9949 0.394878C22.9927 0.377488 22.9942 0.359845 22.9993 0.343064C23.0043 0.326283 23.0128 0.310727 23.0241 0.297379C23.0508 0.277911 23.0839 0.26921 23.1167 0.273005L24.2038 0.273005C24.5771 0.252229 24.9487 0.336683 25.2763 0.516752C25.4043 0.601785 25.5073 0.719247 25.575 0.857139C25.6426 0.995032 25.6725 1.14841 25.6615 1.30162C25.6764 1.48711 25.6272 1.67213 25.5221 1.82566C25.4169 1.9792 25.2622 2.09193 25.0838 2.14498C25.279 2.18691 25.4553 2.2913 25.5859 2.44235C25.7146 2.60475 25.7804 2.80814 25.7711 3.01516C25.7835 3.18137 25.7529 3.34795 25.6825 3.49901C25.6121 3.65007 25.5042 3.78056 25.369 3.87802C25.0219 4.08109 24.6222 4.17613 24.2209 4.15102H23.1167C23.0836 4.15412 23.0505 4.14454 23.0241 4.1242C23.0127 4.11139 23.0042 4.09627 22.9991 4.07986C22.9941 4.06346 22.9926 4.04616 22.9949 4.02914V0.394878Z" fill="#1D1D1B"/>
<path d="M53.1123 21.1524C53.1145 21.1698 53.113 21.1874 53.1079 21.2042C53.1029 21.221 53.0944 21.2365 53.0831 21.2499C53.0564 21.2694 53.0233 21.2781 52.9905 21.2743H51.9472C51.9282 21.2724 51.9091 21.2776 51.8936 21.2889C51.8846 21.3026 51.8804 21.3188 51.8814 21.3352V24.5039C51.8848 24.5386 51.8753 24.5733 51.8546 24.6014C51.8263 24.6194 51.793 24.6279 51.7596 24.6258H51.45C51.4165 24.6286 51.3829 24.6201 51.3549 24.6014C51.3441 24.5878 51.3362 24.5721 51.3316 24.5554C51.327 24.5386 51.3258 24.5211 51.3281 24.5039V21.3352C51.329 21.3269 51.3281 21.3185 51.3256 21.3105C51.3231 21.3026 51.319 21.2952 51.3135 21.2889C51.2982 21.2771 51.279 21.2719 51.2599 21.2743H50.2191C50.1855 21.278 50.1517 21.2693 50.124 21.2499C50.1131 21.2363 50.1051 21.2207 50.1005 21.2039C50.0958 21.1872 50.0947 21.1696 50.0972 21.1524V20.8696C50.0947 20.8524 50.0958 20.8349 50.1005 20.8181C50.1051 20.8013 50.1131 20.7857 50.124 20.7721C50.1522 20.7538 50.1856 20.7453 50.2191 20.7478H52.9905C53.0232 20.7453 53.0558 20.7539 53.0831 20.7721C53.0944 20.7855 53.1029 20.801 53.1079 20.8178C53.113 20.8346 53.1145 20.8522 53.1123 20.8696V21.1524ZM46.9114 21.2743C46.8923 21.2719 46.873 21.2771 46.8578 21.2889C46.8529 21.3039 46.8529 21.3201 46.8578 21.3352V22.7538C46.8533 22.7706 46.8533 22.7882 46.8578 22.805C46.873 22.8167 46.8923 22.822 46.9114 22.8196H47.4501C47.7166 22.8356 47.9816 22.7683 48.2082 22.6271C48.2995 22.559 48.3723 22.4691 48.42 22.3656C48.4677 22.2622 48.4887 22.1484 48.4812 22.0347C48.4904 21.9234 48.4708 21.8115 48.4243 21.7099C48.3777 21.6083 48.3058 21.5204 48.2155 21.4546C47.9838 21.3202 47.7174 21.2574 47.4501 21.2743H46.9114ZM46.9114 23.3461C46.8923 23.3437 46.873 23.349 46.8578 23.3607C46.8529 23.3758 46.8529 23.392 46.8578 23.407V24.5063C46.8598 24.5237 46.8582 24.5413 46.8532 24.5581C46.8482 24.5749 46.8398 24.5904 46.8285 24.6038C46.8013 24.6221 46.7687 24.6307 46.7359 24.6282H46.4239C46.3912 24.6307 46.3586 24.6221 46.3313 24.6038C46.3201 24.5904 46.3117 24.5749 46.3067 24.5581C46.3016 24.5413 46.3001 24.5237 46.3021 24.5063V20.8672C46.2999 20.8498 46.3014 20.8322 46.3065 20.8154C46.3115 20.7986 46.32 20.783 46.3313 20.7697C46.3586 20.7514 46.3912 20.7428 46.4239 20.7453H47.4818C47.9023 20.7131 48.3209 20.8277 48.6664 21.0695C48.7997 21.1876 48.9042 21.3347 48.9718 21.4995C49.0395 21.6643 49.0684 21.8424 49.0564 22.0201C49.064 22.2725 48.9997 22.5219 48.8711 22.7392C48.7387 22.9429 48.5462 23.1005 48.3203 23.1901C48.0376 23.2994 47.736 23.3515 47.433 23.3437L46.9114 23.3461ZM44.63 24.1017C44.6635 24.0985 44.6972 24.1071 44.725 24.1261C44.7461 24.154 44.7557 24.1889 44.7518 24.2236V24.5063C44.7552 24.541 44.7457 24.5758 44.725 24.6038C44.6967 24.6218 44.6634 24.6304 44.63 24.6282H42.5289C42.4961 24.6307 42.4635 24.6221 42.4362 24.6038C42.425 24.5904 42.4166 24.5749 42.4116 24.5581C42.4066 24.5413 42.405 24.5237 42.407 24.5063V20.8672C42.4049 20.8498 42.4064 20.8322 42.4114 20.8154C42.4164 20.7986 42.4249 20.783 42.4362 20.7697C42.4635 20.7514 42.4961 20.7428 42.5289 20.7453H44.6251C44.6578 20.7428 44.6904 20.7514 44.7177 20.7697C44.7291 20.783 44.7375 20.7986 44.7425 20.8154C44.7476 20.8322 44.7491 20.8498 44.747 20.8672V21.1524C44.7491 21.1698 44.7476 21.1874 44.7425 21.2042C44.7375 21.221 44.7291 21.2365 44.7177 21.2499C44.691 21.2694 44.6579 21.2781 44.6251 21.2743H43.0285C43.0094 21.2719 42.9902 21.2771 42.9749 21.2889C42.9659 21.3026 42.9617 21.3188 42.9627 21.3352V22.3492C42.9611 22.3679 42.9654 22.3866 42.9749 22.4028C42.9902 22.4146 43.0094 22.4198 43.0285 22.4174H44.4349C44.4686 22.4133 44.5025 22.422 44.53 22.4418C44.5409 22.4553 44.549 22.471 44.5536 22.4878C44.5582 22.5045 44.5593 22.5221 44.5568 22.5393V22.8147C44.5606 22.8487 44.551 22.8828 44.53 22.9098C44.5029 22.9305 44.4689 22.9401 44.4349 22.9366H43.0285C43.0094 22.9342 42.9902 22.9395 42.9749 22.9512C42.9659 22.9649 42.9617 22.9812 42.9627 22.9976V24.0408C42.9617 24.0571 42.9659 24.0734 42.9749 24.0871C42.9902 24.0988 43.0094 24.1041 43.0285 24.1017H44.63ZM39.5332 24.1627C39.9403 24.1666 40.3354 24.0248 40.6471 23.7629C40.6728 23.7365 40.706 23.7187 40.7422 23.7117C40.7582 23.7131 40.7734 23.719 40.7861 23.7288C40.8003 23.7405 40.8133 23.7536 40.8251 23.7678L40.9859 23.9896C41.0033 24.0119 41.0128 24.0393 41.0127 24.0676C41.0126 24.0845 41.0066 24.1009 40.9957 24.1139C40.9822 24.1341 40.9658 24.1522 40.9469 24.1675C40.7506 24.3343 40.5261 24.4647 40.2839 24.5527C40.0365 24.6436 39.7749 24.6898 39.5113 24.6892C39.163 24.693 38.8199 24.6048 38.5168 24.4332C38.2181 24.2661 37.9704 24.0209 37.8002 23.7239C37.6229 23.414 37.532 23.0621 37.5369 22.7051C37.5319 22.3441 37.6228 21.9883 37.8002 21.674C37.9726 21.3681 38.2255 21.1152 38.5314 20.9428C38.8431 20.7654 39.1965 20.6745 39.5551 20.6795C39.8151 20.6784 40.0729 20.7256 40.3156 20.8185C40.5505 20.9065 40.7688 21.0333 40.9616 21.1938C40.9771 21.2024 40.9904 21.2147 41.0001 21.2296C41.0099 21.2444 41.0159 21.2614 41.0176 21.2791C41.0145 21.3109 41.0027 21.3413 40.9835 21.3669L40.8226 21.5838C40.7934 21.6228 40.7641 21.6448 40.7349 21.6448C40.6993 21.639 40.6663 21.6229 40.6398 21.5984C40.4831 21.4784 40.3099 21.3815 40.1255 21.3108C39.9394 21.2405 39.7419 21.205 39.543 21.206C39.2867 21.2014 39.034 21.2662 38.8117 21.3937C38.5972 21.5204 38.4205 21.7022 38.2998 21.9202C38.1731 22.1552 38.1085 22.4186 38.1122 22.6856C38.1086 22.9468 38.1724 23.2045 38.2974 23.4339C38.4156 23.6535 38.5918 23.8364 38.8068 23.9628C39.0268 24.0947 39.2791 24.1631 39.5356 24.1602L39.5332 24.1627Z" fill="#1D1D1B"/>
<path d="M27.975 22.6953C27.9713 22.9576 28.036 23.2163 28.1626 23.446C28.2797 23.6652 28.4563 23.8469 28.6721 23.9701C28.8893 24.0972 29.137 24.1629 29.3887 24.1602C29.6428 24.161 29.8924 24.0936 30.1115 23.965C30.3306 23.8363 30.5111 23.6512 30.6342 23.429C30.7625 23.1989 30.828 22.9392 30.8244 22.6758C30.8286 22.4096 30.7639 22.1468 30.6367 21.9129C30.5155 21.6942 30.3368 21.513 30.1199 21.3888C29.9002 21.2645 29.6521 21.1991 29.3996 21.1991C29.1472 21.1991 28.8991 21.2645 28.6794 21.3888C28.4629 21.5159 28.2851 21.6996 28.1651 21.9202C28.0362 22.1535 27.9707 22.4166 27.975 22.6831M27.3997 22.6831C27.395 22.323 27.4858 21.9681 27.6629 21.6545C27.8341 21.3476 28.0873 21.0944 28.3942 20.9232C28.7067 20.7513 29.0576 20.6611 29.4143 20.6611C29.771 20.6611 30.1219 20.7513 30.4343 20.9232C30.7333 21.0922 30.981 21.339 31.151 21.6374C31.3229 21.9508 31.4131 22.3025 31.4131 22.6599C31.4131 23.0174 31.3229 23.3691 31.151 23.6825C30.98 23.9895 30.7267 24.2427 30.4197 24.4137C30.1047 24.5892 29.7492 24.6791 29.3887 24.6745C29.0347 24.6785 28.6859 24.5894 28.3771 24.4161C28.0791 24.2486 27.8329 24.0024 27.6654 23.7044C27.4909 23.3994 27.3993 23.054 27.3997 22.7026V22.6831ZM24.7575 24.1456C25.1646 24.1495 25.5597 24.0077 25.8714 23.7458C25.8971 23.7195 25.9303 23.7016 25.9665 23.6946C25.9824 23.696 25.9977 23.7019 26.0104 23.7117C26.0245 23.7235 26.0376 23.7365 26.0493 23.7507L26.2102 23.9725C26.2276 23.9948 26.237 24.0223 26.237 24.0505C26.2365 24.0674 26.2305 24.0836 26.22 24.0968C26.2065 24.117 26.1901 24.1351 26.1712 24.1505C25.9748 24.3172 25.7503 24.4476 25.5082 24.5356C25.2608 24.6265 24.9992 24.6727 24.7356 24.6721C24.3873 24.676 24.0442 24.5877 23.7411 24.4161C23.443 24.2489 23.1961 24.0037 23.0269 23.7068C22.8496 23.3969 22.7587 23.045 22.7636 22.688C22.7586 22.3271 22.8495 21.9713 23.0269 21.6569C23.199 21.3508 23.452 21.0978 23.7581 20.9257C24.0698 20.7483 24.4233 20.6574 24.7819 20.6624C25.0418 20.6614 25.2996 20.7085 25.5424 20.8014C25.7776 20.8886 25.996 21.0156 26.1883 21.1767C26.2038 21.1854 26.2171 21.1976 26.2268 21.2125C26.2366 21.2273 26.2426 21.2444 26.2443 21.2621C26.2412 21.2939 26.2294 21.3242 26.2102 21.3498L26.0493 21.5667C26.0201 21.6057 25.9908 21.6277 25.9616 21.6277C25.926 21.6219 25.893 21.6058 25.8665 21.5814C25.7101 21.4608 25.5368 21.3639 25.3522 21.2937C25.1661 21.2234 24.9686 21.1879 24.7697 21.1889C24.5184 21.1866 24.271 21.2514 24.0531 21.3766C23.8373 21.5026 23.6596 21.6845 23.5388 21.9031C23.4118 22.138 23.3472 22.4015 23.3511 22.6685C23.3475 22.9297 23.4113 23.1874 23.5363 23.4168C23.6552 23.6359 23.8313 23.8187 24.0458 23.9457C24.2596 24.0795 24.5053 24.1536 24.7575 24.1602V24.1456ZM27.975 15.8582C27.9713 16.1205 28.036 16.3792 28.1626 16.6089C28.2797 16.8281 28.4563 17.0098 28.6721 17.133C28.8893 17.2601 29.137 17.3258 29.3887 17.3231C29.6453 17.326 29.898 17.2595 30.1199 17.1305C30.3384 17.0047 30.5187 16.8219 30.6415 16.6016C30.7698 16.3715 30.8353 16.1118 30.8317 15.8484C30.8359 15.5822 30.7712 15.3194 30.644 15.0855C30.5229 14.8669 30.3441 14.6856 30.1272 14.5615C29.9075 14.4371 29.6594 14.3718 29.407 14.3718C29.1545 14.3718 28.9064 14.4371 28.6867 14.5615C28.4702 14.6886 28.2924 14.8723 28.1724 15.0928C28.0381 15.3305 27.9699 15.5998 27.975 15.8728V15.8582ZM27.3997 15.8582C27.395 15.4981 27.4858 15.1432 27.6629 14.8296C27.8341 14.5227 28.0873 14.2695 28.3942 14.0983C28.7067 13.9264 29.0576 13.8362 29.4143 13.8362C29.771 13.8362 30.1219 13.9264 30.4343 14.0983C30.7333 14.2673 30.981 14.5141 31.151 14.8125C31.3229 15.1259 31.4131 15.4776 31.4131 15.835C31.4131 16.1925 31.3229 16.5442 31.151 16.8575C30.98 17.1646 30.7267 17.4178 30.4197 17.5888C30.1047 17.7643 29.7492 17.8542 29.3887 17.8496C29.0347 17.8536 28.6859 17.7645 28.3771 17.5912C28.0796 17.423 27.8336 17.177 27.6654 16.8795C27.4913 16.5752 27.3998 16.2307 27.3997 15.8801V15.8582ZM24.7575 17.3207C25.1646 17.3246 25.5597 17.1828 25.8714 16.9209C25.8971 16.8946 25.9303 16.8767 25.9665 16.8697C25.9824 16.8711 25.9977 16.877 26.0104 16.8868C26.0245 16.8986 26.0376 16.9116 26.0493 16.9258L26.2102 17.1476C26.2276 17.1699 26.237 17.1973 26.237 17.2256C26.2365 17.2425 26.2305 17.2587 26.22 17.2719C26.2065 17.2921 26.1901 17.3102 26.1712 17.3255C25.9748 17.4923 25.7503 17.6227 25.5082 17.7107C25.2608 17.8016 24.9992 17.8478 24.7356 17.8472C24.3873 17.8511 24.0442 17.7628 23.7411 17.5912C23.443 17.424 23.1961 17.1788 23.0269 16.8819C22.8496 16.572 22.7587 16.2201 22.7636 15.8631C22.7586 15.5021 22.8495 15.1464 23.0269 14.832C23.199 14.5258 23.452 14.2729 23.7581 14.1008C24.0698 13.9234 24.4233 13.8325 24.7819 13.8375C25.0418 13.8365 25.2996 13.8836 25.5424 13.9765C25.7776 14.0637 25.996 14.1907 26.1883 14.3518C26.2038 14.3604 26.2171 14.3727 26.2268 14.3876C26.2366 14.4024 26.2426 14.4194 26.2443 14.4371C26.2412 14.469 26.2294 14.4993 26.2102 14.5249L26.0493 14.7418C26.0201 14.7808 25.9908 14.8028 25.9616 14.8028C25.926 14.797 25.893 14.7809 25.8665 14.7565C25.7101 14.6359 25.5368 14.539 25.3522 14.4688C25.1661 14.3985 24.9686 14.363 24.7697 14.364C24.5184 14.3617 24.271 14.4264 24.0531 14.5517C23.8373 14.6777 23.6596 14.8596 23.5388 15.0782C23.4118 15.3131 23.3472 15.5766 23.3511 15.8436C23.3475 16.1048 23.4113 16.3625 23.5363 16.5919C23.6545 16.8115 23.8307 16.9944 24.0458 17.1208C24.2593 17.2555 24.5051 17.3304 24.7575 17.3377V17.3207Z" fill="#1D1D1B"/>
<path d="M10.0886 18.9586C11.189 20.6347 12.6885 22.0113 14.4523 22.9647C16.2162 23.9181 18.1893 24.4185 20.1943 24.421V0C18.189 0.0022974 16.2156 0.502889 14.4516 1.45677C12.6877 2.41066 11.1884 3.78794 10.0886 5.4648C11.4054 7.46907 12.107 9.8148 12.107 12.2129C12.107 14.6111 11.4054 16.9568 10.0886 18.9611" fill="#FFCC00"/>
<path d="M10.106 18.9586C9.00554 20.6347 7.50607 22.0113 5.7422 22.9647C3.97832 23.9181 2.00526 24.4185 0.000206947 24.421V0C2.00557 0.0022974 3.97893 0.502889 5.7429 1.45677C7.50686 2.41066 9.00614 3.78794 10.106 5.4648C8.78768 7.4685 8.08515 9.81446 8.08515 12.2129C8.08515 14.6114 8.78768 16.9574 10.106 18.9611" fill="#8F116E"/>
</g>
<defs>
<clipPath id="clip0_25_6979">
<rect width="24.6842" height="65" fill="white" transform="matrix(0 1 -1 0 65 0)"/>
</clipPath>
</defs>
</svg>
