<svg width="79" height="31" viewBox="0 0 79 31" fill="none" xmlns="http://www.w3.org/2000/svg">
<g clip-path="url(#clip0_376_665)">
<path d="M43.2887 26.0583C43.284 26.0164 43.2956 25.9742 43.3211 25.9406C43.3547 25.9176 43.3954 25.9072 43.4359 25.9111H43.8098C43.8503 25.9072 43.8909 25.9176 43.9246 25.9406C43.95 25.9742 43.9616 26.0164 43.9569 26.0583V30.4503C43.9569 30.5975 43.9128 30.6711 43.8245 30.6711C43.7826 30.6686 43.7425 30.6532 43.7097 30.627C43.6484 30.5777 43.5922 30.5225 43.5419 30.4621L40.816 27.2564V30.4503C40.8208 30.4914 40.8092 30.5327 40.7836 30.5651C40.7504 30.5891 40.7097 30.6006 40.6688 30.5975H40.295C40.2541 30.6006 40.2134 30.5891 40.1802 30.5651C40.1546 30.5327 40.1429 30.4914 40.1478 30.4503V26.0583C40.1443 26.0006 40.1555 25.9428 40.1802 25.8905C40.192 25.8729 40.2084 25.8587 40.2275 25.8494C40.2466 25.8401 40.2679 25.836 40.2891 25.8375C40.3302 25.8396 40.3695 25.8551 40.4009 25.8817C40.4614 25.9298 40.5158 25.9852 40.5628 26.0465L43.2799 29.2522V26.0583M76.3378 18.3075C76.3147 18.3047 76.2914 18.311 76.273 18.3252C76.2664 18.3328 76.2614 18.3417 76.2584 18.3513C76.2553 18.3609 76.2543 18.3711 76.2553 18.3811V20.0944C76.254 20.1164 76.2603 20.1382 76.273 20.1562C76.2914 20.1704 76.3147 20.1767 76.3378 20.1738H76.9854C77.3082 20.1936 77.6292 20.1123 77.9038 19.9413C78.014 19.8584 78.1016 19.7493 78.1587 19.6238C78.2158 19.4983 78.2405 19.3605 78.2306 19.223C78.2418 19.0892 78.2185 18.9548 78.1628 18.8326C78.1072 18.7104 78.021 18.6046 77.9126 18.5254C77.6317 18.3631 77.3092 18.2873 76.9854 18.3075H76.3378ZM76.3378 20.8097C76.3147 20.8068 76.2914 20.8132 76.273 20.8273C76.2664 20.835 76.2614 20.8438 76.2584 20.8535C76.2553 20.8631 76.2543 20.8732 76.2553 20.8833V22.2109C76.2553 22.2668 76.2553 22.308 76.223 22.3257C76.19 22.3502 76.1491 22.3617 76.1082 22.3581H75.7343C75.6934 22.3612 75.6527 22.3497 75.6195 22.3257C75.5939 22.2932 75.5823 22.2519 75.5871 22.2109V17.8189C75.5824 17.7769 75.594 17.7348 75.6195 17.7011C75.6531 17.6781 75.6938 17.6677 75.7343 17.6717H77.0236C77.5306 17.6323 78.0354 17.7707 78.4513 18.0632C78.6127 18.2057 78.7394 18.3832 78.8215 18.5822C78.9037 18.7812 78.9392 18.9964 78.9253 19.2112C78.9336 19.515 78.856 19.815 78.7016 20.0767C78.5406 20.3237 78.3072 20.5149 78.0333 20.6242C77.692 20.7565 77.3277 20.8195 76.9618 20.8097H76.3378ZM69.6467 20.0266C69.6417 20.3441 69.7188 20.6574 69.8704 20.9363C70.0135 21.199 70.2264 21.417 70.4857 21.5662C70.7533 21.7224 71.0589 21.8019 71.3688 21.7958C71.6787 21.7995 71.9839 21.7191 72.2519 21.5633C72.5164 21.4121 72.7343 21.1911 72.8818 20.9245C73.0316 20.6426 73.1099 20.3282 73.1099 20.009C73.1099 19.6898 73.0316 19.3754 72.8818 19.0935C72.7366 18.8297 72.5218 18.6107 72.2607 18.4606C71.9918 18.3076 71.6869 18.2293 71.3776 18.2339C71.072 18.2313 70.7715 18.3121 70.5084 18.4677C70.2454 18.6234 70.0299 18.8479 69.8851 19.117C69.7297 19.3951 69.6476 19.7081 69.6467 20.0266ZM68.949 20.0266C68.9434 19.5917 69.0531 19.1631 69.267 18.7844C69.4746 18.4145 69.7801 18.1089 70.1501 17.9013C70.528 17.6936 70.9523 17.5847 71.3835 17.5847C71.8147 17.5847 72.239 17.6936 72.6169 17.9013C72.9771 18.1055 73.2752 18.4036 73.4794 18.7638C73.6871 19.1423 73.796 19.567 73.796 19.9987C73.796 20.4304 73.6871 20.8551 73.4794 21.2336C73.2721 21.6037 72.9664 21.9093 72.5963 22.1167C72.2159 22.3286 71.7866 22.4372 71.3511 22.4317C70.9236 22.4365 70.5023 22.3289 70.1295 22.1196C69.7702 21.9165 69.4731 21.6193 69.2699 21.2601C69.0567 20.8874 68.946 20.4648 68.949 20.0355V20.0266ZM67.1446 22.2021C67.1494 22.2431 67.1377 22.2844 67.1122 22.3169C67.0789 22.3409 67.0383 22.3523 66.9974 22.3492H66.6235C66.5826 22.3523 66.542 22.3409 66.5087 22.3169C66.4831 22.2844 66.4715 22.2431 66.4763 22.2021V20.3328C66.4774 20.3228 66.4763 20.3126 66.4733 20.303C66.4703 20.2934 66.4653 20.2845 66.4587 20.2769C66.4402 20.2627 66.417 20.2563 66.3939 20.2592H64.1802C64.1572 20.2563 64.1339 20.2627 64.1155 20.2769C64.1084 20.2948 64.1084 20.3148 64.1155 20.3328V22.2021C64.1182 22.2226 64.1164 22.2435 64.1103 22.2633C64.1042 22.2831 64.0939 22.3014 64.0802 22.3169C64.0483 22.3414 64.0083 22.353 63.9683 22.3492H63.5915C63.5514 22.353 63.5115 22.3414 63.4796 22.3169C63.4658 22.3014 63.4555 22.2831 63.4494 22.2633C63.4433 22.2435 63.4416 22.2226 63.4443 22.2021V17.8189C63.4417 17.7979 63.4435 17.7766 63.4496 17.7563C63.4557 17.736 63.4659 17.7172 63.4796 17.7011C63.5119 17.6776 63.5518 17.6671 63.5915 17.6717H63.9536C63.9932 17.6671 64.0332 17.6776 64.0654 17.7011C64.0791 17.7172 64.0893 17.736 64.0954 17.7563C64.1015 17.7766 64.1033 17.7979 64.1007 17.8189V19.5586C64.094 19.5787 64.094 19.6004 64.1007 19.6204C64.1096 19.628 64.12 19.6337 64.1311 19.6372C64.1422 19.6407 64.1539 19.642 64.1655 19.641H66.3792C66.3908 19.642 66.4025 19.6407 66.4136 19.6372C66.4248 19.6337 66.435 19.628 66.4439 19.6204C66.4567 19.6024 66.4629 19.5806 66.4616 19.5586V17.8189C66.4569 17.7769 66.4685 17.7348 66.494 17.7011C66.5276 17.6781 66.5683 17.6677 66.6088 17.6717H66.9826C67.0232 17.6677 67.0638 17.6781 67.0975 17.7011C67.1229 17.7348 67.1345 17.7769 67.1298 17.8189L67.1446 22.2021ZM58.4989 21.3366C58.5342 21.2895 58.5695 21.263 58.599 21.263C58.6369 21.2702 58.6718 21.2886 58.699 21.316C59.0421 21.6099 59.4751 21.7781 59.9266 21.7929C60.1081 21.7966 60.2887 21.7666 60.4594 21.7046C60.599 21.6573 60.7218 21.5704 60.8126 21.4543C60.8947 21.3461 60.9382 21.2134 60.9363 21.0776C60.9418 20.9558 60.9066 20.8356 60.8362 20.7361C60.75 20.632 60.6385 20.5519 60.5124 20.5035C60.3065 20.4208 60.095 20.3529 59.8795 20.3004C59.6038 20.2342 59.337 20.1354 59.0847 20.006C58.8901 19.911 58.7237 19.767 58.6019 19.588C58.4838 19.3943 58.4254 19.1701 58.4341 18.9434C58.4271 18.6847 58.499 18.4301 58.6402 18.2133C58.7804 18.0062 58.9763 17.8429 59.2054 17.7423C59.4592 17.63 59.7344 17.5737 60.0119 17.5775C60.5667 17.5749 61.1057 17.7618 61.5397 18.1073C61.5586 18.1217 61.5754 18.1386 61.5898 18.1574C61.594 18.1738 61.594 18.191 61.5898 18.2074C61.5932 18.2229 61.5932 18.239 61.5898 18.2545L61.5544 18.3134L61.3602 18.6078C61.3473 18.6295 61.3303 18.6486 61.3101 18.6637C61.2959 18.6752 61.2783 18.6814 61.2601 18.6814C61.2189 18.6774 61.1798 18.661 61.1482 18.6343C60.977 18.5148 60.7922 18.416 60.5977 18.3399C60.4103 18.266 60.2105 18.228 60.009 18.228C59.8539 18.2248 59.6997 18.2528 59.5557 18.3105C59.4371 18.3621 59.3351 18.4457 59.2613 18.5518C59.1863 18.6608 59.1472 18.7905 59.1494 18.9228C59.1448 19.0508 59.1843 19.1765 59.2613 19.2789C59.3488 19.3828 59.4612 19.4628 59.5881 19.5115C59.7787 19.5905 59.9757 19.6535 60.1768 19.6999C60.4657 19.766 60.7462 19.8647 61.0128 19.9943C61.2045 20.09 61.3678 20.2341 61.4867 20.4123C61.5971 20.6001 61.6512 20.8157 61.6428 21.0334C61.6474 21.2948 61.5702 21.551 61.422 21.7664C61.2685 21.983 61.0574 22.1522 60.8126 22.255C60.5331 22.3719 60.2325 22.4301 59.9295 22.4258C59.6355 22.432 59.343 22.383 59.067 22.2815C58.8019 22.1809 58.5545 22.0388 58.334 21.8606C58.284 21.8164 58.2604 21.7782 58.2604 21.7487C58.2638 21.7065 58.2802 21.6663 58.3075 21.6339L58.4989 21.3366ZM56.712 21.7222C56.7517 21.7176 56.7916 21.7282 56.8239 21.7517C56.8376 21.7678 56.8478 21.7866 56.8539 21.8068C56.86 21.8271 56.8618 21.8484 56.8592 21.8694V22.2109C56.8619 22.2314 56.8602 22.2523 56.8541 22.2721C56.848 22.2919 56.8377 22.3102 56.8239 22.3257C56.7921 22.3502 56.7521 22.3618 56.712 22.3581H54.1746C54.1337 22.3612 54.093 22.3497 54.0598 22.3257C54.0342 22.2932 54.0225 22.2519 54.0274 22.2109V17.8189C54.0227 17.7769 54.0343 17.7348 54.0598 17.7011C54.0934 17.6781 54.134 17.6677 54.1746 17.6717H56.712C56.7526 17.6672 56.7934 17.6777 56.8268 17.7011C56.84 17.7175 56.8497 17.7364 56.8553 17.7566C56.8609 17.7769 56.8622 17.7981 56.8592 17.8189V18.1603C56.8622 18.1811 56.8609 18.2023 56.8553 18.2226C56.8497 18.2428 56.84 18.2617 56.8268 18.2781C56.7934 18.3015 56.7526 18.312 56.712 18.3075H54.7869C54.7638 18.3047 54.7405 18.311 54.7221 18.3252C54.7155 18.3328 54.7105 18.3417 54.7074 18.3513C54.7044 18.3609 54.7034 18.3711 54.7044 18.3811V19.6057C54.7016 19.6288 54.7079 19.652 54.7221 19.6705C54.7221 19.6705 54.7545 19.6852 54.7869 19.6852H56.4854C56.5263 19.6821 56.5669 19.6936 56.6002 19.7176C56.6258 19.75 56.6374 19.7913 56.6326 19.8324V20.1679C56.6378 20.1883 56.6377 20.2097 56.6322 20.23C56.6267 20.2503 56.616 20.2688 56.6011 20.2837C56.5862 20.2985 56.5677 20.3093 56.5474 20.3148C56.5271 20.3203 56.5057 20.3204 56.4854 20.3151H54.7869C54.7638 20.3123 54.7405 20.3186 54.7221 20.3328C54.7155 20.3404 54.7105 20.3493 54.7074 20.3589C54.7044 20.3685 54.7034 20.3787 54.7044 20.3887V21.6486C54.7034 21.6587 54.7044 21.6688 54.7074 21.6784C54.7105 21.6881 54.7155 21.697 54.7221 21.7046C54.7405 21.7187 54.7638 21.7251 54.7869 21.7222H56.712ZM52.0227 21.7222C52.0624 21.7176 52.1023 21.7282 52.1346 21.7517C52.1483 21.7678 52.1585 21.7866 52.1646 21.8068C52.1707 21.8271 52.1725 21.8484 52.1699 21.8694V22.2109C52.1726 22.2314 52.1709 22.2523 52.1648 22.2721C52.1587 22.2919 52.1484 22.3102 52.1346 22.3257C52.1027 22.3502 52.0628 22.3618 52.0227 22.3581H49.4852C49.4443 22.3612 49.4037 22.3497 49.3704 22.3257C49.3449 22.2932 49.3332 22.2519 49.338 22.2109V17.8189C49.3334 17.7769 49.345 17.7348 49.3704 17.7011C49.4041 17.6781 49.4447 17.6677 49.4852 17.6717H52.0021C52.0426 17.6677 52.0833 17.6781 52.1169 17.7011C52.1301 17.7175 52.1398 17.7364 52.1454 17.7566C52.1509 17.7769 52.1523 17.7981 52.1493 17.8189V18.1603C52.1523 18.1811 52.1509 18.2023 52.1454 18.2226C52.1398 18.2428 52.1301 18.2617 52.1169 18.2781C52.0833 18.3011 52.0426 18.3115 52.0021 18.3075H50.0769C50.0539 18.3047 50.0306 18.311 50.0122 18.3252C50.0055 18.3328 50.0005 18.3417 49.9975 18.3513C49.9945 18.3609 49.9934 18.3711 49.9945 18.3811V19.6057C49.9916 19.6288 49.998 19.652 50.0122 19.6705C50.0122 19.6705 50.0445 19.6852 50.0769 19.6852H51.7754C51.8163 19.6821 51.857 19.6936 51.8902 19.7176C51.9158 19.75 51.9275 19.7913 51.9226 19.8324V20.1679C51.9279 20.1883 51.9278 20.2097 51.9223 20.23C51.9168 20.2503 51.906 20.2688 51.8912 20.2837C51.8763 20.2985 51.8578 20.3093 51.8375 20.3148C51.8172 20.3203 51.7958 20.3204 51.7754 20.3151H50.0769C50.0539 20.3123 50.0306 20.3186 50.0122 20.3328C50.0055 20.3404 50.0005 20.3493 49.9975 20.3589C49.9945 20.3685 49.9934 20.3787 49.9945 20.3887V21.6486C49.9934 21.6587 49.9945 21.6688 49.9975 21.6784C50.0005 21.6881 50.0055 21.697 50.0122 21.7046C50.0306 21.7187 50.0539 21.7251 50.0769 21.7222H52.0227ZM45.417 22.2109C45.4219 22.2519 45.4102 22.2932 45.3846 22.3257C45.3514 22.3497 45.3107 22.3612 45.2698 22.3581H44.896C44.8551 22.3612 44.8144 22.3497 44.7812 22.3257C44.7556 22.2932 44.744 22.2519 44.7488 22.2109V17.8189C44.7441 17.7769 44.7557 17.7348 44.7812 17.7011C44.8148 17.6781 44.8554 17.6677 44.896 17.6717H47.4452C47.4858 17.6677 47.5264 17.6781 47.56 17.7011C47.5855 17.7348 47.5971 17.7769 47.5924 17.8189V18.1603C47.5971 18.2023 47.5855 18.2444 47.56 18.2781C47.5264 18.3011 47.4858 18.3115 47.4452 18.3075H45.4965C45.4744 18.3051 45.4522 18.3115 45.4347 18.3252C45.4281 18.3328 45.4231 18.3417 45.42 18.3513C45.417 18.3609 45.416 18.3711 45.417 18.3811V19.7058C45.4151 19.727 45.4214 19.748 45.4347 19.7647C45.4548 19.7708 45.4764 19.7708 45.4965 19.7647H47.2127C47.2337 19.7623 47.2549 19.7642 47.2752 19.7702C47.2954 19.7763 47.3142 19.7864 47.3304 19.8C47.3442 19.8166 47.3545 19.8359 47.3605 19.8567C47.3666 19.8774 47.3684 19.8992 47.3658 19.9207V20.2533C47.3695 20.2947 47.3568 20.3359 47.3304 20.3681C47.2965 20.3931 47.2546 20.4046 47.2127 20.4005H45.4965C45.4744 20.3981 45.4522 20.4044 45.4347 20.4182C45.4281 20.4258 45.4231 20.4347 45.42 20.4443C45.417 20.4539 45.416 20.4641 45.417 20.4741V22.2109ZM40.8278 22.2109C40.8326 22.2519 40.821 22.2932 40.7954 22.3257C40.7622 22.3497 40.7215 22.3612 40.6806 22.3581H40.3067C40.2659 22.3612 40.2252 22.3497 40.1919 22.3257C40.1664 22.2932 40.1547 22.2519 40.1596 22.2109V17.8189C40.1549 17.7769 40.1665 17.7348 40.1919 17.7011C40.2256 17.6781 40.2662 17.6677 40.3067 17.6717H42.856C42.8965 17.6677 42.9372 17.6781 42.9708 17.7011C42.9963 17.7348 43.0079 17.7769 43.0032 17.8189V18.1603C43.0079 18.2023 42.9963 18.2444 42.9708 18.2781C42.9372 18.3011 42.8965 18.3115 42.856 18.3075H40.9073C40.8851 18.3051 40.863 18.3115 40.8454 18.3252C40.8388 18.3328 40.8338 18.3417 40.8308 18.3513C40.8278 18.3609 40.8267 18.3711 40.8278 18.3811V19.7058C40.8258 19.727 40.8322 19.748 40.8454 19.7647C40.8656 19.7708 40.8871 19.7708 40.9073 19.7647H42.6234C42.6444 19.7623 42.6657 19.7642 42.6859 19.7702C42.7062 19.7763 42.725 19.7864 42.7412 19.8C42.755 19.8166 42.7652 19.8359 42.7713 19.8567C42.7774 19.8774 42.7791 19.8992 42.7765 19.9207V20.2533C42.7802 20.2947 42.7675 20.3359 42.7412 20.3681C42.7073 20.3931 42.6653 20.4046 42.6234 20.4005H40.9073C40.8851 20.3981 40.863 20.4044 40.8454 20.4182C40.8388 20.4258 40.8338 20.4347 40.8308 20.4443C40.8278 20.4539 40.8267 20.4641 40.8278 20.4741V22.2109ZM60.0796 9.57942C60.075 9.53747 60.0866 9.49533 60.112 9.46167C60.1457 9.4387 60.1863 9.42828 60.2268 9.43223H60.6007C60.6412 9.42828 60.6818 9.4387 60.7155 9.46167C60.7409 9.49533 60.7526 9.53747 60.7479 9.57942V13.9714C60.7479 14.1186 60.7037 14.1922 60.6154 14.1922C60.5735 14.1897 60.5334 14.1743 60.5006 14.1481C60.4393 14.0988 60.3831 14.0436 60.3328 13.9832L57.6158 10.7775V13.9714C57.6206 14.0125 57.609 14.0538 57.5834 14.0862C57.5501 14.1102 57.5095 14.1217 57.4686 14.1186H57.0947C57.0538 14.1217 57.0132 14.1102 56.9799 14.0862C56.9564 14.0686 56.9475 14.0274 56.9475 13.9714V9.57942C56.9425 9.52157 56.9537 9.46346 56.9799 9.41163C56.9913 9.39422 57.0071 9.38014 57.0258 9.37083C57.0444 9.36153 57.0651 9.35732 57.0859 9.35864C57.1279 9.36054 57.1682 9.37603 57.2007 9.4028C57.2612 9.45094 57.3156 9.5063 57.3626 9.56764L60.0796 12.7733V9.57942ZM51.5812 13.9155C51.5596 13.9773 51.5232 14.0329 51.4752 14.0774C51.4263 14.1065 51.3701 14.1208 51.3133 14.1186H50.9659C50.8747 14.1186 50.8305 14.0892 50.8305 14.0303C50.8356 13.9903 50.8476 13.9515 50.8658 13.9155L52.8852 9.67362C52.9282 9.58019 52.9774 9.48972 53.0324 9.4028C53.0446 9.38331 53.0615 9.36717 53.0816 9.35587C53.1016 9.34456 53.1242 9.33843 53.1472 9.33804C53.1685 9.33903 53.1892 9.34551 53.2072 9.35686C53.2253 9.36821 53.2401 9.38403 53.2502 9.4028C53.3039 9.49 53.352 9.58045 53.3945 9.67362L55.4286 13.9155C55.4468 13.9515 55.4588 13.9903 55.4639 14.0303C55.4639 14.0892 55.4168 14.1186 55.3226 14.1186H54.9458C54.8907 14.1227 54.8357 14.1082 54.7898 14.0774C54.7424 14.0312 54.7044 13.9762 54.6779 13.9155L53.1325 10.5832L51.5812 13.9155ZM49.341 13.9714C49.3458 14.0125 49.3342 14.0538 49.3086 14.0862C49.2754 14.1102 49.2347 14.1217 49.1938 14.1186H48.82C48.779 14.1223 48.7382 14.1107 48.7051 14.0862C48.6816 14.0686 48.6728 14.0274 48.6728 13.9714V9.57942C48.6698 9.55862 48.6711 9.53743 48.6767 9.51718C48.6823 9.49692 48.692 9.47802 48.7051 9.46167C48.7386 9.43822 48.7794 9.42775 48.82 9.43223H49.1938C49.2343 9.42828 49.275 9.4387 49.3086 9.46167C49.3341 9.49533 49.3457 9.53747 49.341 9.57942V13.9714ZM43.7479 13.106C43.7833 13.0589 43.8156 13.0324 43.848 13.0324C43.8857 13.0402 43.9205 13.0586 43.9481 13.0854C44.2903 13.3788 44.7222 13.547 45.1727 13.5623C45.3552 13.5663 45.5369 13.5364 45.7084 13.4739C45.8468 13.4259 45.9684 13.3391 46.0588 13.2237C46.1408 13.1154 46.1843 12.9828 46.1824 12.8469C46.188 12.7251 46.1528 12.605 46.0823 12.5055C45.9974 12.4001 45.8855 12.3197 45.7585 12.2729C45.5528 12.1897 45.3413 12.1218 45.1256 12.0698C44.8508 12.0037 44.585 11.9049 44.3337 11.7754C44.1387 11.6812 43.9721 11.537 43.851 11.3574C43.7305 11.1646 43.671 10.9399 43.6802 10.7127C43.6732 10.4541 43.7451 10.1995 43.8863 9.98271C44.0276 9.77539 44.2245 9.61214 44.4544 9.51172C44.7082 9.39898 44.9834 9.34273 45.261 9.34687C45.8149 9.34421 46.353 9.5312 46.7859 9.87673C46.8054 9.89031 46.8223 9.90726 46.8359 9.92678C46.8473 9.94094 46.8536 9.95861 46.8536 9.97682C46.8566 9.99237 46.8566 10.0084 46.8536 10.0239L46.8212 10.0828L46.6269 10.3772C46.614 10.3989 46.597 10.4179 46.5768 10.4331C46.5627 10.4445 46.545 10.4508 46.5268 10.4508C46.4846 10.4474 46.4444 10.431 46.412 10.4037C46.2415 10.2847 46.0577 10.186 45.8645 10.1093C45.6769 10.0358 45.4772 9.99782 45.2757 9.99743C45.1216 9.99438 44.9684 10.0224 44.8253 10.0799C44.7066 10.1312 44.6046 10.2148 44.531 10.3212C44.4569 10.4305 44.4188 10.5602 44.422 10.6921C44.4166 10.8198 44.455 10.9455 44.531 11.0483C44.619 11.1529 44.7326 11.233 44.8607 11.2809C45.0517 11.359 45.2485 11.422 45.4494 11.4693C45.7374 11.5353 46.0169 11.6341 46.2825 11.7637C46.455 11.865 46.5997 12.0076 46.7034 12.1787C46.8148 12.3663 46.8699 12.5818 46.8624 12.7998C46.867 13.0612 46.7898 13.3175 46.6416 13.5328C46.4881 13.7494 46.277 13.9187 46.0323 14.0215C45.7525 14.1377 45.452 14.1958 45.1491 14.1922C44.8583 14.1939 44.5697 14.141 44.2984 14.0362C44.0333 13.9357 43.7858 13.7936 43.5654 13.6152C43.5461 13.6021 43.5295 13.5851 43.5169 13.5654C43.5042 13.5456 43.4957 13.5236 43.4918 13.5004C43.4958 13.4592 43.5122 13.4202 43.5389 13.3886L43.7479 13.106ZM39.038 13.106C39.0733 13.0589 39.1057 13.0324 39.1381 13.0324C39.1758 13.0402 39.2105 13.0586 39.2382 13.0854C39.5801 13.3792 40.0121 13.5475 40.4628 13.5623C40.6453 13.5663 40.8269 13.5364 40.9985 13.4739C41.1369 13.4259 41.2585 13.3391 41.3488 13.2237C41.4309 13.1154 41.4744 12.9828 41.4724 12.8469C41.478 12.7251 41.4428 12.605 41.3724 12.5055C41.2868 12.4008 41.1751 12.3206 41.0486 12.2729C40.8427 12.1901 40.6312 12.1223 40.4157 12.0698C40.1401 12.0031 39.8734 11.9043 39.6209 11.7754C39.4266 11.6812 39.261 11.5369 39.141 11.3574C39.0206 11.1646 38.9611 10.9399 38.9703 10.7127C38.9633 10.4541 39.0352 10.1995 39.1764 9.98271C39.3166 9.7756 39.5125 9.61233 39.7415 9.51172C39.9881 9.40706 40.2538 9.35493 40.5216 9.35864C41.0764 9.35603 41.6154 9.54297 42.0494 9.88851C42.0682 9.9029 42.0851 9.91973 42.0995 9.93855C42.1109 9.95272 42.1171 9.97038 42.1171 9.98859C42.1155 10.0051 42.1105 10.0212 42.1024 10.0357L42.07 10.0946L41.8757 10.3889C41.8628 10.4107 41.8459 10.4297 41.8257 10.4449C41.8113 10.4559 41.7938 10.4621 41.7757 10.4625C41.7334 10.4592 41.6933 10.4427 41.6608 10.4154C41.4896 10.296 41.3048 10.1972 41.1104 10.1211C40.9229 10.0471 40.7232 10.0092 40.5216 10.0092C40.3675 10.0059 40.2142 10.034 40.0712 10.0916C39.9525 10.143 39.8505 10.2266 39.7769 10.333C39.7028 10.4423 39.6647 10.5719 39.6679 10.7039C39.6625 10.8316 39.7009 10.9573 39.7769 11.0601C39.8644 11.164 39.9768 11.244 40.1036 11.2927C40.2949 11.3701 40.4917 11.4331 40.6924 11.4811C40.9802 11.5476 41.2597 11.6463 41.5254 11.7754C41.7138 11.867 41.8751 12.006 41.9935 12.1787C42.1048 12.3663 42.16 12.5818 42.1524 12.7998C42.157 13.0612 42.0799 13.3175 41.9317 13.5328C41.7781 13.7494 41.5671 13.9187 41.3223 14.0215C41.0426 14.1377 40.7421 14.1958 40.4392 14.1922C40.1474 14.1935 39.858 14.1406 39.5855 14.0362C39.321 13.9344 39.0738 13.7924 38.8526 13.6152C38.8143 13.5877 38.788 13.5467 38.779 13.5004C38.7842 13.4596 38.8005 13.4209 38.8261 13.3886L39.038 13.106ZM37.1982 12.1228C37.211 12.5184 37.125 12.9109 36.948 13.2649C36.7922 13.5626 36.5486 13.8052 36.2503 13.9597C35.9345 14.1182 35.5851 14.198 35.2318 14.1922C34.8911 14.199 34.5537 14.1232 34.2486 13.9714C33.9615 13.8181 33.729 13.5795 33.5833 13.2885C33.4129 12.9314 33.3302 12.5389 33.3419 12.1434V9.57942C33.3393 9.55842 33.3412 9.53711 33.3472 9.51684C33.3533 9.49658 33.3635 9.47779 33.3772 9.46167C33.4095 9.43816 33.4494 9.42765 33.4891 9.43223H33.8571C33.8995 9.42711 33.9424 9.43757 33.9778 9.46167C33.9915 9.47779 34.0017 9.49658 34.0078 9.51684C34.0139 9.53711 34.0157 9.55842 34.0131 9.57942V12.1022C33.9886 12.4862 34.1024 12.8663 34.3339 13.1737C34.449 13.3033 34.592 13.405 34.7521 13.4713C34.9122 13.5376 35.0853 13.5667 35.2583 13.5564C35.499 13.5633 35.7368 13.5021 35.9442 13.3798C36.1357 13.2619 36.2867 13.0883 36.3769 12.8823C36.4852 12.6399 36.5375 12.3763 36.53 12.111V9.57942C36.527 9.55862 36.5283 9.53743 36.5339 9.51718C36.5395 9.49692 36.5491 9.47802 36.5623 9.46167C36.5929 9.43932 36.6306 9.42886 36.6683 9.43223H37.0451C37.0875 9.42788 37.1301 9.43827 37.1658 9.46167C37.1913 9.49533 37.2029 9.53747 37.1982 9.57942V12.1228ZM28.8822 13.9714C28.8849 13.992 28.8831 14.0129 28.8771 14.0327C28.871 14.0525 28.8607 14.0708 28.8469 14.0862C28.815 14.1108 28.7751 14.1224 28.735 14.1186H28.3582C28.3182 14.1224 28.2782 14.1108 28.2464 14.0862C28.2326 14.0708 28.2223 14.0525 28.2162 14.0327C28.2101 14.0129 28.2083 13.992 28.211 13.9714V9.57942C28.2085 9.55842 28.2103 9.53711 28.2164 9.51684C28.2224 9.49658 28.2327 9.47779 28.2464 9.46167C28.2786 9.43816 28.3186 9.42765 28.3582 9.43223H29.6299C30.9016 9.43223 31.5374 9.91598 31.5374 10.8835C31.5493 11.1677 31.4653 11.4476 31.299 11.6783C31.1245 11.8932 30.8913 12.0527 30.6278 12.1375L31.7788 13.9037C31.8099 13.9404 31.8294 13.9855 31.8347 14.0333C31.8345 14.0453 31.8308 14.057 31.824 14.0669C31.8172 14.0769 31.8076 14.0846 31.7965 14.0892C31.7618 14.1027 31.7247 14.1088 31.6876 14.1068H31.2902C31.2329 14.1114 31.1756 14.0991 31.1253 14.0715C31.0717 14.0327 31.0275 13.9824 30.9958 13.9243L29.7594 11.9785C29.7358 11.9525 29.7213 11.9194 29.7182 11.8843C29.7182 11.849 29.7535 11.8314 29.8183 11.8255C30.4924 11.7548 30.8309 11.4516 30.8309 10.9218C30.84 10.7933 30.8155 10.6646 30.7597 10.5485C30.704 10.4323 30.619 10.3327 30.513 10.2594C30.2329 10.101 29.9128 10.0273 29.5916 10.0475H28.9499C28.9268 10.0446 28.9036 10.0509 28.8851 10.0651C28.8727 10.0832 28.8675 10.1052 28.8704 10.1269L28.8822 13.9714ZM45.8556 1.67556C45.8603 1.7175 45.8487 1.75965 45.8233 1.79331C45.7896 1.81628 45.749 1.82669 45.7084 1.82274H44.4515C44.4284 1.81988 44.4051 1.82622 44.3867 1.8404C44.3799 1.84792 44.3749 1.8568 44.3718 1.86645C44.3688 1.8761 44.3678 1.88629 44.3691 1.89633V5.72316C44.3691 5.77909 44.3691 5.8203 44.3367 5.83796C44.3037 5.86245 44.2628 5.87398 44.2219 5.87034H43.848C43.8071 5.87344 43.7665 5.86197 43.7332 5.83796C43.7076 5.80549 43.696 5.76421 43.7008 5.72316V1.89633C43.7021 1.88629 43.7011 1.8761 43.6981 1.86645C43.695 1.8568 43.69 1.84792 43.6832 1.8404C43.6746 1.83347 43.6647 1.82833 43.6541 1.8253C43.6434 1.82226 43.6323 1.82139 43.6214 1.82274H42.3615C42.3218 1.82733 42.2819 1.81682 42.2496 1.79331C42.2359 1.77719 42.2257 1.7584 42.2196 1.73813C42.2135 1.71787 42.2117 1.69656 42.2143 1.67556V1.33997C42.2117 1.31897 42.2135 1.29766 42.2196 1.2774C42.2257 1.25713 42.2359 1.23834 42.2496 1.22222C42.2819 1.19871 42.3218 1.1882 42.3615 1.19279L45.7084 1.19279C45.749 1.18884 45.7896 1.19925 45.8233 1.22222C45.8487 1.25588 45.8603 1.29803 45.8556 1.33997V1.67556ZM37.7722 4.86065C37.8075 4.81355 37.8429 4.78706 37.8723 4.78706C37.9109 4.79466 37.9467 4.81303 37.9753 4.84005C38.317 5.13432 38.7492 5.30263 39.1999 5.31693C39.3824 5.3205 39.564 5.29056 39.7357 5.22861C39.874 5.18059 39.9957 5.09372 40.086 4.9784C40.168 4.8701 40.2116 4.73747 40.2096 4.6016C40.2152 4.47981 40.18 4.35964 40.1095 4.26013C40.0234 4.15608 39.9118 4.07598 39.7857 4.02758C39.5799 3.94481 39.3684 3.87693 39.1528 3.82446C38.8773 3.75777 38.6105 3.65897 38.358 3.53009C38.1638 3.4416 37.9962 3.30352 37.8723 3.12975C37.7518 2.93692 37.6923 2.71225 37.7016 2.48508C37.6946 2.22646 37.7664 1.97183 37.9076 1.75504C38.0479 1.54793 38.2438 1.38466 38.4728 1.28404C38.7267 1.17167 39.0018 1.11544 39.2794 1.1192C39.8342 1.11658 40.3732 1.30352 40.8072 1.64906C40.826 1.66346 40.8428 1.68029 40.8572 1.69911C40.8665 1.71419 40.8715 1.73146 40.8719 1.74915C40.8754 1.76466 40.8754 1.78074 40.8719 1.79625L40.8366 1.85512L40.6423 2.14949C40.6295 2.17126 40.6125 2.19027 40.5923 2.20542C40.5781 2.21687 40.5605 2.22311 40.5422 2.22309C40.501 2.21915 40.462 2.20272 40.4304 2.17599C40.2591 2.05651 40.0744 1.9577 39.8799 1.88162C39.6924 1.80768 39.4927 1.76973 39.2912 1.76975C39.136 1.76647 38.9819 1.79451 38.8378 1.85218C38.7192 1.9038 38.6173 1.98737 38.5435 2.09356C38.4685 2.20255 38.4294 2.33221 38.4316 2.46447C38.427 2.59251 38.4665 2.71825 38.5435 2.82066C38.631 2.92455 38.7434 3.00456 38.8702 3.05321C39.0609 3.13221 39.2578 3.19522 39.459 3.24161C39.7479 3.30767 40.0284 3.40643 40.295 3.53598C40.4866 3.63168 40.65 3.77577 40.7689 3.95399C40.8792 4.14185 40.9334 4.35741 40.9249 4.57511C40.9295 4.83648 40.8523 5.09275 40.7041 5.3081C40.5451 5.52773 40.3265 5.69728 40.0742 5.79675C39.7946 5.91366 39.494 5.97178 39.1911 5.96749C38.8993 5.96881 38.6098 5.91591 38.3374 5.81147C38.0729 5.70965 37.8257 5.56766 37.6044 5.39052C37.5662 5.36299 37.5399 5.32194 37.5308 5.27571C37.5348 5.2345 37.5512 5.19547 37.5779 5.16385L37.7722 4.86065ZM35.9824 5.23745C36.0221 5.23286 36.062 5.24337 36.0943 5.26688C36.108 5.283 36.1182 5.30179 36.1243 5.32206C36.1304 5.34232 36.1322 5.36363 36.1296 5.38463V5.7261C36.1323 5.74665 36.1306 5.76755 36.1245 5.78736C36.1184 5.80717 36.1081 5.82543 36.0943 5.84091C36.0625 5.86546 36.0225 5.87703 35.9824 5.87329H33.4567C33.4158 5.87639 33.3752 5.86492 33.3419 5.84091C33.3163 5.80844 33.3047 5.76715 33.3095 5.7261V1.33997C33.3049 1.29803 33.3164 1.25588 33.3419 1.22222C33.3756 1.19925 33.4162 1.18884 33.4567 1.19279L35.9854 1.19279C36.026 1.18774 36.067 1.19825 36.1002 1.22222C36.1134 1.23858 36.123 1.25747 36.1286 1.27773C36.1342 1.29799 36.1355 1.31918 36.1326 1.33997V1.67556C36.1355 1.69635 36.1342 1.71754 36.1286 1.7378C36.123 1.75806 36.1134 1.77695 36.1002 1.79331C36.067 1.81728 36.026 1.82779 35.9854 1.82274H34.0455C34.0224 1.81988 33.9991 1.82622 33.9807 1.8404C33.9739 1.84792 33.9689 1.8568 33.9658 1.86645C33.9628 1.8761 33.9618 1.88629 33.963 1.89633V3.12092C33.9602 3.14399 33.9665 3.16726 33.9807 3.18568C33.9807 3.18568 34.0131 3.2004 34.0455 3.2004H35.744C35.7849 3.1973 35.8255 3.20877 35.8588 3.23278C35.8838 3.26553 35.8954 3.30659 35.8912 3.34758V3.68317C35.8965 3.70353 35.8964 3.72491 35.8908 3.74521C35.8853 3.76551 35.8746 3.78401 35.8597 3.79889C35.8448 3.81376 35.8263 3.82449 35.806 3.83001C35.7857 3.83553 35.7644 3.83565 35.744 3.83035H34.0455C34.0224 3.82749 33.9991 3.83383 33.9807 3.84802C33.9741 3.85563 33.9691 3.86452 33.9661 3.87414C33.963 3.88377 33.962 3.89391 33.963 3.90395V5.16385C33.962 5.17389 33.963 5.18403 33.9661 5.19365C33.9691 5.20328 33.9741 5.21217 33.9807 5.21978C33.9991 5.23397 34.0224 5.24031 34.0455 5.23745H35.9824ZM29.6799 5.25511C29.906 5.26153 30.1318 5.23677 30.3511 5.18152C30.5018 5.14722 30.6366 5.06324 30.7338 4.94307C30.8207 4.81489 30.8641 4.66214 30.8574 4.50741C30.8651 4.39965 30.8413 4.292 30.7891 4.19745C30.7368 4.10289 30.6583 4.02549 30.5631 3.97459C30.3004 3.8548 30.0123 3.80123 29.7241 3.81858H28.9411C28.9087 3.81858 28.8881 3.81858 28.8763 3.8333C28.8645 3.84802 28.8616 3.86568 28.8616 3.89806V5.17563C28.8594 5.1973 28.8646 5.21907 28.8763 5.23745C28.8947 5.25163 28.918 5.25797 28.9411 5.25511H29.6799ZM28.9499 1.80214C28.9383 1.80035 28.9263 1.80128 28.9151 1.80486C28.9039 1.80843 28.8936 1.81455 28.8851 1.82274C28.8734 1.84001 28.8682 1.86087 28.8704 1.88162V3.14741C28.8683 3.16909 28.8734 3.19086 28.8851 3.20923C28.894 3.21677 28.9043 3.22247 28.9155 3.22601C28.9266 3.22955 28.9383 3.23085 28.9499 3.22984H29.7064C29.9729 3.24858 30.2388 3.18596 30.4689 3.05027C30.5537 2.99183 30.6218 2.91214 30.6662 2.81915C30.7106 2.72617 30.7299 2.62315 30.722 2.5204C30.7294 2.41514 30.7074 2.3099 30.6585 2.21637C30.6097 2.12284 30.5359 2.04467 30.4453 1.99053C30.1872 1.8625 29.8998 1.80463 29.6122 1.82274L28.9499 1.80214ZM28.1993 1.33409C28.1967 1.31308 28.1985 1.29178 28.2046 1.27151C28.2107 1.25124 28.2209 1.23246 28.2346 1.21634C28.2669 1.19283 28.3068 1.18232 28.3465 1.1869H29.6593C30.1101 1.16181 30.5589 1.2638 30.9546 1.48127C31.1091 1.58397 31.2335 1.72582 31.3152 1.89235C31.3969 2.05889 31.433 2.24412 31.4197 2.42915C31.4378 2.65317 31.3783 2.87661 31.2513 3.06203C31.1243 3.24746 30.9375 3.38361 30.722 3.44767C30.9578 3.49831 31.1707 3.62438 31.3284 3.8068C31.4839 4.00293 31.5633 4.24857 31.5522 4.49857C31.567 4.6993 31.5302 4.90049 31.4451 5.08292C31.3601 5.26536 31.2297 5.42295 31.0664 5.54065C30.6473 5.78589 30.1646 5.90067 29.6799 5.87034H28.3465C28.3064 5.87409 28.2664 5.86252 28.2346 5.83796C28.2208 5.82249 28.2105 5.80422 28.2044 5.78441C28.1983 5.7646 28.1966 5.74371 28.1993 5.72316V1.33409Z" fill="white"/>
<path d="M64.5719 26.4026C64.5744 26.4236 64.5726 26.4449 64.5665 26.4652C64.5605 26.4855 64.5502 26.5042 64.5365 26.5204C64.5043 26.5439 64.4643 26.5544 64.4247 26.5498H63.1648C63.1417 26.5475 63.1187 26.5538 63.1 26.5675C63.0892 26.584 63.084 26.6036 63.0853 26.6234V30.4502C63.0894 30.4921 63.0778 30.534 63.0529 30.568C63.0187 30.5897 62.9785 30.6 62.9381 30.5974H62.5643C62.5238 30.6009 62.4833 30.5905 62.4494 30.568C62.4364 30.5515 62.4268 30.5326 62.4213 30.5124C62.4157 30.4922 62.4143 30.471 62.4171 30.4502V26.6234C62.4181 26.6134 62.4171 26.6032 62.414 26.5936C62.411 26.584 62.406 26.5751 62.3994 26.5675C62.381 26.5533 62.3577 26.5469 62.3346 26.5498H61.0777C61.0371 26.5543 60.9963 26.5438 60.9629 26.5204C60.9497 26.504 60.94 26.4851 60.9344 26.4649C60.9289 26.4446 60.9275 26.4234 60.9305 26.4026V26.0611C60.9275 26.0403 60.9289 26.0192 60.9344 25.9989C60.94 25.9786 60.9497 25.9598 60.9629 25.9434C60.9969 25.9213 61.0372 25.9109 61.0777 25.914H64.4247C64.4642 25.9109 64.5036 25.9213 64.5365 25.9434C64.5502 25.9595 64.5605 25.9783 64.5665 25.9986C64.5726 26.0188 64.5744 26.0401 64.5719 26.0611V26.4026ZM57.0831 26.5498C57.06 26.5469 57.0367 26.5533 57.0183 26.5675C57.0124 26.5856 57.0124 26.6052 57.0183 26.6234V28.3366C57.0129 28.3569 57.0129 28.3782 57.0183 28.3985C57.0367 28.4126 57.06 28.419 57.0831 28.4161H57.7336C58.0555 28.4354 58.3755 28.3542 58.6491 28.1836C58.7594 28.1013 58.8473 27.9928 58.9049 27.8678C58.9625 27.7429 58.9879 27.6055 58.9788 27.4682C58.99 27.3337 58.9663 27.1986 58.9101 27.0759C58.8539 26.9532 58.7671 26.847 58.6579 26.7676C58.3781 26.6053 58.0565 26.5295 57.7336 26.5498H57.0831ZM57.0831 29.052C57.06 29.0491 57.0367 29.0554 57.0183 29.0696C57.0124 29.0878 57.0124 29.1074 57.0183 29.1255V30.4532C57.0207 30.4742 57.0188 30.4954 57.0127 30.5157C57.0067 30.5359 56.9965 30.5547 56.983 30.5709C56.95 30.593 56.9106 30.6034 56.8711 30.6003H56.4943C56.4548 30.6034 56.4154 30.593 56.3825 30.5709C56.3689 30.5547 56.3588 30.5359 56.3527 30.5157C56.3466 30.4954 56.3447 30.4742 56.3471 30.4532V26.0582C56.3446 26.0372 56.3464 26.0159 56.3525 25.9956C56.3585 25.9754 56.3688 25.9566 56.3825 25.9405C56.4154 25.9184 56.4548 25.908 56.4943 25.911H57.7719C58.2797 25.8721 58.7853 26.0105 59.2025 26.3025C59.3636 26.4452 59.4898 26.6228 59.5714 26.8218C59.6531 27.0209 59.688 27.2359 59.6735 27.4506C59.6827 27.7554 59.6051 28.0565 59.4498 28.319C59.2898 28.5651 59.0574 28.7554 58.7845 28.8636C58.4431 28.9955 58.0789 29.0585 57.713 29.049L57.0831 29.052ZM54.3278 29.9645C54.3683 29.9606 54.4089 29.971 54.4425 29.9939C54.468 30.0276 54.4796 30.0697 54.4749 30.1117V30.4532C54.479 30.4951 54.4675 30.537 54.4425 30.5709C54.4084 30.5926 54.3682 30.6029 54.3278 30.6003H51.7903C51.7507 30.6034 51.7113 30.593 51.6784 30.5709C51.6649 30.5547 51.6547 30.5359 51.6487 30.5157C51.6426 30.4954 51.6407 30.4742 51.6431 30.4532V26.0582C51.6405 26.0372 51.6423 26.0159 51.6484 25.9956C51.6545 25.9754 51.6647 25.9566 51.6784 25.9405C51.7113 25.9184 51.7507 25.908 51.7903 25.911H54.3219C54.3614 25.908 54.4008 25.9184 54.4337 25.9405C54.4474 25.9566 54.4576 25.9754 54.4637 25.9956C54.4698 26.0159 54.4716 26.0372 54.469 26.0582V26.4026C54.4716 26.4236 54.4698 26.4449 54.4637 26.4652C54.4576 26.4855 54.4474 26.5042 54.4337 26.5204C54.4015 26.5439 54.3615 26.5544 54.3219 26.5498H52.3937C52.3707 26.5469 52.3474 26.5533 52.329 26.5675C52.3181 26.584 52.313 26.6036 52.3142 26.6234V27.848C52.3123 27.8706 52.3174 27.8932 52.329 27.9127C52.3474 27.9269 52.3707 27.9333 52.3937 27.9304H54.0922C54.1329 27.9254 54.1739 27.9359 54.2071 27.9598C54.2202 27.9762 54.2299 27.9951 54.2355 28.0153C54.2411 28.0356 54.2424 28.0568 54.2394 28.0776V28.4102C54.2439 28.4512 54.2323 28.4924 54.2071 28.525C54.1743 28.55 54.1332 28.5616 54.0922 28.5574H52.3937C52.3707 28.5545 52.3474 28.5609 52.329 28.5751C52.3181 28.5916 52.313 28.6113 52.3142 28.631V29.8909C52.313 29.9107 52.3181 29.9303 52.329 29.9468C52.3474 29.961 52.3707 29.9674 52.3937 29.9645H54.3278ZM48.1724 30.0381C48.6641 30.0428 49.1413 29.8716 49.5177 29.5553C49.5488 29.5235 49.5889 29.5019 49.6325 29.4935C49.6518 29.4951 49.6702 29.5023 49.6855 29.5141C49.7027 29.5283 49.7184 29.5441 49.7326 29.5612L49.9269 29.8291C49.9479 29.856 49.9593 29.8892 49.9593 29.9233C49.9591 29.9438 49.9518 29.9635 49.9387 29.9792C49.9224 30.0036 49.9025 30.0255 49.8798 30.044C49.6426 30.2453 49.3715 30.4028 49.0791 30.5091C48.7803 30.6189 48.4643 30.6748 48.146 30.6739C47.7254 30.6786 47.311 30.572 46.9449 30.3649C46.5842 30.163 46.285 29.8669 46.0795 29.5082C45.8654 29.1339 45.7556 28.709 45.7615 28.2778C45.7555 27.8419 45.8652 27.4122 46.0795 27.0326C46.2877 26.6631 46.5931 26.3577 46.9626 26.1495C47.339 25.9353 47.7659 25.8255 48.1989 25.8315C48.5128 25.8302 48.8242 25.8871 49.1174 25.9993C49.401 26.1056 49.6647 26.2589 49.8975 26.4527C49.9162 26.4631 49.9322 26.4779 49.944 26.4958C49.9558 26.5138 49.9631 26.5343 49.9652 26.5557C49.9613 26.5941 49.9471 26.6308 49.924 26.6617L49.7297 26.9237C49.6944 26.9708 49.659 26.9972 49.6237 26.9972C49.5808 26.9903 49.5408 26.9709 49.5089 26.9413C49.3196 26.7963 49.1104 26.6793 48.8878 26.594C48.663 26.509 48.4245 26.4661 48.1842 26.4674C47.8748 26.4618 47.5696 26.5401 47.3011 26.694C47.042 26.8471 46.8286 27.0666 46.6829 27.3299C46.5299 27.6137 46.4519 27.9318 46.4563 28.2542C46.452 28.5697 46.529 28.8809 46.68 29.1579C46.8227 29.4232 47.0356 29.6441 47.2952 29.7967C47.5609 29.9561 47.8656 30.0386 48.1754 30.0352L48.1724 30.0381Z" fill="white"/>
<path d="M34.2135 28.2662C34.2091 28.583 34.2872 28.8954 34.4402 29.1729C34.5815 29.4376 34.7948 29.657 35.0554 29.8058C35.3178 29.9593 35.6169 30.0386 35.9209 30.0354C36.2277 30.0364 36.5292 29.9549 36.7938 29.7996C37.0584 29.6442 37.2764 29.4207 37.4251 29.1523C37.58 28.8744 37.6592 28.5607 37.6547 28.2427C37.6598 27.9211 37.5817 27.6037 37.428 27.3213C37.2818 27.0572 37.0659 26.8383 36.804 26.6884C36.5387 26.5382 36.239 26.4593 35.9341 26.4593C35.6292 26.4593 35.3296 26.5382 35.0643 26.6884C34.8028 26.8419 34.588 27.0637 34.4431 27.3301C34.2875 27.612 34.2084 27.9296 34.2135 28.2515M33.5188 28.2515C33.5131 27.8166 33.6228 27.388 33.8367 27.0092C34.0435 26.6386 34.3492 26.3329 34.7198 26.1261C35.0972 25.9184 35.521 25.8095 35.9518 25.8095C36.3825 25.8095 36.8063 25.9184 37.1837 26.1261C37.5448 26.3302 37.8439 26.6282 38.0492 26.9886C38.2568 27.3671 38.3657 27.7918 38.3657 28.2235C38.3657 28.6552 38.2568 29.0799 38.0492 29.4584C37.8427 29.8292 37.5368 30.135 37.166 30.3415C36.7856 30.5535 36.3563 30.6621 35.9209 30.6565C35.4933 30.6613 35.0721 30.5537 34.6992 30.3445C34.3393 30.1422 34.042 29.8448 33.8397 29.4849C33.629 29.1165 33.5183 28.6994 33.5188 28.275V28.2515ZM30.3278 30.0177C30.8195 30.0224 31.2966 29.8512 31.6731 29.5349C31.7042 29.5031 31.7442 29.4815 31.7879 29.4731C31.8072 29.4747 31.8256 29.4819 31.8409 29.4937C31.858 29.5079 31.8738 29.5237 31.888 29.5408L32.0823 29.8087C32.1033 29.8356 32.1147 29.8688 32.1146 29.9029C32.114 29.9233 32.1068 29.9429 32.094 29.9588C32.0778 29.9832 32.0579 30.0051 32.0352 30.0236C31.798 30.2249 31.5269 30.3824 31.2345 30.4887C30.9357 30.5986 30.6197 30.6544 30.3013 30.6536C29.8807 30.6583 29.4664 30.5516 29.1003 30.3445C28.7403 30.1425 28.4422 29.8464 28.2378 29.4878C28.0237 29.1135 27.9139 28.6886 27.9199 28.2574C27.9138 27.8215 28.0235 27.3918 28.2378 27.0122C28.4456 26.6424 28.7511 26.3369 29.1209 26.1291C29.4973 25.9149 29.9242 25.8051 30.3572 25.8112C30.6711 25.8099 30.9825 25.8668 31.2757 25.9789C31.5597 26.0843 31.8236 26.2377 32.0558 26.4323C32.0746 26.4427 32.0905 26.4575 32.1023 26.4754C32.1141 26.4934 32.1214 26.5139 32.1235 26.5353C32.1196 26.5737 32.1054 26.6104 32.0823 26.6413L31.888 26.9033C31.8527 26.9504 31.8173 26.9769 31.782 26.9769C31.7391 26.9699 31.6991 26.9505 31.6672 26.9209C31.4783 26.7753 31.269 26.6583 31.0461 26.5736C30.8213 26.4886 30.5828 26.4457 30.3425 26.447C30.039 26.4441 29.7402 26.5224 29.4771 26.6737C29.2166 26.8258 29.002 27.0455 28.856 27.3095C28.7027 27.5932 28.6246 27.9114 28.6293 28.2338C28.625 28.5493 28.7021 28.8605 28.853 29.1375C28.9966 29.4021 29.2092 29.6229 29.4683 29.7763C29.7265 29.9379 30.0233 30.0274 30.3278 30.0354V30.0177ZM34.2135 20.0091C34.2091 20.3259 34.2872 20.6383 34.4402 20.9158C34.5815 21.1805 34.7948 21.3999 35.0554 21.5487C35.3178 21.7022 35.6169 21.7815 35.9209 21.7783C36.2308 21.7818 36.536 21.7014 36.804 21.5457C37.0679 21.3937 37.2856 21.1729 37.4339 20.9069C37.5888 20.6291 37.668 20.3154 37.6635 19.9973C37.6686 19.6758 37.5906 19.3584 37.4369 19.0759C37.2906 18.8119 37.0748 18.593 36.8128 18.443C36.5475 18.2929 36.2478 18.214 35.9429 18.214C35.6381 18.214 35.3384 18.2929 35.0731 18.443C34.8116 18.5966 34.5969 18.8184 34.452 19.0848C34.2898 19.3718 34.2074 19.6971 34.2135 20.0268V20.0091ZM33.5188 20.0091C33.5131 19.5742 33.6228 19.1456 33.8367 18.7669C34.0435 18.3963 34.3492 18.0905 34.7198 17.8837C35.0972 17.676 35.521 17.5671 35.9518 17.5671C36.3825 17.5671 36.8063 17.676 37.1837 17.8837C37.5448 18.0878 37.8439 18.3859 38.0492 18.7462C38.2568 19.1247 38.3657 19.5494 38.3657 19.9811C38.3657 20.4128 38.2568 20.8376 38.0492 21.216C37.8427 21.5868 37.5368 21.8926 37.166 22.0991C36.7856 22.3111 36.3563 22.4197 35.9209 22.4141C35.4933 22.4189 35.0721 22.3113 34.6992 22.1021C34.34 21.8989 34.0428 21.6018 33.8397 21.2425C33.6295 20.875 33.5189 20.459 33.5188 20.0356V20.0091ZM30.3278 21.7753C30.8195 21.7801 31.2966 21.6088 31.6731 21.2926C31.7042 21.2607 31.7442 21.2391 31.7879 21.2307C31.8072 21.2323 31.8256 21.2395 31.8409 21.2513C31.858 21.2655 31.8738 21.2813 31.888 21.2984L32.0823 21.5663C32.1033 21.5932 32.1147 21.6264 32.1146 21.6605C32.114 21.6809 32.1068 21.7005 32.094 21.7165C32.0778 21.7409 32.0579 21.7627 32.0352 21.7812C31.798 21.9826 31.5269 22.1401 31.2345 22.2463C30.9357 22.3562 30.6197 22.412 30.3013 22.4112C29.8807 22.4159 29.4664 22.3092 29.1003 22.1021C28.7403 21.9002 28.4422 21.604 28.2378 21.2455C28.0237 20.8711 27.9139 20.4462 27.9199 20.015C27.9138 19.5791 28.0235 19.1494 28.2378 18.7698C28.4456 18.4 28.7511 18.0945 29.1209 17.8867C29.4973 17.6725 29.9242 17.5627 30.3572 17.5688C30.6711 17.5675 30.9825 17.6244 31.2757 17.7366C31.5597 17.842 31.8236 17.9953 32.0558 18.1899C32.0746 18.2003 32.0905 18.2151 32.1023 18.233C32.1141 18.251 32.1214 18.2715 32.1235 18.2929C32.1196 18.3313 32.1054 18.368 32.0823 18.3989L31.888 18.6609C31.8527 18.708 31.8173 18.7345 31.782 18.7345C31.7391 18.7275 31.6991 18.7081 31.6672 18.6785C31.4783 18.533 31.269 18.4159 31.0461 18.3312C30.8213 18.2462 30.5828 18.2033 30.3425 18.2046C30.039 18.2017 29.7402 18.28 29.4771 18.4313C29.2166 18.5834 29.002 18.8031 28.856 19.0671C28.7027 19.3508 28.6246 19.669 28.6293 19.9914C28.625 20.3069 28.7021 20.6181 28.853 20.8952C28.9958 21.1604 29.2086 21.3813 29.4683 21.5339C29.7262 21.6966 30.023 21.7871 30.3278 21.7959V21.7753Z" fill="white"/>
<path d="M12.6125 23.7534C13.9415 25.7776 15.7524 27.44 17.8826 28.5915C20.0128 29.7429 22.3957 30.3472 24.8171 30.3502V0.857178C22.3953 0.859952 20.0121 1.46451 17.8817 2.61651C15.7514 3.76851 13.9407 5.43184 12.6125 7.45698C14.2028 9.87752 15.0501 12.7104 15.0501 15.6066C15.0501 18.5028 14.2028 21.3358 12.6125 23.7563" fill="#FFCC00"/>
<path d="M12.6332 23.7534C11.3042 25.7776 9.49332 27.44 7.3631 28.5915C5.23289 29.7429 2.85004 30.3472 0.428549 30.3502V0.857178C2.8504 0.859952 5.23362 1.46451 7.36395 2.61651C9.49427 3.76851 11.3049 5.43184 12.6332 7.45698C11.0411 9.87683 10.1927 12.71 10.1927 15.6066C10.1927 18.5033 11.0411 21.3364 12.6332 23.7563" fill="#8F116E"/>
</g>
<defs>
<clipPath id="clip0_376_665">
<rect width="29.811" height="78.4999" fill="white" transform="matrix(0 1 -1 0 78.9285 0.857178)"/>
</clipPath>
</defs>
</svg>
