<svg width="60" height="24" viewBox="0 0 60 24" fill="none" xmlns="http://www.w3.org/2000/svg">
<g clip-path="url(#clip0_25_6216)">
<path d="M32.6691 19.7864C32.6656 19.7549 32.6743 19.7233 32.6934 19.6981C32.7186 19.6809 32.7491 19.6731 32.7795 19.676H33.0598C33.0902 19.6731 33.1206 19.6809 33.1458 19.6981C33.1649 19.7233 33.1736 19.7549 33.1701 19.7864V23.0794C33.1701 23.1898 33.137 23.245 33.0708 23.245C33.0394 23.2431 33.0093 23.2315 32.9847 23.2118C32.9388 23.1749 32.8966 23.1335 32.8589 23.0882L30.8151 20.6847V23.0794C30.8187 23.1102 30.81 23.1411 30.7908 23.1655C30.7659 23.1835 30.7354 23.1921 30.7048 23.1898H30.4244C30.3938 23.1921 30.3633 23.1835 30.3384 23.1655C30.3192 23.1411 30.3105 23.1102 30.3141 23.0794V19.7864C30.3115 19.7431 30.3198 19.6998 30.3384 19.6606C30.3473 19.6473 30.3595 19.6367 30.3739 19.6297C30.3882 19.6227 30.4041 19.6197 30.42 19.6208C30.4509 19.6224 30.4803 19.634 30.5039 19.6539C30.5493 19.69 30.59 19.7315 30.6253 19.7775L32.6625 22.1811V19.7864M57.4486 13.975C57.4313 13.9728 57.4138 13.9776 57.4 13.9882C57.3951 13.9939 57.3913 14.0006 57.3891 14.0078C57.3868 14.015 57.386 14.0226 57.3868 14.0302V15.3147C57.3858 15.3312 57.3905 15.3476 57.4 15.3611C57.4138 15.3717 57.4313 15.3765 57.4486 15.3743H57.9342C58.1762 15.3891 58.4169 15.3282 58.6228 15.1999C58.7054 15.1378 58.7711 15.056 58.8139 14.9619C58.8567 14.8678 58.8752 14.7645 58.8678 14.6614C58.8762 14.5611 58.8587 14.4603 58.817 14.3687C58.7753 14.2771 58.7107 14.1978 58.6294 14.1383C58.4188 14.0166 58.1769 13.9598 57.9342 13.975H57.4486ZM57.4486 15.8511C57.4313 15.8489 57.4138 15.8537 57.4 15.8643C57.3951 15.87 57.3913 15.8767 57.3891 15.8839C57.3868 15.8911 57.386 15.8987 57.3868 15.9062V16.9016C57.3868 16.9436 57.3868 16.9745 57.3625 16.9877C57.3378 17.0061 57.3071 17.0147 57.2764 17.012H56.9961C56.9655 17.0143 56.935 17.0057 56.91 16.9877C56.8909 16.9634 56.8821 16.9324 56.8858 16.9016V13.6086C56.8823 13.5772 56.8909 13.5456 56.91 13.5203C56.9353 13.5031 56.9657 13.4953 56.9961 13.4982H57.9629C58.3429 13.4687 58.7215 13.5725 59.0333 13.7918C59.1543 13.8986 59.2493 14.0317 59.3109 14.181C59.3725 14.3302 59.3991 14.4915 59.3887 14.6526C59.3949 14.8803 59.3367 15.1053 59.2209 15.3015C59.1002 15.4867 58.9252 15.6301 58.7199 15.712C58.464 15.8112 58.1909 15.8584 57.9165 15.8511H57.4486ZM52.4318 15.264C52.428 15.5019 52.4858 15.7369 52.5995 15.946C52.7068 16.1429 52.8664 16.3064 53.0608 16.4183C53.2615 16.5354 53.4906 16.595 53.7229 16.5904C53.9554 16.5932 54.1842 16.5329 54.3851 16.4161C54.5834 16.3027 54.7468 16.137 54.8574 15.9371C54.9697 15.7258 55.0284 15.4901 55.0284 15.2507C55.0284 15.0114 54.9697 14.7757 54.8574 14.5643C54.7485 14.3665 54.5874 14.2023 54.3917 14.0898C54.1901 13.9751 53.9615 13.9164 53.7296 13.9198C53.5004 13.9178 53.2751 13.9784 53.0779 14.0951C52.8807 14.2118 52.7191 14.3801 52.6106 14.582C52.494 14.7904 52.4325 15.0251 52.4318 15.264ZM51.9087 15.264C51.9044 14.9379 51.9867 14.6165 52.1471 14.3325C52.3027 14.0552 52.5318 13.8261 52.8092 13.6704C53.0926 13.5147 53.4107 13.433 53.734 13.433C54.0573 13.433 54.3754 13.5147 54.6588 13.6704C54.9288 13.8235 55.1523 14.047 55.3055 14.3171C55.4612 14.6009 55.5428 14.9193 55.5428 15.243C55.5428 15.5667 55.4612 15.8851 55.3055 16.1689C55.15 16.4464 54.9208 16.6755 54.6433 16.831C54.3581 16.9899 54.0362 17.0713 53.7097 17.0672C53.3892 17.0708 53.0733 16.9901 52.7938 16.8332C52.5244 16.6809 52.3016 16.4581 52.1493 16.1887C51.9894 15.9093 51.9064 15.5925 51.9087 15.2706V15.264ZM50.5557 16.895C50.5593 16.9258 50.5506 16.9568 50.5314 16.9811C50.5065 16.9991 50.476 17.0077 50.4454 17.0054H50.165C50.1344 17.0077 50.1039 16.9991 50.079 16.9811C50.0598 16.9568 50.0511 16.9258 50.0547 16.895V15.4935C50.0555 15.486 50.0547 15.4784 50.0524 15.4712C50.0501 15.4639 50.0464 15.4573 50.0414 15.4516C50.0276 15.4409 50.0102 15.4362 49.9929 15.4383H48.3331C48.3158 15.4362 48.2984 15.4409 48.2846 15.4516C48.2793 15.465 48.2793 15.48 48.2846 15.4935V16.895C48.2866 16.9104 48.2853 16.9261 48.2807 16.941C48.2761 16.9558 48.2684 16.9695 48.2581 16.9811C48.2342 16.9995 48.2042 17.0082 48.1742 17.0054H47.8917C47.8617 17.0082 47.8317 16.9995 47.8078 16.9811C47.7975 16.9695 47.7898 16.9558 47.7852 16.941C47.7806 16.9261 47.7793 16.9104 47.7813 16.895V13.6086C47.7794 13.5929 47.7808 13.5769 47.7853 13.5617C47.7899 13.5465 47.7976 13.5324 47.8078 13.5203C47.832 13.5027 47.862 13.4948 47.8917 13.4982H48.1632C48.1929 13.4948 48.2229 13.5027 48.247 13.5203C48.2573 13.5324 48.265 13.5465 48.2695 13.5617C48.2741 13.5769 48.2755 13.5929 48.2735 13.6086V14.913C48.2685 14.9281 48.2685 14.9443 48.2735 14.9594C48.2802 14.965 48.2879 14.9693 48.2963 14.972C48.3046 14.9746 48.3134 14.9756 48.3221 14.9748H49.9819C49.9906 14.9756 49.9994 14.9746 50.0077 14.972C50.016 14.9693 50.0237 14.965 50.0304 14.9594C50.04 14.9459 50.0446 14.9295 50.0437 14.913V13.6086C50.0401 13.5772 50.0488 13.5456 50.0679 13.5203C50.0931 13.5031 50.1236 13.4953 50.154 13.4982H50.4343C50.4647 13.4953 50.4952 13.5031 50.5204 13.5203C50.5395 13.5456 50.5482 13.5772 50.5447 13.6086L50.5557 16.895ZM44.0734 16.2461C44.0998 16.2108 44.1263 16.191 44.1484 16.191C44.1768 16.1963 44.203 16.2102 44.2234 16.2307C44.4807 16.451 44.8053 16.5771 45.1438 16.5882C45.2799 16.591 45.4154 16.5685 45.5433 16.522C45.648 16.4866 45.74 16.4214 45.8082 16.3344C45.8697 16.2532 45.9023 16.1538 45.9009 16.0519C45.9051 15.9606 45.8786 15.8705 45.8258 15.7959C45.7612 15.7179 45.6776 15.6578 45.583 15.6215C45.4287 15.5595 45.2701 15.5086 45.1085 15.4692C44.9018 15.4196 44.7017 15.3455 44.5126 15.2485C44.3667 15.1773 44.242 15.0693 44.1506 14.9351C44.0621 14.7898 44.0183 14.6217 44.0248 14.4517C44.0196 14.2578 44.0734 14.0669 44.1793 13.9044C44.2845 13.7491 44.4314 13.6267 44.6031 13.5512C44.7934 13.467 44.9997 13.4248 45.2078 13.4276C45.6238 13.4257 46.0279 13.5658 46.3533 13.8249C46.3674 13.8357 46.3801 13.8483 46.3909 13.8624C46.394 13.8747 46.394 13.8876 46.3909 13.8999C46.3934 13.9116 46.3934 13.9236 46.3909 13.9353L46.3644 13.9794L46.2187 14.2001C46.2091 14.2164 46.1963 14.2307 46.1812 14.2421C46.1706 14.2506 46.1573 14.2553 46.1437 14.2553C46.1128 14.2523 46.0835 14.24 46.0598 14.22C45.9314 14.1304 45.7928 14.0563 45.6471 13.9993C45.5065 13.9438 45.3567 13.9154 45.2056 13.9154C45.0893 13.9129 44.9737 13.934 44.8657 13.9772C44.7768 14.0159 44.7004 14.0786 44.645 14.1582C44.5888 14.2399 44.5595 14.3371 44.5611 14.4363C44.5577 14.5323 44.5873 14.6266 44.645 14.7033C44.7106 14.7812 44.7949 14.8412 44.89 14.8777C45.033 14.9369 45.1806 14.9842 45.3314 15.019C45.5481 15.0685 45.7584 15.1425 45.9583 15.2397C46.102 15.3114 46.2245 15.4195 46.3136 15.5531C46.3963 15.6939 46.4369 15.8556 46.4306 16.0188C46.434 16.2148 46.3762 16.4069 46.265 16.5684C46.1499 16.7308 45.9917 16.8577 45.8082 16.9348C45.5986 17.0224 45.3732 17.066 45.146 17.0628C44.9256 17.0674 44.7063 17.0307 44.4993 16.9546C44.3006 16.8792 44.1151 16.7726 43.9498 16.639C43.9122 16.6059 43.8946 16.5772 43.8946 16.5551C43.8971 16.5235 43.9094 16.4934 43.9299 16.4691L44.0734 16.2461ZM42.7336 16.5353C42.7634 16.5318 42.7933 16.5397 42.8175 16.5573C42.8278 16.5694 42.8354 16.5835 42.84 16.5987C42.8446 16.6139 42.8459 16.6299 42.844 16.6456V16.9016C42.846 16.9171 42.8447 16.9327 42.8401 16.9476C42.8356 16.9624 42.8278 16.9761 42.8175 16.9877C42.7936 17.0061 42.7637 17.0148 42.7336 17.012H40.8311C40.8004 17.0143 40.7699 17.0057 40.745 16.9877C40.7258 16.9634 40.7171 16.9324 40.7207 16.9016V13.6086C40.7172 13.5772 40.7259 13.5456 40.745 13.5203C40.7702 13.5031 40.8007 13.4953 40.8311 13.4982H42.7336C42.7641 13.4949 42.7947 13.5027 42.8197 13.5203C42.8296 13.5326 42.8369 13.5467 42.841 13.5619C42.8452 13.5771 42.8462 13.593 42.844 13.6086V13.8646C42.8462 13.8802 42.8452 13.8961 42.841 13.9113C42.8369 13.9265 42.8296 13.9407 42.8197 13.9529C42.7947 13.9705 42.7641 13.9783 42.7336 13.975H41.2902C41.2729 13.9728 41.2554 13.9776 41.2416 13.9882C41.2366 13.9939 41.2329 14.0006 41.2306 14.0078C41.2283 14.015 41.2276 14.0226 41.2284 14.0302V14.9483C41.2262 14.9656 41.231 14.9831 41.2416 14.9969C41.2416 14.9969 41.2659 15.0079 41.2902 15.0079H42.5637C42.5943 15.0056 42.6248 15.0142 42.6498 15.0322C42.6689 15.0566 42.6777 15.0875 42.674 15.1183V15.3699C42.678 15.3852 42.6779 15.4012 42.6738 15.4164C42.6696 15.4316 42.6616 15.4455 42.6504 15.4567C42.6393 15.4678 42.6254 15.4759 42.6102 15.48C42.595 15.4841 42.5789 15.4842 42.5637 15.4803H41.2902C41.2729 15.4781 41.2554 15.4829 41.2416 15.4935C41.2366 15.4992 41.2329 15.5059 41.2306 15.5131C41.2283 15.5203 41.2276 15.5279 41.2284 15.5354V16.4801C41.2276 16.4876 41.2283 16.4952 41.2306 16.5024C41.2329 16.5096 41.2366 16.5163 41.2416 16.522C41.2554 16.5327 41.2729 16.5374 41.2902 16.5353H42.7336ZM39.2177 16.5353C39.2474 16.5318 39.2773 16.5397 39.3015 16.5573C39.3118 16.5694 39.3195 16.5835 39.324 16.5987C39.3286 16.6139 39.33 16.6299 39.328 16.6456V16.9016C39.3301 16.9171 39.3287 16.9327 39.3242 16.9476C39.3196 16.9624 39.3119 16.9761 39.3015 16.9877C39.2777 17.0061 39.2477 17.0148 39.2177 17.012H37.3151C37.2845 17.0143 37.254 17.0057 37.229 16.9877C37.2099 16.9634 37.2011 16.9324 37.2048 16.9016V13.6086C37.2013 13.5772 37.2099 13.5456 37.229 13.5203C37.2543 13.5031 37.2847 13.4953 37.3151 13.4982H39.2022C39.2326 13.4953 39.2631 13.5031 39.2883 13.5203C39.2982 13.5326 39.3054 13.5467 39.3096 13.5619C39.3138 13.5771 39.3148 13.593 39.3126 13.6086V13.8646C39.3148 13.8802 39.3138 13.8961 39.3096 13.9113C39.3054 13.9265 39.2982 13.9407 39.2883 13.9529C39.2631 13.9701 39.2326 13.978 39.2022 13.975H37.7588C37.7415 13.9728 37.724 13.9776 37.7102 13.9882C37.7052 13.9939 37.7015 14.0006 37.6992 14.0078C37.6969 14.015 37.6962 14.0226 37.697 14.0302V14.9483C37.6948 14.9656 37.6996 14.9831 37.7102 14.9969C37.7102 14.9969 37.7345 15.0079 37.7588 15.0079H39.0323C39.0629 15.0056 39.0934 15.0142 39.1183 15.0322C39.1375 15.0566 39.1462 15.0875 39.1426 15.1183V15.3699C39.1466 15.3852 39.1465 15.4012 39.1424 15.4164C39.1382 15.4316 39.1302 15.4455 39.119 15.4567C39.1079 15.4678 39.094 15.4759 39.0788 15.48C39.0636 15.4841 39.0475 15.4842 39.0323 15.4803H37.7588C37.7415 15.4781 37.724 15.4829 37.7102 15.4935C37.7052 15.4992 37.7015 15.5059 37.6992 15.5131C37.6969 15.5203 37.6962 15.5279 37.697 15.5354V16.4801C37.6962 16.4876 37.6969 16.4952 37.6992 16.5024C37.7015 16.5096 37.7052 16.5163 37.7102 16.522C37.724 16.5327 37.7415 16.5374 37.7588 16.5353H39.2177ZM34.2649 16.9016C34.2685 16.9324 34.2598 16.9634 34.2406 16.9877C34.2157 17.0057 34.1852 17.0143 34.1545 17.012H33.8742C33.8435 17.0143 33.813 17.0057 33.7881 16.9877C33.7689 16.9634 33.7602 16.9324 33.7638 16.9016V13.6086C33.7603 13.5772 33.769 13.5456 33.7881 13.5203C33.8133 13.5031 33.8438 13.4953 33.8742 13.4982H35.7856C35.816 13.4953 35.8464 13.5031 35.8716 13.5203C35.8907 13.5456 35.8994 13.5772 35.8959 13.6086V13.8646C35.8994 13.8961 35.8907 13.9277 35.8716 13.9529C35.8464 13.9701 35.816 13.978 35.7856 13.975H34.3245C34.3079 13.9732 34.2912 13.9779 34.2781 13.9882C34.2731 13.9939 34.2694 14.0006 34.2671 14.0078C34.2648 14.015 34.2641 14.0226 34.2649 14.0302V15.0234C34.2634 15.0392 34.2682 15.0551 34.2781 15.0675C34.2932 15.0721 34.3094 15.0721 34.3245 15.0675H35.6112C35.6269 15.0657 35.6429 15.0671 35.6581 15.0717C35.6733 15.0763 35.6873 15.0838 35.6995 15.094C35.7098 15.1065 35.7175 15.121 35.7221 15.1365C35.7266 15.1521 35.728 15.1684 35.726 15.1845V15.4339C35.7288 15.465 35.7192 15.4959 35.6995 15.52C35.6741 15.5387 35.6426 15.5473 35.6112 15.5443H34.3245C34.3079 15.5425 34.2912 15.5472 34.2781 15.5575C34.2731 15.5632 34.2694 15.5699 34.2671 15.5771C34.2648 15.5843 34.2641 15.5919 34.2649 15.5994V16.9016ZM30.8239 16.9016C30.8276 16.9324 30.8188 16.9634 30.7997 16.9877C30.7747 17.0057 30.7442 17.0143 30.7136 17.012H30.4333C30.4026 17.0143 30.3721 17.0057 30.3472 16.9877C30.328 16.9634 30.3193 16.9324 30.3229 16.9016V13.6086C30.3194 13.5772 30.3281 13.5456 30.3472 13.5203C30.3724 13.5031 30.4029 13.4953 30.4333 13.4982H32.3447C32.375 13.4953 32.4055 13.5031 32.4307 13.5203C32.4498 13.5456 32.4585 13.5772 32.455 13.6086V13.8646C32.4585 13.8961 32.4498 13.9277 32.4307 13.9529C32.4055 13.9701 32.375 13.978 32.3447 13.975H30.8835C30.8669 13.9732 30.8503 13.9779 30.8372 13.9882C30.8322 13.9939 30.8285 14.0006 30.8262 14.0078C30.8239 14.015 30.8231 14.0226 30.8239 14.0302V15.0234C30.8225 15.0392 30.8272 15.0551 30.8372 15.0675C30.8523 15.0721 30.8684 15.0721 30.8835 15.0675H32.1703C32.186 15.0657 32.202 15.0671 32.2171 15.0717C32.2323 15.0763 32.2464 15.0838 32.2586 15.094C32.2689 15.1065 32.2766 15.121 32.2811 15.1365C32.2857 15.1521 32.287 15.1684 32.2851 15.1845V15.4339C32.2878 15.465 32.2783 15.4959 32.2586 15.52C32.2331 15.5387 32.2017 15.5473 32.1703 15.5443H30.8835C30.8669 15.5425 30.8503 15.5472 30.8372 15.5575C30.8322 15.5632 30.8285 15.5699 30.8262 15.5771C30.8239 15.5843 30.8231 15.5919 30.8239 15.5994V16.9016ZM45.2586 7.43084C45.2551 7.39939 45.2638 7.36779 45.2829 7.34255C45.3081 7.32533 45.3386 7.31752 45.3689 7.32048H45.6493C45.6797 7.31752 45.7101 7.32533 45.7353 7.34255C45.7544 7.36779 45.7631 7.39939 45.7596 7.43084V10.7239C45.7596 10.8342 45.7265 10.8894 45.6603 10.8894C45.6289 10.8875 45.5988 10.876 45.5742 10.8563C45.5283 10.8194 45.4861 10.778 45.4484 10.7327L43.4112 8.32914V10.7239C43.4149 10.7547 43.4061 10.7856 43.3869 10.81C43.362 10.828 43.3315 10.8366 43.3009 10.8342H43.0206C42.9899 10.8366 42.9594 10.828 42.9345 10.81C42.9168 10.7967 42.9102 10.7658 42.9102 10.7239V7.43084C42.9064 7.38746 42.9148 7.34389 42.9345 7.30503C42.943 7.29198 42.9549 7.28142 42.9689 7.27444C42.9828 7.26747 42.9984 7.26431 43.0139 7.2653C43.0455 7.26672 43.0757 7.27834 43.1 7.29841C43.1454 7.3345 43.1861 7.37601 43.2214 7.42201L45.2586 9.82558V7.43084ZM38.8866 10.6819C38.8704 10.7283 38.8432 10.77 38.8071 10.8033C38.7705 10.8251 38.7283 10.8359 38.6857 10.8342H38.4253C38.3569 10.8342 38.3238 10.8122 38.3238 10.768C38.3276 10.738 38.3366 10.7089 38.3503 10.6819L39.8644 7.50147C39.8966 7.43141 39.9335 7.36358 39.9747 7.29841C39.9839 7.28379 39.9966 7.2717 40.0116 7.26322C40.0266 7.25474 40.0435 7.25015 40.0608 7.24985C40.0768 7.2506 40.0923 7.25546 40.1058 7.26397C40.1193 7.27248 40.1304 7.28434 40.138 7.29841C40.1783 7.36379 40.2144 7.43161 40.2462 7.50147L41.7713 10.6819C41.785 10.7089 41.794 10.738 41.7978 10.768C41.7978 10.8122 41.7625 10.8342 41.6919 10.8342H41.4094C41.368 10.8373 41.3268 10.8264 41.2924 10.8033C41.2568 10.7687 41.2284 10.7275 41.2085 10.6819L40.0498 8.18347L38.8866 10.6819ZM37.207 10.7239C37.2106 10.7547 37.2019 10.7856 37.1827 10.81C37.1578 10.828 37.1273 10.8366 37.0966 10.8342H36.8163C36.7856 10.837 36.755 10.8283 36.7302 10.81C36.7126 10.7967 36.7059 10.7658 36.7059 10.7239V7.43084C36.7037 7.41524 36.7047 7.39936 36.7089 7.38417C36.7131 7.36898 36.7203 7.35481 36.7302 7.34255C36.7553 7.32497 36.7859 7.31712 36.8163 7.32048H37.0966C37.127 7.31752 37.1575 7.32533 37.1827 7.34255C37.2018 7.36779 37.2105 7.39939 37.207 7.43084V10.7239ZM33.0134 10.075C33.0399 10.0397 33.0642 10.0198 33.0885 10.0198C33.1167 10.0257 33.1428 10.0394 33.1635 10.0595C33.4201 10.2796 33.7439 10.4057 34.0817 10.4171C34.2185 10.4201 34.3547 10.3977 34.4834 10.3509C34.5871 10.3149 34.6783 10.2497 34.746 10.1633C34.8076 10.0821 34.8402 9.98263 34.8387 9.88075C34.8429 9.78944 34.8165 9.69934 34.7637 9.62473C34.7 9.54571 34.6161 9.48544 34.5209 9.45036C34.3667 9.38797 34.2081 9.33707 34.0464 9.29807C33.8403 9.24852 33.641 9.17441 33.4526 9.07736C33.3064 9.00674 33.1815 8.89859 33.0907 8.76395C33.0004 8.61937 32.9557 8.45091 32.9626 8.28058C32.9574 8.08668 33.0113 7.89576 33.1171 7.73321C33.2231 7.57777 33.3707 7.45537 33.5431 7.38007C33.7334 7.29555 33.9397 7.25338 34.1479 7.25647C34.5632 7.25448 34.9666 7.39468 35.2912 7.65376C35.3058 7.66394 35.3185 7.67664 35.3287 7.69128C35.3373 7.7019 35.342 7.71514 35.3419 7.7288C35.3443 7.74046 35.3443 7.75246 35.3419 7.76411L35.3177 7.80826L35.172 8.02897C35.1623 8.04525 35.1496 8.0595 35.1345 8.07091C35.1239 8.07949 35.1106 8.08416 35.097 8.08415C35.0653 8.08164 35.0352 8.0693 35.0109 8.04884C34.883 7.95967 34.7453 7.8856 34.6003 7.82812C34.4597 7.77299 34.31 7.74455 34.1589 7.74425C34.0434 7.74197 33.9285 7.76299 33.8212 7.80605C33.7322 7.84455 33.6557 7.90725 33.6005 7.98704C33.545 8.06895 33.5164 8.16618 33.5188 8.26513C33.5148 8.36087 33.5436 8.45512 33.6005 8.5322C33.6665 8.61061 33.7517 8.67067 33.8477 8.70656C33.9909 8.76512 34.1385 8.81235 34.2891 8.84782C34.5051 8.89731 34.7147 8.97136 34.9138 9.06853C35.0431 9.1445 35.1516 9.25144 35.2294 9.37974C35.3129 9.52036 35.3542 9.682 35.3486 9.84544C35.352 10.0414 35.2941 10.2336 35.183 10.395C35.0679 10.5574 34.9097 10.6843 34.7261 10.7614C34.5164 10.8486 34.2911 10.8921 34.064 10.8894C33.8459 10.8907 33.6296 10.851 33.4262 10.7724C33.2273 10.6971 33.0418 10.5906 32.8766 10.4568C32.862 10.4469 32.8497 10.4342 32.8402 10.4194C32.8307 10.4046 32.8243 10.3881 32.8214 10.3707C32.8243 10.3398 32.8367 10.3106 32.8567 10.2869L33.0134 10.075ZM29.482 10.075C29.5085 10.0397 29.5328 10.0198 29.557 10.0198C29.5853 10.0257 29.6113 10.0394 29.6321 10.0595C29.8885 10.2799 30.2124 10.406 30.5503 10.4171C30.6871 10.4201 30.8233 10.3977 30.952 10.3509C31.0557 10.3149 31.1469 10.2497 31.2146 10.1633C31.2761 10.0821 31.3088 9.98263 31.3073 9.88075C31.3115 9.78944 31.2851 9.69934 31.2323 9.62473C31.1681 9.54626 31.0843 9.48611 30.9895 9.45036C30.8351 9.3883 30.6766 9.33741 30.5149 9.29807C30.3084 9.24806 30.1083 9.17399 29.919 9.07736C29.7734 9.00668 29.6492 8.89851 29.5592 8.76395C29.4689 8.61937 29.4243 8.45091 29.4312 8.28058C29.426 8.08668 29.4799 7.89576 29.5857 7.73321C29.6909 7.57793 29.8378 7.45552 30.0095 7.38007C30.1944 7.3016 30.3936 7.26252 30.5944 7.2653C31.0103 7.26334 31.4145 7.40351 31.7399 7.66259C31.754 7.67338 31.7666 7.686 31.7774 7.70011C31.786 7.71073 31.7907 7.72397 31.7907 7.73763C31.7895 7.75003 31.7857 7.76206 31.7796 7.77294L31.7554 7.81709L31.6097 8.0378C31.6 8.05408 31.5873 8.06833 31.5722 8.07973C31.5614 8.08802 31.5482 8.09266 31.5346 8.09298C31.503 8.09047 31.4729 8.07813 31.4486 8.05766C31.3202 7.96808 31.1816 7.894 31.0358 7.83695C30.8953 7.78152 30.7455 7.75306 30.5944 7.75308C30.4788 7.75061 30.3639 7.77164 30.2567 7.81488C30.1676 7.85338 30.0912 7.91608 30.036 7.99586C29.9804 8.07778 29.9519 8.17501 29.9543 8.27396C29.9502 8.3697 29.9791 8.46395 30.036 8.54102C30.1016 8.61892 30.1859 8.67891 30.281 8.71539C30.4244 8.77346 30.5719 8.82068 30.7224 8.85664C30.9382 8.90652 31.1478 8.98056 31.347 9.07736C31.4883 9.146 31.6092 9.2502 31.698 9.37974C31.7815 9.52036 31.8228 9.682 31.8171 9.84544C31.8206 10.0414 31.7627 10.2336 31.6516 10.395C31.5365 10.5574 31.3782 10.6843 31.1947 10.7614C30.985 10.8486 30.7597 10.8921 30.5326 10.8894C30.3138 10.8904 30.0968 10.8507 29.8925 10.7724C29.6942 10.6961 29.5088 10.5896 29.343 10.4568C29.3143 10.4362 29.2946 10.4054 29.2878 10.3707C29.2917 10.3401 29.3039 10.3111 29.3231 10.2869L29.482 10.075ZM28.1025 9.3378C28.1121 9.63441 28.0477 9.92874 27.9149 10.1942C27.7982 10.4174 27.6155 10.5992 27.3918 10.7151C27.1551 10.8339 26.8931 10.8937 26.6282 10.8894C26.3727 10.8945 26.1198 10.8377 25.891 10.7239C25.6757 10.6089 25.5014 10.43 25.3922 10.2118C25.2644 9.9441 25.2024 9.64976 25.2112 9.35325V7.43084C25.2093 7.41509 25.2106 7.39911 25.2152 7.38392C25.2197 7.36872 25.2274 7.35464 25.2377 7.34255C25.2619 7.32492 25.2918 7.31704 25.3216 7.32048H25.5974C25.6293 7.31664 25.6614 7.32448 25.6879 7.34255C25.6982 7.35464 25.7059 7.36872 25.7104 7.38392C25.715 7.39911 25.7164 7.41509 25.7144 7.43084V9.32235C25.696 9.61029 25.7814 9.8953 25.955 10.1257C26.0413 10.2229 26.1485 10.2992 26.2685 10.3489C26.3886 10.3986 26.5183 10.4204 26.648 10.4127C26.8285 10.4179 27.0068 10.372 27.1623 10.2802C27.3059 10.1919 27.4191 10.0617 27.4867 9.90724C27.568 9.72556 27.6072 9.5279 27.6015 9.32897V7.43084C27.5993 7.41524 27.6003 7.39936 27.6045 7.38417C27.6087 7.36898 27.6159 7.35481 27.6258 7.34255C27.6487 7.32579 27.677 7.31795 27.7053 7.32048H27.9878C28.0196 7.31721 28.0515 7.32501 28.0783 7.34255C28.0974 7.36779 28.1061 7.39939 28.1025 7.43084V9.3378ZM21.8674 10.7239C21.8694 10.7393 21.8681 10.755 21.8635 10.7698C21.859 10.7847 21.8512 10.7984 21.8409 10.81C21.817 10.8284 21.7871 10.837 21.757 10.8342H21.4745C21.4445 10.837 21.4145 10.8284 21.3906 10.81C21.3803 10.7984 21.3726 10.7847 21.368 10.7698C21.3634 10.755 21.3621 10.7393 21.3642 10.7239V7.43084C21.3622 7.41509 21.3636 7.39911 21.3681 7.38392C21.3727 7.36872 21.3804 7.35464 21.3906 7.34255C21.4148 7.32492 21.4448 7.31704 21.4745 7.32048H22.428C23.3815 7.32048 23.8582 7.68319 23.8582 8.4086C23.8671 8.62166 23.8041 8.83154 23.6794 9.00452C23.5486 9.16565 23.3738 9.28528 23.1762 9.34884L24.0392 10.6731C24.0625 10.7006 24.0771 10.7344 24.0811 10.7702C24.081 10.7793 24.0782 10.788 24.0731 10.7955C24.068 10.8029 24.0608 10.8087 24.0524 10.8122C24.0265 10.8223 23.9986 10.8268 23.9708 10.8254H23.6728C23.6299 10.8288 23.587 10.8196 23.5492 10.7989C23.509 10.7698 23.4759 10.7321 23.4521 10.6886L22.5251 9.22965C22.5074 9.21009 22.4966 9.1853 22.4942 9.15902C22.4942 9.13254 22.5207 9.1193 22.5693 9.11488C23.0747 9.06191 23.3285 8.83457 23.3285 8.43729C23.3353 8.34094 23.3169 8.24448 23.2751 8.1574C23.2333 8.07033 23.1696 7.99564 23.0901 7.94069C22.8801 7.82188 22.6401 7.76667 22.3993 7.78177H21.9182C21.9009 7.77962 21.8834 7.78438 21.8696 7.79501C21.8603 7.80856 21.8564 7.82508 21.8586 7.84136L21.8674 10.7239ZM34.5937 1.50468C34.5972 1.53613 34.5885 1.56773 34.5694 1.59297C34.5442 1.61019 34.5138 1.618 34.4834 1.61504H33.5409C33.5236 1.61289 33.5062 1.61765 33.4924 1.62828C33.4873 1.63392 33.4835 1.64058 33.4812 1.64781C33.4789 1.65505 33.4782 1.66269 33.4791 1.67022V4.53949C33.4791 4.58143 33.4791 4.61233 33.4548 4.62557C33.4301 4.64393 33.3995 4.65257 33.3688 4.64985H33.0885C33.0578 4.65217 33.0273 4.64357 33.0024 4.62557C32.9832 4.60123 32.9745 4.57027 32.9781 4.53949V1.67022C32.979 1.66269 32.9783 1.65505 32.976 1.64781C32.9738 1.64058 32.9699 1.63392 32.9649 1.62828C32.9584 1.62308 32.951 1.61923 32.943 1.61696C32.9351 1.61468 32.9267 1.61403 32.9185 1.61504H31.9739C31.9441 1.61848 31.9142 1.6106 31.89 1.59297C31.8797 1.58088 31.872 1.5668 31.8675 1.5516C31.8629 1.53641 31.8616 1.52043 31.8635 1.50468V1.25307C31.8616 1.23732 31.8629 1.22135 31.8675 1.20615C31.872 1.19096 31.8797 1.17687 31.89 1.16478C31.9142 1.14716 31.9441 1.13928 31.9739 1.14271H34.4834C34.5138 1.13975 34.5442 1.14756 34.5694 1.16478C34.5885 1.19002 34.5972 1.22162 34.5937 1.25307V1.50468ZM28.5329 3.8928C28.5594 3.85749 28.5859 3.83762 28.608 3.83762C28.637 3.84332 28.6637 3.85709 28.6852 3.87735C28.9414 4.098 29.2655 4.22419 29.6034 4.23491C29.7402 4.23758 29.8764 4.21514 30.0051 4.16869C30.1088 4.13269 30.2 4.06755 30.2677 3.98109C30.3293 3.89989 30.3619 3.80045 30.3604 3.69857C30.3646 3.60726 30.3382 3.51715 30.2854 3.44255C30.2208 3.36453 30.1372 3.30447 30.0426 3.26818C29.8883 3.20612 29.7297 3.15523 29.5681 3.11589C29.3615 3.06588 29.1615 2.99181 28.9722 2.89518C28.8265 2.82882 28.7009 2.7253 28.608 2.59501C28.5177 2.45043 28.473 2.28197 28.48 2.11164C28.4747 1.91774 28.5286 1.72682 28.6345 1.56428C28.7396 1.40899 28.8865 1.28658 29.0582 1.21113C29.2486 1.12688 29.4549 1.08472 29.663 1.08753C30.0789 1.08558 30.4831 1.22574 30.8085 1.48482C30.8226 1.49561 30.8352 1.50823 30.846 1.52234C30.8529 1.53365 30.8567 1.5466 30.857 1.55986C30.8596 1.57149 30.8596 1.58354 30.857 1.59518L30.8306 1.63932L30.6849 1.86003C30.6753 1.87635 30.6625 1.8906 30.6474 1.90197C30.6367 1.91055 30.6235 1.91522 30.6098 1.91521C30.5789 1.91226 30.5497 1.89994 30.526 1.8799C30.3976 1.79032 30.259 1.71623 30.1132 1.65918C29.9727 1.60375 29.8229 1.57529 29.6718 1.57531C29.5555 1.57285 29.4399 1.59387 29.3319 1.63711C29.243 1.67581 29.1666 1.73847 29.1112 1.8181C29.055 1.89981 29.0257 1.99703 29.0273 2.09619C29.0239 2.19219 29.0535 2.28647 29.1112 2.36326C29.1768 2.44115 29.2611 2.50114 29.3562 2.53762C29.4992 2.59685 29.6468 2.6441 29.7976 2.67888C30.0143 2.72841 30.2246 2.80246 30.4244 2.89959C30.5682 2.97135 30.6907 3.07938 30.7798 3.213C30.8625 3.35386 30.9031 3.51548 30.8968 3.67871C30.9002 3.87468 30.8423 4.06682 30.7312 4.22829C30.612 4.39296 30.4481 4.52009 30.2589 4.59467C30.0493 4.68233 29.8239 4.7259 29.5968 4.72268C29.378 4.72368 29.161 4.68401 28.9567 4.60571C28.7584 4.52936 28.573 4.4229 28.4071 4.29009C28.3785 4.26944 28.3587 4.23867 28.352 4.20401C28.3549 4.1731 28.3672 4.14384 28.3873 4.12014L28.5329 3.8928ZM27.191 4.17531C27.2207 4.17188 27.2507 4.17976 27.2749 4.19739C27.2851 4.20947 27.2928 4.22356 27.2974 4.23875C27.3019 4.25395 27.3033 4.26992 27.3014 4.28567V4.5417C27.3034 4.55711 27.3021 4.57277 27.2975 4.58763C27.2929 4.60248 27.2852 4.61618 27.2749 4.62778C27.251 4.64619 27.221 4.65486 27.191 4.65206H25.2973C25.2666 4.65438 25.2361 4.64578 25.2112 4.62778C25.192 4.60343 25.1833 4.57247 25.1869 4.5417V1.25307C25.1834 1.22162 25.1921 1.19002 25.2112 1.16478C25.2364 1.14756 25.2669 1.13975 25.2973 1.14271H27.1932C27.2237 1.13893 27.2544 1.14681 27.2793 1.16478C27.2892 1.17705 27.2964 1.19121 27.3006 1.2064C27.3048 1.22159 27.3058 1.23748 27.3036 1.25307V1.50468C27.3058 1.52028 27.3048 1.53616 27.3006 1.55135C27.2964 1.56654 27.2892 1.58071 27.2793 1.59297C27.2544 1.61094 27.2237 1.61883 27.1932 1.61504H25.7387C25.7214 1.61289 25.704 1.61765 25.6902 1.62828C25.6851 1.63392 25.6813 1.64058 25.679 1.64781C25.6767 1.65505 25.676 1.66269 25.6769 1.67022V2.58839C25.6747 2.60568 25.6795 2.62313 25.6902 2.63694C25.6902 2.63694 25.7144 2.64798 25.7387 2.64798H27.0122C27.0429 2.64566 27.0734 2.65426 27.0983 2.67226C27.117 2.69681 27.1257 2.7276 27.1226 2.75833V3.00995C27.1265 3.02521 27.1265 3.04125 27.1223 3.05647C27.1182 3.07169 27.1101 3.08556 27.099 3.09671C27.0878 3.10787 27.074 3.11591 27.0587 3.12005C27.0435 3.12419 27.0275 3.12427 27.0122 3.1203H25.7387C25.7214 3.11816 25.704 3.12291 25.6902 3.13355C25.6852 3.13926 25.6814 3.14593 25.6792 3.15314C25.6769 3.16035 25.6761 3.16796 25.6769 3.17548V4.12014C25.6761 4.12766 25.6769 4.13527 25.6792 4.14248C25.6814 4.14969 25.6852 4.15636 25.6902 4.16207C25.704 4.17271 25.7214 4.17746 25.7387 4.17531H27.191ZM22.4655 4.18856C22.635 4.19337 22.8043 4.1748 22.9688 4.13338C23.0817 4.10766 23.1828 4.04469 23.2557 3.9546C23.3209 3.85849 23.3533 3.74396 23.3484 3.62795C23.3541 3.54715 23.3363 3.46644 23.2971 3.39554C23.258 3.32465 23.1991 3.26662 23.1277 3.22845C22.9307 3.13863 22.7147 3.09847 22.4986 3.11148H21.9115C21.8872 3.11148 21.8718 3.11148 21.863 3.12251C21.8541 3.13355 21.8519 3.14679 21.8519 3.17107V4.12896C21.8503 4.14522 21.8542 4.16154 21.863 4.17531C21.8768 4.18595 21.8942 4.19071 21.9115 4.18856H22.4655ZM21.9182 1.59959C21.9094 1.59825 21.9005 1.59895 21.8921 1.60163C21.8836 1.60431 21.8759 1.6089 21.8696 1.61504C21.8608 1.62799 21.8569 1.64363 21.8586 1.65918V2.60825C21.8569 2.6245 21.8608 2.64082 21.8696 2.6546C21.8763 2.66025 21.884 2.66453 21.8923 2.66718C21.9007 2.66983 21.9094 2.67081 21.9182 2.67005H22.4854C22.6852 2.6841 22.8845 2.63715 23.057 2.53541C23.1207 2.4916 23.1717 2.43185 23.205 2.36213C23.2383 2.29241 23.2528 2.21517 23.2469 2.13813C23.2523 2.05921 23.2359 1.9803 23.1992 1.91018C23.1626 1.84005 23.1073 1.78144 23.0394 1.74085C22.8458 1.64485 22.6304 1.60146 22.4148 1.61504L21.9182 1.59959ZM21.3553 1.24866C21.3534 1.23291 21.3548 1.21693 21.3593 1.20174C21.3639 1.18654 21.3715 1.17246 21.3818 1.16037C21.406 1.14274 21.436 1.13486 21.4657 1.1383H22.4501C22.7881 1.11949 23.1245 1.19596 23.4212 1.35901C23.537 1.43601 23.6304 1.54237 23.6916 1.66723C23.7529 1.7921 23.7799 1.93098 23.7699 2.06971C23.7835 2.23768 23.7389 2.40521 23.6437 2.54424C23.5485 2.68326 23.4084 2.78534 23.2469 2.83338C23.4236 2.87135 23.5832 2.96587 23.7015 3.10265C23.8181 3.2497 23.8776 3.43387 23.8693 3.62132C23.8804 3.77183 23.8528 3.92267 23.789 4.05946C23.7253 4.19624 23.6275 4.3144 23.5051 4.40265C23.1908 4.58653 22.8289 4.67259 22.4655 4.64985H21.4657C21.4357 4.65266 21.4057 4.64398 21.3818 4.62557C21.3715 4.61397 21.3638 4.60027 21.3592 4.58542C21.3546 4.57056 21.3533 4.5549 21.3553 4.53949V1.24866Z" fill="#1D1D1B"/>
<path d="M48.6268 20.0446C48.6288 20.0603 48.6274 20.0763 48.6228 20.0915C48.6183 20.1067 48.6106 20.1208 48.6004 20.1329C48.5762 20.1505 48.5462 20.1584 48.5165 20.1549H47.5718C47.5546 20.1532 47.5373 20.1579 47.5233 20.1682C47.5151 20.1806 47.5113 20.1953 47.5122 20.2101V23.0794C47.5153 23.1108 47.5066 23.1422 47.4879 23.1677C47.4623 23.1839 47.4322 23.1917 47.4019 23.1897H47.1216C47.0912 23.1923 47.0609 23.1846 47.0355 23.1677C47.0257 23.1553 47.0185 23.1412 47.0144 23.126C47.0102 23.1108 47.0091 23.095 47.0112 23.0794V20.2101C47.012 20.2026 47.0112 20.195 47.0089 20.1878C47.0067 20.1805 47.0029 20.1739 46.998 20.1682C46.9842 20.1575 46.9667 20.1528 46.9494 20.1549H46.007C45.9765 20.1583 45.9459 20.1504 45.9209 20.1329C45.911 20.1206 45.9037 20.1064 45.8996 20.0912C45.8954 20.0761 45.8944 20.0602 45.8966 20.0446V19.7885C45.8944 19.7729 45.8954 19.7571 45.8996 19.7419C45.9037 19.7267 45.911 19.7125 45.9209 19.7003C45.9464 19.6837 45.9766 19.6759 46.007 19.6782H48.5165C48.5461 19.6759 48.5757 19.6837 48.6004 19.7003C48.6106 19.7123 48.6183 19.7264 48.6228 19.7416C48.6274 19.7568 48.6288 19.7728 48.6268 19.7885V20.0446ZM43.0119 20.1549C42.9946 20.1528 42.9771 20.1575 42.9633 20.1682C42.9589 20.1818 42.9589 20.1965 42.9633 20.2101V21.4947C42.9593 21.5098 42.9593 21.5258 42.9633 21.541C42.9771 21.5516 42.9946 21.5564 43.0119 21.5543H43.4997C43.741 21.5687 43.9809 21.5078 44.1861 21.3799C44.2688 21.3182 44.3347 21.2368 44.3779 21.1432C44.4211 21.0495 44.4401 20.9465 44.4333 20.8436C44.4417 20.7427 44.4239 20.6414 44.3818 20.5494C44.3396 20.4574 44.2745 20.3778 44.1927 20.3183C43.9829 20.1965 43.7417 20.1397 43.4997 20.1549H43.0119ZM43.0119 22.031C42.9946 22.0288 42.9771 22.0336 42.9633 22.0442C42.9589 22.0579 42.9589 22.0725 42.9633 22.0862V23.0816C42.9651 23.0973 42.9637 23.1133 42.9591 23.1284C42.9546 23.1436 42.947 23.1577 42.9368 23.1699C42.9122 23.1864 42.8826 23.1942 42.853 23.1919H42.5705C42.5408 23.1942 42.5113 23.1864 42.4866 23.1699C42.4764 23.1577 42.4688 23.1436 42.4643 23.1284C42.4597 23.1133 42.4583 23.0973 42.4601 23.0816V19.7863C42.4582 19.7706 42.4595 19.7546 42.4641 19.7394C42.4687 19.7242 42.4763 19.7101 42.4866 19.6981C42.5113 19.6815 42.5408 19.6737 42.5705 19.676H43.5283C43.9091 19.6468 44.2882 19.7506 44.601 19.9695C44.7218 20.0765 44.8164 20.2097 44.8776 20.3589C44.9388 20.5081 44.965 20.6694 44.9542 20.8303C44.961 21.0589 44.9029 21.2846 44.7864 21.4814C44.6665 21.6659 44.4922 21.8086 44.2876 21.8897C44.0316 21.9887 43.7586 22.0359 43.4842 22.0288L43.0119 22.031ZM40.946 22.7152C40.9764 22.7122 41.0069 22.7201 41.0321 22.7373C41.0512 22.7625 41.0599 22.7941 41.0564 22.8256V23.0816C41.0594 23.113 41.0508 23.1444 41.0321 23.1699C41.0064 23.1862 40.9763 23.1939 40.946 23.1919H39.0435C39.0138 23.1942 38.9843 23.1864 38.9596 23.1699C38.9494 23.1577 38.9418 23.1436 38.9373 23.1284C38.9327 23.1133 38.9313 23.0973 38.9331 23.0816V19.7863C38.9312 19.7706 38.9325 19.7546 38.9371 19.7394C38.9417 19.7242 38.9493 19.7101 38.9596 19.6981C38.9843 19.6815 39.0138 19.6737 39.0435 19.676H40.9416C40.9712 19.6737 41.0008 19.6815 41.0255 19.6981C41.0357 19.7101 41.0434 19.7242 41.048 19.7394C41.0525 19.7546 41.0539 19.7706 41.052 19.7863V20.0446C41.0539 20.0603 41.0525 20.0763 41.048 20.0915C41.0434 20.1067 41.0357 20.1208 41.0255 20.1329C41.0013 20.1505 40.9713 20.1584 40.9416 20.1549H39.4959C39.4786 20.1528 39.4612 20.1575 39.4474 20.1682C39.4392 20.1806 39.4354 20.1953 39.4363 20.2101V21.1283C39.4349 21.1452 39.4387 21.1622 39.4474 21.1768C39.4612 21.1875 39.4786 21.1922 39.4959 21.1901H40.7694C40.7999 21.1863 40.8306 21.1942 40.8555 21.2121C40.8654 21.2244 40.8727 21.2386 40.8768 21.2538C40.881 21.269 40.882 21.2848 40.8798 21.3004V21.5498C40.8832 21.5806 40.8745 21.6115 40.8555 21.6359C40.831 21.6547 40.8002 21.6634 40.7694 21.6602H39.4959C39.4786 21.658 39.4612 21.6628 39.4474 21.6734C39.4392 21.6859 39.4354 21.7006 39.4363 21.7154V22.66C39.4354 22.6748 39.4392 22.6895 39.4474 22.702C39.4612 22.7126 39.4786 22.7174 39.4959 22.7152H40.946ZM36.3309 22.7704C36.6995 22.7739 37.0573 22.6455 37.3396 22.4084C37.3628 22.3845 37.3929 22.3684 37.4256 22.3621C37.4401 22.3633 37.4539 22.3686 37.4654 22.3775C37.4782 22.3882 37.49 22.4 37.5007 22.4128L37.6463 22.6137C37.6621 22.6339 37.6706 22.6587 37.6706 22.6843C37.6705 22.6997 37.665 22.7145 37.6552 22.7262C37.643 22.7445 37.6281 22.7609 37.611 22.7748C37.4332 22.9258 37.2299 23.0438 37.0107 23.1235C36.7866 23.2059 36.5497 23.2477 36.311 23.2471C35.9957 23.2507 35.685 23.1707 35.4105 23.0154C35.14 22.864 34.9157 22.642 34.7616 22.3731C34.6011 22.0924 34.5188 21.7738 34.5232 21.4505C34.5187 21.1237 34.601 20.8015 34.7616 20.5169C34.9177 20.2399 35.1467 20.0109 35.4238 19.8548C35.706 19.6942 36.026 19.6119 36.3508 19.6164C36.5861 19.6154 36.8196 19.6581 37.0394 19.7422C37.252 19.8219 37.4498 19.9368 37.6243 20.0821C37.6384 20.0899 37.6503 20.101 37.6592 20.1145C37.668 20.1279 37.6735 20.1433 37.675 20.1593C37.6722 20.1881 37.6615 20.2156 37.6441 20.2388L37.4985 20.4352C37.472 20.4705 37.4455 20.4904 37.419 20.4904C37.3868 20.4852 37.3569 20.4706 37.3329 20.4485C37.191 20.3398 37.0342 20.2521 36.8672 20.188C36.6987 20.1243 36.5199 20.0922 36.3397 20.0931C36.1077 20.0889 35.8789 20.1477 35.6776 20.2631C35.4833 20.3778 35.3233 20.5424 35.2141 20.7398C35.0993 20.9526 35.0408 21.1911 35.0441 21.4329C35.0409 21.6694 35.0987 21.9027 35.2119 22.1104C35.3189 22.3093 35.4785 22.475 35.6732 22.5894C35.8724 22.7089 36.1008 22.7708 36.3331 22.7682L36.3309 22.7704Z" fill="#1D1D1B"/>
<path d="M25.8648 21.4417C25.8615 21.6792 25.9201 21.9135 26.0347 22.1215C26.1407 22.32 26.3006 22.4845 26.496 22.5961C26.6927 22.7112 26.917 22.7707 27.1449 22.7682C27.375 22.769 27.601 22.7079 27.7994 22.5914C27.9978 22.475 28.1613 22.3073 28.2728 22.1061C28.3889 21.8978 28.4483 21.6626 28.4449 21.4241C28.4487 21.183 28.3902 20.945 28.275 20.7332C28.1653 20.5353 28.0035 20.3712 27.8071 20.2587C27.6081 20.1461 27.3834 20.087 27.1549 20.087C26.9263 20.087 26.7016 20.1461 26.5027 20.2587C26.3066 20.3738 26.1456 20.5402 26.0369 20.7399C25.9203 20.9512 25.8609 21.1894 25.8648 21.4307M25.3439 21.4307C25.3397 21.1046 25.4219 20.7832 25.5823 20.4993C25.7373 20.2214 25.9665 19.9922 26.2444 19.8372C26.5274 19.6814 26.8451 19.5998 27.1681 19.5998C27.4911 19.5998 27.8088 19.6814 28.0918 19.8372C28.3625 19.9902 28.5868 20.2136 28.7407 20.4838C28.8964 20.7676 28.978 21.0861 28.978 21.4097C28.978 21.7334 28.8964 22.0519 28.7407 22.3356C28.5858 22.6136 28.3565 22.8429 28.0785 22.9978C27.7933 23.1567 27.4714 23.2381 27.1449 23.2339C26.8244 23.2375 26.5085 23.1569 26.229 23C25.9591 22.8483 25.7362 22.6253 25.5845 22.3555C25.4265 22.0793 25.3436 21.7666 25.3439 21.4484V21.4307ZM22.9514 22.755C23.32 22.7585 23.6778 22.6301 23.96 22.393C23.9833 22.3691 24.0134 22.353 24.0461 22.3467C24.0606 22.3479 24.0744 22.3532 24.0858 22.3621C24.0987 22.3728 24.1105 22.3846 24.1211 22.3974L24.2668 22.5983C24.2826 22.6185 24.2911 22.6433 24.2911 22.6689C24.2906 22.6842 24.2852 22.6989 24.2756 22.7108C24.2634 22.7291 24.2486 22.7455 24.2315 22.7594C24.0537 22.9104 23.8504 23.0285 23.6312 23.1081C23.4071 23.1905 23.1702 23.2323 22.9315 23.2317C22.6162 23.2353 22.3055 23.1553 22.031 23C21.7611 22.8486 21.5376 22.6265 21.3843 22.3577C21.2238 22.077 21.1414 21.7584 21.1459 21.4351C21.1414 21.1083 21.2237 20.7861 21.3843 20.5015C21.5402 20.2243 21.7692 19.9952 22.0465 19.8394C22.3287 19.6788 22.6487 19.5965 22.9734 19.601C23.2088 19.6 23.4423 19.6427 23.6621 19.7268C23.875 19.8058 24.0729 19.9208 24.247 20.0667C24.261 20.0745 24.273 20.0856 24.2819 20.0991C24.2907 20.1125 24.2962 20.1279 24.2977 20.1439C24.2948 20.1728 24.2842 20.2002 24.2668 20.2234L24.1211 20.4198C24.0947 20.4552 24.0682 20.475 24.0417 20.475C24.0095 20.4698 23.9795 20.4552 23.9556 20.4331C23.814 20.3239 23.6571 20.2362 23.4899 20.1726C23.3214 20.1089 23.1426 20.0768 22.9624 20.0777C22.7348 20.0756 22.5108 20.1343 22.3135 20.2477C22.1182 20.3618 21.9573 20.5265 21.8478 20.7244C21.7329 20.9371 21.6744 21.1757 21.6778 21.4175C21.6746 21.654 21.7324 21.8873 21.8456 22.095C21.9533 22.2934 22.1127 22.459 22.3069 22.574C22.5005 22.6952 22.723 22.7622 22.9514 22.7682V22.755ZM25.8648 15.2507C25.8615 15.4882 25.9201 15.7225 26.0347 15.9305C26.1407 16.129 26.3006 16.2935 26.496 16.4051C26.6927 16.5202 26.917 16.5797 27.1449 16.5772C27.3773 16.5799 27.6061 16.5196 27.8071 16.4029C28.0049 16.2889 28.1682 16.1233 28.2794 15.9239C28.3955 15.7156 28.4549 15.4804 28.4515 15.2419C28.4554 15.0008 28.3968 14.7629 28.2816 14.5511C28.1719 14.3531 28.0101 14.189 27.8137 14.0765C27.6148 13.964 27.3901 13.9048 27.1615 13.9048C26.9329 13.9048 26.7082 13.964 26.5093 14.0765C26.3132 14.1916 26.1522 14.358 26.0436 14.5577C25.922 14.7729 25.8602 15.0168 25.8648 15.264V15.2507ZM25.3439 15.2507C25.3397 14.9247 25.4219 14.6033 25.5823 14.3193C25.7373 14.0415 25.9665 13.8122 26.2444 13.6572C26.5274 13.5015 26.8451 13.4198 27.1681 13.4198C27.4911 13.4198 27.8088 13.5015 28.0918 13.6572C28.3625 13.8102 28.5868 14.0337 28.7407 14.3039C28.8964 14.5876 28.978 14.9061 28.978 15.2298C28.978 15.5534 28.8964 15.8719 28.7407 16.1557C28.5858 16.4337 28.3565 16.663 28.0785 16.8178C27.7933 16.9767 27.4714 17.0581 27.1449 17.054C26.8244 17.0576 26.5085 16.9769 26.229 16.82C25.9596 16.6677 25.7368 16.4449 25.5845 16.1755C25.4269 15.9 25.3439 15.588 25.3439 15.2706V15.2507ZM22.9514 16.575C23.32 16.5786 23.6778 16.4502 23.96 16.213C23.9833 16.1892 24.0134 16.173 24.0461 16.1667C24.0606 16.1679 24.0744 16.1733 24.0858 16.1821C24.0987 16.1928 24.1105 16.2046 24.1211 16.2175L24.2668 16.4183C24.2826 16.4385 24.2911 16.4633 24.2911 16.4889C24.2906 16.5042 24.2852 16.5189 24.2756 16.5309C24.2634 16.5492 24.2486 16.5655 24.2315 16.5794C24.0537 16.7304 23.8504 16.8485 23.6312 16.9282C23.4071 17.0105 23.1702 17.0524 22.9315 17.0518C22.6162 17.0553 22.3055 16.9753 22.031 16.82C21.7611 16.6686 21.5376 16.4466 21.3843 16.1777C21.2238 15.8971 21.1414 15.5785 21.1459 15.2551C21.1414 14.9283 21.2237 14.6062 21.3843 14.3215C21.5402 14.0443 21.7692 13.8152 22.0465 13.6594C22.3287 13.4988 22.6487 13.4165 22.9734 13.421C23.2088 13.4201 23.4423 13.4627 23.6621 13.5468C23.875 13.6258 24.0729 13.7408 24.247 13.8867C24.261 13.8945 24.273 13.9056 24.2819 13.9191C24.2907 13.9325 24.2962 13.9479 24.2977 13.964C24.2948 13.9928 24.2842 14.0203 24.2668 14.0434L24.1211 14.2399C24.0947 14.2752 24.0682 14.295 24.0417 14.295C24.0095 14.2898 23.9795 14.2753 23.9556 14.2531C23.814 14.144 23.6571 14.0562 23.4899 13.9927C23.3214 13.929 23.1426 13.8968 22.9624 13.8978C22.7348 13.8956 22.5108 13.9543 22.3135 14.0677C22.1182 14.1818 21.9573 14.3465 21.8478 14.5444C21.7329 14.7571 21.6744 14.9957 21.6778 15.2375C21.6746 15.474 21.7324 15.7074 21.8456 15.9151C21.9526 16.1139 22.1122 16.2796 22.3069 16.394C22.5003 16.516 22.7228 16.5838 22.9514 16.5905V16.575Z" fill="#1D1D1B"/>
<path d="M9.6688 18.0582C10.6652 19.5759 12.023 20.8224 13.6202 21.6857C15.2174 22.549 17.004 23.0021 18.8196 23.0044V0.891113C17.0037 0.893194 15.2168 1.34648 13.6196 2.21023C12.0223 3.07397 10.6647 4.3211 9.6688 5.83951C10.8611 7.65438 11.4965 9.77844 11.4965 11.95C11.4965 14.1215 10.8611 16.2455 9.6688 18.0604" fill="#FFCC00"/>
<path d="M9.68433 18.0582C8.6879 19.5759 7.33012 20.8224 5.73293 21.6857C4.13574 22.549 2.34913 23.0021 0.533545 23.0044V0.891113C2.3494 0.893194 4.13629 1.34648 5.73356 2.21023C7.33084 3.07397 8.68844 4.3211 9.68433 5.83951C8.49062 7.65386 7.85448 9.77813 7.85448 11.95C7.85448 14.1218 8.49062 16.246 9.68433 18.0604" fill="#8F116E"/>
</g>
<defs>
<clipPath id="clip0_25_6216">
<rect width="22.3516" height="58.8576" fill="white" transform="matrix(0 1 -1 0 59.3911 0.891113)"/>
</clipPath>
</defs>
</svg>
