<svg width="77" height="34" viewBox="0 0 77 34" fill="none" xmlns="http://www.w3.org/2000/svg">
<g clip-path="url(#clip0_24_129)">
<path d="M75.4683 23.8434H1.1252C0.50377 23.8434 0 24.3472 0 24.9686V32.1648C0 32.7863 0.50377 33.29 1.1252 33.29H75.4683C76.0897 33.29 76.5935 32.7863 76.5935 32.1648V24.9686C76.5935 24.3472 76.0897 23.8434 75.4683 23.8434Z" fill="#F9A448"/>
<path d="M23.1673 26.6773C23.2242 26.7289 23.2675 26.7938 23.2933 26.8662C23.3438 27.0016 23.3438 27.1507 23.2933 27.2861C23.2675 27.3597 23.2243 27.4259 23.1673 27.4792C23.112 27.5367 23.0446 27.5811 22.97 27.6094C22.8982 27.6395 22.8211 27.6552 22.7433 27.6556C22.6672 27.6598 22.5911 27.6469 22.5207 27.6178C22.4482 27.592 22.3822 27.5504 22.3276 27.496C22.1613 27.3149 21.958 27.1717 21.7314 27.0762C21.5153 26.9891 21.2843 26.9449 21.0513 26.946C20.8174 26.9443 20.5857 26.9915 20.3711 27.0845C20.16 27.1735 19.9676 27.3017 19.8043 27.4624C19.4679 27.7958 19.2763 28.2483 19.2711 28.722C19.271 28.9553 19.3166 29.1864 19.4055 29.4021C19.4914 29.6141 19.6168 29.8078 19.7749 29.9731C19.9338 30.1384 20.1235 30.2711 20.3333 30.3636C20.5534 30.4639 20.7926 30.5154 21.0345 30.5147C21.2643 30.5194 21.4927 30.478 21.7062 30.393C21.9351 30.2949 22.142 30.1521 22.315 29.9731C22.3688 29.9178 22.435 29.8761 22.5082 29.8514C22.5797 29.8263 22.6549 29.8135 22.7307 29.8136C22.8078 29.8138 22.8844 29.8266 22.9574 29.8514C23.0293 29.8766 23.0951 29.9167 23.1505 29.9689C23.2048 30.0268 23.2488 30.0936 23.2807 30.1663C23.3071 30.2375 23.3213 30.3128 23.3227 30.3888C23.323 30.4663 23.3088 30.5432 23.2807 30.6155C23.2548 30.6868 23.2132 30.7514 23.1589 30.8044C22.8738 31.0915 22.534 31.3185 22.1597 31.472C21.799 31.6156 21.4143 31.6897 21.0261 31.6903C20.6346 31.6919 20.2471 31.6118 19.8883 31.4552C19.5378 31.3052 19.2198 31.0885 18.952 30.817C18.6812 30.5448 18.4659 30.2225 18.318 29.8682C18.0593 29.2618 18.012 28.586 18.1837 27.9494C18.2492 27.7034 18.3451 27.4664 18.4692 27.2441C18.5916 27.0213 18.7442 26.8164 18.9226 26.6353C19.0973 26.4484 19.2964 26.286 19.5146 26.1525C19.7405 26.0163 19.9833 25.9105 20.2368 25.8376C20.5031 25.7623 20.7788 25.7256 21.0555 25.7284C21.4393 25.7284 21.8197 25.801 22.1765 25.9426C22.5478 26.0952 22.8847 26.3208 23.1673 26.6059" fill="white"/>
<path d="M28.7052 25.7999C28.9719 25.7983 29.2375 25.8336 29.4945 25.9048C29.7445 25.9742 29.9844 26.0759 30.2082 26.2071C30.4298 26.333 30.6331 26.4884 30.8128 26.669C30.9915 26.8514 31.148 27.0543 31.2789 27.2736C31.4094 27.4977 31.511 27.7376 31.5812 27.9873C31.7634 28.6334 31.7189 29.3223 31.4552 29.9396C31.1483 30.6524 30.5783 31.2193 29.864 31.5225C29.4966 31.6775 29.1019 31.7574 28.7031 31.7574C28.3043 31.7574 27.9096 31.6775 27.5422 31.5225C27.1902 31.3729 26.8707 31.1562 26.6017 30.8843C26.3328 30.6121 26.1177 30.2916 25.9677 29.9396C25.7115 29.3206 25.6672 28.6341 25.8418 27.9873C25.9775 27.4898 26.2392 27.0357 26.6017 26.669C26.7799 26.4885 26.9819 26.3331 27.2021 26.2071C27.4244 26.0759 27.663 25.9742 27.9117 25.9048C28.17 25.8333 28.4371 25.798 28.7052 25.7999ZM28.7052 26.9881C28.4653 26.9853 28.2277 27.034 28.0082 27.1308C27.7953 27.2203 27.6025 27.3516 27.4414 27.5171C27.1107 27.8533 26.924 28.3051 26.9208 28.7766C26.9207 29.0176 26.9692 29.2561 27.0636 29.4778C27.1515 29.6895 27.2798 29.882 27.4414 30.0446C27.6018 30.2089 27.7949 30.3376 28.0082 30.4224C28.4545 30.6072 28.9559 30.6072 29.4021 30.4224C29.6164 30.337 29.8108 30.2084 29.9731 30.0446C30.1806 29.8368 30.3338 29.5812 30.4193 29.3003C30.5049 29.0195 30.5201 28.7219 30.4637 28.4337C30.4074 28.1456 30.2811 27.8757 30.0959 27.6478C29.9108 27.4199 29.6726 27.2409 29.4021 27.1266C29.1827 27.0298 28.945 26.9811 28.7052 26.9839" fill="white"/>
<path d="M37.8705 25.8376C37.9498 25.8375 38.0283 25.8532 38.1015 25.8838C38.1722 25.9147 38.2363 25.9589 38.2904 26.0139C38.3419 26.0692 38.3831 26.1331 38.4122 26.2029C38.4423 26.2761 38.458 26.3545 38.4583 26.4338C38.4584 26.5131 38.4428 26.5916 38.4122 26.6647C38.3822 26.7352 38.3411 26.8004 38.2904 26.8578C38.2372 26.9129 38.1728 26.9559 38.1015 26.9838C38.0283 27.0144 37.9498 27.0301 37.8705 27.03H35.49V28.3483H37.2744C37.3555 28.348 37.4357 28.3651 37.5095 28.3987C37.5798 28.4322 37.6437 28.4776 37.6984 28.533C37.7536 28.5878 37.7965 28.6536 37.8244 28.7262C37.8562 28.8004 37.872 28.8805 37.8705 28.9613C37.8727 29.0408 37.8569 29.1197 37.8244 29.1922C37.7954 29.2617 37.7525 29.3246 37.6984 29.3769C37.643 29.4272 37.579 29.467 37.5095 29.4945C37.4348 29.5247 37.355 29.5404 37.2744 29.5407H35.49V31.1151C35.4901 31.1944 35.4744 31.2729 35.4438 31.346C35.4158 31.4161 35.3728 31.4791 35.3179 31.5308C35.2614 31.5817 35.1977 31.6242 35.1289 31.6567C34.9782 31.7183 34.8094 31.7183 34.6587 31.6567C34.5896 31.6247 34.5259 31.5822 34.4697 31.5308C34.4193 31.4754 34.3769 31.4132 34.3438 31.346C34.3132 31.2729 34.2975 31.1944 34.2976 31.1151V26.4128C34.3023 26.3457 34.315 26.2795 34.3354 26.2154C34.3571 26.1449 34.3934 26.0797 34.4419 26.024C34.4903 25.9684 34.5499 25.9235 34.6167 25.8922C34.7042 25.8548 34.7986 25.8362 34.8938 25.8376H37.8705Z" fill="white"/>
<path d="M44.4245 25.8376C44.5037 25.8375 44.5822 25.8532 44.6554 25.8838C44.7248 25.9148 44.7875 25.959 44.8401 26.0139C44.8942 26.0679 44.9371 26.1321 44.9661 26.2029C44.9962 26.2761 45.0119 26.3545 45.0123 26.4338C45.0124 26.5131 44.9967 26.5916 44.9661 26.6647C44.9362 26.7362 44.8935 26.8016 44.8401 26.8578C44.7885 26.9128 44.7254 26.9558 44.6554 26.9838C44.5822 27.0144 44.5037 27.0301 44.4245 27.03H42.0439V28.3483H43.8325C43.9122 28.348 43.991 28.3652 44.0634 28.3987C44.1337 28.4322 44.1976 28.4776 44.2523 28.533C44.3075 28.5878 44.3504 28.6536 44.3783 28.7262C44.4081 28.801 44.4238 28.8807 44.4245 28.9613C44.4246 29.0406 44.4089 29.1191 44.3783 29.1922C44.3493 29.2617 44.3064 29.3246 44.2523 29.3769C44.1969 29.4272 44.1329 29.467 44.0634 29.4945C43.9901 29.5247 43.9117 29.5404 43.8325 29.5407H42.0439V31.1151C42.044 31.1944 42.0283 31.2729 41.9977 31.346C41.9697 31.4161 41.9267 31.4791 41.8718 31.5308C41.8145 31.5827 41.7493 31.6252 41.6786 31.6567C41.6055 31.6873 41.527 31.703 41.4477 31.7029C41.3685 31.7026 41.2901 31.6869 41.2168 31.6567C41.1459 31.6258 41.0806 31.5832 41.0237 31.5308C40.9732 31.4754 40.9308 31.4132 40.8977 31.346C40.8671 31.2729 40.8514 31.1944 40.8515 31.1151V26.4128C40.8562 26.3457 40.8689 26.2795 40.8893 26.2154C40.9102 26.1477 40.9445 26.0849 40.9901 26.0307C41.0401 25.9726 41.1016 25.9255 41.1706 25.8922C41.2582 25.8548 41.3526 25.8362 41.4477 25.8376H44.4245Z" fill="white"/>
<path d="M47.9554 31.703C47.8076 31.689 47.6694 31.6236 47.5649 31.5182C47.51 31.4636 47.4674 31.3979 47.4399 31.3255C47.4124 31.2531 47.4006 31.1757 47.4053 31.0984V26.4338C47.4057 26.3546 47.4214 26.2762 47.4515 26.2029C47.4836 26.1339 47.5261 26.0701 47.5775 26.014C47.6331 25.9589 47.6987 25.9147 47.7706 25.8838C47.8439 25.8537 47.9223 25.838 48.0015 25.8376H51.0832C51.1625 25.8375 51.241 25.8532 51.3142 25.8838C51.3843 25.9158 51.4482 25.9599 51.5031 26.014C51.5546 26.0692 51.5958 26.1332 51.6249 26.2029C51.655 26.2762 51.6707 26.3546 51.671 26.4338C51.6711 26.5131 51.6554 26.5916 51.6249 26.6647C51.5959 26.7358 51.5547 26.8011 51.5031 26.8579C51.4491 26.912 51.3849 26.9548 51.3142 26.9838C51.241 27.0144 51.1625 27.0301 51.0832 27.03H48.5977V28.0922H50.5752C50.6542 28.0908 50.7327 28.1051 50.8061 28.1342C50.878 28.1672 50.9434 28.2127 50.9993 28.2686C51.0544 28.3233 51.0974 28.3892 51.1252 28.4617C51.1554 28.5364 51.1711 28.6162 51.1714 28.6968C51.1727 28.7748 51.1581 28.8523 51.1285 28.9244C51.0989 28.9966 51.0549 29.062 50.9993 29.1167C50.9429 29.1688 50.8774 29.21 50.8061 29.2384C50.733 29.269 50.6545 29.2847 50.5752 29.2846H48.5977V30.5148H51.0832C51.162 30.5136 51.2401 30.529 51.3125 30.5601C51.3848 30.5912 51.4498 30.6373 51.5031 30.6953C51.6102 30.809 51.6702 30.959 51.671 31.1152C51.6711 31.1945 51.6554 31.273 51.6249 31.3461C51.5958 31.4158 51.5546 31.4798 51.5031 31.535C51.4491 31.5892 51.3849 31.632 51.3142 31.661C51.2407 31.6901 51.1622 31.7044 51.0832 31.703H47.9554Z" fill="white"/>
<path d="M54.799 31.703C54.6512 31.689 54.513 31.6236 54.4085 31.5182C54.353 31.4641 54.3099 31.3984 54.2824 31.3259C54.2548 31.2534 54.2434 31.1757 54.249 31.0984V26.4338C54.2493 26.3546 54.265 26.2762 54.2952 26.2029C54.3242 26.1322 54.367 26.068 54.4211 26.014C54.476 25.9599 54.54 25.9158 54.6101 25.8838C54.6847 25.8532 54.7645 25.8375 54.8452 25.8376H57.9269C58.0062 25.8375 58.0847 25.8532 58.1578 25.8838C58.2272 25.9149 58.29 25.9591 58.3425 26.014C58.3953 26.069 58.438 26.133 58.4685 26.2029C58.4987 26.2762 58.5144 26.3546 58.5147 26.4338C58.5148 26.5131 58.4991 26.5916 58.4685 26.6647C58.438 26.7359 58.3954 26.8013 58.3425 26.8579C58.2909 26.9129 58.2278 26.9558 58.1578 26.9838C58.0847 27.0144 58.0062 27.0301 57.9269 27.03H55.454V28.0922H57.4315C57.5104 28.0911 57.5889 28.1054 57.6624 28.1342C57.7335 28.1662 57.7977 28.2119 57.8513 28.2686C57.9078 28.3231 57.9521 28.3889 57.9815 28.4617C58.0117 28.5364 58.0273 28.6162 58.0276 28.6968C58.0278 28.7761 58.0121 28.8546 57.9815 28.9277C57.9498 28.9968 57.9057 29.0594 57.8513 29.1125C57.7972 29.1654 57.7329 29.2068 57.6624 29.2342C57.5891 29.2644 57.5107 29.2801 57.4315 29.2804H55.454V30.5106H57.9395C58.0188 30.5105 58.0973 30.5262 58.1704 30.5568C58.2409 30.5878 58.3039 30.6336 58.3551 30.6911C58.4079 30.7462 58.4506 30.8102 58.4811 30.8801C58.5113 30.9548 58.527 31.0346 58.5273 31.1152C58.5274 31.1945 58.5117 31.273 58.4811 31.3461C58.4506 31.416 58.4079 31.48 58.3551 31.535C58.3035 31.59 58.2404 31.633 58.1704 31.661C58.097 31.6901 58.0185 31.7044 57.9395 31.703H54.799Z" fill="white"/>
<path d="M43.0138 20.304L35.9141 11.6928C35.8835 11.6629 35.8555 11.6307 35.8301 11.5963C35.7437 11.4733 35.6974 11.3267 35.6974 11.1764C35.6974 11.0262 35.7437 10.8795 35.8301 10.7566L35.8553 10.7188L35.8889 10.681L43.0263 2.04046C43.1463 1.91538 43.2481 1.77405 43.3286 1.62061C43.4003 1.461 43.4456 1.29086 43.463 1.11678C43.4627 0.837527 43.3571 0.568648 43.1671 0.363927C42.9772 0.159206 42.717 0.033729 42.4386 0.0125732H1.36031C0.999876 0.0136806 0.654515 0.157362 0.399645 0.412231C0.144776 0.667101 0.00110734 1.01245 0 1.37289V20.9506C0.00110734 21.311 0.144776 21.6564 0.399645 21.9112C0.654515 22.1661 0.999876 22.3098 1.36031 22.3109H42.4008C42.6825 22.2874 42.9447 22.1577 43.1342 21.9479C43.3237 21.7381 43.4262 21.4641 43.421 21.1815C43.398 21.0207 43.3528 20.8638 43.2867 20.7154C43.2176 20.5649 43.1256 20.4261 43.0138 20.304Z" fill="#F9A448"/>
<path d="M13.1455 6.06677C12.2428 5.27476 11.0755 4.85071 9.87486 4.87861H5.84428C5.77446 4.87806 5.70521 4.89133 5.64055 4.91767C5.57588 4.944 5.51706 4.98288 5.4675 5.03206C5.41793 5.08124 5.37859 5.13973 5.35174 5.20419C5.3249 5.26865 5.31107 5.33778 5.31108 5.4076V16.794C5.31063 16.8641 5.32413 16.9336 5.3508 16.9985C5.37747 17.0634 5.41677 17.1223 5.46642 17.1718C5.56727 17.271 5.70288 17.3267 5.84428 17.3272H8.22485C8.36626 17.3272 8.50188 17.271 8.60188 17.171C8.70187 17.071 8.75805 16.9354 8.75805 16.794V13.5023H9.98821C11.1468 13.5232 12.2719 13.1133 13.1455 12.352C13.5697 11.9445 13.9071 11.4555 14.1376 10.9144C14.3682 10.3733 14.487 9.79124 14.487 9.20308C14.487 8.61492 14.3682 8.03282 14.1376 7.49172C13.9071 6.95061 13.5697 6.46165 13.1455 6.05419M10.9497 9.19047C10.963 9.34095 10.944 9.49256 10.8939 9.63507C10.8438 9.77759 10.7637 9.9077 10.6591 10.0167C10.5545 10.1257 10.4277 10.211 10.2874 10.2669C10.1471 10.3228 9.99637 10.348 9.84546 10.3409H8.76225V8.04008H9.84546C9.99654 8.03219 10.1476 8.05693 10.2882 8.1126C10.4289 8.16827 10.5559 8.25359 10.6607 8.36273C10.7654 8.47188 10.8455 8.60229 10.8953 8.74512C10.9452 8.88795 10.9637 9.03984 10.9497 9.19047Z" fill="white"/>
<path d="M19.7665 5.33213V16.8067C19.7665 16.9481 19.7104 17.0837 19.6104 17.1837C19.5104 17.2837 19.3748 17.3399 19.2333 17.3399H16.8528C16.7121 17.3388 16.5775 17.2821 16.4785 17.1822C16.3794 17.0824 16.3238 16.9474 16.3238 16.8067V5.34474C16.3248 5.2051 16.3802 5.07134 16.4782 4.97181C16.5761 4.87228 16.709 4.81479 16.8486 4.81152H18.041H19.2333C19.373 4.81479 19.5058 4.87228 19.6038 4.97181C19.7017 5.07134 19.7571 5.2051 19.7582 5.34474" fill="white"/>
<path d="M32.2782 16.4456L29.3728 12.9315C29.9058 12.6424 30.3699 12.2414 30.7331 11.7559C31.2627 11.013 31.5395 10.1196 31.5224 9.20739C31.5327 8.61994 31.4195 8.03687 31.1902 7.4959C30.961 6.95494 30.6207 6.46809 30.1915 6.06689C29.2894 5.27379 28.1217 4.84959 26.9209 4.87873H22.8945C22.8247 4.87817 22.7554 4.89144 22.6908 4.91778C22.6261 4.94412 22.5673 4.98299 22.5177 5.03217C22.4681 5.08135 22.4288 5.13984 22.4019 5.2043C22.3751 5.26876 22.3613 5.33789 22.3613 5.40772V16.7941C22.3608 16.8642 22.3743 16.9338 22.401 16.9986C22.4277 17.0635 22.467 17.1224 22.5166 17.172C22.618 17.2703 22.7533 17.326 22.8945 17.3273H25.2792C25.3491 17.3273 25.4182 17.3135 25.4827 17.2866C25.5471 17.2598 25.6056 17.2205 25.6548 17.1709C25.704 17.1213 25.7429 17.0625 25.7692 16.9978C25.7955 16.9332 25.8088 16.8639 25.8083 16.7941V13.5696L28.7976 17.13C28.8498 17.1899 28.9143 17.2379 28.9868 17.2705C29.0593 17.3031 29.138 17.3196 29.2175 17.3189H31.8793C31.9808 17.32 32.0804 17.2916 32.1661 17.2372C32.2518 17.1828 32.3199 17.1047 32.3621 17.0124C32.4043 16.9209 32.4204 16.8196 32.4085 16.7195C32.3967 16.6195 32.3574 16.5247 32.295 16.4456M28.0083 9.19058C28.0216 9.34106 28.0026 9.49267 27.9525 9.63519C27.9024 9.7777 27.8223 9.90782 27.7177 10.0168C27.6131 10.1258 27.4863 10.2111 27.346 10.267C27.2057 10.323 27.055 10.3482 26.9041 10.341H25.8167V8.04019H26.9041C27.0552 8.03231 27.2062 8.05704 27.3468 8.11271C27.4875 8.16839 27.6145 8.2537 27.7193 8.36285C27.824 8.47199 27.9041 8.6024 27.954 8.74523C28.0038 8.88806 28.0224 9.03995 28.0083 9.19058Z" fill="white"/>
<path d="M44.7184 15.3707C44.5049 15.3542 44.3048 15.2601 44.1558 15.1062C44.0794 15.0299 44.0195 14.9387 43.9798 14.8384C43.9401 14.738 43.9214 14.6305 43.9249 14.5226V7.77142C43.9252 7.65616 43.948 7.54207 43.9921 7.43554C44.0357 7.33468 44.0969 7.24232 44.1726 7.16266C44.2507 7.08197 44.3452 7.01897 44.4497 6.97792C44.5558 6.93269 44.6702 6.90981 44.7856 6.91073H49.2318C49.3472 6.90906 49.4617 6.93197 49.5677 6.97792C49.6697 7.01909 49.7614 7.08215 49.8364 7.16266C49.9108 7.24249 49.9705 7.33487 50.0127 7.43554C50.0569 7.54127 50.0797 7.65472 50.0797 7.76932C50.0797 7.88392 50.0569 7.9974 50.0127 8.10312C49.9705 8.20379 49.9108 8.29617 49.8364 8.37601C49.7614 8.45651 49.6697 8.51957 49.5677 8.56074C49.4617 8.60669 49.3472 8.6296 49.2318 8.62793H45.6463V10.1604H48.5013C48.6152 10.1556 48.7287 10.1772 48.8329 10.2234C48.9356 10.2676 49.0283 10.3318 49.1058 10.4123C49.1866 10.4919 49.2496 10.5878 49.2906 10.6936C49.3358 10.8012 49.3587 10.9169 49.3578 11.0337C49.3595 11.1478 49.3366 11.2609 49.2906 11.3653C49.2471 11.4661 49.1844 11.5574 49.1058 11.6341C49.0278 11.7107 48.9349 11.7707 48.8329 11.8104C48.7275 11.8526 48.6148 11.874 48.5013 11.8734H45.6463V13.6493H49.2318C49.3449 13.6498 49.4568 13.6731 49.5607 13.7178C49.6645 13.7625 49.7583 13.8278 49.8364 13.9096C49.9109 13.991 49.9706 14.0848 50.0127 14.1868C50.0563 14.2934 50.0791 14.4074 50.0799 14.5226C50.0796 14.6379 50.0567 14.752 50.0127 14.8585C49.9705 14.9579 49.9108 15.0489 49.8364 15.1272C49.7589 15.2087 49.6649 15.2727 49.5606 15.3147C49.4562 15.3567 49.3441 15.3758 49.2318 15.3707H44.7184Z" fill="white"/>
<path d="M54.4463 9.91688L56.873 7.20884C56.9431 7.12315 57.0304 7.05307 57.1291 7.00311C57.2219 6.9554 57.3232 6.92683 57.4272 6.91914C57.5309 6.9088 57.6356 6.92169 57.7337 6.95691C57.8385 6.99407 57.9343 7.05272 58.015 7.12906C58.1016 7.20497 58.1716 7.29784 58.2208 7.40195C58.2715 7.50186 58.3017 7.61092 58.3096 7.72268C58.3176 7.83445 58.3031 7.94667 58.2669 8.05274C58.2321 8.1635 58.1733 8.26525 58.0948 8.35082L55.5757 11.1806L58.0486 13.9432C58.1277 14.0306 58.1903 14.1316 58.2333 14.2413C58.2711 14.3465 58.291 14.4571 58.2921 14.5688C58.2934 14.6775 58.2705 14.785 58.225 14.8837C58.18 14.9868 58.1126 15.0787 58.0276 15.1524C57.9032 15.2678 57.7468 15.3429 57.5789 15.3676C57.411 15.3923 57.2396 15.3656 57.0872 15.291C56.9854 15.24 56.8942 15.1702 56.8185 15.0852L54.4463 12.4402L52.0951 15.0852C52.0179 15.1704 51.9253 15.2401 51.8222 15.291C51.7213 15.3365 51.6134 15.3648 51.5031 15.3749C51.3935 15.3784 51.2841 15.3628 51.1799 15.3287C51.0717 15.2903 50.9722 15.2308 50.8872 15.1537C50.8022 15.0766 50.7333 14.9834 50.6844 14.8795C50.6431 14.7811 50.6217 14.6755 50.6214 14.5688C50.62 14.3369 50.7071 14.1132 50.865 13.9432L53.3295 11.1806L50.8104 8.35082C50.7319 8.26525 50.6731 8.1635 50.6382 8.05274C50.6015 7.94627 50.5872 7.83332 50.5963 7.72104C50.6053 7.61008 50.6353 7.50183 50.6844 7.40195C50.7336 7.29784 50.8036 7.20497 50.8902 7.12906C50.9717 7.0517 51.0691 6.99295 51.1757 6.95691C51.2737 6.92141 51.3784 6.90851 51.4821 6.91914C51.5861 6.92683 51.6875 6.9554 51.7802 7.00311C51.8809 7.05388 51.9708 7.12375 52.0447 7.20884L54.4463 9.91688Z" fill="white"/>
<path d="M62.4654 6.91078C62.8982 6.90671 63.3271 6.99251 63.725 7.16271C64.4936 7.48784 65.1072 8.09691 65.438 8.8631C65.6082 9.261 65.694 9.6899 65.6899 10.1227C65.6952 10.5555 65.6094 10.9847 65.438 11.3822C65.2736 11.7605 65.0385 12.104 64.7452 12.394C64.4508 12.6827 64.1047 12.9135 63.725 13.0742C63.3271 13.2444 62.8982 13.3302 62.4654 13.3261H60.912V14.5479C60.913 14.6629 60.8916 14.7769 60.849 14.8838C60.8038 14.9846 60.7396 15.0758 60.6601 15.1525C60.5802 15.2269 60.4878 15.2866 60.3872 15.3288C60.2827 15.3748 60.1696 15.3977 60.0555 15.396C59.94 15.3977 59.8255 15.3747 59.7196 15.3288C59.6195 15.2856 59.5273 15.226 59.4467 15.1525C59.3671 15.0767 59.3042 14.9852 59.262 14.8838C59.216 14.7778 59.1931 14.6633 59.1948 14.5479V7.77147C59.1931 7.65602 59.216 7.54153 59.262 7.4356C59.3041 7.33288 59.367 7.23998 59.4467 7.16271C59.5246 7.08371 59.6173 7.02092 59.7196 6.97797C59.8255 6.93203 59.94 6.90911 60.0555 6.91078H62.4654ZM60.912 8.62799V11.5669H62.499C62.6944 11.5667 62.8875 11.5252 63.0658 11.4452C63.2403 11.3681 63.3985 11.2583 63.5318 11.1219C63.667 10.9875 63.7766 10.8295 63.8551 10.6558C63.9342 10.4804 63.9743 10.2899 63.9727 10.0975C63.9728 9.90338 63.9313 9.71151 63.8509 9.53485C63.7712 9.35933 63.6618 9.19883 63.5277 9.06042C63.3915 8.92433 63.2323 8.81347 63.0574 8.73295C62.882 8.6534 62.6917 8.61189 62.499 8.61118L60.912 8.62799Z" fill="white"/>
<path d="M70.6442 6.85197C71.0316 6.84969 71.4175 6.90198 71.7904 7.00731C72.1484 7.10297 72.4927 7.24406 72.8148 7.42716C73.1355 7.60974 73.4294 7.83582 73.6881 8.09894C73.9502 8.35803 74.1775 8.65019 74.3641 8.96804C74.5454 9.29255 74.6863 9.63799 74.7839 9.99668C74.8869 10.3686 74.9392 10.7527 74.9393 11.1387C74.944 11.716 74.8282 12.288 74.5992 12.8181C74.3789 13.3274 74.064 13.7905 73.6713 14.1826C73.2792 14.5751 72.8142 14.8874 72.3026 15.1021C71.7715 15.3277 71.2003 15.444 70.6232 15.444C70.0461 15.444 69.4749 15.3277 68.9438 15.1021C68.4347 14.8873 67.9725 14.5749 67.5835 14.1826C67.1959 13.7897 66.8867 13.3266 66.6724 12.8181C66.4477 12.287 66.3348 11.7153 66.3407 11.1387C66.3381 10.7531 66.3875 10.369 66.4877 9.99668C66.5851 9.63795 66.7261 9.2925 66.9075 8.96804C67.2779 8.33166 67.8056 7.80107 68.44 7.42716C68.7621 7.24406 69.1064 7.10297 69.4644 7.00731C69.8481 6.89869 70.2455 6.84637 70.6442 6.85197ZM70.6442 8.56917C70.2989 8.56596 69.9569 8.63607 69.6407 8.77489C69.3339 8.90374 69.0556 9.0921 68.822 9.3291C68.5908 9.56571 68.4057 9.84337 68.2762 10.1478C68.1411 10.465 68.0725 10.8065 68.0747 11.1513C68.0709 11.8377 68.3397 12.4976 68.822 12.986C69.0619 13.2237 69.3463 13.4117 69.659 13.5392C69.9717 13.6668 70.3065 13.7313 70.6442 13.7291C71.3288 13.7339 71.9872 13.4666 72.4747 12.986C72.7104 12.7513 72.8986 12.4733 73.0289 12.1673C73.1628 11.8453 73.2314 11.5 73.2305 11.1513C73.2306 10.8067 73.1621 10.4656 73.0289 10.1478C72.8964 9.84298 72.7085 9.56538 72.4747 9.3291C72.2338 9.09118 71.9485 8.90288 71.635 8.77489C71.3251 8.63988 70.9907 8.56986 70.6526 8.56917H70.6442Z" fill="white"/>
</g>
<defs>
<clipPath id="clip0_24_129">
<rect width="76.5935" height="33.29" fill="white"/>
</clipPath>
</defs>
</svg>
