<svg width="56" height="25" viewBox="0 0 56 25" fill="none" xmlns="http://www.w3.org/2000/svg">
<g clip-path="url(#clip0_376_687)">
<path d="M54.6201 17.7452H1.51795C1.07407 17.7452 0.714233 18.1051 0.714233 18.549V23.6891C0.714233 24.133 1.07407 24.4928 1.51795 24.4928H54.6201C55.064 24.4928 55.4239 24.133 55.4239 23.6891V18.549C55.4239 18.1051 55.064 17.7452 54.6201 17.7452Z" fill="#F9A448"/>
<path d="M17.2624 19.7695C17.3031 19.8064 17.334 19.8528 17.3524 19.9045C17.3885 20.0012 17.3885 20.1077 17.3524 20.2044C17.334 20.257 17.3031 20.3043 17.2624 20.3423C17.2229 20.3834 17.1748 20.4152 17.1215 20.4353C17.0702 20.4568 17.0152 20.4681 16.9595 20.4683C16.9052 20.4713 16.8509 20.4621 16.8006 20.4413C16.7487 20.4229 16.7016 20.3932 16.6626 20.3543C16.5439 20.225 16.3986 20.1227 16.2368 20.0544C16.0824 19.9923 15.9174 19.9607 15.751 19.9615C15.5839 19.9603 15.4184 19.994 15.2651 20.0604C15.1143 20.124 14.9769 20.2156 14.8603 20.3303C14.62 20.5685 14.4831 20.8917 14.4794 21.23C14.4793 21.3967 14.5119 21.5617 14.5754 21.7159C14.6368 21.8673 14.7263 22.0057 14.8393 22.1237C14.9528 22.2418 15.0883 22.3365 15.2381 22.4026C15.3954 22.4742 15.5662 22.5111 15.739 22.5106C15.9031 22.5139 16.0663 22.4843 16.2188 22.4236C16.3822 22.3535 16.5301 22.2516 16.6536 22.1237C16.6921 22.0842 16.7394 22.0544 16.7916 22.0367C16.8427 22.0188 16.8964 22.0097 16.9505 22.0097C17.0056 22.0099 17.0603 22.0191 17.1125 22.0367C17.1638 22.0548 17.2108 22.0834 17.2504 22.1207C17.2892 22.1621 17.3206 22.2098 17.3434 22.2617C17.3623 22.3126 17.3724 22.3663 17.3734 22.4206C17.3737 22.476 17.3635 22.5309 17.3434 22.5826C17.3249 22.6335 17.2952 22.6796 17.2564 22.7175C17.0528 22.9226 16.8101 23.0847 16.5427 23.1943C16.285 23.2969 16.0103 23.3498 15.733 23.3503C15.4533 23.3514 15.1765 23.2942 14.9203 23.1823C14.6699 23.0752 14.4427 22.9204 14.2515 22.7265C14.0581 22.532 13.9043 22.3019 13.7986 22.0487C13.6138 21.6156 13.58 21.1329 13.7027 20.6782C13.7495 20.5025 13.818 20.3332 13.9066 20.1744C13.9941 20.0153 14.1031 19.8689 14.2305 19.7395C14.3553 19.6061 14.4975 19.4901 14.6533 19.3947C14.8147 19.2974 14.9881 19.2218 15.1692 19.1698C15.3594 19.116 15.5563 19.0898 15.754 19.0918C16.0281 19.0918 16.2998 19.1437 16.5547 19.2447C16.8199 19.3538 17.0606 19.5149 17.2624 19.7186" fill="white"/>
<path d="M21.2179 19.1429C21.4084 19.1417 21.5981 19.1669 21.7817 19.2178C21.9603 19.2674 22.1316 19.34 22.2915 19.4338C22.4497 19.5237 22.595 19.6346 22.7233 19.7637C22.851 19.8939 22.9627 20.0389 23.0562 20.1955C23.1495 20.3556 23.222 20.5269 23.2721 20.7053C23.4023 21.1668 23.3705 21.6589 23.1822 22.0998C22.963 22.609 22.5558 23.0139 22.0456 23.2304C21.7832 23.3412 21.5012 23.3983 21.2164 23.3983C20.9315 23.3983 20.6496 23.3412 20.3872 23.2304C20.1357 23.1236 19.9075 22.9688 19.7154 22.7746C19.5233 22.5802 19.3697 22.3513 19.2626 22.0998C19.0795 21.6577 19.0479 21.1674 19.1726 20.7053C19.2695 20.35 19.4565 20.0256 19.7154 19.7637C19.8427 19.6347 19.987 19.5238 20.1442 19.4338C20.303 19.34 20.4734 19.2674 20.6511 19.2178C20.8356 19.1668 21.0264 19.1415 21.2179 19.1429ZM21.2179 19.9916C21.0466 19.9896 20.8768 20.0244 20.72 20.0936C20.568 20.1574 20.4303 20.2513 20.3152 20.3694C20.079 20.6096 19.9456 20.9323 19.9433 21.2691C19.9432 21.4412 19.9779 21.6116 20.0453 21.7699C20.1081 21.9212 20.1998 22.0587 20.3152 22.1748C20.4297 22.2922 20.5677 22.3841 20.72 22.4447C21.0388 22.5767 21.3969 22.5767 21.7157 22.4447C21.8687 22.3837 22.0076 22.2918 22.1235 22.1748C22.2717 22.0264 22.3812 21.8438 22.4423 21.6432C22.5034 21.4426 22.5143 21.23 22.474 21.0242C22.4337 20.8184 22.3435 20.6256 22.2113 20.4628C22.0791 20.3 21.9089 20.1722 21.7157 20.0905C21.5589 20.0214 21.3892 19.9866 21.2179 19.9886" fill="white"/>
<path d="M27.7646 19.1697C27.8213 19.1697 27.8773 19.1809 27.9296 19.2027C27.9801 19.2248 28.0259 19.2564 28.0645 19.2957C28.1013 19.3351 28.1308 19.3808 28.1515 19.4306C28.173 19.483 28.1842 19.539 28.1845 19.5956C28.1846 19.6522 28.1733 19.7083 28.1515 19.7605C28.1301 19.8109 28.1007 19.8575 28.0645 19.8985C28.0265 19.9378 27.9805 19.9685 27.9296 19.9884C27.8773 20.0103 27.8213 20.0215 27.7646 20.0214H26.0642V20.9631H27.3388C27.3967 20.9628 27.454 20.9751 27.5067 20.9991C27.5569 21.023 27.6026 21.0555 27.6417 21.095C27.6811 21.1342 27.7117 21.1812 27.7316 21.233C27.7544 21.286 27.7656 21.3433 27.7646 21.4009C27.7662 21.4577 27.7549 21.5141 27.7316 21.5659C27.7109 21.6155 27.6803 21.6604 27.6417 21.6978C27.6021 21.7337 27.5564 21.7622 27.5067 21.7818C27.4533 21.8034 27.3963 21.8146 27.3388 21.8148H26.0642V22.9394C26.0643 22.996 26.0531 23.0521 26.0312 23.1043C26.0112 23.1544 25.9805 23.1994 25.9413 23.2363C25.9009 23.2727 25.8554 23.303 25.8063 23.3263C25.6987 23.3703 25.5781 23.3703 25.4704 23.3263C25.4211 23.3034 25.3756 23.273 25.3355 23.2363C25.2994 23.1967 25.2692 23.1523 25.2455 23.1043C25.2237 23.0521 25.2124 22.996 25.2125 22.9394V19.5806C25.2158 19.5327 25.2249 19.4854 25.2395 19.4396C25.2551 19.3892 25.281 19.3427 25.3156 19.3029C25.3502 19.2631 25.3927 19.2311 25.4404 19.2087C25.503 19.182 25.5704 19.1687 25.6384 19.1697H27.7646Z" fill="white"/>
<path d="M32.446 19.1697C32.5026 19.1697 32.5587 19.1809 32.611 19.2027C32.6605 19.2249 32.7054 19.2564 32.7429 19.2957C32.7816 19.3342 32.8122 19.3801 32.8329 19.4306C32.8544 19.483 32.8656 19.539 32.8659 19.5956C32.8659 19.6522 32.8547 19.7083 32.8329 19.7605C32.8115 19.8116 32.781 19.8583 32.7429 19.8985C32.706 19.9377 32.661 19.9684 32.611 19.9884C32.5587 20.0103 32.5026 20.0215 32.446 20.0214H30.7456V20.9631H32.0232C32.0801 20.9629 32.1364 20.9752 32.1881 20.9991C32.2383 21.023 32.284 21.0555 32.3231 21.095C32.3625 21.1342 32.3931 21.1812 32.413 21.233C32.4343 21.2865 32.4455 21.3434 32.446 21.4009C32.4461 21.4576 32.4349 21.5136 32.413 21.5659C32.3923 21.6155 32.3617 21.6604 32.3231 21.6978C32.2835 21.7337 32.2378 21.7622 32.1881 21.7818C32.1358 21.8033 32.0798 21.8146 32.0232 21.8148H30.7456V22.9394C30.7457 22.996 30.7345 23.0521 30.7126 23.1043C30.6926 23.1544 30.6619 23.1994 30.6227 23.2363C30.5817 23.2734 30.5352 23.3038 30.4847 23.3263C30.4325 23.3481 30.3764 23.3593 30.3198 23.3592C30.2632 23.359 30.2072 23.3478 30.1548 23.3263C30.1042 23.3041 30.0575 23.2737 30.0169 23.2363C29.9808 23.1967 29.9506 23.1523 29.9269 23.1043C29.9051 23.0521 29.8938 22.996 29.8939 22.9394V19.5806C29.8972 19.5327 29.9063 19.4854 29.9209 19.4396C29.9358 19.3913 29.9603 19.3464 29.9929 19.3077C30.0286 19.2662 30.0725 19.2325 30.1218 19.2087C30.1844 19.182 30.2518 19.1687 30.3198 19.1697H32.446Z" fill="white"/>
<path d="M34.9682 23.3593C34.8626 23.3493 34.7639 23.3026 34.6893 23.2274C34.6501 23.1883 34.6197 23.1414 34.6 23.0897C34.5804 23.038 34.5719 22.9827 34.5753 22.9275V19.5956C34.5755 19.539 34.5867 19.483 34.6083 19.4307C34.6312 19.3814 34.6615 19.3359 34.6983 19.2958C34.738 19.2564 34.7848 19.2249 34.8362 19.2028C34.8886 19.1812 34.9446 19.17 35.0012 19.1698H37.2024C37.259 19.1697 37.3151 19.1809 37.3673 19.2028C37.4174 19.2256 37.4631 19.2571 37.5023 19.2958C37.5391 19.3352 37.5685 19.3809 37.5892 19.4307C37.6108 19.483 37.622 19.539 37.6222 19.5956C37.6223 19.6523 37.6111 19.7083 37.5892 19.7606C37.5686 19.8113 37.5391 19.858 37.5023 19.8985C37.4637 19.9372 37.4178 19.9678 37.3673 19.9885C37.3151 20.0104 37.259 20.0216 37.2024 20.0215H35.427V20.7802H36.8395C36.8959 20.7792 36.952 20.7894 37.0044 20.8102C37.0558 20.8338 37.1025 20.8663 37.1424 20.9062C37.1818 20.9453 37.2125 20.9923 37.2324 21.0441C37.2539 21.0975 37.2651 21.1545 37.2654 21.2121C37.2663 21.2678 37.2558 21.3231 37.2347 21.3747C37.2136 21.4262 37.1822 21.4729 37.1424 21.512C37.1021 21.5492 37.0554 21.5787 37.0044 21.5989C36.9522 21.6208 36.8961 21.632 36.8395 21.6319H35.427V22.5106H37.2024C37.2586 22.5097 37.3144 22.5208 37.3661 22.543C37.4178 22.5652 37.4642 22.5981 37.5023 22.6396C37.5788 22.7208 37.6216 22.8279 37.6222 22.9395C37.6223 22.9961 37.6111 23.0522 37.5892 23.1044C37.5685 23.1542 37.5391 23.1999 37.5023 23.2394C37.4637 23.278 37.4178 23.3086 37.3673 23.3293C37.3149 23.3502 37.2588 23.3603 37.2024 23.3593H34.9682Z" fill="white"/>
<path d="M39.8564 23.3593C39.7508 23.3493 39.6521 23.3026 39.5775 23.2274C39.5378 23.1887 39.507 23.1418 39.4874 23.09C39.4677 23.0382 39.4595 22.9827 39.4635 22.9275V19.5956C39.4637 19.539 39.4749 19.483 39.4965 19.4307C39.5172 19.3802 39.5478 19.3343 39.5865 19.2958C39.6257 19.2571 39.6713 19.2256 39.7214 19.2028C39.7747 19.1809 39.8317 19.1697 39.8893 19.1698H42.0906C42.1472 19.1697 42.2033 19.1809 42.2555 19.2028C42.3051 19.2249 42.3499 19.2565 42.3875 19.2958C42.4252 19.3351 42.4556 19.3808 42.4774 19.4307C42.499 19.483 42.5102 19.539 42.5104 19.5956C42.5105 19.6523 42.4993 19.7083 42.4774 19.7606C42.4557 19.8114 42.4252 19.8581 42.3875 19.8985C42.3506 19.9378 42.3055 19.9685 42.2555 19.9885C42.2033 20.0104 42.1472 20.0216 42.0906 20.0215H40.3242V20.7802H41.7367C41.7931 20.7794 41.8491 20.7896 41.9016 20.8102C41.9525 20.8331 41.9983 20.8657 42.0366 20.9062C42.0769 20.9451 42.1086 20.9921 42.1296 21.0441C42.1511 21.0975 42.1623 21.1545 42.1625 21.2121C42.1626 21.2687 42.1514 21.3248 42.1296 21.377C42.1069 21.4263 42.0754 21.4711 42.0366 21.509C41.9979 21.5467 41.952 21.5763 41.9016 21.5959C41.8493 21.6175 41.7933 21.6287 41.7367 21.6289H40.3242V22.5076H42.0996C42.1562 22.5075 42.2123 22.5188 42.2645 22.5406C42.3149 22.5628 42.3599 22.5955 42.3965 22.6366C42.4342 22.6759 42.4646 22.7216 42.4864 22.7715C42.508 22.8249 42.5192 22.8819 42.5194 22.9395C42.5195 22.9961 42.5083 23.0522 42.4864 23.1044C42.4646 23.1543 42.4342 23.2 42.3965 23.2394C42.3596 23.2786 42.3145 23.3093 42.2645 23.3293C42.2121 23.3502 42.156 23.3603 42.0996 23.3593H39.8564Z" fill="white"/>
<path d="M31.4386 15.2173L26.3674 9.06643C26.3456 9.04509 26.3255 9.02203 26.3074 8.99746C26.2457 8.90963 26.2126 8.8049 26.2126 8.69757C26.2126 8.59024 26.2457 8.48551 26.3074 8.39768L26.3254 8.37068L26.3494 8.34368L31.4476 2.17188C31.5333 2.08254 31.606 1.98158 31.6635 1.87199C31.7147 1.75798 31.7471 1.63645 31.7595 1.51211C31.7593 1.31264 31.6838 1.12059 31.5482 0.974356C31.4125 0.828126 31.2266 0.7385 31.0277 0.723389H1.68613C1.42867 0.72418 1.18199 0.826809 0.999939 1.00886C0.817889 1.19091 0.715268 1.43759 0.714478 1.69504V15.6791C0.715268 15.9365 0.817889 16.1832 0.999939 16.3653C1.18199 16.5473 1.42867 16.6499 1.68613 16.6507H31.0007C31.202 16.634 31.3893 16.5413 31.5246 16.3915C31.66 16.2416 31.7332 16.0459 31.7295 15.844C31.7131 15.7292 31.6808 15.6171 31.6335 15.5111C31.5842 15.4036 31.5185 15.3045 31.4386 15.2173Z" fill="#F9A448"/>
<path d="M10.104 5.04773C9.45915 4.482 8.62536 4.17912 7.76779 4.19904H4.8888C4.83893 4.19865 4.78947 4.20813 4.74328 4.22694C4.69709 4.24575 4.65508 4.27352 4.61967 4.30865C4.58426 4.34378 4.55617 4.38556 4.53699 4.4316C4.51781 4.47764 4.50794 4.52702 4.50794 4.5769V12.71C4.50762 12.7601 4.51726 12.8098 4.53631 12.8561C4.55536 12.9025 4.58344 12.9445 4.6189 12.9799C4.69093 13.0507 4.7878 13.0905 4.8888 13.0909H6.58921C6.69022 13.0909 6.78709 13.0508 6.85851 12.9793C6.92994 12.9079 6.97007 12.811 6.97007 12.71V10.3589H7.84875C8.67632 10.3738 9.47997 10.081 10.104 9.53715C10.4069 9.2461 10.648 8.89685 10.8126 8.51035C10.9773 8.12384 11.0622 7.70806 11.0622 7.28795C11.0622 6.86783 10.9773 6.45205 10.8126 6.06555C10.648 5.67904 10.4069 5.32979 10.104 5.03874M8.53551 7.27894C8.54506 7.38643 8.53147 7.49472 8.49567 7.59652C8.45986 7.69831 8.40268 7.79125 8.32795 7.8691C8.25323 7.94695 8.16271 8.0079 8.06246 8.04784C7.96222 8.08778 7.85458 8.10578 7.74679 8.10065H6.97307V6.45724H7.74679C7.85471 6.4516 7.96257 6.46927 8.06305 6.50904C8.16353 6.5488 8.25426 6.60974 8.32909 6.6877C8.40392 6.76566 8.46109 6.85881 8.49671 6.96083C8.53233 7.06286 8.54556 7.17135 8.53551 7.27894Z" fill="white"/>
<path d="M14.8332 4.52299V12.7191C14.8332 12.8201 14.793 12.917 14.7216 12.9884C14.6502 13.0598 14.5533 13.1 14.4523 13.1H12.7519C12.6514 13.0992 12.5553 13.0587 12.4845 12.9874C12.4137 12.916 12.374 12.8196 12.374 12.7191V4.53199C12.3748 4.43225 12.4143 4.33671 12.4843 4.26561C12.5543 4.19452 12.6492 4.15346 12.7489 4.15112H13.6006H14.4523C14.552 4.15346 14.6469 4.19452 14.7169 4.26561C14.7869 4.33671 14.8264 4.43225 14.8272 4.53199" fill="white"/>
<path d="M23.77 12.4612L21.6948 9.95109C22.0755 9.74463 22.407 9.45815 22.6664 9.11137C23.0447 8.58076 23.2424 7.94258 23.2302 7.29103C23.2375 6.87142 23.1567 6.45494 22.9929 6.06854C22.8292 5.68213 22.5861 5.33439 22.2795 5.04781C21.6352 4.48131 20.8011 4.17831 19.9434 4.19913H17.0674C17.0175 4.19873 16.9681 4.20821 16.9219 4.22702C16.8757 4.24583 16.8337 4.2736 16.7983 4.30873C16.7629 4.34386 16.7348 4.38564 16.7156 4.43168C16.6964 4.47772 16.6865 4.5271 16.6865 4.57698V12.7101C16.6862 12.7602 16.6959 12.8099 16.7149 12.8562C16.734 12.9025 16.762 12.9446 16.7975 12.98C16.8699 13.0503 16.9665 13.09 17.0674 13.091H18.7708C18.8207 13.091 18.8701 13.0811 18.9161 13.0619C18.9621 13.0427 19.0039 13.0146 19.0391 12.9792C19.0742 12.9438 19.1019 12.9018 19.1208 12.8556C19.1396 12.8094 19.1491 12.76 19.1487 12.7101V10.4069L21.2839 12.95C21.3212 12.9928 21.3673 13.0271 21.4191 13.0504C21.4708 13.0737 21.527 13.0855 21.5838 13.085H23.4851C23.5576 13.0857 23.6288 13.0655 23.69 13.0266C23.7512 12.9878 23.7998 12.932 23.83 12.866C23.8601 12.8007 23.8716 12.7283 23.8632 12.6568C23.8547 12.5854 23.8266 12.5177 23.782 12.4612M20.7201 7.27902C20.7296 7.38651 20.7161 7.4948 20.6803 7.5966C20.6445 7.69839 20.5873 7.79133 20.5125 7.86918C20.4378 7.94703 20.3473 8.00798 20.247 8.04792C20.1468 8.08786 20.0392 8.10586 19.9314 8.10073H19.1547V6.45732H19.9314C20.0393 6.45168 20.1472 6.46935 20.2476 6.50912C20.3481 6.54888 20.4389 6.60982 20.5137 6.68778C20.5885 6.76574 20.6457 6.85889 20.6813 6.96092C20.7169 7.06294 20.7302 7.17143 20.7201 7.27902Z" fill="white"/>
<path d="M32.6561 11.6934C32.5036 11.6816 32.3606 11.6144 32.2542 11.5045C32.1997 11.45 32.1569 11.3849 32.1285 11.3132C32.1002 11.2415 32.0868 11.1647 32.0893 11.0876V6.26535C32.0895 6.18302 32.1058 6.10153 32.1373 6.02544C32.1685 5.9534 32.2121 5.88742 32.2662 5.83052C32.322 5.77289 32.3895 5.72789 32.4641 5.69857C32.54 5.66626 32.6216 5.64991 32.7041 5.65057H35.8799C35.9624 5.64938 36.0442 5.66575 36.1199 5.69857C36.1927 5.72797 36.2582 5.77302 36.3118 5.83052C36.365 5.88754 36.4076 5.95353 36.4377 6.02544C36.4693 6.10096 36.4856 6.18199 36.4856 6.26385C36.4856 6.34571 36.4693 6.42676 36.4377 6.50228C36.4076 6.57419 36.365 6.64018 36.3118 6.6972C36.2582 6.7547 36.1927 6.79975 36.1199 6.82915C36.0442 6.86197 35.9624 6.87834 35.8799 6.87715H33.3188V7.97175H35.3581C35.4395 7.96837 35.5206 7.98377 35.595 8.01674C35.6683 8.04831 35.7346 8.09419 35.79 8.1517C35.8477 8.20858 35.8926 8.27706 35.9219 8.35262C35.9542 8.4295 35.9706 8.51214 35.9699 8.59553C35.9711 8.67704 35.9548 8.75784 35.9219 8.83244C35.8909 8.90443 35.8461 8.96964 35.79 9.02438C35.7342 9.07916 35.6679 9.12201 35.595 9.15033C35.5197 9.18052 35.4393 9.1958 35.3581 9.19532H33.3188V10.4639H35.8799C35.9607 10.4642 36.0406 10.4808 36.1148 10.5128C36.189 10.5447 36.256 10.5913 36.3118 10.6498C36.365 10.7079 36.4076 10.7749 36.4377 10.8477C36.4689 10.9239 36.4852 11.0053 36.4857 11.0876C36.4855 11.17 36.4692 11.2515 36.4377 11.3276C36.4076 11.3986 36.3649 11.4636 36.3118 11.5195C36.2565 11.5777 36.1893 11.6234 36.1148 11.6534C36.0403 11.6834 35.9602 11.6971 35.8799 11.6934H32.6561Z" fill="white"/>
<path d="M39.6043 7.79788L41.3377 5.86356C41.3878 5.80235 41.4501 5.7523 41.5207 5.71661C41.5869 5.68253 41.6593 5.66213 41.7336 5.65663C41.8077 5.64925 41.8824 5.65846 41.9525 5.68361C42.0273 5.71015 42.0958 5.75204 42.1534 5.80658C42.2153 5.86079 42.2653 5.92713 42.3004 6.0015C42.3366 6.07286 42.3582 6.15076 42.3639 6.23059C42.3695 6.31042 42.3592 6.39059 42.3334 6.46635C42.3085 6.54546 42.2665 6.61814 42.2104 6.67926L40.4111 8.70054L42.1774 10.6738C42.2339 10.7363 42.2786 10.8084 42.3094 10.8868C42.3364 10.9619 42.3505 11.0409 42.3514 11.1207C42.3523 11.1983 42.3359 11.2751 42.3034 11.3456C42.2713 11.4193 42.2231 11.4849 42.1624 11.5375C42.0736 11.62 41.9618 11.6736 41.8419 11.6912C41.722 11.7089 41.5995 11.6898 41.4907 11.6365C41.418 11.6001 41.3528 11.5503 41.2987 11.4896L39.6043 9.60022L37.9249 11.4896C37.8698 11.5504 37.8036 11.6002 37.73 11.6365C37.6579 11.669 37.5809 11.6893 37.5021 11.6965C37.4238 11.699 37.3456 11.6878 37.2712 11.6635C37.1939 11.636 37.1229 11.5935 37.0621 11.5385C37.0014 11.4834 36.9522 11.4168 36.9173 11.3426C36.8878 11.2723 36.8725 11.1969 36.8723 11.1207C36.8713 10.955 36.9335 10.7952 37.0463 10.6738L38.8066 8.70054L37.0073 6.67926C36.9512 6.61814 36.9092 6.54546 36.8843 6.46635C36.858 6.3903 36.8478 6.30962 36.8543 6.22942C36.8608 6.15016 36.8822 6.07284 36.9173 6.0015C36.9524 5.92713 37.0024 5.86079 37.0642 5.80658C37.1225 5.75132 37.1921 5.70935 37.2682 5.68361C37.3382 5.65826 37.413 5.64904 37.4871 5.65663C37.5614 5.66213 37.6338 5.68253 37.7 5.71661C37.7719 5.75288 37.8361 5.80278 37.889 5.86356L39.6043 7.79788Z" fill="white"/>
<path d="M45.3326 5.65061C45.6417 5.6477 45.948 5.70899 46.2323 5.83056C46.7813 6.0628 47.2195 6.49784 47.4558 7.04512C47.5774 7.32934 47.6387 7.63569 47.6358 7.94481C47.6395 8.254 47.5782 8.56053 47.4558 8.84449C47.3384 9.11473 47.1705 9.36004 46.961 9.56722C46.7507 9.77344 46.5035 9.93824 46.2323 10.053C45.948 10.1746 45.6417 10.2359 45.3326 10.233H44.223V11.1057C44.2237 11.1878 44.2084 11.2693 44.178 11.3456C44.1457 11.4176 44.0999 11.4828 44.043 11.5375C43.986 11.5907 43.92 11.6333 43.8481 11.6635C43.7735 11.6963 43.6927 11.7127 43.6112 11.7115C43.5287 11.7127 43.4469 11.6963 43.3713 11.6635C43.2997 11.6326 43.2339 11.59 43.1763 11.5375C43.1195 11.4834 43.0745 11.4181 43.0444 11.3456C43.0116 11.2699 42.9952 11.1881 42.9964 11.1057V6.26539C42.9952 6.18292 43.0116 6.10115 43.0444 6.02548C43.0745 5.95211 43.1194 5.88576 43.1763 5.83056C43.232 5.77413 43.2982 5.72928 43.3713 5.6986C43.4469 5.66579 43.5287 5.64942 43.6112 5.65061H45.3326ZM44.223 6.87718V8.97644H45.3566C45.4961 8.97623 45.6341 8.94659 45.7614 8.88946C45.8861 8.83437 45.999 8.75601 46.0943 8.65855C46.1908 8.56253 46.2691 8.44972 46.3252 8.32566C46.3817 8.20034 46.4104 8.06427 46.4092 7.92681C46.4093 7.78818 46.3796 7.65113 46.3222 7.52495C46.2653 7.39957 46.1872 7.28493 46.0913 7.18607C45.994 7.08886 45.8803 7.00967 45.7554 6.95216C45.6301 6.89534 45.4942 6.86569 45.3566 6.86518L44.223 6.87718Z" fill="white"/>
<path d="M51.1744 5.60857C51.4512 5.60694 51.7268 5.64429 51.9931 5.71953C52.2488 5.78785 52.4948 5.88864 52.7249 6.01942C52.9539 6.14983 53.1638 6.31132 53.3486 6.49926C53.5359 6.68433 53.6982 6.89301 53.8315 7.12004C53.961 7.35184 54.0617 7.59858 54.1314 7.85479C54.2049 8.12045 54.2423 8.39483 54.2423 8.67049C54.2457 9.08289 54.163 9.49147 53.9994 9.87006C53.8421 10.2339 53.6172 10.5646 53.3367 10.8447C53.0565 11.1251 52.7245 11.3482 52.359 11.5015C51.9796 11.6627 51.5716 11.7457 51.1594 11.7457C50.7472 11.7457 50.3392 11.6627 49.9598 11.5015C49.5962 11.3481 49.2661 11.125 48.9882 10.8447C48.7113 10.5641 48.4905 10.2333 48.3374 9.87006C48.1769 9.49072 48.0963 9.08237 48.1005 8.67049C48.0986 8.3951 48.1339 8.12073 48.2055 7.85479C48.2751 7.59855 48.3758 7.3518 48.5054 7.12004C48.77 6.66549 49.1469 6.2865 49.6 6.01942C49.8301 5.88864 50.076 5.78785 50.3317 5.71953C50.6058 5.64194 50.8896 5.60457 51.1744 5.60857ZM51.1744 6.83514C50.9278 6.83284 50.6835 6.88293 50.4577 6.98208C50.2385 7.07412 50.0397 7.20866 49.8729 7.37795C49.7077 7.54696 49.5755 7.74528 49.483 7.96274C49.3865 8.18929 49.3375 8.43325 49.3391 8.67949C49.3363 9.16981 49.5283 9.64117 49.8729 9.99003C50.0442 10.1598 50.2474 10.2941 50.4707 10.3852C50.6941 10.4763 50.9332 10.5224 51.1744 10.5208C51.6634 10.5242 52.1337 10.3333 52.482 9.99003C52.6503 9.82237 52.7847 9.6238 52.8778 9.40523C52.9735 9.17526 53.0224 8.92856 53.0218 8.67949C53.0218 8.43339 52.9729 8.18973 52.8778 7.96274C52.7832 7.74501 52.6489 7.54672 52.482 7.37795C52.3099 7.208 52.1061 7.0735 51.8822 6.98208C51.6608 6.88564 51.4219 6.83563 51.1804 6.83514H51.1744Z" fill="white"/>
</g>
<defs>
<clipPath id="clip0_376_687">
<rect width="54.7096" height="23.7786" fill="white" transform="translate(0.714355 0.714355)"/>
</clipPath>
</defs>
</svg>
