<svg width="42" height="18" viewBox="0 0 42 18" fill="none" xmlns="http://www.w3.org/2000/svg">
<g clip-path="url(#clip0_25_6238)">
<path d="M41.2701 12.8027H1.45515C1.12234 12.8027 0.852539 13.0725 0.852539 13.4053V17.2593C0.852539 17.5922 1.12234 17.862 1.45515 17.862H41.2701C41.6029 17.862 41.8727 17.5922 41.8727 17.2593V13.4053C41.8727 13.0725 41.6029 12.8027 41.2701 12.8027Z" fill="#F9A448"/>
<path d="M13.26 14.3205C13.2904 14.3482 13.3136 14.3829 13.3274 14.4217C13.3545 14.4942 13.3545 14.574 13.3274 14.6466C13.3136 14.686 13.2905 14.7215 13.26 14.75C13.2303 14.7808 13.1942 14.8046 13.1543 14.8197C13.1158 14.8358 13.0746 14.8442 13.0328 14.8444C12.9921 14.8467 12.9514 14.8398 12.9137 14.8242C12.8748 14.8104 12.8395 14.7881 12.8102 14.759C12.7212 14.662 12.6123 14.5853 12.4909 14.5341C12.3752 14.4875 12.2515 14.4638 12.1267 14.4644C12.0014 14.4635 11.8774 14.4888 11.7624 14.5386C11.6493 14.5862 11.5463 14.6549 11.4589 14.741C11.2787 14.9195 11.1761 15.1619 11.1733 15.4155C11.1732 15.5405 11.1977 15.6643 11.2453 15.7798C11.2913 15.8933 11.3584 15.9971 11.4431 16.0856C11.5282 16.1741 11.6298 16.2452 11.7422 16.2947C11.8601 16.3484 11.9882 16.3761 12.1177 16.3757C12.2408 16.3782 12.3631 16.356 12.4775 16.3105C12.6 16.2579 12.7108 16.1815 12.8035 16.0856C12.8323 16.056 12.8678 16.0336 12.9069 16.0204C12.9452 16.007 12.9855 16.0001 13.0261 16.0002C13.0674 16.0003 13.1084 16.0071 13.1475 16.0204C13.186 16.0339 13.2213 16.0554 13.251 16.0834C13.28 16.1144 13.3036 16.1501 13.3207 16.189C13.3348 16.2272 13.3424 16.2675 13.3431 16.3082C13.3433 16.3497 13.3357 16.3909 13.3207 16.4296C13.3068 16.4679 13.2845 16.5024 13.2555 16.5308C13.1028 16.6846 12.9208 16.8061 12.7203 16.8883C12.5271 16.9653 12.3211 17.0049 12.1132 17.0053C11.9035 17.0061 11.696 16.9632 11.5038 16.8794C11.3161 16.799 11.1458 16.6829 11.0024 16.5376C10.8574 16.3918 10.7421 16.2192 10.6629 16.0294C10.5243 15.7046 10.499 15.3427 10.5909 15.0018C10.626 14.87 10.6774 14.7431 10.7438 14.6241C10.8094 14.5047 10.8911 14.395 10.9867 14.298C11.0802 14.1979 11.1869 14.111 11.3037 14.0394C11.4247 13.9665 11.5547 13.9098 11.6905 13.8708C11.8331 13.8305 11.9807 13.8108 12.1289 13.8123C12.3345 13.8123 12.5382 13.8512 12.7293 13.927C12.9282 14.0088 13.1086 14.1296 13.26 14.2823" fill="white"/>
<path d="M16.2259 13.8506C16.3688 13.8498 16.511 13.8687 16.6487 13.9068C16.7825 13.944 16.911 13.9984 17.0309 14.0687C17.1495 14.1361 17.2585 14.2193 17.3547 14.3161C17.4504 14.4138 17.5342 14.5224 17.6043 14.6399C17.6742 14.7599 17.7286 14.8884 17.7662 15.0221C17.8638 15.3681 17.8399 15.7371 17.6987 16.0677C17.5344 16.4494 17.2291 16.753 16.8465 16.9154C16.6498 16.9984 16.4384 17.0412 16.2248 17.0412C16.0112 17.0412 15.7998 16.9984 15.6031 16.9154C15.4145 16.8353 15.2435 16.7192 15.0994 16.5736C14.9554 16.4278 14.8402 16.2562 14.7599 16.0677C14.6226 15.7362 14.5989 15.3685 14.6924 15.0221C14.7651 14.7557 14.9053 14.5125 15.0994 14.3161C15.1949 14.2194 15.303 14.1362 15.4209 14.0687C15.54 13.9984 15.6678 13.944 15.8009 13.9068C15.9393 13.8685 16.0823 13.8496 16.2259 13.8506ZM16.2259 14.487C16.0975 14.4855 15.9702 14.5116 15.8527 14.5634C15.7386 14.6113 15.6354 14.6817 15.5491 14.7703C15.372 14.9503 15.272 15.1923 15.2703 15.4448C15.2702 15.5739 15.2962 15.7016 15.3467 15.8203C15.3938 15.9337 15.4626 16.0368 15.5491 16.1239C15.635 16.2119 15.7384 16.2808 15.8527 16.3263C16.0917 16.4252 16.3602 16.4252 16.5992 16.3263C16.7139 16.2805 16.818 16.2117 16.905 16.1239C17.0161 16.0126 17.0981 15.8757 17.144 15.7253C17.1898 15.5749 17.1979 15.4155 17.1677 15.2612C17.1375 15.1069 17.0699 14.9623 16.9708 14.8403C16.8716 14.7182 16.744 14.6224 16.5992 14.5612C16.4817 14.5093 16.3544 14.4833 16.2259 14.4847" fill="white"/>
<path d="M21.1342 13.8709C21.1767 13.8708 21.2187 13.8792 21.2579 13.8956C21.2958 13.9122 21.3301 13.9358 21.3591 13.9653C21.3867 13.9949 21.4087 14.0292 21.4243 14.0665C21.4404 14.1057 21.4488 14.1477 21.449 14.1902C21.4491 14.2326 21.4407 14.2747 21.4243 14.3138C21.4082 14.3516 21.3862 14.3865 21.3591 14.4173C21.3306 14.4468 21.2961 14.4698 21.2579 14.4847C21.2187 14.5011 21.1767 14.5095 21.1342 14.5095H19.8593V15.2155H20.8149C20.8584 15.2153 20.9013 15.2245 20.9408 15.2425C20.9785 15.2604 21.0127 15.2848 21.042 15.3144C21.0716 15.3438 21.0946 15.379 21.1095 15.4179C21.1265 15.4576 21.135 15.5006 21.1342 15.5438C21.1354 15.5864 21.1269 15.6286 21.1095 15.6675C21.094 15.7047 21.071 15.7384 21.042 15.7664C21.0124 15.7933 20.9781 15.8146 20.9408 15.8294C20.9008 15.8455 20.8581 15.8539 20.8149 15.8541H19.8593V16.6973C19.8594 16.7398 19.8509 16.7818 19.8346 16.821C19.8196 16.8585 19.7965 16.8923 19.7671 16.9199C19.7368 16.9472 19.7028 16.9699 19.6659 16.9874C19.5852 17.0204 19.4948 17.0204 19.4141 16.9874C19.3771 16.9702 19.343 16.9474 19.3129 16.9199C19.2859 16.8903 19.2632 16.857 19.2454 16.821C19.2291 16.7818 19.2206 16.7398 19.2207 16.6973V14.1789C19.2232 14.143 19.23 14.1075 19.2409 14.0732C19.2526 14.0355 19.272 14.0006 19.298 13.9707C19.3239 13.9409 19.3558 13.9169 19.3916 13.9001C19.4385 13.8801 19.489 13.8701 19.54 13.8709H21.1342Z" fill="white"/>
<path d="M24.6442 13.8709C24.6867 13.8708 24.7287 13.8792 24.7679 13.8956C24.8051 13.9122 24.8387 13.9359 24.8668 13.9653C24.8958 13.9942 24.9187 14.0286 24.9343 14.0665C24.9504 14.1057 24.9588 14.1477 24.959 14.1902C24.9591 14.2326 24.9507 14.2747 24.9343 14.3138C24.9183 14.3521 24.8954 14.3872 24.8668 14.4173C24.8392 14.4467 24.8054 14.4697 24.7679 14.4847C24.7287 14.5011 24.6867 14.5095 24.6442 14.5095H23.3693V15.2155H24.3272C24.3699 15.2154 24.4121 15.2246 24.4508 15.2425C24.4885 15.2604 24.5227 15.2848 24.552 15.3144C24.5816 15.3438 24.6046 15.379 24.6195 15.4179C24.6355 15.458 24.6438 15.5007 24.6442 15.5438C24.6443 15.5863 24.6359 15.6283 24.6195 15.6675C24.604 15.7047 24.581 15.7384 24.552 15.7664C24.5224 15.7933 24.4881 15.8146 24.4508 15.8294C24.4116 15.8455 24.3696 15.8539 24.3272 15.8541H23.3693V16.6973C23.3694 16.7398 23.361 16.7818 23.3446 16.821C23.3296 16.8585 23.3065 16.8923 23.2771 16.9199C23.2464 16.9477 23.2115 16.9705 23.1737 16.9874C23.1345 17.0037 23.0925 17.0122 23.05 17.0121C23.0076 17.0119 22.9656 17.0035 22.9263 16.9874C22.8884 16.9708 22.8534 16.948 22.8229 16.9199C22.7959 16.8903 22.7732 16.857 22.7554 16.821C22.7391 16.7818 22.7307 16.7398 22.7307 16.6973V14.1789C22.7332 14.143 22.74 14.1075 22.7509 14.0732C22.7621 14.037 22.7805 14.0033 22.8049 13.9743C22.8317 13.9432 22.8646 13.918 22.9016 13.9001C22.9485 13.8801 22.999 13.8701 23.05 13.8709H24.6442Z" fill="white"/>
<path d="M26.5353 17.0121C26.4562 17.0046 26.3822 16.9696 26.3262 16.9131C26.2968 16.8838 26.274 16.8487 26.2593 16.8099C26.2446 16.7711 26.2383 16.7297 26.2408 16.6883V14.1901C26.241 14.1477 26.2494 14.1057 26.2655 14.0665C26.2827 14.0295 26.3054 13.9954 26.333 13.9653C26.3628 13.9358 26.3979 13.9121 26.4364 13.8956C26.4756 13.8794 26.5176 13.871 26.5601 13.8708H28.2105C28.253 13.8708 28.295 13.8792 28.3342 13.8956C28.3717 13.9127 28.406 13.9363 28.4354 13.9653C28.4629 13.9949 28.485 14.0291 28.5006 14.0665C28.5167 14.1057 28.5251 14.1477 28.5253 14.1901C28.5254 14.2326 28.5169 14.2746 28.5006 14.3138C28.4851 14.3518 28.463 14.3868 28.4354 14.4172C28.4064 14.4462 28.372 14.4692 28.3342 14.4847C28.295 14.5011 28.253 14.5095 28.2105 14.5094H26.8794V15.0783H27.9384C27.9807 15.0775 28.0228 15.0852 28.0621 15.1008C28.1006 15.1185 28.1356 15.1428 28.1655 15.1728C28.1951 15.2021 28.2181 15.2373 28.233 15.2762C28.2492 15.3162 28.2576 15.3589 28.2577 15.4021C28.2584 15.4439 28.2506 15.4853 28.2347 15.524C28.2189 15.5627 28.1953 15.5977 28.1655 15.627C28.1353 15.6549 28.1003 15.677 28.0621 15.6922C28.0229 15.7085 27.9809 15.717 27.9384 15.7169H26.8794V16.3757H28.2105C28.2527 16.3751 28.2945 16.3833 28.3333 16.4C28.372 16.4167 28.4068 16.4414 28.4354 16.4724C28.4927 16.5333 28.5248 16.6136 28.5253 16.6973C28.5254 16.7397 28.5169 16.7818 28.5006 16.8209C28.485 16.8583 28.4629 16.8925 28.4354 16.9221C28.4064 16.9511 28.372 16.974 28.3342 16.9896C28.2948 17.0052 28.2528 17.0128 28.2105 17.0121H26.5353Z" fill="white"/>
<path d="M30.2003 17.0121C30.1212 17.0046 30.0472 16.9696 29.9912 16.9131C29.9615 16.8841 29.9384 16.849 29.9237 16.8101C29.9089 16.7713 29.9028 16.7297 29.9058 16.6883V14.1901C29.9059 14.1477 29.9143 14.1057 29.9305 14.0665C29.946 14.0286 29.969 13.9942 29.998 13.9653C30.0273 13.9363 30.0616 13.9127 30.0991 13.8956C30.1391 13.8792 30.1819 13.8708 30.225 13.8708H31.8755C31.9179 13.8708 31.96 13.8792 31.9992 13.8956C32.0363 13.9122 32.0699 13.9359 32.0981 13.9653C32.1264 13.9948 32.1492 14.029 32.1655 14.0665C32.1817 14.1057 32.1901 14.1477 32.1903 14.1901C32.1903 14.2326 32.1819 14.2746 32.1655 14.3138C32.1492 14.3519 32.1264 14.3869 32.0981 14.4172C32.0704 14.4467 32.0367 14.4697 31.9992 14.4847C31.96 14.5011 31.9179 14.5095 31.8755 14.5094H30.5511V15.0783H31.6102C31.6524 15.0777 31.6945 15.0853 31.7338 15.1008C31.7719 15.1179 31.8063 15.1424 31.835 15.1728C31.8653 15.2019 31.889 15.2372 31.9047 15.2762C31.9209 15.3162 31.9293 15.3589 31.9294 15.4021C31.9295 15.4446 31.9211 15.4866 31.9047 15.5258C31.8878 15.5628 31.8641 15.5963 31.835 15.6247C31.806 15.653 31.7716 15.6752 31.7338 15.6899C31.6946 15.7061 31.6526 15.7145 31.6102 15.7147H30.5511V16.3735H31.8822C31.9247 16.3734 31.9667 16.3818 32.0059 16.3982C32.0437 16.4148 32.0774 16.4394 32.1048 16.4702C32.1331 16.4996 32.1559 16.5339 32.1723 16.5714C32.1885 16.6114 32.1969 16.6541 32.197 16.6973C32.1971 16.7397 32.1887 16.7818 32.1723 16.8209C32.1559 16.8584 32.1331 16.8926 32.1048 16.9221C32.0772 16.9516 32.0434 16.9746 32.0059 16.9896C31.9666 17.0052 31.9245 17.0128 31.8822 17.0121H30.2003Z" fill="white"/>
<path d="M23.8888 10.9072L20.0866 6.29548C20.0702 6.27948 20.0552 6.26219 20.0416 6.24377C19.9953 6.17791 19.9705 6.09939 19.9705 6.01892C19.9705 5.93844 19.9953 5.85992 20.0416 5.79406L20.0551 5.77382L20.0731 5.75358L23.8956 1.12609C23.9598 1.0591 24.0143 0.983409 24.0575 0.901234C24.0958 0.815753 24.1201 0.724635 24.1294 0.631407C24.1293 0.481849 24.0727 0.337849 23.971 0.228209C23.8693 0.118569 23.7299 0.0513692 23.5808 0.0400391H1.58106C1.38803 0.0406321 1.20307 0.117582 1.06657 0.254079C0.930075 0.390576 0.853132 0.575529 0.852539 0.768564V11.2535C0.853132 11.4465 0.930075 11.6315 1.06657 11.768C1.20307 11.9045 1.38803 11.9814 1.58106 11.982H23.5606C23.7114 11.9695 23.8519 11.9 23.9534 11.7877C24.0548 11.6753 24.1098 11.5285 24.107 11.3772C24.0946 11.2911 24.0704 11.2071 24.035 11.1276C23.998 11.047 23.9487 10.9726 23.8888 10.9072Z" fill="#F9A448"/>
<path d="M7.89256 3.28241C7.40909 2.85824 6.78394 2.63114 6.14095 2.64608H3.98235C3.94495 2.64578 3.90787 2.65289 3.87323 2.66699C3.8386 2.6811 3.8071 2.70192 3.78055 2.72826C3.75401 2.7546 3.73294 2.78592 3.71856 2.82044C3.70418 2.85496 3.69678 2.89199 3.69678 2.92938V9.02743C3.69654 9.06499 3.70377 9.10223 3.71806 9.13697C3.73234 9.17171 3.75339 9.20327 3.77998 9.2298C3.83399 9.28289 3.90662 9.31275 3.98235 9.313H5.25727C5.33301 9.313 5.40564 9.28292 5.45919 9.22936C5.51275 9.17581 5.54283 9.10316 5.54283 9.02743V7.26458H6.20165C6.82215 7.27577 7.42471 7.05622 7.89256 6.64848C8.11972 6.43026 8.30045 6.1684 8.42391 5.8786C8.54737 5.58881 8.611 5.27707 8.611 4.96207C8.611 4.64708 8.54737 4.33534 8.42391 4.04554C8.30045 3.75575 8.11972 3.49389 7.89256 3.27567M6.71657 4.95532C6.72373 5.03591 6.71354 5.11711 6.6867 5.19343C6.65985 5.26976 6.61698 5.33944 6.56095 5.39781C6.50492 5.45618 6.43705 5.50188 6.36189 5.53183C6.28673 5.56177 6.20602 5.57527 6.12521 5.57142H5.54508V4.33922H6.12521C6.20612 4.335 6.28699 4.34825 6.36233 4.37806C6.43767 4.40788 6.50569 4.45357 6.5618 4.51202C6.61791 4.57048 6.66077 4.64032 6.68748 4.71681C6.71418 4.79331 6.72411 4.87465 6.71657 4.95532Z" fill="white"/>
<path d="M11.4385 2.88892V9.03419C11.4385 9.10993 11.4084 9.18256 11.3549 9.23611C11.3013 9.28967 11.2287 9.31976 11.153 9.31976H9.87804C9.8027 9.31917 9.73064 9.28882 9.67757 9.23533C9.6245 9.18184 9.59472 9.10954 9.59473 9.03419V2.89568C9.59529 2.82089 9.62495 2.74925 9.67741 2.69595C9.72988 2.64265 9.80102 2.61186 9.87579 2.61011H10.5144H11.153C11.2277 2.61186 11.2989 2.64265 11.3514 2.69595C11.4038 2.74925 11.4335 2.82089 11.434 2.89568" fill="white"/>
<path d="M18.1392 8.84087L16.5832 6.95884C16.8687 6.80404 17.1172 6.58925 17.3117 6.32924C17.5954 5.9314 17.7436 5.4529 17.7345 4.96439C17.7399 4.64977 17.6793 4.33751 17.5565 4.04779C17.4338 3.75807 17.2515 3.49733 17.0217 3.28247C16.5385 2.85772 15.9132 2.63053 15.2701 2.64614H13.1137C13.0763 2.64584 13.0392 2.65295 13.0046 2.66705C12.97 2.68116 12.9385 2.70198 12.9119 2.72832C12.8854 2.75466 12.8643 2.78598 12.8499 2.8205C12.8355 2.85502 12.8281 2.89205 12.8281 2.92944V9.02749C12.8279 9.06505 12.8351 9.10229 12.8494 9.13703C12.8637 9.17177 12.8847 9.20333 12.9113 9.22986C12.9656 9.28255 13.0381 9.31234 13.1137 9.31306H14.3909C14.4283 9.31306 14.4653 9.30566 14.4998 9.29128C14.5343 9.2769 14.5657 9.25583 14.592 9.22929C14.6183 9.20274 14.6392 9.17124 14.6533 9.13661C14.6674 9.10197 14.6745 9.06488 14.6742 9.02749V7.30061L16.2751 9.20738C16.3031 9.23949 16.3377 9.26516 16.3765 9.28263C16.4153 9.3001 16.4574 9.30894 16.5 9.30856H17.9256C17.9799 9.30913 18.0333 9.29394 18.0792 9.2648C18.1251 9.23567 18.1615 9.19385 18.1842 9.14442C18.2068 9.09543 18.2154 9.04114 18.209 8.98756C18.2027 8.93399 18.1816 8.88322 18.1482 8.84087M15.8524 4.95538C15.8596 5.03597 15.8494 5.11717 15.8225 5.19349C15.7957 5.26982 15.7528 5.3395 15.6968 5.39787C15.6408 5.45624 15.5729 5.50194 15.4977 5.53189C15.4226 5.56183 15.3419 5.57533 15.2611 5.57148H14.6787V4.33928H15.2611C15.342 4.33506 15.4228 4.34831 15.4982 4.37812C15.5735 4.40794 15.6415 4.45363 15.6976 4.51208C15.7538 4.57054 15.7966 4.64038 15.8233 4.71687C15.85 4.79337 15.86 4.87471 15.8524 4.95538Z" fill="white"/>
<path d="M24.8017 8.26524C24.6873 8.25637 24.5801 8.20599 24.5003 8.12358C24.4595 8.08271 24.4274 8.03388 24.4061 7.98012C24.3848 7.92636 24.3748 7.86881 24.3767 7.81103V4.19537C24.3769 4.13364 24.3891 4.07254 24.4127 4.01549C24.4361 3.96147 24.4688 3.91201 24.5093 3.86934C24.5512 3.82613 24.6018 3.79239 24.6578 3.7704C24.7146 3.74618 24.7758 3.73393 24.8376 3.73442H27.2188C27.2807 3.73353 27.342 3.7458 27.3987 3.7704C27.4534 3.79245 27.5025 3.82623 27.5426 3.86934C27.5825 3.9121 27.6145 3.96157 27.6371 4.01549C27.6608 4.07211 27.6729 4.13287 27.6729 4.19424C27.6729 4.25562 27.6608 4.31639 27.6371 4.37301C27.6145 4.42693 27.5825 4.4764 27.5426 4.51916C27.5025 4.56227 27.4534 4.59605 27.3987 4.6181C27.342 4.6427 27.2807 4.65497 27.2188 4.65408H25.2986V5.47479H26.8276C26.8886 5.47226 26.9494 5.4838 27.0052 5.50852C27.0602 5.53219 27.1099 5.56659 27.1514 5.60971C27.1946 5.65236 27.2284 5.70371 27.2503 5.76036C27.2745 5.818 27.2868 5.87997 27.2863 5.94249C27.2872 6.0036 27.2749 6.06418 27.2503 6.12012C27.2271 6.17409 27.1934 6.22299 27.1514 6.26403C27.1096 6.3051 27.0599 6.33723 27.0052 6.35846C26.9488 6.3811 26.8884 6.39256 26.8276 6.3922H25.2986V7.34333H27.2188C27.2794 7.34356 27.3393 7.35603 27.395 7.37998C27.4506 7.40394 27.5008 7.43889 27.5426 7.48274C27.5825 7.52631 27.6145 7.57654 27.6371 7.63115C27.6604 7.68826 27.6726 7.74932 27.673 7.81103C27.6729 7.87276 27.6606 7.93386 27.6371 7.99091C27.6145 8.04414 27.5825 8.09289 27.5426 8.13482C27.5011 8.17848 27.4508 8.21271 27.3949 8.23521C27.339 8.25771 27.279 8.26795 27.2188 8.26524H24.8017Z" fill="#807F7F"/>
<path d="M30.0116 5.34433L31.3112 3.89402C31.3488 3.84813 31.3955 3.8106 31.4484 3.78385C31.4981 3.75829 31.5524 3.74299 31.608 3.73887C31.6636 3.73333 31.7197 3.74024 31.7722 3.7591C31.8283 3.779 31.8796 3.81041 31.9228 3.8513C31.9692 3.89195 32.0067 3.94169 32.033 3.99745C32.0602 4.05095 32.0764 4.10936 32.0806 4.16922C32.0849 4.22907 32.0771 4.28918 32.0578 4.34598C32.0391 4.4053 32.0076 4.45979 31.9656 4.50562L30.6164 6.02113L31.9408 7.50068C31.9832 7.54747 32.0167 7.60157 32.0398 7.66033C32.06 7.71662 32.0706 7.7759 32.0712 7.83571C32.0719 7.8939 32.0597 7.95151 32.0353 8.00435C32.0112 8.05959 31.9751 8.10875 31.9296 8.14826C31.863 8.21007 31.7792 8.25025 31.6893 8.2635C31.5993 8.27675 31.5075 8.26244 31.4259 8.22246C31.3714 8.19519 31.3226 8.1578 31.282 8.11229L30.0116 6.6957L28.7524 8.11229C28.711 8.15787 28.6614 8.19524 28.6062 8.22246C28.5522 8.24682 28.4944 8.26202 28.4354 8.26744C28.3766 8.26931 28.3181 8.26093 28.2622 8.24269C28.2043 8.2221 28.151 8.19024 28.1055 8.14894C28.0599 8.10765 28.023 8.05774 27.9969 8.0021C27.9747 7.94941 27.9633 7.89286 27.9632 7.83571C27.9624 7.7115 28.009 7.59169 28.0936 7.50068L29.4135 6.02113L28.0643 4.50562C28.0223 4.45979 27.9908 4.4053 27.9722 4.34598C27.9525 4.28896 27.9448 4.22847 27.9497 4.16834C27.9545 4.10891 27.9706 4.05094 27.9969 3.99745C28.0232 3.94169 28.0607 3.89195 28.1071 3.8513C28.1508 3.80986 28.2029 3.7784 28.26 3.7591C28.3125 3.74009 28.3686 3.73318 28.4241 3.73887C28.4798 3.74299 28.5341 3.75829 28.5838 3.78385C28.6377 3.81103 28.6858 3.84845 28.7254 3.89402L30.0116 5.34433Z" fill="#807F7F"/>
<path d="M34.3063 3.73445C34.5381 3.73227 34.7678 3.77822 34.9809 3.86937C35.3925 4.0435 35.7212 4.36969 35.8983 4.78003C35.9895 4.99313 36.0354 5.22282 36.0332 5.45459C36.0361 5.68642 35.9901 5.91625 35.8983 6.12915C35.8103 6.33177 35.6844 6.5157 35.5273 6.67104C35.3696 6.82566 35.1843 6.94923 34.9809 7.03531C34.7678 7.12646 34.5381 7.17241 34.3063 7.17023H33.4744V7.82455C33.4749 7.88613 33.4635 7.94722 33.4407 8.00443C33.4164 8.05842 33.3821 8.10727 33.3395 8.14834C33.2967 8.18821 33.2472 8.22018 33.1933 8.24277C33.1374 8.2674 33.0768 8.27968 33.0157 8.27876C32.9538 8.27965 32.8925 8.26738 32.8358 8.24277C32.7822 8.21962 32.7328 8.18771 32.6896 8.14834C32.647 8.10778 32.6133 8.05876 32.5907 8.00443C32.5661 7.94769 32.5538 7.88638 32.5547 7.82455V4.1954C32.5538 4.13356 32.5661 4.07225 32.5907 4.01552C32.6133 3.96051 32.647 3.91076 32.6896 3.86937C32.7314 3.82706 32.781 3.79343 32.8358 3.77043C32.8925 3.74583 32.9538 3.73356 33.0157 3.73445H34.3063ZM33.4744 4.65411V6.22809H34.3243C34.429 6.22793 34.5324 6.2057 34.6279 6.16287C34.7213 6.12157 34.8061 6.06281 34.8775 5.98974C34.9499 5.91775 35.0085 5.83316 35.0506 5.74014C35.093 5.64618 35.1145 5.54416 35.1136 5.4411C35.1136 5.33715 35.0914 5.2344 35.0484 5.13979C35.0057 5.04578 34.9471 4.95983 34.8752 4.8857C34.8023 4.81282 34.717 4.75344 34.6234 4.71032C34.5294 4.66772 34.4275 4.64549 34.3243 4.64511L33.4744 4.65411Z" fill="#807F7F"/>
<path d="M38.6865 3.70298C38.894 3.70176 39.1006 3.72976 39.3003 3.78617C39.492 3.8374 39.6764 3.91297 39.849 4.01103C40.0207 4.10881 40.1781 4.22988 40.3167 4.3708C40.457 4.50956 40.5787 4.66603 40.6787 4.83625C40.7758 5.01005 40.8513 5.19505 40.9035 5.38715C40.9587 5.58633 40.9867 5.79206 40.9867 5.99874C40.9893 6.30796 40.9272 6.6143 40.8046 6.89816C40.6866 7.17096 40.518 7.41893 40.3077 7.62893C40.0976 7.83915 39.8487 8.00641 39.5746 8.12137C39.2902 8.24221 38.9843 8.3045 38.6752 8.3045C38.3662 8.3045 38.0603 8.24221 37.7758 8.12137C37.5031 8.00636 37.2557 7.83906 37.0473 7.62893C36.8397 7.41854 36.6741 7.17052 36.5593 6.89816C36.439 6.61373 36.3785 6.30757 36.3817 5.99874C36.3803 5.79226 36.4068 5.58654 36.4604 5.38715C36.5126 5.19503 36.5881 5.01002 36.6853 4.83625C36.8837 4.49543 37.1663 4.21128 37.506 4.01103C37.6785 3.91297 37.8629 3.8374 38.0546 3.78617C38.2601 3.728 38.4729 3.69998 38.6865 3.70298ZM38.6865 4.62264C38.5016 4.62091 38.3184 4.65847 38.1491 4.73281C37.9847 4.80182 37.8357 4.9027 37.7106 5.02962C37.5868 5.15634 37.4876 5.30504 37.4183 5.46809C37.3459 5.63795 37.3092 5.82086 37.3104 6.00549C37.3083 6.37312 37.4523 6.72654 37.7106 6.98811C37.8391 7.11541 37.9914 7.2161 38.1589 7.28439C38.3263 7.35269 38.5056 7.38725 38.6865 7.38609C39.0531 7.38863 39.4057 7.24549 39.6668 6.98811C39.793 6.8624 39.8938 6.71352 39.9636 6.54964C40.0354 6.37721 40.072 6.19224 40.0716 6.00549C40.0716 5.82097 40.0349 5.63828 39.9636 5.46809C39.8927 5.30483 39.792 5.15616 39.6668 5.02962C39.5378 4.9022 39.385 4.80136 39.2171 4.73281C39.0511 4.6605 38.872 4.62301 38.691 4.62264H38.6865Z" fill="#807F7F"/>
</g>
<defs>
<clipPath id="clip0_25_6238">
<rect width="41.0201" height="17.8287" fill="white" transform="translate(0.852539 0.0333252)"/>
</clipPath>
</defs>
</svg>
