<svg width="79" height="80" viewBox="0 0 79 80" fill="none" xmlns="http://www.w3.org/2000/svg">
<path d="M56.398 27.3206C56.3792 27.3206 56.778 25.3373 54.6335 25.3373C54.171 25.3373 55.8595 24.225 29.6869 41.2975C29.4813 41.4316 29.3243 41.6297 29.2397 41.8618C29.1552 42.0939 29.1476 42.3474 29.218 42.5843L32.6249 54.0319C32.975 55.2077 34.7028 55.0759 34.8291 53.8186L35.5155 46.9852C57.8178 26.4142 56.2987 27.8299 56.398 27.3206V27.3206ZM33.6749 45.594C33.4699 45.7833 33.341 46.0421 33.3128 46.3213C33.2847 46.6004 33.1552 47.8917 33.1552 47.8917L31.6245 42.7489C39.9301 37.3316 45.419 33.7607 48.9893 31.4454C45.8354 34.3686 40.9934 38.844 33.6749 45.594Z" fill="white"/>
<path d="M62.3674 18.1202C62.0286 18.1202 63.3781 17.5433 16.0571 35.6207C15.5113 35.8174 15.0408 36.1831 14.7126 36.6656C14.3843 37.1482 14.2151 37.723 14.2289 38.3084C14.2428 38.8937 14.439 39.4597 14.7896 39.9259C15.1403 40.392 15.6275 40.7346 16.182 40.9047L26.726 44.2625L31.0229 57.4934C31.1757 57.9594 31.4431 58.3785 31.8 58.7115C32.1569 59.0445 32.5917 59.2805 33.0636 59.3973C33.5354 59.514 34.0289 59.5078 34.4977 59.3792C34.9666 59.2506 35.3954 59.0037 35.744 58.6619L41.338 53.2958L41.5535 53.4557L42.8836 51.6124L41.9133 50.8927C41.6993 50.7359 41.438 50.6593 41.1743 50.6761C40.9105 50.693 40.6608 50.8021 40.4681 50.9848L34.2027 56.9951C33.9677 57.2135 33.4031 57.3878 33.1602 56.7582L28.6905 42.9951C28.6346 42.823 28.5389 42.6668 28.4114 42.5395C28.2839 42.4121 28.1282 42.3173 27.9572 42.2628L16.874 38.7333C16.4338 38.5773 16.2817 37.9847 16.872 37.7482C51.3696 24.5699 60.914 20.9735 62.448 20.4325C62.5635 20.4639 62.6655 20.5332 62.7379 20.6295C62.8103 20.7258 62.849 20.8436 62.8481 20.9645C62.7245 22.1662 58.1943 44.0971 55.1834 58.5266C54.7939 60.2521 53.3244 59.3575 53.2529 59.3041L44.1014 52.5157L42.767 54.3557L51.906 61.1349C53.4132 62.3036 56.6399 62.334 57.3885 59.0155C58.6628 52.909 65.0233 22.3834 65.1001 21.1231C65.2275 19.0439 63.3372 18.1202 62.3674 18.1202V18.1202Z" fill="white"/>
<path d="M69.3124 11.5806L70.8838 9.9411C70.3636 9.39109 69.8232 8.8612 69.2627 8.35144L67.6929 9.99262C68.2544 10.4994 68.7943 11.0288 69.3124 11.5806V11.5806Z" fill="white"/>
<path d="M71.9947 11.1783L70.2262 12.5967C74.4304 17.5123 76.7433 23.7925 76.7423 30.2892V49.6814C76.7423 64.7629 64.4635 77.0325 49.3707 77.0325H29.9725C24.9772 77.04 20.0748 75.6695 15.7938 73.0687C11.5128 70.4678 8.01574 66.7354 5.67984 62.274L3.72937 63.4251C6.26501 68.2303 10.0471 72.2478 14.6702 75.0468C19.2932 77.8458 24.583 79.3208 29.9725 79.3136H49.3708C65.7083 79.3136 79 66.0206 79 49.6814V30.2893C79.0015 23.2776 76.5162 16.4974 71.9947 11.1783V11.1783Z" fill="white"/>
<path d="M2.59825 49.6814V30.2892C2.59825 15.2078 14.8772 2.9382 29.97 2.9382H49.3683C55.6639 2.92821 61.7712 5.10671 66.6653 9.10807L68.0075 7.27344C62.7246 2.98171 56.1469 0.646781 49.3683 0.657016H29.97C13.6323 0.657016 0.34059 13.95 0.34059 30.2892V49.6814C0.336504 53.9093 1.24096 58.0877 2.99146 61.9279L5.0798 61.0549C3.44167 57.4919 2.59469 53.61 2.59825 49.6814V49.6814Z" fill="white"/>
</svg>
